<!-- Generator: Adobe Illustrator 20.1.0, SVG Export Plug-In  -->
<svg version="1.1"
	 xmlns="http://www.w3.org/2000/svg" xmlns:xlink="http://www.w3.org/1999/xlink" xmlns:a="http://ns.adobe.com/AdobeSVGViewerExtensions/3.0/"
	 x="0px" y="0px" width="31.359px" height="95.187px" viewBox="0 0 31.359 95.187"
	 style="enable-background:new 0 0 31.359 95.187;" xml:space="preserve">
<style type="text/css">
	.st0{fill:#010101;stroke:#000000;stroke-miterlimit:10;}
</style>
<defs>
</defs>
<path class="st0" d="M29.066,82.106c-0.325-1.468-0.252-2.991-0.169-4.492c0.643-11.59,1.84-23.181,1.368-34.779
	c-0.085-2.077-0.685-4.701-2.736-5.042c-3.231-0.537-5.074-4.914-3.201-7.601c0.94-1.348,0.767-3.202,0.152-4.726
	c-0.615-1.524-1.614-2.865-2.294-4.362c-2.777-6.116,0.223-13.191,0.126-19.908c-0.002-0.132-0.006-0.269-0.066-0.387
	c-0.163-0.323-0.613-0.331-0.973-0.292l-7.845,0.84c-0.757,0.081-1.757,0.464-1.615,1.212c1.136,5.984,2.252,12.299,0.245,18.049
	c-1.066,3.054-2.983,6.396-1.501,9.272c0.84,1.631,0.392,3.708-0.721,5.167c-1.114,1.459-2.782,2.391-4.483,3.079
	c-2.859,1.156-3.324,4.939-3.342,8.024C1.94,58.156,1.869,70.154,1.798,82.151c-0.018,3.003-0.051,6.087-1.163,8.877
	c-0.486,1.219,0.407,2.637,1.595,3.197c1.188,0.56,2.563,0.489,3.873,0.407c5.678-0.357,11.357-0.714,17.035-1.071
	c2.889-0.182,6.371-0.771,7.43-3.465C31.582,87.519,29.664,84.81,29.066,82.106z M13.042,4.55C13,4.033,12.958,3.515,12.916,2.997
	c-0.014-0.166-0.023-0.349,0.075-0.484c0.114-0.158,0.331-0.195,0.524-0.218l6.81-0.827c0.308-0.037,0.69-0.04,0.844,0.229
	c0.063,0.11,0.07,0.243,0.075,0.37c0.038,0.921,0.076,1.843,0.114,2.764c0.004,0.087,0.004,0.183-0.053,0.249
	c-0.062,0.072-0.168,0.08-0.262,0.084l-7.087,0.277c-0.207,0.008-0.43,0.012-0.602-0.104C13.112,5.173,13.066,4.842,13.042,4.55z
	 M27.601,91.732c-0.456,0.409-1.011,0.679-1.668,0.724c-6.471,0.452-12.942,0.903-19.413,1.355
	c-1.188,0.083-2.434,0.156-3.516-0.341c-1.082-0.497-1.907-1.77-1.485-2.883c1.127-2.978,1.186-6.238,1.23-9.422
	c0.148-10.553,0.296-21.108,0.042-31.659c-0.061-2.521-0.089-5.227,1.05-7.418c0.066-0.783,0.304-1.494,0.768-2.124
	c-0.062,0.001-0.125,0.003-0.187-0.009c0.28-0.458,0.719-0.817,1.224-1.001l0.142-0.001c0.958-0.89,2.18-1.445,3.64-1.43
	c0.746-1.183,1.458-2.388,2.083-3.639c0.49-0.982,0.925-2.228,0.269-3.108c-1.728-2.319-0.317-5.542,0.695-8.251
	c1.833-4.904,2.15-10.363,0.896-15.446c-0.124-0.502,0.582-0.755,1.099-0.777c1.697-0.071,3.394-0.143,5.091-0.214
	c0.771-0.032,1.882,0.358,1.611,1.081c-1.823,4.877-1.625,10.476,0.54,15.212c0.657,1.438,1.491,2.811,1.891,4.341
	c0.4,1.53,0.285,3.313-0.782,4.479c-0.974,1.065-0.327,2.757,0.359,4.027c0.969,1.793,2.196,3.78,4.203,4.135
	c1.608,0.284,2.002,2.381,2.017,4.014c0.106,12.241-0.429,24.488-1.602,36.674c-0.167,1.736,0.415,3.417,0.863,5.12
	c0.092,0.085,0.184,0.171,0.254,0.301c0.441,0.808,0.869,1.715,1.058,2.647l0.026-0.017c0.029,0.148,0.031,0.3,0.022,0.451
	c0.021,0.179,0.055,0.357,0.054,0.536C30.069,90.639,29.045,91.536,27.601,91.732z"/>
<path class="st0" d="M27.473,55.052c-0.137-0.647-0.338-1.347-0.885-1.719c-0.346-0.235-0.777-0.298-1.192-0.351
	c-5.045-0.65-10.155-0.798-15.229-0.443c-0.888,0.062-1.803,0.148-2.589,0.565c-2.264,1.202-2.384,4.34-2.245,6.9
	c0.483,8.869,0.439,17.766-0.131,26.63c-0.068,1.054-0.105,2.23,0.587,3.028c0.718,0.828,1.944,0.933,3.039,0.963
	c3.946,0.109,7.897,0.02,11.833-0.267c1.36-0.099,2.762-0.234,3.963-0.88c1.201-0.646,2.161-1.935,2.005-3.29
	C25.438,75.834,29.628,65.25,27.473,55.052z M23.714,88.998c-1.18,0.545-2.524,0.577-3.824,0.6c-3.387,0.06-6.774,0.12-10.16,0.18
	c-1.043,0.018-2.18,0.007-2.997-0.643c-0.541-0.43-0.759-1.238-0.568-1.855c-0.151-0.53-0.119-1.096,0.015-1.637
	c-0.044-0.238-0.048-0.495-0.023-0.733C7.132,75.4,5.839,65.786,6.5,56.248c0.046-0.661,0.121-1.371,0.559-1.868
	c0.503-0.571,1.332-0.694,2.089-0.769c5.114-0.505,10.283-0.45,15.385,0.162c0.464,0.056,0.945,0.122,1.335,0.378
	c0.7,0.459,0.909,1.376,1.025,2.204c1.374,9.806-2.205,19.757-1.156,29.603C25.875,87.251,24.895,88.454,23.714,88.998z"/>
<path class="st0" d="M24.361,43.686c0.963,1.515,1.863,3.116,2.2,4.879c0.19,0.993-0.128,2.385-1.139,2.387
	c-5.795,0.014-11.591,0.029-17.386,0.043c-0.585,0.001-1.305-0.081-1.527-0.623c-0.126-0.309-0.033-0.659,0.067-0.977
	c1.062-3.378,2.932-6.66,5.925-8.553c2.993-1.892,7.256-2.036,9.887,0.335C23.18,41.893,23.788,42.786,24.361,43.686 M21.778,41.972
	c-0.747-0.719-1.603-1.366-2.6-1.652c-1.067-0.306-2.215-0.173-3.286,0.12c-4.168,1.141-7.511,4.861-8.202,9.127
	c-0.024,0.149-0.031,0.331,0.093,0.416c0.066,0.044,0.15,0.047,0.229,0.047c5.373,0.037,10.745,0.074,16.118,0.111
	c0.614,0.004,1.355-0.064,1.635-0.611C25.286,46.673,23.866,43.982,21.778,41.972z"/>
</svg>