<!-- Generator: Adobe Illustrator 20.1.0, SVG Export Plug-In  -->
<svg version="1.1"
	 xmlns="http://www.w3.org/2000/svg" xmlns:xlink="http://www.w3.org/1999/xlink" xmlns:a="http://ns.adobe.com/AdobeSVGViewerExtensions/3.0/"
	 x="0px" y="0px" width="77.735px" height="82.917px" viewBox="0 0 77.735 82.917"
	 style="enable-background:new 0 0 77.735 82.917;" xml:space="preserve">
<style type="text/css">
	.st0{fill:#010101;}
</style>
<defs>
</defs>
<g id="Snooze_2_1_">
	<path class="st0" d="M41.42,23.007C29.382,28.059,17.45,33.364,5.636,38.918c-1.012,0.476-1.879-0.871-2.196-1.943
		c-1.107-3.737-2.214-7.474-3.321-11.212c-0.261-0.883-0.13-2.282,0.785-2.176c3.51,0.407,6.78-1.593,9.933-3.189
		c2.14-1.083,4.356-2.007,6.569-2.93c2.934-1.223,5.867-2.446,8.801-3.67c2.644-1.103,5.289-2.205,7.933-3.308
		c7.833-3.266,15.666-6.532,23.499-9.798c1.612-0.672,3.781-1.216,4.852,0.164c0.711,0.917,0.506,2.225,0.207,3.346
		c-0.346,1.297-0.77,2.572-1.27,3.817c-0.991,2.468-2.276,4.805-3.571,7.127c-9.497,17.025-19.776,33.6-30.05,50.167
		c-0.447,0.721,0.254,1.71,1.086,1.873c0.833,0.164,1.665-0.216,2.429-0.585c13.382-6.465,26.764-12.93,40.146-19.395
		c0.933-0.451,2.019-0.907,2.965-0.484c0.971,0.433,1.347,1.59,1.618,2.618c0.463,1.755,0.927,3.51,1.39,5.264
		c0.3,1.136,0.556,2.484-0.213,3.373c-0.589,0.68-1.565,0.825-2.443,1.02c-2.153,0.479-4.139,1.505-6.109,2.498
		c-17.898,9.023-36.725,16.2-56.088,21.379c-0.85,0.227-1.705-0.558-1.876-1.421c-0.171-0.863,0.145-1.742,0.482-2.555
		c3.931-9.475,11.342-17.134,15.658-26.44c1.229-2.649,2.198-5.415,3.474-8.041c3.672-7.559,9.819-13.844,12.593-21.777
		C42.4,22.602,41.899,22.806,41.42,23.007 M32.351,47.356C27.8,58.35,20.015,67.695,14.703,78.342
		c-0.212,0.425-0.373,1.041,0.03,1.292c0.234,0.145,0.536,0.07,0.8-0.01c3.706-1.122,7.411-2.244,11.093-3.444
		c15.757-5.133,31.055-11.676,45.651-19.525c0.447-0.24,0.898-0.485,1.273-0.828c1.092-0.999,1.304-2.823,0.47-4.047
		c-0.835-1.223-2.61-1.691-3.939-1.038c-4.151,2.039-8.301,4.077-12.452,6.116C47.25,61.956,36.851,67.062,26.02,71.107
		c-1.091,0.407-2.793,0.469-2.936-0.687c-0.045-0.362,0.114-0.714,0.27-1.044c10.07-21.262,25.054-39.965,34.509-61.508
		c0.599-1.365,1.188-2.843,0.908-4.307C53.7,5.514,48.68,7.597,43.66,9.679c-7.793,3.233-15.586,6.465-23.378,9.698
		c-3.122,1.295-6.245,2.591-9.346,3.936c-2.398,0.854-4.714,1.938-6.906,3.233c0.598,2.31,1.196,4.62,1.794,6.931
		c0.13,0.503,0.298,1.058,0.746,1.321c0.525,0.308,1.189,0.082,1.752-0.15c11.622-4.781,23.285-9.582,34.149-15.899
		c2.135-1.242,4.812-2.554,6.919-1.266c0.3,0.183,0.599,0.551,0.413,0.849c-4.172,6.682-8.343,13.365-12.515,20.047
		C35.478,41.279,33.658,44.196,32.351,47.356z"/>
</g>
</svg>