<!-- Generator: Adobe Illustrator 20.1.0, SVG Export Plug-In  -->
<svg version="1.1"
	 xmlns="http://www.w3.org/2000/svg" xmlns:xlink="http://www.w3.org/1999/xlink" xmlns:a="http://ns.adobe.com/AdobeSVGViewerExtensions/3.0/"
	 x="0px" y="0px" width="61.595px" height="37.096px" viewBox="0 0 61.595 37.096"
	 style="enable-background:new 0 0 61.595 37.096;" xml:space="preserve">
<style type="text/css">
	.st0{fill:#010101;stroke:#000000;stroke-width:0.5;stroke-miterlimit:10;}
</style>
<defs>
</defs>
<path class="st0" d="M2.634,4.534c0.86-0.653,2.073,0.023,2.903,0.715c1.754,1.464,3.392,3.067,4.892,4.789
	c0.503,0.577,1.005,1.195,1.192,1.938c0.187,0.743-0.034,1.643-0.702,2.018c1.281,0.386,2.562,0.772,3.843,1.158
	c-1.337,2.565-3.175,4.867-5.381,6.737c0.563,1.09,2.194,0.667,3.301,0.139c1.107-0.528,2.832-0.767,3.199,0.403
	c0.198,0.629-0.187,1.277-0.527,1.842c-1.256,2.093-2.099,4.434-2.465,6.848c-0.134,0.885-0.432,2.017-1.324,2.094
	c-1.13,0.097-1.43-1.547-1.173-2.652c0.27-1.158,0.668-2.285,1.184-3.356c0.234-0.484,0.499-0.99,0.459-1.526
	c-0.04-0.536-0.542-1.076-1.059-0.929C9.532,25.16,8.063,25.48,6.58,25.708c-0.773,0.119-1.619,0.199-2.287-0.207
	c-0.668-0.407-0.936-1.502-0.302-1.96c2.461-1.779,4.656-3.926,6.488-6.347c-2.438-0.878-5.025-1.341-7.616-1.362
	C1.835,15.822,0.5,15.66,0.279,14.657c-0.258-1.167,1.287-1.821,2.47-1.994c0.945-0.138,1.89-0.276,2.835-0.414
	c1.154-0.168,1.248-1.947,0.465-2.811S4.057,8.237,3.14,7.517C2.223,6.796,1.705,5.239,2.634,4.534 M9.845,13.351
	c-0.264,0.119-0.305,0.547-0.069,0.714c0.236,0.167,0.626-0.014,0.65-0.303c-0.1-0.214-0.331-0.36-0.568-0.358L9.845,13.351z"/>
<path class="st0" d="M43.71,36.832c-0.892-0.159-1.074-1.345-1.039-2.251c0.192-5.006,0.526-10.006,1.001-14.993
	c0.103-1.085,0.565-2.493,1.652-2.433c0.608,0.033,1.084,0.59,1.23,1.182c0.146,0.591,0.039,1.212-0.063,1.813
	c-0.794,4.693-1.204,9.451-1.224,14.211c-0.002,0.559-0.004,1.138-0.237,1.646C44.798,36.514,44.26,36.93,43.71,36.832z"/>
<path class="st0" d="M60.909,16.642c0.39,0.632,0.471,1.409,0.424,2.15c-0.133,2.111-1.423,4.253-3.45,4.858
	c-2.027,0.605-4.561-0.889-4.574-3.004c-0.008-1.347,0.908-2.631,0.654-3.954c-0.105-0.548,0.299-1.091,0.802-1.333
	c0.503-0.241,1.082-0.252,1.64-0.257C58.069,15.086,60.035,15.227,60.909,16.642 M56.93,18.152
	c-0.527,0.272-0.965,0.763-1.057,1.348c-0.093,0.585,0.229,1.243,0.791,1.432c0.632,0.212,1.307-0.189,1.775-0.663
	c0.4-0.406,0.75-0.965,0.603-1.516C58.824,17.941,57.676,17.766,56.93,18.152z"/>
<path class="st0" d="M20.424,6.262c-0.498-1.009-0.468-2.198-0.287-3.309c0.123-0.755,0.345-1.556,0.942-2.033
	c0.531-0.425,1.251-0.507,1.928-0.573c1.221-0.119,2.513-0.225,3.618,0.307c1.445,0.695,2.235,2.456,1.943,4.033
	c-0.292,1.577-1.558,2.891-3.079,3.4C23.632,8.709,21.29,8.019,20.424,6.262 M25.747,3.49c-0.355-0.627-1.158-0.962-1.853-0.773
	c-0.695,0.189-1.218,0.885-1.206,1.606c0.02,1.228,1.746,2.015,2.687,1.227C25.954,5.063,26.12,4.149,25.747,3.49L25.747,3.49z"/>
<path class="st0" d="M35.133,18.445c0.583-0.628,1.722-0.178,2.11,0.586s0.293,1.67,0.315,2.526c0.07,2.705,1.383,5.214,1.875,7.874
	c0.13,0.703,0.107,1.604-0.536,1.917c-0.452,0.22-1.019,0.006-1.356-0.368c-0.336-0.374-0.493-0.871-0.635-1.353
	c-0.924-3.137-1.606-6.345-2.037-9.586C34.795,19.488,34.753,18.854,35.133,18.445z"/>
<path class="st0" d="M34.32,29.154c0.069,0.586-0.696,0.981-1.256,0.795c-0.561-0.186-0.926-0.712-1.25-1.205
	c-2.331-3.547-4.661-7.095-6.992-10.642c-0.216-0.329-0.439-0.742-0.262-1.093c0.1-0.198,0.308-0.32,0.521-0.381
	c1.176-0.336,2.179,0.862,2.819,1.904c2.065,3.367,4.13,6.734,6.195,10.101C34.196,28.795,34.298,28.964,34.32,29.154z"/>
</svg>