<!-- Generator: Adobe Illustrator 22.1.0, SVG Export Plug-In  -->
<svg version="1.1"
	 xmlns="http://www.w3.org/2000/svg" xmlns:xlink="http://www.w3.org/1999/xlink" xmlns:a="http://ns.adobe.com/AdobeSVGViewerExtensions/3.0/"
	 x="0px" y="0px" width="151.323px" height="105.397px" viewBox="0 0 151.323 105.397"
	 style="enable-background:new 0 0 151.323 105.397;" xml:space="preserve">
<style type="text/css">
	.st0{fill:#010101;stroke:#000000;stroke-miterlimit:10;}
</style>
<defs>
</defs>
<g>
	<path class="st0" d="M26.725,29.386c1.93-1.346,3.861-2.692,5.791-4.038c4.815-3.358,9.807-6.794,15.558-7.975
		c5.75-1.182,12.511,0.481,15.603,5.472c0.579,0.934,1.843,1.197,2.933,1.052c1.089-0.145,2.118-0.601,3.207-0.752
		c2.775-0.385,5.524,1.329,7.082,3.657s2.13,5.171,2.462,7.952c1.03,8.617,0.064,17.466-2.8,25.658
		c-1.252,3.58-0.161,7.6,1.715,10.896c1.876,3.296,4.487,6.109,6.606,9.254c2.113,3.135,3.766,7.065,2.513,10.632
		c-0.607,1.728-1.834,3.161-3.113,4.471c-5.844,5.987-14.152,10.455-22.379,8.93c-0.985-0.183-2.119-0.606-2.355-1.58
		c-0.72-2.973-3.083-5.23-4.545-7.917c-1.731-3.182-2.159-6.893-3.363-10.309c-2.168-6.15-6.775-11.132-11.736-15.366
		c-4.961-4.233-10.4-7.92-15.008-12.534c-3.421-3.425-4.227-8.596-4.857-13.397c-0.315-2.403-0.621-4.911,0.184-7.196
		C21.292,33.262,24.085,31.227,26.725,29.386 M38.913,64.798c6.523,5.084,11.906,11.621,15.645,18.998
		c0.187,0.37,0.398,0.769,0.776,0.939c0.361,0.162,0.78,0.073,1.163-0.026c7.51-1.937,14.329-6.458,19.037-12.621
		c0.196-0.256,0.395-0.603,0.226-0.878c-1.537-2.508-1.771-5.625-1.387-8.541c0.385-2.916,1.337-5.722,2.027-8.582
		c1.686-6.983,1.796-14.341,0.32-21.371c-0.603-2.87-1.834-6.084-4.621-6.995c-1.029-0.336-2.137-0.299-3.218-0.259
		c-0.691,0.026-1.415,0.061-2.011,0.411c-0.596,0.35-1.004,1.126-0.709,1.752c1.731,3.66,2.842,7.612,3.272,11.637
		c0.109,1.016-0.197,2.447-1.218,2.382c-0.903-2.938-1.807-5.875-2.71-8.813c-1.171-3.807-2.467-7.815-5.447-10.457
		c-3.619-3.209-9.051-3.659-13.711-2.363c-4.66,1.297-8.738,4.088-12.72,6.834c-2.044,1.409-4.088,2.819-6.132,4.228
		c-2.463,1.698-5.137,3.717-5.613,6.67c-0.305,1.891,0.375,3.781,0.726,5.663c0.289,1.55,0.358,3.138,0.707,4.676
		c0.863,3.802,3.384,7.039,6.29,9.639C32.512,60.321,35.838,62.401,38.913,64.798 M59.366,98.402c0.3,0.393,0.628,0.795,1.082,0.991
		c0.568,0.244,1.22,0.12,1.822-0.02c8.396-1.958,16.177-6.474,22.042-12.792c0.511-0.55,0.296-1.431,0.024-2.131
		c-1.275-3.284-3.149-6.335-5.5-8.959c-0.773-0.862-2.199-1.678-2.938-0.787c-5.277,6.367-12.792,10.841-20.904,12.446
		c-0.922,0.182-0.861,1.524-0.53,2.403C55.657,92.721,57.313,95.712,59.366,98.402 M67.476,103.087
		c6.207-0.749,11.747-4.433,16.025-8.992c1.384-1.474,2.742-3.301,2.496-5.308c-0.024-0.196-0.074-0.408-0.232-0.526
		c-0.32-0.242-0.755,0.075-1.03,0.366c-6.199,6.566-14.566,11.051-23.465,12.578C62.578,103.064,65.22,103.359,67.476,103.087z"/>
	<path class="st0" d="M122.251,76.06c-0.659,3.412-1.536,7.174-4.396,9.148c-1.748,1.206-3.954,1.516-6.075,1.615
		c-5.668,0.266-11.391-0.741-16.627-2.927c-2.109-0.88-4.286-2.098-5.219-4.184c-0.742-1.659-0.559-3.569-0.301-5.368
		c0.634-4.421,1.632-8.789,2.982-13.047c0.633-1.997,0.347-4.155,0.055-6.23c-0.993-7.052-1.986-14.103-2.979-21.155
		c-0.705-5.004-1.294-10.543,1.562-14.712c1.311-1.914,3.224-3.32,5.119-4.659c2.218-1.568,4.504-3.12,7.091-3.945
		c2.857-0.912,5.918-0.888,8.917-0.848c5.429,0.073,10.993,0.199,16.047,2.185c5.053,1.986,9.569,6.246,10.291,11.627
		c0.144,1.074,1.104,1.811,1.859,2.588c2.616,2.691,3.191,6.913,2.186,10.528c-1.005,3.615-3.369,6.706-6.004,9.377
		c-2.635,2.672-5.586,5.022-8.147,7.765c-1.865,1.998-3.549,4.26-4.31,6.885c-0.646,2.227-0.595,4.586-0.761,6.898
		C123.334,70.449,122.792,73.259,122.251,76.06 M124.21,45.308c0.08,1.038,0.192,2.163-0.365,3.043
		c-0.557,0.879-2.102,1.135-2.556,0.199c-0.132-0.272-0.145-0.584-0.153-0.886c-0.118-4.491,0.385-8.998,1.49-13.352
		c-6.478,2.714-14.371,1.703-19.955-2.557c-0.788-0.601-1.58-1.732-0.913-2.466c0.749-0.825,2.029,0.13,2.809,0.925
		c3.732,3.801,9.725,4.393,14.954,3.38c1.066-0.207,2.137-0.476,3.075-1.023c2.129-1.241,3.226-3.67,4.936-5.444
		c2.311-2.397,5.863-3.526,9.134-2.902c-0.759-4.875-4.873-8.693-9.461-10.509c-4.588-1.816-9.635-1.99-14.567-2.14
		c-1.421-0.043-2.842-0.087-4.263-0.13c-1.324-0.04-2.678-0.077-3.941,0.323c-1.137,0.36-2.134,1.055-3.112,1.739
		c-1.749,1.224-3.497,2.449-5.246,3.673c-1.041,0.729-2.101,1.476-2.854,2.499c-1.009,1.37-1.374,3.106-1.563,4.797
		c-1.213,10.894,3.819,21.657,3.29,32.606c-0.017,0.356-0.037,0.729,0.115,1.051c0.186,0.392,0.587,0.628,0.969,0.833
		c7.499,4.031,16.448,5.293,24.77,3.491c0.446-0.097,0.969-0.276,1.076-0.719c1.305-5.426,5.758-9.42,9.842-13.223
		c4.084-3.803,8.263-8.267,8.701-13.83c0.176-2.229-0.325-4.572-1.72-6.319c-1.395-1.747-3.764-2.779-5.939-2.261
		c-1.999,0.476-3.508,2.097-4.737,3.744c-1.139,1.527-2.195,3.442-1.598,5.251c0.325,0.983,1.114,1.808,1.217,2.839
		c0.102,1.031-1.256,2.13-1.901,1.32c-0.542-0.68-0.217-2.225-1.081-2.126C124.153,39.823,124,42.579,124.21,45.308 M119.946,74.974
		c0.362-2.677,0.724-5.353,1.087-8.03c0.077-0.571,0.152-1.168-0.046-1.71c-0.198-0.541-0.762-0.995-1.323-0.862
		c-7.996,1.9-16.695,0.663-23.844-3.39c-0.768-0.436-1.468,0.679-1.641,1.545c-0.669,3.35-1.002,6.767-0.993,10.182
		c0.001,0.286,0.007,0.587,0.147,0.837c0.138,0.248,0.387,0.411,0.628,0.56c6.961,4.321,15.705,5.664,23.642,3.629
		c0.602-0.154,1.23-0.346,1.653-0.801C119.735,76.419,119.851,75.673,119.946,74.974 M94.227,80.334
		c6.227,3.816,13.861,5.273,21.055,4.021c1.713-0.298,2.762-2.025,3.394-3.645c0.223-0.572,0.07-1.556-0.513-1.364
		c-8.587,2.827-18.474,1.355-25.866-3.849c-0.769,0.666-0.787,1.913-0.299,2.805C92.488,79.194,93.36,79.803,94.227,80.334z"/>
	<path class="st0" d="M5.88,31.094c-0.257-0.399-0.531-0.802-0.643-1.264c-0.112-0.462-0.023-1.006,0.345-1.306
		c0.369-0.299,1.034-0.199,1.19,0.249c1.36,3.897,3.678,7.378,5.428,11.116c0.169,0.361,0.337,0.746,0.298,1.143
		c-0.039,0.397-0.364,0.794-0.761,0.765c-0.38-0.028-0.628-0.401-0.811-0.736C9.147,37.788,7.898,34.227,5.88,31.094z"/>
	<path class="st0" d="M9.415,45.024c0.005,0.446-0.499,0.753-0.944,0.725c-0.445-0.028-0.838-0.282-1.227-0.501
		c-0.84-0.473-1.755-0.811-2.7-0.998c-1.261-0.249-2.674-0.275-3.622-1.143c-0.47-0.431-0.638-1.392-0.024-1.566
		c0.17-0.048,0.352-0.012,0.525,0.026c2.486,0.549,4.904,1.41,7.178,2.556C8.981,44.316,9.411,44.597,9.415,45.024z"/>
	<path class="st0" d="M150.688,9.412c0.244,0.313,0.131,0.794-0.14,1.084c-0.271,0.29-0.657,0.438-1.025,0.585
		c-1.831,0.731-3.576,1.676-5.189,2.81c-0.431,0.303-1.06,0.61-1.426,0.231c-0.231-0.238-0.194-0.644-0.008-0.919
		c0.186-0.275,0.484-0.449,0.771-0.614c1.325-0.76,2.651-1.521,3.976-2.281c0.47-0.269,0.939-0.539,1.409-0.808
		C149.575,9.202,150.321,8.942,150.688,9.412z"/>
	<path class="st0" d="M4.635,38.33c0.429-0.269,0.978,0.02,1.398,0.303c1.094,0.737,2.187,1.473,3.281,2.21
		c0.424,0.286,0.904,0.705,0.783,1.202c-0.095,0.389-0.549,0.6-0.947,0.561c-0.399-0.039-0.752-0.263-1.088-0.481
		c-0.889-0.576-1.779-1.153-2.668-1.729c-0.37-0.24-0.755-0.495-0.963-0.883C4.221,39.124,4.261,38.564,4.635,38.33z"/>
	<path class="st0" d="M142.727,0.734c0.182,0.26,0.104,0.615,0.018,0.921c-0.312,1.114-0.623,2.229-0.935,3.343
		c-0.273,0.975-0.582,2.01-1.353,2.668c-0.576-0.212-0.535-1.031-0.386-1.626c0.352-1.402,0.704-2.805,1.055-4.207
		c0.1-0.399,0.213-0.82,0.513-1.102C141.94,0.449,142.491,0.397,142.727,0.734z"/>
	<path class="st0" d="M147.21,4.237c-0.055,0.148-0.167,0.266-0.276,0.379c-1.093,1.14-2.185,2.28-3.278,3.42
		c-0.273,0.285-0.633,0.596-1.013,0.489c-0.391-0.11-0.534-0.63-0.392-1.011c0.142-0.381,0.474-0.653,0.784-0.916
		c0.65-0.552,1.269-1.15,1.751-1.854c0.347-0.508,0.66-1.102,1.228-1.337C146.582,3.171,147.424,3.66,147.21,4.237z"/>
</g>
</svg>