<!-- Generator: Adobe Illustrator 20.1.0, SVG Export Plug-In  -->
<svg version="1.1"
	 xmlns="http://www.w3.org/2000/svg" xmlns:xlink="http://www.w3.org/1999/xlink" xmlns:a="http://ns.adobe.com/AdobeSVGViewerExtensions/3.0/"
	 x="0px" y="0px" width="114.781px" height="73.153px" viewBox="0 0 114.781 73.153"
	 style="enable-background:new 0 0 114.781 73.153;" xml:space="preserve">
<style type="text/css">
	.st0{clip-path:url(#SVGID_2_);fill:none;}
	.st1{clip-path:url(#SVGID_2_);}
	.st2{clip-path:url(#SVGID_4_);fill:none;}
	.st3{clip-path:url(#SVGID_4_);}
</style>
<defs>
</defs>
<g>
	<defs>
		<rect id="SVGID_1_" x="0" y="0" width="114.781" height="73.153"/>
	</defs>
	<clipPath id="SVGID_2_">
		<use xlink:href="#SVGID_1_"  style="overflow:visible;"/>
	</clipPath>
	<path class="st0" d="M97.614,42.778c-0.811,0.503-1.658,0.648-2.541,0.433c-0.884-0.214-1.547-0.739-1.989-1.577
		c-0.444-0.836-0.547-1.727-0.307-2.671c1.861-6.984,3.916-13.103,6.168-18.355C88.391,30.46,77.326,39.051,65.754,46.382
		C54.18,53.714,41.462,60.27,27.6,66.055l-7.894,3.236c-1.552,0.59-3.962,1.302-7.23,2.139c-3.267,0.835-6.21,1.302-8.83,1.4
		c-0.968,0.049-1.768-0.265-2.399-0.944c-0.63-0.68-0.94-1.51-0.927-2.491c0.012-0.981,0.353-1.819,1.021-2.514
		c0.669-0.695,1.447-1.045,2.332-1.048c2.268-0.067,4.784-0.471,7.544-1.216c2.761-0.744,4.919-1.411,6.471-2.001
		c1.099-0.445,3.689-1.501,7.77-3.168c13.862-5.784,26.331-12.203,37.406-19.259c11.262-7.213,22.036-15.643,32.32-25.291
		c-5.687,1.364-11.635,1.547-17.847,0.55c-0.906-0.148-1.622-0.618-2.146-1.409c-0.527-0.79-0.702-1.668-0.524-2.633
		c0.176-0.964,0.65-1.74,1.421-2.329c0.769-0.589,1.606-0.809,2.513-0.662c7.96,1.274,15.641,0.267,23.041-3.021
		c1.284-0.603,2.882-1.434,4.792-2.492l0.816-0.939c0.605-0.606,1.218-1.028,1.84-1.263c1.512-0.675,2.87-0.453,4.073,0.666
		c1.263,1.141,1.606,2.602,1.027,4.384c-0.215,0.66-0.635,1.326-1.262,1.998c-0.043,0.133-0.211,0.333-0.502,0.603l-0.314,0.336
		c-0.021,0.066-0.075,0.123-0.157,0.168c-0.74,1.439-2.454,4.932-5.141,10.479c-2.939,5.905-5.483,12.995-7.627,21.274
		C98.947,41.552,98.424,42.275,97.614,42.778"/>
	<path class="st1" d="M97.614,42.778c-0.811,0.503-1.658,0.648-2.541,0.433c-0.884-0.214-1.547-0.739-1.989-1.577
		c-0.444-0.836-0.547-1.727-0.307-2.671c1.861-6.984,3.916-13.103,6.168-18.355C88.391,30.46,77.326,39.051,65.754,46.382
		C54.18,53.714,41.462,60.27,27.6,66.055l-7.894,3.236c-1.552,0.59-3.962,1.302-7.23,2.139c-3.267,0.835-6.21,1.302-8.83,1.4
		c-0.968,0.049-1.768-0.265-2.399-0.944c-0.63-0.68-0.94-1.51-0.927-2.491c0.012-0.981,0.353-1.819,1.021-2.514
		c0.669-0.695,1.447-1.045,2.332-1.048c2.268-0.067,4.784-0.471,7.544-1.216c2.761-0.744,4.919-1.411,6.471-2.001
		c1.099-0.445,3.689-1.501,7.77-3.168c13.862-5.784,26.331-12.203,37.406-19.259c11.262-7.213,22.036-15.643,32.32-25.291
		c-5.687,1.364-11.635,1.547-17.847,0.55c-0.906-0.148-1.622-0.618-2.146-1.409c-0.527-0.79-0.702-1.668-0.524-2.633
		c0.176-0.964,0.65-1.74,1.421-2.329c0.769-0.589,1.606-0.809,2.513-0.662c7.96,1.274,15.641,0.267,23.041-3.021
		c1.284-0.603,2.882-1.434,4.792-2.492l0.816-0.939c0.605-0.606,1.218-1.028,1.84-1.263c1.512-0.675,2.87-0.453,4.073,0.666
		c1.263,1.141,1.606,2.602,1.027,4.384c-0.215,0.66-0.635,1.326-1.262,1.998c-0.043,0.133-0.211,0.333-0.502,0.603l-0.314,0.336
		c-0.021,0.066-0.075,0.123-0.157,0.168c-0.74,1.439-2.454,4.932-5.141,10.479c-2.939,5.905-5.483,12.995-7.627,21.274
		C98.947,41.552,98.424,42.275,97.614,42.778z"/>
</g>
</svg>