<!-- Generator: Adobe Illustrator 20.1.0, SVG Export Plug-In  -->
<svg version="1.1"
	 xmlns="http://www.w3.org/2000/svg" xmlns:xlink="http://www.w3.org/1999/xlink" xmlns:a="http://ns.adobe.com/AdobeSVGViewerExtensions/3.0/"
	 x="0px" y="0px" width="133.762px" height="84.701px" viewBox="0 0 133.762 84.701"
	 style="enable-background:new 0 0 133.762 84.701;" xml:space="preserve">
<style type="text/css">
	.st0{fill:#010101;}
</style>
<defs>
</defs>
<g id="Slurred_Speech_1_">
	<path class="st0" d="M87.257,12.972c1.688,1.757,1.769,4.817,0.175,6.659c-1.594,1.843-4.634,2.204-6.615,0.786
		c-0.401-0.287-0.779-0.672-0.85-1.16c-0.079-0.54,0.234-1.05,0.389-1.574c0.486-1.64-0.573-3.283-1.316-4.824
		c-0.743-1.541-1.018-3.752,0.44-4.648c1.326-0.814,2.727-1.653,4.282-1.723s3.275,0.93,3.428,2.479
		C87.324,10.344,86.299,11.975,87.257,12.972 M83.833,14.14c-0.38-0.038-0.815,0.033-1.038,0.343
		c-0.16,0.222-0.174,0.513-0.182,0.786c-0.027,0.9-0.042,1.85,0.395,2.637c0.437,0.787,1.499,1.302,2.268,0.834
		c0.231-0.141,0.412-0.353,0.553-0.584C86.757,16.635,85.606,14.319,83.833,14.14 M82.235,11.963
		c0.877-0.38,1.837-0.843,2.188-1.732c0.351-0.889-0.495-2.159-1.372-1.779c-0.877,0.38-1.837,0.843-2.188,1.732
		C80.512,11.074,81.358,12.344,82.235,11.963z"/>
	<path class="st0" d="M115.398,49.627c1.103,3.053,2.205,6.105,3.308,9.158c0.285,0.79,0.575,1.639,0.372,2.454
		c-0.202,0.816-1.122,1.504-1.882,1.145c-0.988-0.468-0.715-1.93-1.085-2.959c-0.406-1.13-1.772-1.746-2.943-1.481
		c-1.171,0.265-2.089,1.269-2.451,2.414c-0.247,0.78-0.273,1.633-0.648,2.36c-0.375,0.727-1.317,1.278-2.011,0.845
		c-0.793-0.495-0.566-1.691-0.233-2.565c1.391-3.65,2.927-7.245,4.603-10.773c0.473-0.996,1.581-2.161,2.449-1.48
		C115.151,48.958,115.281,49.301,115.398,49.627 M113.903,54.357c-0.638-0.227-1.401,0.423-1.278,1.089
		c0.122,0.666,1.067,1.002,1.582,0.563C114.722,55.57,114.54,54.584,113.903,54.357z"/>
	<path class="st0" d="M125.652,17.249c7.81,12.633,9.421,28.906,4.238,42.825c-2.285,6.137,3.074,12.379,3.83,18.885
		c0.069,0.597,0.088,1.244-0.236,1.75c-0.938,1.463-3.185,0.291-4.408-0.944c-2.591-2.618-5.182-5.235-7.773-7.853
		c-1.39-1.404-3.721-0.169-5.302,1.016c-9.936,7.45-22.205,12.106-34.619,11.753s-24.848-6.05-32.215-16.048
		c-1.3-1.765-2.844-3.866-5.034-3.779c-14.442,0.573-28.581-6.199-42.956-4.692c-0.825,0.087-1.372-0.988-1.112-1.776
		s0.996-1.305,1.686-1.765c2.547-1.697,5.094-3.393,7.642-5.09c1.468-0.978,3.08-2.964,1.832-4.211
		c-4.717-4.712-5.877-12.218-4.067-18.635s6.192-11.84,11.232-16.204C31.855,0.823,52.073-3.996,68.08,3.816
		c4.099,2.001,8.697-1.048,13.028-2.482c5.201-1.722,10.852-1.051,16.287-0.361c5.04,0.639,10.175,1.306,14.775,3.461
		C117.864,7.103,122.345,11.901,125.652,17.249 M80.563,47.893c-0.692-2.09-1.384-4.179-2.077-6.269
		c-3.43,7.643-7.296,15.78-14.572,19.933c-3.683,2.102-7.952,2.978-12.183,3.262c-0.05,2.803,1.696,5.558,4.253,6.708
		c-1.981-1.501-2.387-4.69-0.846-6.639c1.691,7.22,8.001,12.756,15.063,15.019c7.062,2.263,14.754,1.666,21.972-0.034
		c9.475-2.231,18.506-6.329,26.424-11.99c2.028-1.45,4.808,0.386,6.267,2.407s2.839,4.557,5.298,4.967
		c-2.681-4.591-5.439-10.086-3.343-14.972c3.833-8.938,4.448-19.216,1.708-28.547c-2.74-9.331-8.814-17.645-16.87-23.092
		c-0.841-0.568-1.708-1.111-2.443-1.81c-1.073-1.02-2.605-1.357-4.055-1.653c-9.125-1.861-18.919-3.664-27.489-0.021
		c-2.139,0.909-4.456,3.176-3.281,5.181c3.679,6.275,5.841,13.433,6.251,20.695c0.071,1.256,1.527,1.848,2.673,2.366
		c1.146,0.519,2.337,1.86,1.581,2.865c-1.325,1.76-0.395,4.394,1.201,5.913c1.596,1.518,3.714,2.364,5.444,3.728
		c0.384,0.303,0.775,0.686,0.798,1.174c0.063,1.367-2.131,1.112-3.26,0.339c-2.292-1.57-4.584-3.141-6.877-4.711
		c-0.162,2.318,0.402,4.682,1.593,6.677c-0.15,0.805-1.313,1.029-1.993,0.572S80.82,48.67,80.563,47.893 M68.45,7.467
		c-2.631-2.386-6.091-3.666-9.565-4.407C45.479,0.199,31.127,4.894,20.594,13.668c-5.095,4.244-9.551,9.658-11.053,16.117
		s0.575,14.035,6.156,17.617c0.429,0.275,0.908,0.567,1.062,1.053c0.248,0.784-0.477,1.512-1.125,2.018
		c-2.946,2.298-5.892,4.596-8.838,6.894c10.403-1.137,20.681,2.321,31.009,4.006c10.329,1.685,22.162,1.114,29.52-6.328
		c2.246-2.271,3.917-5.045,5.369-7.89c2.774-5.433,4.856-11.398,4.658-17.495c-0.15-4.627-1.605-9.117-3.382-13.392
		C72.629,13.043,71.036,9.813,68.45,7.467 M81.502,39.428c0.873-0.917,1.277-2.258,1.056-3.505c-0.061-0.345-0.188-0.71-0.484-0.897
		c-0.528-0.334-1.221,0.099-1.582,0.609c-0.7,0.989-0.842,2.347-0.361,3.459c0.147,0.34,0.423,0.699,0.792,0.675
		C81.152,39.756,81.343,39.595,81.502,39.428z"/>
	<path class="st0" d="M66.986,65.341c-0.336,2.072-0.067,4.238,0.765,6.166c0.297,0.688,0.71,1.389,1.394,1.693
		c1.174,0.522,2.576-0.446,2.997-1.66c0.421-1.214,0.146-2.546-0.133-3.8c-0.336-1.513-0.672-3.026-1.007-4.539
		c-0.127-0.57-0.253-1.165-0.11-1.731c0.143-0.566,0.646-1.087,1.228-1.043c0.698,0.053,1.09,0.809,1.335,1.465
		c0.828,2.217,1.514,4.53,1.508,6.896c-0.006,2.366-0.78,4.812-2.504,6.433c-1.828,1.719-5.076,0.76-6.494-1.311
		c-1.418-2.071-1.463-4.77-1.252-7.27c0.06-0.708,0.179-1.496,0.741-1.931C66.017,64.274,67.1,64.64,66.986,65.341z"/>
	<path class="st0" d="M79.11,65.785c-0.601-3.345-1.202-6.69-1.803-10.035c-0.211-1.173-0.302-2.643,0.702-3.286
		c2.117-1.356,5.181-0.598,6.742,1.372s1.71,4.83,0.749,7.153c-0.961,2.323-2.894,4.143-5.071,5.4
		c-0.283,0.163-0.632,0.32-0.92,0.167C79.243,66.415,79.163,66.08,79.11,65.785 M79.215,55.599c0.467,1.991,0.935,3.981,1.402,5.972
		c0.147,0.625,0.423,1.374,1.059,1.461c1.915-1.832,2.418-4.974,1.169-7.311c-0.417-0.781-1.086-1.516-1.963-1.642
		C80.006,53.952,79.013,54.737,79.215,55.599z"/>
	<path class="st0" d="M94.426,44.064c0.819-1.226,1.883-2.279,2.644-3.541s1.196-2.858,0.61-4.211
		c-0.285-0.658-0.787-1.202-1.085-1.855c-0.298-0.652-0.331-1.529,0.221-1.987c0.729-0.606,1.87-0.029,2.408,0.752
		c0.538,0.781,0.802,1.76,1.502,2.4c0.765-1.035,1.53-2.071,2.295-3.106c0.148-0.201,0.302-0.407,0.517-0.534
		c0.725-0.431,1.69,0.366,1.71,1.209c0.019,0.843-0.572,1.572-1.203,2.132c-0.631,0.559-1.353,1.058-1.756,1.798
		c-0.591,1.086-0.359,2.417-0.104,3.627c0.254,1.21,0.502,2.534-0.066,3.633c-0.568,1.099-2.338,1.583-3.026,0.555
		c-0.572-0.855-0.023-2.022-0.243-3.027c-0.237-0.156-0.536-0.215-0.815-0.162c-0.727,1.322-1.569,2.581-2.512,3.759
		c-0.205,0.256-0.454,0.529-0.781,0.547C93.904,46.1,93.96,44.762,94.426,44.064z"/>
	<path class="st0" d="M117.781,34.993c-0.595-0.201-1.44-0.088-1.586,0.523c-1.025,4.279-3.03,8.321-5.818,11.725
		c-0.631-0.245-0.901-1.033-0.788-1.7c0.113-0.667,0.511-1.244,0.881-1.811c1.553-2.384,2.754-4.998,3.553-7.729
		c0.251-0.859,0.45-1.837-0.006-2.607c-0.413-0.699-1.24-1.015-1.993-1.321c-0.753-0.306-1.562-0.726-1.828-1.493
		c-0.266-0.768,0.506-1.808,1.237-1.455c3.785,1.825,7.569,3.649,11.354,5.474c0.796,0.384,0.565,1.727-0.227,2.119
		c-0.792,0.392-1.755,0.087-2.51-0.372C119.295,35.888,118.618,35.275,117.781,34.993z"/>
	<path class="st0" d="M99.853,58.896c1.095,1.005,0.61,2.803-0.002,4.158c-0.808,1.787-2.088,3.792-4.049,3.796
		c-1,0.002-1.458,1.318-1.248,2.296s0.787,1.895,0.724,2.894c-0.063,0.998-1.352,1.932-2.035,1.201
		c-0.282-0.301-0.321-0.749-0.346-1.161c-0.221-3.677-0.443-7.354-0.664-11.032c-0.074-1.222,0.917-2.312,2.068-2.731
		c1.15-0.419,2.42-0.308,3.632-0.131C98.619,58.288,99.343,58.427,99.853,58.896 M94.97,63.748c0.311,0.419,0.808,0.775,1.319,0.673
		c0.473-0.095,0.782-0.538,1.04-0.945c0.433-0.681,0.884-1.462,0.7-2.248c-0.273-1.167-1.996-1.547-2.891-0.75
		C94.244,61.275,94.256,62.785,94.97,63.748z"/>
	<path class="st0" d="M103.638,19.953c-0.885,0.102-1.693-0.681-1.872-1.554c-0.179-0.873,0.135-1.776,0.578-2.549
		c0.819-1.429,2.103-2.587,3.609-3.253c0.78-0.345,1.72-0.55,2.46-0.127c0.74,0.423,0.94,1.696,0.18,2.083
		c-0.59,0.301-1.292-0.086-1.954-0.065c-1.067,0.034-1.784,1.083-2.26,2.039c-0.25,0.503-0.228,1.4,0.328,1.316
		c2.855-0.43,5.744,2.264,5.515,5.142c-0.229,2.879-3.507,5.081-6.259,4.205c-0.699-0.222-1.384-0.651-1.664-1.328
		c-0.28-0.677,0.021-1.61,0.729-1.802c0.892-0.242,1.641,0.704,2.531,0.953c1.565,0.439,2.916-1.705,2.235-3.181
		C107.113,20.356,105.252,19.767,103.638,19.953z"/>
	<path class="st0" d="M89.556,24.055c-0.63,1.444,0.102,3.33,1.541,3.97c0.518,0.231,1.101,0.316,1.583,0.613
		c0.483,0.298,0.841,0.936,0.566,1.432c-0.317,0.569-1.141,0.51-1.778,0.372c-1.071-0.231-2.175-0.477-3.067-1.114
		c-0.892-0.637-1.521-1.775-1.227-2.83c0.841-3.02,1.682-6.04,2.523-9.061c0.15-0.538,0.342-1.133,0.832-1.401
		c0.337-0.185,0.744-0.172,1.128-0.153c1.827,0.087,4.015,0.404,4.77,2.07c0.173,0.381,0.24,0.85,0.016,1.203
		c-0.223,0.354-0.814,0.461-1.056,0.12c-0.719-1.016-2.194-1.413-3.326-0.895c-1.132,0.518-1.796,1.893-1.498,3.102
		c0.169,0.685,0.938,1.034,1.635,1.141c0.698,0.107,1.444,0.08,2.059,0.426c0.615,0.346,0.966,1.286,0.44,1.757
		c-0.38,0.341-0.968,0.243-1.465,0.125C92.007,24.64,90.782,24.347,89.556,24.055z"/>
	<path class="st0" d="M23.828,41.326c0.797-0.774,0.75-2.044,0.647-3.151c-0.155-1.663-0.31-3.325-0.465-4.988
		c-0.121-1.294,0.049-3.016,1.319-3.293c1.026-0.223,1.887,0.742,2.492,1.6c1.13,1.601,2.26,3.202,3.39,4.803
		c0.625-0.542,0.513-1.525,0.347-2.335c-0.543-2.653-1.087-5.305-1.63-7.958c0.341-0.859,1.664-0.879,2.34-0.25
		c0.676,0.629,0.871,1.607,1.031,2.517c0.691,3.938,1.382,7.877,2.074,11.815c0.122,0.695,0.206,1.515-0.301,2.005
		c-0.854,0.825-2.211-0.144-2.971-1.056c-1.697-2.038-3.394-4.075-5.091-6.113c-0.13,3.227-0.26,6.454-0.39,9.681
		c-0.055,1.358-0.577,3.17-1.934,3.076c-1.048-0.073-1.554-1.286-1.861-2.291c-1.214-3.979-2.917-7.808-5.058-11.375
		c-0.326-0.543-0.672-1.112-0.69-1.745c-0.018-0.633,0.437-1.327,1.07-1.32c0.541,0.006,0.943,0.485,1.252,0.929
		C21.401,34.743,22.906,37.954,23.828,41.326z"/>
	<path class="st0" d="M37.084,35.491c0.801-3.531-2.543-6.735-2.716-10.352c-0.02-0.423,0.026-0.898,0.344-1.179
		c0.393-0.347,1.043-0.22,1.429,0.134c0.387,0.354,0.575,0.87,0.75,1.364c0.643,1.817,1.287,3.635,1.93,5.452
		c0.219,0.619,0.607,1.358,1.262,1.323c0.305-0.016,0.57-0.211,0.796-0.417c1.558-1.425,2.083-3.865,1.251-5.805
		c-0.267-0.621-0.659-1.198-0.793-1.861c-0.134-0.663,0.096-1.476,0.729-1.715c1.004-0.378,1.812,0.871,2.164,1.885
		c1.524,4.385,3.047,8.771,4.571,13.156c0.101,0.291,0.204,0.602,0.133,0.902c-0.172,0.729-1.266,0.84-1.843,0.362
		c-0.577-0.478-0.775-1.26-0.991-1.977c-0.517-1.72-1.312-3.355-2.346-4.823c-1.503,1.238-3.169,2.94-2.667,4.822
		c0.197,0.738,0.708,1.345,1.08,2.013c0.371,0.668,0.596,1.523,0.2,2.177c-0.396,0.653-1.612,0.687-1.797-0.055
		c-0.425-1.703-1.431-3.255-2.812-4.338C37.407,36.284,36.986,35.926,37.084,35.491z"/>
	<path class="st0" d="M57.814,19.409c1.178,2.191,2.356,4.382,3.535,6.573c0.525,0.977,1.517,1.619,2.136,2.539
		c0.619,0.92,0.648,2.459-0.381,2.874c-1.245,0.503-2.248-1.078-2.742-2.326c-1.114-2.817-2.66-5.463-4.568-7.817
		c-0.507-0.625-1.642-0.346-1.988,0.381s-0.039,1.63,0.525,2.203c0.564,0.573,1.335,0.887,2.086,1.174
		c0.605,0.231,0.41,1.108,0.349,1.752c-0.202,2.161,2.371,3.687,2.583,5.847c0.086,0.874-1.16,1.352-1.934,0.936
		c-0.774-0.416-1.15-1.296-1.514-2.096c-0.364-0.8-0.856-1.656-1.699-1.903c-1.24-0.363-2.459,0.898-2.611,2.181
		c-0.153,1.283,0.4,2.528,0.837,3.744c0.241,0.67,0.45,1.406,0.228,2.082c-0.222,0.676-1.06,1.184-1.669,0.815
		c-0.402-0.243-0.548-0.745-0.659-1.201c-1.41-5.816-2.273-11.764-2.573-17.741c-0.026-0.525-0.013-1.134,0.396-1.464
		c0.553-0.446,1.38-0.051,1.9,0.434c0.519,0.485,1.05,1.1,1.761,1.097c0.544-0.002,1.006-0.377,1.417-0.732
		c1.955-1.686,3.91-3.372,5.865-5.058c0.615-0.53,1.57,0.437,1.358,1.221c-0.211,0.784-0.993,1.245-1.672,1.69
		c-0.679,0.445-1.386,1.1-1.305,1.908C57.51,18.838,57.663,19.128,57.814,19.409 M50.621,27.694
		c0.575,0.947,2.233,0.171,2.344-0.932c0.111-1.102-0.679-2.069-1.419-2.893c-0.511-0.569-1.022-1.138-1.533-1.707
		c0.131,1.548,0.262,3.096,0.393,4.645C50.432,27.112,50.461,27.431,50.621,27.694z"/>
	<path class="st0" d="M72.127,26.061c0.203,0.022,0.411,0.066,0.575,0.187c0.661,0.487,0.066,1.526-0.575,2.038
		c-0.694,0.555-1.725,1.043-2.407,0.474c-0.859-0.716-0.029-2.197,1.032-2.55C71.193,26.062,71.665,26.011,72.127,26.061z"/>
	<path class="st0" d="M69.639,22.627c0.055,0.403-0.315,0.727-0.656,0.949c-0.401,0.261-0.842,0.506-1.32,0.512
		c-1.134,0.013-1.835-1.272-1.949-2.4c-0.184-1.812,0.443-3.593,0.89-5.359c0.446-1.766,0.692-3.731-0.18-5.331
		s-3.269-2.425-4.576-1.156c-0.559,0.543-0.824,1.352-1.439,1.829c-0.615,0.478-1.841,0.201-1.728-0.57
		c0.364-2.49,3.067-4.299,5.551-3.898c2.485,0.401,4.433,2.762,4.59,5.273c0.102,1.629-0.444,3.22-0.697,4.833
		c-0.253,1.613-0.141,3.449,1.012,4.605C69.345,22.125,69.599,22.334,69.639,22.627z"/>
</g>
</svg>