<!-- Generator: Adobe Illustrator 20.1.0, SVG Export Plug-In  -->
<svg version="1.1"
	 xmlns="http://www.w3.org/2000/svg" xmlns:xlink="http://www.w3.org/1999/xlink" xmlns:a="http://ns.adobe.com/AdobeSVGViewerExtensions/3.0/"
	 x="0px" y="0px" width="72.118px" height="56.934px" viewBox="0 0 72.118 56.934"
	 style="enable-background:new 0 0 72.118 56.934;" xml:space="preserve">
<style type="text/css">
	.st0{fill:#010101;}
</style>
<defs>
</defs>
<path class="st0" d="M42.404,7.719c-0.079,0.161-0.157,0.323-0.236,0.484c-0.077-0.134-0.154-0.269-0.23-0.403
	c0.079-0.168,0.345-0.203,0.464-0.061L42.404,7.719z"/>
<path class="st0" d="M0.667,17.494c0.476-0.769,1.194-1.354,1.922-1.891c3.456-2.549,7.462-4.35,11.663-5.242
	c2.87-0.61,5.472-2.166,8.343-2.769c2.871-0.604,6.421,0.132,7.644,2.799c5.16-1.106,10.431-1.693,15.707-1.748
	c1.488-0.016,3.059,0.034,4.326,0.813c2.596,1.596,5.935,1.147,8.871,0.329c3.323-0.926,6.533-2.258,9.537-3.956
	c0.898-0.508,0.756-1.963-0.018-2.646c-0.774-0.683-1.88-0.801-2.91-0.871C60.159,1.929,54.534,2.016,48.956,2.57
	c-0.656,0.065-1.319,0.138-1.942,0.353c-2.065,0.711-3.384,3.112-2.876,5.236c-0.529-0.176-1.058-0.352-1.587-0.528
	c-0.881-2.11,0.501-4.617,2.472-5.776s4.354-1.311,6.638-1.433c1.701-0.091,3.403-0.182,5.104-0.274
	c4.193-0.225,8.558-0.421,12.418,1.23c1.469,0.628,2.996,1.814,2.934,3.411c-0.02,0.527-0.218,1.028-0.394,1.524
	c-2.041,5.773-1.373,12.099-1.86,18.203c-0.268,3.359-0.894,6.688-1.865,9.915c-0.769,2.555-1.784,5.096-3.516,7.126
	c-1.732,2.029-4.288,3.493-6.954,3.381c-0.868-0.037-1.734-0.236-2.599-0.155c-0.865,0.081-1.78,0.536-2.052,1.361
	c-0.335,1.015,0.408,2.161,0.048,3.167c-0.268,0.748-1.051,1.16-1.769,1.501c-1.733,0.825-3.466,1.651-5.199,2.476
	c-3.282,1.563-6.641,3.149-10.254,3.558s-7.59-0.569-9.899-3.378c-0.842-1.024-1.443-2.323-1.329-3.644
	c-3.511,0.476-7.114,0.269-10.548-0.604c-1.548-0.394-3.166-0.997-4.082-2.306c-0.356-0.509-0.583-1.095-0.806-1.675
	c-2.642-6.866-5.284-13.732-7.926-20.597C0.223,22.327-0.638,19.602,0.667,17.494 M50.571,43.828
	c0.429-7.102-1.157-14.253-0.299-21.317c0.128-1.054,0.009-2.529-1.047-2.643c-0.306-0.033-0.608,0.079-0.897,0.186
	c-8.073,3-16.8,3.643-25.391,4.257c-0.951,0.068-1.061,1.419-0.879,2.355c0.588,3.023,1.176,6.046,1.764,9.069
	c0.279,1.433,0.557,2.865,0.836,4.298c0.419,2.155,0.838,4.309,1.257,6.464c0.088,0.453,0.183,0.923,0.459,1.293
	c0.476,0.64,1.346,0.812,2.137,0.915c6.826,0.889,13.864,0.097,20.321-2.287c0.394-0.145,0.797-0.304,1.095-0.599
	C50.436,45.317,50.528,44.541,50.571,43.828 M66.609,13.043c-2.827,1.207-5.771,2.138-8.777,2.777
	c-1.121,0.238-2.332,0.427-3.379-0.041c-0.51-0.228-1.131,0.08-1.439,0.546c-0.308,0.465-0.379,1.044-0.437,1.599
	c-0.656,6.346-0.604,12.764,0.156,19.099c0.04,0.336,0.088,0.687,0.283,0.964c0.361,0.514,1.079,0.594,1.707,0.618
	c1.451,0.054,2.904,0.058,4.355,0.01c1.716-0.057,3.533-0.221,4.913-1.243c1.708-1.265,2.319-3.509,2.731-5.594
	c1.18-5.973,1.645-12.087,1.381-18.17c-0.007-0.159-0.016-0.325-0.093-0.464C67.759,12.692,67.083,12.841,66.609,13.043
	 M17.812,19.665c0.272,0.663,0.544,1.325,0.816,1.988c-0.888-0.044-1.763,0.593-1.994,1.451c-0.528-0.597-1.492-0.173-2.188,0.216
	c-2.847,1.589-6.346,1.965-9.465,1.016c-0.557-0.169-1.128,0.362-1.227,0.935c-0.099,0.573,0.128,1.147,0.351,1.685
	c1.856,4.472,3.712,8.944,5.567,13.417c0.959,2.31,3.926,2.854,6.417,3.069c1.842,0.159,3.684,0.318,5.527,0.477
	c0.426,0.037,0.908,0.055,1.221-0.237c0.377-0.353,0.308-0.958,0.209-1.465c-1.261-6.455-2.521-12.909-3.782-19.364
	c-0.289-1.48-0.608-3.025-1.563-4.192c-3.997,1.89-8.497,2.701-12.902,2.325c-0.773-0.066-1.659-0.131-2.214,0.412
	c0.304,0.983,1.666,0.952,2.695,0.983c0.627,0.019,1.245,0.137,1.867,0.214C10.9,23.06,14.823,21.983,17.812,19.665 M21.293,17.724
	c1.345,0.45,2.8,0.395,4.217,0.335c2.199-0.093,4.4-0.187,6.584-0.459c5.957-0.741,11.681-2.795,17.617-3.693
	c0.969-0.147,1.147-1.633,0.467-2.338c-0.68-0.705-1.756-0.812-2.735-0.851c-8.373-0.336-16.816,1.174-24.554,4.392
	C21.882,15.53,21.206,16.636,21.293,17.724 M4.801,18.86c0.909,0.363,1.927,0.29,2.897,0.162c2.604-0.342,5.148-1.032,7.683-1.72
	c0.579-0.157,1.163-0.316,1.692-0.598c0.453-0.241,0.854-0.567,1.253-0.89c1.114-0.904,2.229-1.808,3.343-2.712
	c1.984-0.301,3.94-0.789,5.833-1.457c0.579-0.204,0.594-1.1,0.161-1.536c-0.433-0.435-1.092-0.53-1.702-0.602
	c-1.115-0.131-2.252-0.262-3.353-0.046c-0.451,0.088-0.888,0.234-1.324,0.379c-1.871,0.622-3.742,1.244-5.614,1.866
	c-3.757,1.249-7.596,2.541-10.711,4.983c-0.553,0.433-1.126,1.173-0.738,1.758C4.353,18.647,4.576,18.77,4.801,18.86 M48.921,17.713
	c0.37-0.6,0.518-1.334,0.41-2.031c-8.764,2.552-17.806,4.15-26.914,4.758c-0.671,0.045-0.777,1.12-0.259,1.549
	c0.518,0.429,1.267,0.383,1.936,0.314c2.339-0.24,4.677-0.481,7.016-0.721c1.617-0.166,3.234-0.333,4.843-0.562
	C40.378,20.389,44.734,19.278,48.921,17.713 M28.2,52.846c2.086,1.09,4.288,2.208,6.641,2.15c1.515-0.037,2.969-0.563,4.392-1.083
	c1.16-0.424,2.321-0.847,3.481-1.271c1.324-0.483,2.737-1.035,3.514-2.211c0.213-0.323,0.665-0.38,0.964-0.624
	c0.3-0.245,0.183-0.927-0.178-0.788c-5.886,2.266-12.401,2.875-18.605,1.739c-0.745-0.136-1.406,0.859-0.991,1.493
	C27.6,52.528,27.906,52.693,28.2,52.846 M63.985,9.969c-0.744,0.276-1.488,0.552-2.232,0.828c-0.552,0.205-1.105,0.41-1.664,0.594
	c-1.859,0.614-3.791,1.002-5.742,1.155c-0.453,0.035-0.735,0.592-0.596,1.024c0.139,0.432,0.58,0.711,1.027,0.791
	c0.447,0.08,0.905-0.003,1.352-0.086c3.924-0.73,8.005-1.528,11.192-3.932c0.256-0.193,0.515-0.409,0.637-0.707
	c0.121-0.297,0.053-0.696-0.23-0.848c-0.252-0.136-0.561-0.035-0.829,0.067C65.927,9.226,64.956,9.597,63.985,9.969 M21.398,48.179
	c0.651-0.047,1.398-0.242,1.657-0.84c0.268-0.619-0.288-1.425-0.961-1.395c-2.908,0.129-5.834-0.122-8.678-0.745
	c-0.334-0.073-0.68-0.158-0.946-0.373c-0.158-0.128-0.285-0.3-0.467-0.389c-0.183-0.089-0.458-0.045-0.513,0.151
	c-0.016,0.056-0.011,0.116-0.003,0.173c0.162,1.136,1.453,1.681,2.552,2.013c0.338,0.102,0.677,0.204,1.015,0.307
	C17.121,47.703,19.245,48.334,21.398,48.179 M62.228,40.724c-0.385-0.126-0.793-0.177-1.197-0.152
	c-0.746,0.047-1.477,0.355-2.218,0.264c-1.697-0.209-3.424-0.171-5.11,0.113c-0.571,0.096-0.652,0.982-0.236,1.385
	c0.416,0.403,1.054,0.443,1.633,0.451c0.985,0.014,1.97,0.003,2.955-0.032c0.826-0.029,1.667-0.079,2.44-0.372
	C61.268,42.088,61.975,41.511,62.228,40.724z"/>
</svg>