<!-- Generator: Adobe Illustrator 20.1.0, SVG Export Plug-In  -->
<svg version="1.1"
	 xmlns="http://www.w3.org/2000/svg" xmlns:xlink="http://www.w3.org/1999/xlink" xmlns:a="http://ns.adobe.com/AdobeSVGViewerExtensions/3.0/"
	 x="0px" y="0px" width="41.832px" height="21.47px" viewBox="0 0 41.832 21.47" style="enable-background:new 0 0 41.832 21.47;"
	 xml:space="preserve">
<style type="text/css">
	.st0{fill:#010101;}
</style>
<defs>
</defs>
<path class="st0" d="M41.223,8.996c0.99,0.51,0.616,2.02-0.012,2.939c-1.689,2.472-4.166,4.276-6.594,6.029
	c-1.037,0.749-2.089,1.506-3.28,1.975c-1.186,0.467-2.466,0.63-3.731,0.788c-4.464,0.558-8.995,1.098-13.446,0.438
	c-4.45-0.66-8.884-2.677-11.514-6.327c-1.017-1.412-1.732-3.014-2.439-4.604c-0.221-0.496-0.37-1.218,0.114-1.463
	C3.116,7.359,5.811,5.75,8.38,3.96c1.977-1.377,3.93-2.887,6.232-3.598s5.099-0.434,6.7,1.367c0.667,0.75,1.848,0.798,2.799,0.478
	c0.951-0.32,1.775-0.932,2.687-1.349c2.949-1.35,6.868-0.261,8.509,2.537C36.699,5.769,38.777,7.736,41.223,8.996 M24.075,11.463
	c-0.222,0.042-0.46,0.093-0.61,0.261c-0.331,0.372,0.017,0.959,0.415,1.26c0.397,0.301,0.903,0.605,0.929,1.103
	c0.041,0.784-1.178,1.006-1.792,0.518c-0.614-0.488-0.869-1.299-1.388-1.888c-1.02-1.159-2.775-1.217-4.319-1.188
	c-0.868,0.016-1.904,0.13-2.306,0.9c-0.461,0.881,0.426,2.023,1.419,2.06c0.994,0.037,1.869-0.726,2.311-1.616
	c0.264-0.532,1.189-0.077,1.176,0.516c-0.013,0.594-0.532,1.035-1.005,1.393c-0.948,0.717-1.896,1.434-2.845,2.151
	c-0.397,0.3-0.974,0.6-1.347,0.27c-0.142-0.125-0.207-0.313-0.268-0.492c-0.546-1.618-1.091-3.237-1.637-4.855
	c-0.644-0.048-1.328-0.087-1.896,0.219c-0.577,0.311-0.921,0.916-1.268,1.472c-0.348,0.556-0.78,1.13-1.415,1.297
	c-0.634,0.167-1.448-0.343-1.318-0.985c0.097-0.48,0.61-0.728,1.003-1.021c0.393-0.293,0.697-0.914,0.327-1.235
	c-1.376-0.171-2.751-0.342-4.127-0.513c-0.357-0.044-0.831-0.018-0.932,0.328c-0.047,0.16,0.015,0.33,0.079,0.484
	c1.669,4.001,5.805,6.546,10.048,7.432c4.243,0.886,8.64,0.371,12.94-0.181c1.722-0.221,3.476-0.457,5.044-1.203
	c1.153-0.549,2.161-1.355,3.158-2.153c1.431-1.146,2.862-2.292,4.293-3.437c0.329-0.263,0.686-0.725,0.416-1.049
	c-0.14-0.169-0.386-0.192-0.605-0.203c-1.888-0.093-3.96-0.131-5.443,1.042c-0.499-0.756-1.553-1.576-2.153-0.897
	c-0.815,0.923,1.096,2.78,0.032,3.399c-0.441,0.257-1.016-0.083-1.271-0.525c-0.255-0.442-0.321-0.969-0.551-1.425
	C28.322,11.018,25.925,11.116,24.075,11.463 M3.999,9.012c1.64,0.853,3.475,1.329,5.323,1.379c0.227,0.006,0.476-0.002,0.647-0.15
	c0.596-0.516-0.589-1.415-0.384-2.176c0.156-0.578,1.035-0.611,1.486-0.218c0.451,0.393,0.625,1.007,0.91,1.533
	c0.285,0.526,0.83,1.028,1.411,0.886c1.08-0.263,0.855-2.224,1.916-2.555c0.555-0.173,1.15,0.272,1.354,0.816
	c0.204,0.544,0.122,1.149,0.037,1.724c0.903,0.233,1.929,0.326,2.707-0.187c0.778-0.513,1.02-1.835,0.243-2.351
	c-0.595-0.395,0.113-1.435,0.812-1.285c0.699,0.15,1.079,0.899,1.287,1.583c0.209,0.683,0.384,1.448,0.96,1.871
	c0.993,0.727,2.631-0.53,2.185-1.677c-0.33-0.847,0.31-1.965,1.22-1.98c0.909-0.016,1.559,1.278,0.921,1.926
	c-0.484,0.491,0.021,1.403,0.696,1.543c0.675,0.14,1.345-0.209,1.947-0.546c1.254-0.703,2.509-1.405,3.763-2.108
	c0.63-0.353,0.876-1.187,0.707-1.889c-0.169-0.702-0.673-1.28-1.241-1.726c-2.462-1.936-6.433-1.534-8.457,0.856
	c-0.622,0.735-1.839,0.552-2.63,0.004c-0.792-0.548-1.367-1.369-2.172-1.897c-1.205-0.789-2.786-0.813-4.166-0.402
	c-1.38,0.412-2.607,1.211-3.812,2.001C9.114,5.661,6.556,7.336,3.999,9.012 M32.938,9.639c1.223-0.018,2.445-0.036,3.668-0.053
	c0.284-0.004,0.623-0.04,0.756-0.29c0.102-0.192,0.032-0.432-0.086-0.614c-0.366-0.568-1.129-0.77-1.796-0.663
	c-0.667,0.107-1.264,0.464-1.842,0.813C33.321,9.024,32.969,9.27,32.938,9.639z"/>
</svg>