<!-- Generator: Adobe Illustrator 20.1.0, SVG Export Plug-In  -->
<svg version="1.1"
	 xmlns="http://www.w3.org/2000/svg" xmlns:xlink="http://www.w3.org/1999/xlink" xmlns:a="http://ns.adobe.com/AdobeSVGViewerExtensions/3.0/"
	 x="0px" y="0px" width="135.074px" height="148.022px" viewBox="0 0 135.074 148.022"
	 style="enable-background:new 0 0 135.074 148.022;" xml:space="preserve">
<style type="text/css">
	.st0{fill:#010101;stroke:#000000;stroke-width:0.75;stroke-miterlimit:10;}
</style>
<defs>
</defs>
<g id="Explosion_1_">
	<path class="st0" d="M134.671,50.901c-0.455,9.776-6.331,19.619-15.558,22.882c2.052,4.581,1.346,10.275-1.762,14.216
		c-3.108,3.941-8.48,5.956-13.413,5.029c1.753-1.207,3.993-1.356,6.074-1.802c2.081-0.447,4.325-1.458,5.014-3.472
		c-4.235,2.647-9.629,5.012-14.02,2.632c-1.397-0.757-3.16-1.942-4.344-0.883c-3.079,2.753-7.586,3.539-11.633,2.719
		c-4.047-0.82-7.679-3.078-10.804-5.778c-5.895,9.92-17.322,16.293-28.859,16.096c-0.371-1.098,1.294-1.635,2.454-1.643
		c8.899-0.058,17.551-5.495,21.465-13.487c0.875-1.788,1.537-3.806,1.115-5.751c-0.318-1.466-1.133-3.268,0.005-4.245
		c1.695,2.57,1.703,5.989,0.638,8.877c-1.064,2.889-3.075,5.328-5.233,7.524c4.208-1.917,7.159-6.328,7.326-10.949
		c0.081-2.238-0.432-4.54,0.205-6.687c1.232,0.339,1.129,2.078,1.005,3.349c-0.329,3.362,1.285,6.846,4.063,8.768
		c0.681-0.853-1.507-1.932-0.925-2.855c0.469-0.744,1.52,0.15,2.011,0.88c1.542,2.288,4.339,3.37,7.034,3.962
		c1.811,0.398,3.7,0.634,5.514,0.249c4.063-0.862,7.062-5.182,6.45-9.29c0.873,0.051,1.324,1.127,1.214,1.994
		c-0.11,0.867-0.562,1.668-0.636,2.539c-0.123,1.449,0.863,2.825,2.134,3.532c1.271,0.707,2.776,0.856,4.231,0.849
		c2.457-0.013,4.966-0.453,7.086-1.694c2.961-1.734,4.936-5.043,5.056-8.473c0.12-3.43-1.618-6.868-4.451-8.805
		c1.113-0.885,2.722-0.171,4.004,0.443c1.283,0.614,3.145,0.941,3.85-0.294c0.002-0.722,0.678-1.229,1.264-1.651
		c7.205-5.181,10.138-15.547,6.716-23.735c-1.703-4.075-4.914-7.616-9.045-9.177c-4.131-1.561-9.159-0.907-12.413,2.08
		c-1.032,0.948-2.509,2.176-3.598,1.294c2.456-3.211,6.09-5.499,10.047-6.325c0.045-6.357-4.507-12.528-10.65-14.168
		c-6.142-1.64-13.278,1.563-15.958,7.328c-1.36,2.926-1.609,6.234-1.711,9.46c3.216,0.221,6.38,1.174,9.184,2.766
		c-1.679-1.267-3.359-2.535-5.038-3.802c3.656,0.718,6.866,3.401,8.219,6.873c0.632,1.621,0.875,3.368,1.009,5.103
		c0.242,3.143,0.1,6.462-1.462,9.2c-1.562,2.739-4.894,4.672-7.909,3.753c1.599-1.412,3.673-2.17,5.37-3.462
		c1.697-1.292,3.041-3.528,2.25-5.509c-0.642,0.674-1.738,0.861-2.567,0.439c1.795-2.541,0.466-6.13-1.483-8.555
		c-1.17-1.456-2.625-2.79-4.428-3.274c-2.246-0.603-4.673,0.229-6.557,1.593c-4.083,2.954-6.067,8.527-4.769,13.397
		c-1.101-0.825-2.201-1.65-3.302-2.475c0.451-4.98,1.346-10.703,5.636-13.272c1.199-0.718,2.605-1.135,3.601-2.116
		c0.996-0.981,1.318-2.874,0.162-3.66c-0.433-0.295-0.326-0.952-0.166-1.45c1.39-4.328,3.148-8.697,6.356-11.919
		c3.676-3.692,9.142-5.513,14.297-4.763c5.156,0.75,9.876,4.053,12.347,8.64c0.478,0.887,0.779,2.193-0.069,2.737
		c-0.628-0.688-1.256-1.375-1.884-2.063c0.607,2.737,1.215,5.475,1.822,8.212c0.132,0.597,0.391,1.316,0.997,1.395
		c3.933,0.515,7.755,1.858,11.146,3.916c1.526,0.926,2.987,2.016,4.054,3.447C134.395,44.199,134.822,47.648,134.671,50.901
		 M128.242,42.403c2.901,3.888,4.111,8.994,3.264,13.77c-0.525,2.96-1.787,5.731-3.036,8.466c-0.212,0.464-0.424,0.927-0.636,1.391
		c0.968-0.794,1.696-1.841,2.319-2.927c2.606-4.544,3.511-10.11,2.13-15.163c-1.38-5.053-5.125-9.482-10.013-11.365
		C124.412,38.361,126.574,40.169,128.242,42.403 M111.599,22.698c-0.531-1.633-2.184-2.592-3.731-3.336
		c-2.19-1.053-4.475-1.993-6.887-2.289c-2.412-0.297-4.987,0.107-6.952,1.537c-0.298,0.217-0.61,0.53-0.547,0.894
		c4.038-1.906,8.953-1.836,12.935,0.184s6.943,5.944,7.791,10.328c0.375-2.251-0.344-4.659-1.894-6.335
		C112.038,23.38,111.726,23.087,111.599,22.698 M94.69,41.127c-1.695-1.53-3.763-2.696-6.011-3.098
		c-2.248-0.402-4.678,0.007-6.535,1.336c-0.438,0.314-0.877,0.748-0.87,1.287c0.611,0.123,1.174-0.314,1.69-0.663
		c2.523-1.706,6.119-1.631,8.57,0.178c1.957,1.445,3.07,3.728,4.346,5.801c0.168,0.273,0.578,0.553,0.743,0.279
		c-0.23-0.53-0.459-1.06-0.689-1.59c-0.082-0.189-0.166-0.397-0.112-0.596c0.078-0.29,0.428-0.435,0.725-0.387
		c0.297,0.047,0.549,0.234,0.789,0.415c-0.277-1.43-0.902-2.792-1.807-3.934C95.43,40.587,95.105,40.965,94.69,41.127
		 M111.358,19.304c-1.778-1.856-4.505-2.363-7.042-2.775c-0.343-0.056-0.866,0.085-0.75,0.412c3.232,0.633,6.284,2.163,8.726,4.374
		C112.319,20.556,111.884,19.852,111.358,19.304 M133.434,47.942c0.224,0.109,0.368-0.254,0.348-0.502
		c-0.22-2.78-1.76-5.427-4.069-6.992c-0.201,0.551,0.233,1.109,0.612,1.557C131.78,43.724,132.85,45.767,133.434,47.942
		 M76.355,46.829c1.169-2.004,2.339-4.009,3.508-6.013c0.148-0.255,0.205-0.706-0.089-0.728c-1.497,1.657-2.667,3.608-3.425,5.708
		C76.226,46.136,76.126,46.55,76.355,46.829 M117.17,73.589c0.346,1.021,0.692,2.042,1.038,3.063
		c0.204,0.603,0.423,1.228,0.873,1.678c0.062-1.343-0.222-2.7-0.816-3.906C118.046,73.98,117.656,73.493,117.17,73.589
		 M89.181,22.466c0.468-0.24,0.755-0.791,0.684-1.312c-0.819,0.589-1.49,1.381-1.938,2.285c0.528-0.104,1.002-0.457,1.253-0.933
		 M97.122,48.831c0.044-0.332,0.007-0.754-0.303-0.881c-0.266,0.283-0.367,0.71-0.257,1.082c0.186,0.13,0.489,0.01,0.535-0.212
		L97.122,48.831z"/>
	<path class="st0" d="M30.316,27.841c-2.233-0.701-4.605-1.128-6.917-0.764c-5.172,0.813-9.072,5.544-10.326,10.628
		s-0.332,10.446,1.011,15.506c0.148,0.559-0.675,0.962-1.183,0.685c-0.508-0.276-0.717-0.886-0.874-1.443
		c-1.614-5.736-2.239-11.75-1.838-17.696c-2.646,3.815-1.942,8.935-1.128,13.506c-1.999-2.981-2.218-6.901-1.269-10.363
		s2.947-6.541,5.131-9.39c2.101-2.74,4.682-5.492,8.088-6.06c0.918-0.153,1.87-0.14,2.751-0.438
		c0.881-0.298,1.715-1.027,1.743-1.957c0.059-1.966,0.118-3.932,0.178-5.897c0.054-1.803,0.147-3.723,1.194-5.192
		c0.893-1.252,2.339-1.968,3.726-2.633c1.863-0.892,3.76-1.79,5.799-2.117s4.277-0.008,5.862,1.316
		c1.225,1.023,2.066,2.621,3.594,3.084c1.845,0.56,3.673-0.807,5.097-2.107c2.022-1.847,4.034-3.776,6.487-4.996
		s5.477-1.634,7.905-0.366c2.16,1.128,4.796,0.703,7.144,1.355c2.732,0.759,4.966,3.089,5.609,5.85
		c0.514-2.336,2.5-4.185,4.778-4.915c2.278-0.73,4.79-0.453,7.037,0.368c2.345,0.857,4.574,2.416,5.548,4.715
		c1.12,2.642,0.228,5.991-2.057,7.727c-0.422,0.321-0.936,0.6-1.459,0.509c-0.522-0.091-0.948-0.728-0.657-1.171
		c1.499-2.281,1.448-5.477-0.123-7.709s-4.564-3.357-7.217-2.714c-0.795,0.193-1.707,1.041-1.176,1.664
		c0.302,0.354-0.221,0.914-0.677,0.819c-0.455-0.095-0.743-0.533-0.981-0.933c-1.179,0.661-1.673,2.145-1.622,3.496
		c0.051,1.351,0.535,2.642,0.85,3.958c0.777,3.244,0.508,6.729-0.757,9.815c-1.456,0.17-1.997-1.839-2.03-3.304
		c-0.064-2.832-0.332-5.71-1.404-8.331s-3.045-4.983-5.697-5.978c-1.804-0.677-3.779-0.687-5.705-0.688
		c-2.991-0.003-6.023,0-8.913,0.774c-6.804,1.822-11.964,7.882-13.934,14.644c-0.389,1.334-0.59,2.982,0.429,3.928
		c3.607,3.346,5.821,8.152,6.019,13.069c0.02,0.503-0.004,1.068-0.366,1.418c-0.362,0.35-1.15,0.184-1.137-0.32
		c0.078-2.853-1.918-5.292-3.802-7.436c-2.652-3.019-5.401-6.112-9-7.898c-3.6-1.786-8.305-1.962-11.358,0.65
		c3.506-0.523,7.193,0.268,10.175,2.185c1.016,0.653,2.058,1.724,1.751,2.893C33.231,28.889,31.792,28.305,30.316,27.841
		 M33.661,8.063c-1.09,0.607-2.195,1.226-3.077,2.108c-2.035,2.037-2.554,5.109-2.806,7.978c-0.087,0.997-1.706,1.627-1.297,2.54
		c0.236,0.526,0.957,0.555,1.532,0.521c3.471-0.201,6.983,0.311,10.252,1.494c0.323,0.117,0.723,0.228,0.979-0.002
		c0.096-0.087,0.152-0.208,0.204-0.326c0.511-1.156,0.924-2.353,1.373-3.534c1.06-2.784,2.325-5.49,3.783-8.088
		c0.294-0.523,0.204-1.234-0.211-1.668s-1.121-0.555-1.657-0.284c-0.283,0.143-0.579-0.149-0.783-0.391
		c-1.119-1.328-2.934-2.034-4.656-1.809C35.993,6.771,34.81,7.423,33.661,8.063 M33.856,22.49c0.349,0.704,1.12,1.072,1.814,1.439
		c4.263,2.258,7.317,6.219,10.233,10.062c0.182-0.313,0.061-0.708-0.064-1.048c-0.74-2.013-1.506-4.072-2.892-5.709
		C40.703,24.585,37.196,23.435,33.856,22.49 M14.446,29.425c-0.724,0.622-1.423,1.293-1.929,2.102
		c-0.935,1.494-1.134,3.317-1.311,5.07c-0.22,2.183-0.437,4.415,0.073,6.549c0.205-1.685,0.461-3.363,0.767-5.032
		c0.238-1.297,0.508-2.594,0.972-3.828c0.683-1.82,1.787-3.481,3.2-4.816c1.01-0.955,2.229-1.821,2.669-3.14
		C17.307,27.208,15.817,28.247,14.446,29.425 M63.713,3.214c-1.803,0.248-3.58,0.692-5.288,1.322
		c0.675,0.328,1.465,0.26,2.212,0.189C64.324,4.377,68.18,4.161,71.6,5.585c0.643,0.268,1.611,0.462,1.839-0.197
		c0.202-0.585-0.496-1.054-1.071-1.281c-1.952-0.772-4.179-1.54-6.079-0.647c-0.452,0.212-1.085,0.471-1.361,0.054
		C64.683,3.146,64.149,3.154,63.713,3.214 M78.391,14.524c0.414-0.218,0.424-0.802,0.34-1.262c-0.413-2.265-1.69-4.263-2.941-6.196
		c-0.165-0.256-0.343-0.523-0.614-0.662c-0.271-0.14-0.662-0.095-0.805,0.174c-0.135,0.255,0.004,0.563,0.142,0.817
		C75.807,9.77,77.099,12.147,78.391,14.524 M35.916,6.02c-0.239-0.426-0.867-0.348-1.334-0.206
		c-1.773,0.541-3.547,1.192-5.032,2.303c-1.485,1.11-2.664,2.744-2.857,4.588c0.519,0.129,0.9-0.459,1.146-0.934
		c1.182-2.289,3.323-4.064,5.793-4.799C34.43,6.734,35.299,6.579,35.916,6.02 M64.711,1.572c0.099-0.199-0.191-0.36-0.412-0.386
		c-2.796-0.338-5.485,1.025-7.971,2.347c-0.317,0.169-0.682,0.421-0.646,0.778c2.929-0.863,5.858-1.725,8.787-2.588
		C64.563,1.695,64.667,1.659,64.711,1.572 M30.085,26.484c-2.537-1.062-5.368-1.409-8.086-0.99c-0.55,0.085-1.111,0.207-1.569,0.521
		c-0.459,0.314-0.796,0.862-0.713,1.412c1.976-1.149,4.352-1.594,6.61-1.238C27.579,26.386,28.862,26.821,30.085,26.484
		 M15.846,26.702c1.906-0.895,3.813-1.789,5.719-2.684c0.309-0.145,0.618-0.29,0.92-0.451c-0.402-0.257-0.928-0.134-1.387-0.004
		C19.081,24.138,16.861,24.868,15.846,26.702 M91.24,5.811c1.133,1.285,2.266,2.57,3.399,3.855
		C94.471,7.841,93.029,6.206,91.24,5.811 M79.095,18.105c0.207-0.582,0.034-1.279-0.421-1.697c-0.255,0.656-0.173,1.432,0.212,2.02
		c0.1-0.087,0.199-0.175,0.299-0.262L79.095,18.105z"/>
	<path class="st0" d="M53.638,48.161c0.312-3.877,3.081-7.447,6.759-8.714c3.678-1.267,8.058-0.159,10.691,2.703
		c0.375,0.408,0.468,1.343-0.079,1.253c-2.025-2.44-5.281-3.802-8.44-3.531c1.454,0.537,2.908,1.074,4.361,1.611
		c0.639,0.236,1.314,0.498,1.724,1.042c0.41,0.544,0.397,1.462-0.2,1.79c-1.947-1.912-4.923-2.706-7.564-2.019
		c-2.641,0.688-4.852,2.832-5.619,5.451c-0.054,0.184-0.101,0.379-0.057,0.566c0.073,0.31,0.369,0.505,0.635,0.68
		c5.007,3.292,6.896,10.56,4.127,15.873c-0.2,0.383-0.462,0.789-0.881,0.894c-0.418,0.106-0.937-0.337-0.73-0.716
		c2.329-4.271,1.408-10.061-2.131-13.398c-3.539-3.338-9.372-3.919-13.5-1.344c-0.703-0.264-1.405-0.528-2.108-0.791
		c0.404,0.929-1.048,1.433-2.038,1.65c-1.26,0.276-2.365,1.023-3.362,1.842c-6.025,4.944-9.113,13.227-7.796,20.909
		c-0.43,0.362-1.13,0.165-1.494-0.264c-0.363-0.429-0.477-1.009-0.578-1.561c-0.609-3.336-1.22-6.709-1.044-10.095
		c0.177-3.386,1.217-6.84,3.529-9.321c1.502-1.613,3.46-2.737,5.487-3.604C39.697,46.344,47.055,46.016,53.638,48.161
		 M28.214,57.369c1.252-2.371,2.905-4.715,5.367-5.779c-2.928,3.225-6.006,6.776-6.404,11.114
		c2.265-5.07,5.501-10.069,10.503-12.478c-0.503-0.547-1.414-0.283-2.051,0.101c-0.637,0.384-1.35,0.872-2.058,0.643
		c-0.234-0.076-0.486,0.022-0.709,0.124c-4.639,2.115-7.784,7.148-7.651,12.245c0.162,0.032,0.323,0.064,0.485,0.096
		C26.346,61.341,27.19,59.308,28.214,57.369 M26.331,65.242c0.58-0.642,0.846-1.556,0.701-2.409
		C26.395,63.435,26.117,64.391,26.331,65.242 M61.027,41.467c0.218-0.059,0.334-0.352,0.215-0.544
		c-0.378,0.098-0.755,0.197-1.133,0.295c0.171,0.298,0.604,0.407,0.896,0.227L61.027,41.467z"/>
	<path class="st0" d="M27.194,97.549c-0.351-3.333,1.386-6.569,3.629-9.059c1.896-2.106,4.836-3.954,7.425-2.802
		c-0.672,0.89-1.895,1.093-2.932,1.503c-2.774,1.097-4.535,4.075-4.68,7.054c-0.145,2.979,1.129,5.898,3.001,8.221
		s4.309,4.119,6.797,5.763c0.721,0.476,1.483,0.955,2.342,1.047c0.859,0.093,1.837-0.327,2.097-1.15
		c0.396-1.256,0.793-2.512,1.189-3.767c0.35,1.711,0.267,3.51-0.24,5.182c-0.095,0.315-0.215,0.64-0.463,0.856
		c-0.244,0.213-0.576,0.289-0.895,0.346c-3.423,0.608-7.042-0.238-9.965-2.12c-2.923-1.883-5.155-4.756-6.466-7.976
		C27.63,99.652,27.307,98.616,27.194,97.549 M35.403,106.642c-0.537-0.61-1.074-1.219-1.611-1.829
		c-0.786-0.892-1.575-1.789-2.208-2.795c-0.741-1.179-1.256-2.495-1.558-3.854c-0.474-0.033-0.595,0.651-0.503,1.117
		C30.152,102.485,32.418,105.321,35.403,106.642z"/>
	<path class="st0" d="M88.329,99.213c-3.432,4.861-5.248,10.842-5.098,16.791c0.059,2.333,0.41,4.647,0.76,6.954
		c1.107,7.294,2.241,14.683,5.178,21.451c0.24,0.553,0.431,1.331-0.082,1.648c-0.616,0.382-1.271-0.433-1.533-1.109
		c-2.268-5.868-3.601-12.047-4.925-18.197c-0.499-2.316-0.998-4.637-1.239-6.994c-0.726-7.093,0.984-14.413,4.777-20.45
		c0.31-0.494,0.695-1.021,1.268-1.128C88.009,98.072,88.665,98.736,88.329,99.213z"/>
	<path class="st0" d="M11.607,65.865c-1.438,1.914-2.582,4.228-2.345,6.61c0.236,2.382,2.285,4.684,4.671,4.488
		c-0.27,0.71-1.146,1.032-1.897,0.92S10.627,77.329,10,76.9c2.117,3.801,5.926,6.617,10.18,7.528
		c0.471,0.101,0.98,0.196,1.316,0.541s0.347,1.037-0.098,1.222c-0.169,0.071-0.361,0.052-0.543,0.03
		c-4.654-0.566-9.132-3.095-11.635-7.059s-2.799-9.346-0.356-13.347c2.444-4.001,7.682-6.208,12.141-4.76
		c0.914,0.297,1.935,1.318,1.299,2.037c-2.479-0.6-5.188-1.181-7.496-0.095C13.5,63.613,12.476,64.708,11.607,65.865z"/>
	<path class="st0" d="M65.196,100.485c1.148,0.455,1.648,1.778,1.987,2.965c4.096,14.323,3.205,30.463-4.523,43.199
		c-0.152,0.25-0.344,0.524-0.634,0.561c-0.718,0.09-0.686-1.07-0.348-1.709c6.444-12.195,7.904-26.932,3.978-40.154
		C65.184,103.757,64.638,102.046,65.196,100.485z"/>
	<path class="st0" d="M56.041,147.535c-0.417-1.124,0.795-2.107,1.687-2.907c2.005-1.798,2.928-4.486,3.649-7.081
		c2.74-9.873,3.617-20.668-0.145-30.198c-0.485-1.228-1.048-2.442-1.267-3.744c1.109-0.156,1.861,1.073,2.258,2.12
		c4.396,11.607,3.906,24.977-1.329,36.23C59.828,144.248,58.397,146.616,56.041,147.535z"/>
	<path class="st0" d="M90.998,145.84c-6.094-11.708-7.274-25.878-3.202-38.433c0.927-2.858,2.213-5.765,4.606-7.582
		c0.289-0.219,0.635-0.43,0.991-0.363s0.606,0.573,0.328,0.807c-3.04,2.56-4.545,6.496-5.479,10.358
		c-2.543,10.524-1.657,21.848,2.493,31.848C91.187,143.561,91.659,144.867,90.998,145.84L90.998,145.84z"/>
	<path class="st0" d="M122.009,91.076c-1.051,1.694-2.147,3.437-3.788,4.569c-1.617,1.116-3.798,1.522-5.595,0.726
		c-0.312-0.138-0.247-0.644,0.03-0.844s0.644-0.195,0.985-0.22c2.126-0.155,3.882-1.735,5.131-3.462s2.187-3.691,3.657-5.234
		c0.616,0.537,0.779,1.456,0.614,2.257C122.878,89.668,122.439,90.381,122.009,91.076z"/>
	<path class="st0" d="M106.346,11.838c1.342-1.198,3.464-0.762,5.073,0.043c1.524,0.763,2.914,1.793,4.087,3.029
		c0.9,0.949,1.684,2.041,2.075,3.289c0.391,1.248,0.352,2.669-0.308,3.798c-0.049,0.084-0.105,0.17-0.187,0.222
		c-0.219,0.138-0.523-0.032-0.632-0.267c-0.108-0.235-0.084-0.506-0.085-0.765c-0.002-1.701-1.118-3.172-2.181-4.5
		c-0.862-1.077-1.735-2.164-2.818-3.018c-1.008-0.794-2.362-1.383-3.56-0.924c-0.319,0.122-0.614,0.315-0.949,0.383
		c-0.335,0.068-0.745-0.04-0.876-0.355C105.85,12.443,106.08,12.076,106.346,11.838z"/>
	<path class="st0" d="M4.734,81.641c-0.441,0.309-1.017-0.124-1.354-0.543c-3.081-3.828-3.876-9.366-1.995-13.906
		c0.206-0.497,0.728-1.073,1.17-0.767c0.311,0.215,0.253,0.682,0.164,1.05c-0.834,3.456-1.286,7.314,0.503,10.387
		c0.487,0.836,1.124,1.581,1.564,2.443C5.007,80.74,5.133,81.361,4.734,81.641z"/>
	<path class="st0" d="M97.087,100.609c-0.726,1.5-1.959,2.793-2.248,4.434c-0.133,0.753-0.054,1.524-0.046,2.289
		c0.018,1.616-0.285,3.234-0.887,4.734c-0.055,0.136-0.118,0.28-0.241,0.359c-0.43,0.279-0.808-0.434-0.823-0.947
		c-0.116-3.992,0.723-8.008,2.428-11.619c0.308-0.652,0.933-1.406,1.592-1.113C97.502,99.031,97.392,99.978,97.087,100.609z"/>
	<path class="st0" d="M55.831,134.434c0.298-0.074,0.6,0.171,0.697,0.462s0.042,0.608-0.021,0.908
		c-0.799,3.797-2.803,7.33-5.651,9.964c-0.319,0.295-0.699,0.596-1.132,0.56c-0.432-0.036-0.775-0.638-0.444-0.919
		c3.045-2.587,5.194-6.208,6.008-10.119C55.361,134.941,55.484,134.521,55.831,134.434z"/>
	<path class="st0" d="M98.477,141.103c-0.444,0.145-0.877-0.23-1.183-0.583c-2.977-3.44-4.614-8.011-4.496-12.559
		c0.01-0.381,0.1-0.852,0.467-0.954c0.539-0.15,0.812,0.621,0.844,1.18c0.18,3.145,1.07,6.246,2.583,9.009
		c0.299,0.547,0.628,1.087,1.074,1.522c0.364,0.355,0.81,0.646,1.05,1.094C99.055,140.258,98.96,140.945,98.477,141.103z"/>
	<path class="st0" d="M8.8,50.3c0.262-0.101,0.345,0.36,0.212,0.606c-0.177-0.039-0.376-0.094-0.461-0.255
		c-0.084-0.161,0.092-0.414,0.246-0.318L8.8,50.3z"/>
	<path class="st0" d="M57.96,107.018c1.074,1.387,1.46,3.17,1.816,4.887c0.151,0.728,0.301,1.49,0.099,2.206
		c-0.157,0.556-0.517,1.044-0.625,1.611c-0.066,0.343-0.038,0.707-0.17,1.03c-0.133,0.323-0.525,0.585-0.827,0.409
		c-0.005-0.77-0.011-1.539-0.016-2.309c-0.017-2.35-0.088-4.874-1.479-6.769c-0.33-0.45-0.74-1.057-0.398-1.498
		C56.753,106.08,57.567,106.512,57.96,107.018z"/>
</g>
</svg>