<!-- Generator: Adobe Illustrator 20.1.0, SVG Export Plug-In  -->
<svg version="1.1"
	 xmlns="http://www.w3.org/2000/svg" xmlns:xlink="http://www.w3.org/1999/xlink" xmlns:a="http://ns.adobe.com/AdobeSVGViewerExtensions/3.0/"
	 x="0px" y="0px" width="140.101px" height="71.388px" viewBox="0 0 140.101 71.388"
	 style="enable-background:new 0 0 140.101 71.388;" xml:space="preserve">
<style type="text/css">
	.st0{fill:#010101;}
</style>
<defs>
</defs>
<g id="Cork_1_">
	<path class="st0" d="M80.682,54.293c0.153-1.441,1.469-2.418,2.474-3.461c1.752-1.818,2.744-4.218,3.697-6.556
		c2-4.908,4-9.816,6.001-14.723c3.136-7.694,6.3-15.491,7.404-23.726c0.168-1.252,0.308-2.567,1.019-3.61
		c1.264-1.856,3.829-2.205,6.075-2.215c8.776-0.04,17.547,2.515,24.93,7.26c1.949,1.252,3.969,2.938,4.165,5.246
		c0.028,0.326,0.034,0.695,0.277,0.915c0.243,0.219,0.77-0.001,0.636-0.299c0.158,2.272,3.38,3.894,2.627,6.044
		c-5.745,16.414-12.808,32.367-21.099,47.655c-0.55,1.014-1.12,2.044-1.966,2.828c-1.884,1.744-4.729,1.919-7.279,1.624
		c-3.443-0.398-6.805-1.483-9.832-3.173c-0.969,0.035-1.891-0.388-2.75-0.839c-4.884-2.564-9.106-6.376-12.153-10.974
		c-0.714,0.728-1.9,0.94-2.822,0.505C81.165,56.357,80.574,55.306,80.682,54.293 M89.456,55.336
		c-0.444-0.129-0.326,0.684,0.026,0.985c1.981,1.695,3.962,3.39,5.944,5.086c1.2,0.21,2.323,0.841,3.125,1.758
		c1.917,0.54,3.833,1.08,5.75,1.62c0.376,0.106,0.781,0.232,1.006,0.55c1.229,1.738,3.38,2.782,5.506,2.673
		c2.126-0.109,4.159-1.368,5.204-3.222c0.904-1.604,1.808-3.208,2.712-4.812c1.607-2.851,3.214-5.704,4.678-8.631
		c1.397-2.795,2.661-5.655,3.924-8.513c0.843-1.907,1.685-3.814,2.528-5.721c0.634-1.004,1.036-2.153,1.167-3.333
		c1.291-2.829,2.531-5.682,3.718-8.557c0.214-0.519,0.431-1.087,0.278-1.628c-0.274-0.967-1.486-1.243-2.483-1.372
		c-9.581-1.239-18.876-4.642-26.991-9.884c-0.753-0.487-1.597-1.012-2.48-0.855c-0.883,0.156-1.5,1.436-0.78,1.971
		c-0.938,0.533-1.265,1.908-0.668,2.806c-0.767,0.775-1.249,1.825-1.338,2.911c-0.096,1.169-0.536,2.279-0.998,3.356
		c-0.957,2.231-2.03,4.412-3.213,6.532c-0.121,0.217-0.247,0.466-0.169,0.701c0.078,0.235,0.479,0.324,0.556,0.088
		c0.01,0.342-0.483,0.403-0.819,0.342c-0.657,1.272-0.983,2.713-0.938,4.143c-0.046-0.231-0.396-0.028-0.491,0.187
		c-1.428,3.21-2.877,6.504-3.12,10.009c-0.168,2.42-1.162,4.775-2.779,6.582c-0.988,1.104-0.812,3.038,0.358,3.947
		C88.952,54.945,89.307,55.071,89.456,55.336 M129.349,17.39c0.383,1.273,1.807,1.939,3.127,2.097
		c0.903,0.108,1.873,0.037,2.631-0.467c0.758-0.503,1.216-1.53,0.851-2.363c-1.311-1.428-2.623-2.856-3.934-4.284
		c-0.977-1.064-2.29-2.231-3.674-1.817c-0.607,0.181-1.322-0.132-1.6-0.701c-0.85-1.738-2.711-2.752-4.562-3.315
		c-1.851-0.563-3.805-0.791-5.593-1.528c-1.339-0.552-2.564-1.381-3.957-1.779c-1.768-0.505-3.652-0.275-5.476-0.041
		c-1.06,0.136-2.263,0.361-2.82,1.273c-0.664,1.086-0.021,2.496,0.765,3.497c2.834,3.608,7.328,5.411,11.61,7.06
		c2.949,1.136,5.897,2.272,8.846,3.408c0.055-0.259,0.11-0.519,0.166-0.778c1.052,0.138,2.143-0.035,3.101-0.492
		c0.17-0.172,0.34-0.345,0.51-0.517c-0.416-0.107-0.751-0.478-0.815-0.902c0.455,0.281,1.059,0.303,1.534,0.057
		C130.021,16.388,129.765,16.966,129.349,17.39 M110.409,68.451c0.298,0.203,0.736,0.167,0.997-0.082
		c-0.298-0.22-0.758-0.178-1.012,0.091 M97.469,25.792c-0.154,0.115,0.152,0.338,0.283,0.198c0.131-0.141,0.072-0.366,0.004-0.546
		c-0.097,0.123-0.195,0.247-0.292,0.37 M98.105,67.034c-0.038,0.21,0.253,0.389,0.423,0.261c0.055-0.179-0.209-0.296-0.387-0.237
		L98.105,67.034z"/>
	<path class="st0" d="M0.631,29.577c-0.1-0.294-0.285-0.559-0.527-0.755c-0.095,0.108-0.129,0.267-0.085,0.404
		c0.156,0.191,0.363,0.341,0.594,0.429L0.631,29.577z"/>
	<path class="st0" d="M31.448,13.412c0.187,0.213,0.5,0.306,0.773,0.23c-0.086-0.154-0.182-0.317-0.343-0.39
		c-0.16-0.073-0.397,0.006-0.414,0.181L31.448,13.412z"/>
	<path class="st0" d="M75.325,39.977c0.054-0.141-0.003-0.391-0.135-0.316c-0.12,0.246-0.126,0.545-0.015,0.795
		c0.176-0.072,0.266-0.305,0.184-0.477L75.325,39.977z"/>
	<path class="st0" d="M133.7,36.715c-0.183,0.108-0.087,0.456,0.126,0.455c0.179-0.125,0.077-0.468-0.141-0.476L133.7,36.715z"/>
	<path class="st0" d="M63.282,59.029c-0.026,0.215,0.276,0.434,0.398,0.255c0.09-0.17-0.205-0.269-0.395-0.238L63.282,59.029z"/>
	<path class="st0" d="M73.024,46.768c-0.905,2.629-1.811,5.258-2.716,7.888c-0.54,1.569-1.211,3.291-2.702,4.02
		c-1.196,0.585-2.612,0.367-3.916,0.097c-4.437-0.919-8.768-2.286-13.089-3.65c-7.304-2.307-14.607-4.613-21.911-6.92
		c-1.445-0.456-2.89-0.913-4.314-1.431c-5.532-2.014-10.68-4.938-15.797-7.848c-1.71-0.972-3.446-1.965-4.801-3.391
		C0.533,32.118,0.1,26.714,1.671,22.273S6.498,14.2,9.959,11.005c1.37-1.265,2.96-2.551,4.825-2.554
		c0.793-0.001,1.564,0.234,2.321,0.47c11.446,3.567,22.737,7.634,33.829,12.183c1.97,0.808,3.943,1.634,6.01,2.146
		c2.099,0.804,4.173,1.671,6.219,2.601c1.413,0.642,2.849,1.324,4.395,1.466c1.266,0.116,2.657-0.109,3.714,0.597
		c0.837,0.559,1.237,1.563,1.59,2.506c0.958,2.563,1.929,5.186,1.991,7.922C74.918,41.231,73.965,44.035,73.024,46.768
		 M35.716,47.289c4.333,1.055,8.819,1.748,12.814,3.73c2.139,1.061,4.455,1.767,6.822,2.079c1.712,1.031,3.742,1.527,5.737,1.402
		c0.837,0.788,2.193,0.8,3.23,0.305c1.037-0.496,1.814-1.403,2.494-2.331c2.697-3.684,4.351-8.123,4.721-12.673
		c0.139-1.706,0.099-3.441-0.296-5.106c-0.262-1.104-0.705-2.21-1.54-2.978c-0.726-0.668-1.68-1.021-2.613-1.344
		c-1.794-0.621-3.608-1.188-5.436-1.701c-1.142-1.082-2.722-1.69-4.295-1.652c-8.181-3.686-16.555-6.942-25.078-9.749
		c-1.071-0.353-2.443-0.621-3.162,0.247c-1.153-1.726-3.228-2.545-5.175-3.265c-1.102-0.407-2.475-0.769-3.34,0.026
		c-0.728,0.669-0.596,2.032,0.246,2.55c-0.411,0.572-0.326,1.444,0.188,1.926c-0.623,0.443-0.872,1.342-0.566,2.042
		c0.165-0.189,0.329-0.378,0.494-0.568c-0.732,2.866-1.464,5.732-2.195,8.598c0.076-0.343,0.498-0.561,0.822-0.424
		c-1.199,1.117-2.221,2.422-3.017,3.854c-0.565,1.017-1.728,1.511-2.644,2.228c-0.916,0.717-1.624,2.079-0.916,3.002
		c0.198,0.258,0.48,0.437,0.757,0.609C20.541,42.288,27.978,45.404,35.716,47.289 M16.519,24.333
		c0.61-2.913,0.713-5.931,0.302-8.879c-0.136-0.978-0.363-2.014-1.074-2.699c-0.711-0.685-2.055-0.781-2.589,0.049
		c0.082,0.513-0.69,0.898-1.05,0.524c-1.44,1.26-2.764,2.652-3.95,4.153c-0.702,1.005-1.404,2.011-2.106,3.016
		c0.327,0.247,0.415,0.791,0.118,1.073c-0.005,0.218-0.444,0.102-0.341-0.09c-1.564,2.624-2.094,5.891-1.23,8.821
		c0.599,2.032,2.365,4.098,4.446,3.702c1.103-0.21,1.956-1.058,2.737-1.866c1.053-1.09,2.111-2.185,3.009-3.406
		c0.794-1.079,1.485-2.39,1.221-3.704C16.319,25.001,16.456,24.635,16.519,24.333 M70.316,28.108
		c0.077,0.13,0.154,0.261,0.231,0.391c0.235-0.108,0.01-0.555-0.217-0.431L70.316,28.108z"/>
	<path class="st0" d="M116.824,37.182c-0.017,0.275-0.033,0.55-0.05,0.825c0.081-0.417,0.734-0.267,1.104-0.477
		c0.146-0.083,0.246-0.229,0.312-0.383c0.297-0.693-0.145-1.6-0.874-1.793c-0.651,0.322-1.175,0.892-1.443,1.567
		c0.22,0.044,0.407,0.225,0.458,0.444C116.496,37.303,116.66,37.242,116.824,37.182z"/>
	<path class="st0" d="M110.488,63.717c-0.078,0.019-0.156,0.044-0.217,0.096c-0.095,0.081-0.129,0.211-0.15,0.334
		c-0.139,0.806,0.317,1.837,1.135,1.82c0.669-0.014,1.135-0.838,0.894-1.463C111.91,63.878,111.139,63.559,110.488,63.717z"/>
	<path class="st0" d="M101.17,59.246c-0.483,0.095-0.966,0.19-1.449,0.285c-0.102,0.215-0.129,0.465-0.076,0.697
		c0.56,0.519,1.12,1.038,1.68,1.557c0.176-0.07,0.351-0.139,0.527-0.209c0.002-0.217,0.004-0.435,0.006-0.652
		c-0.107,0.056-0.214,0.113-0.321,0.169C101.577,60.449,101.593,59.732,101.17,59.246z"/>
	<path class="st0" d="M108.466,59.969c0.564-0.49,1.183-1.239,0.819-1.892c-0.248-0.445-0.825-0.559-1.33-0.627
		C107.53,58.272,107.754,59.377,108.466,59.969z"/>
	<path class="st0" d="M113.186,56.57c-0.189,0.022-0.364,0.109-0.534,0.196c-0.206,0.104-0.411,0.209-0.617,0.313
		c0.057,0.309-0.025,0.626-0.008,0.94c0.017,0.313,0.193,0.666,0.505,0.703c0.633,0.075,1.344-0.237,1.563-0.837
		C114.314,57.286,113.819,56.497,113.186,56.57z"/>
	<path class="st0" d="M123.052,30.883c-0.185,0.274-0.369,0.548-0.554,0.823c0.451,0.502,0.745,1.142,0.832,1.811
		c0.276-0.129,0.381-0.528,0.204-0.776c0.439-0.076,0.808-0.454,0.873-0.894c0.065-0.44-0.179-0.909-0.576-1.109
		c-0.064,0.186-0.179,0.354-0.327,0.482C123.411,31.05,123.242,30.924,123.052,30.883z"/>
	<path class="st0" d="M105.16,33.777c-0.144,0.319-0.187,0.682-0.122,1.025c-0.179,0.228-0.548,0.272-0.776,0.094
		c-0.032,0.345,0.237,0.691,0.579,0.745c0.51-0.399,1.036-0.779,1.576-1.137c-0.046-0.131-0.093-0.262-0.139-0.393
		c-0.18,0.313-0.781,0.006-0.634-0.323C105.484,33.783,105.322,33.78,105.16,33.777z"/>
	<path class="st0" d="M102.439,28.827c-0.172-0.093-0.378-0.121-0.57-0.079c-0.042-0.209-0.179-0.397-0.364-0.502
		c-0.05,0.271-0.179,0.527-0.365,0.729c0.34,0.111,0.316,0.713-0.031,0.797c0.357,0.186,0.714,0.373,1.072,0.559
		c-0.012-0.203-0.1-0.401-0.242-0.547c0.13-0.146,0.301-0.256,0.488-0.312C102.431,29.258,102.435,29.043,102.439,28.827z"/>
	<path class="st0" d="M101.467,40.514c-0.182-0.393-0.645-0.634-1.072-0.556c-0.086,0.146-0.173,0.292-0.259,0.439
		c0.356,0.106,0.551,0.57,0.379,0.899c0.195,0.211,0.56,0.234,0.779,0.049c0.22-0.185,0.259-0.549,0.084-0.776L101.467,40.514z"/>
	<path class="st0" d="M90.101,50.675c0.254,0.401,0.639,0.718,1.081,0.89c0.365-0.411,0.088-1.186-0.454-1.273
		c-0.273-0.008-0.546,0.131-0.702,0.355L90.101,50.675z"/>
	<path class="st0" d="M119.786,27.238c-0.228,0.149-0.358,0.414-0.411,0.681c-0.059,0.297-0.024,0.634,0.186,0.852
		c0.21,0.218,0.625,0.236,0.789-0.018c-0.148,0.071-0.35-0.025-0.388-0.185c0.476,0.156,1.035-0.308,0.97-0.805
		C120.866,27.267,120.205,26.964,119.786,27.238z"/>
	<path class="st0" d="M101.466,28.222c0.162-0.085,0.221-0.321,0.118-0.473c-0.209-0.273-0.652-0.324-0.918-0.107
		c-0.266,0.218-0.303,0.662-0.077,0.921c0.179,0.082,0.274-0.217,0.245-0.412c0.194-0.127,0.486-0.068,0.615,0.125L101.466,28.222z"
		/>
	<path class="st0" d="M104.596,33.815c0.247-0.009,0.474-0.211,0.51-0.456c-0.364-0.212-0.905,0.067-0.944,0.486
		c0.118,0.116,0.331,0.114,0.447-0.004L104.596,33.815z"/>
	<path class="st0" d="M100.176,30.012c0.099,0.414,0.571,0.699,0.983,0.592c-0.118-0.377-0.516-0.645-0.91-0.611L100.176,30.012z"/>
	<path class="st0" d="M91.133,49.492c0.091-0.314-0.084-0.763-0.408-0.715c-0.023,0.188-0.047,0.376-0.07,0.563
		c0.162,0.06,0.325,0.12,0.487,0.18L91.133,49.492z"/>
	<path class="st0" d="M114.531,58.538c-0.237,0.172-0.323,0.522-0.193,0.785c0.194-0.294,0.389-0.588,0.583-0.882
		c-0.112-0.112-0.333-0.074-0.4,0.069L114.531,58.538z"/>
	<path class="st0" d="M100.588,42.286c-0.165-0.253-0.54-0.338-0.797-0.181c0.167,0.253,0.542,0.339,0.802,0.184L100.588,42.286z"/>
	<path class="st0" d="M110.733,57.206c-0.159,0.157,0.049,0.485,0.258,0.408c0.138-0.158-0.04-0.455-0.244-0.409L110.733,57.206z"/>
	<path class="st0" d="M122.105,32.389c0.034,0.228,0.275,0.495,0.448,0.342c0.001-0.22-0.219-0.415-0.437-0.386L122.105,32.389z"/>
	<path class="st0" d="M91.976,46.574c-0.1,0.036-0.014,0.209,0.09,0.195c0.105-0.015,0.167-0.122,0.213-0.217
		c0.099-0.204,0.201-0.426,0.163-0.649c-0.038-0.224-0.288-0.422-0.491-0.32c-0.167,0.297-0.203,0.665-0.097,0.988L91.976,46.574z"
		/>
	<path class="st0" d="M102.048,41.531c-0.156-0.005-0.043,0.314,0.075,0.212c0.128-0.185,0.133-0.447,0.013-0.637
		c-0.078,0.116-0.108,0.263-0.081,0.4L102.048,41.531z"/>
	<path class="st0" d="M91.917,42.128c0.038-0.133,0.019-0.28-0.05-0.399c-0.114,0.075-0.24,0.173-0.239,0.31
		c0.001,0.136,0.241,0.208,0.263,0.074L91.917,42.128z"/>
	<path class="st0" d="M91.166,49.813c0.053,0.182,0.295,0.279,0.459,0.184c0.087-0.212-0.287-0.29-0.493-0.19L91.166,49.813z"/>
	<path class="st0" d="M110.647,63.157c0.117,0.035,0.149-0.19,0.037-0.239s-0.237,0.022-0.339,0.09
		c-0.094,0.14,0.185,0.283,0.299,0.157L110.647,63.157z"/>
	<path class="st0" d="M118.399,38.011c0.225-0.098,0.326-0.408,0.201-0.619c-0.175,0.157-0.261,0.407-0.22,0.639L118.399,38.011z"/>
	<path class="st0" d="M118.477,27.685c-0.027-0.138-0.274-0.066-0.277,0.075c-0.003,0.141,0.129,0.244,0.253,0.31
		c0.027-0.131,0.053-0.262,0.08-0.393L118.477,27.685z"/>
	<path class="st0" d="M126.582,12.325c-0.137-0.032-0.291,0.056-0.333,0.19c0.156,0.328,0.627,0.455,0.926,0.249
		c0.299-0.206,0.35-0.691,0.099-0.954c-0.082-0.13-0.269-0.18-0.405-0.109c0.03,0.247-0.069,0.505-0.256,0.669L126.582,12.325z"/>
	<path class="st0" d="M110.892,9.638c0.24-0.13,0.48-0.26,0.719-0.39c0.107-0.587-0.016-1.213-0.336-1.717
		c-0.054,0.156-0.325,0.156-0.378,0c-0.081,0.22,0.051,0.495,0.275,0.568c-0.226,0.316-0.514,0.588-0.842,0.795
		C110.573,9.093,110.767,9.35,110.892,9.638z"/>
	<path class="st0" d="M110.688,7.796c-0.003-0.286-0.259-0.545-0.545-0.551s-0.553,0.242-0.568,0.527
		c0.298,0.125,0.644,0.128,0.944,0.008L110.688,7.796z"/>
	<path class="st0" d="M109.449,8.019c-0.087-0.052-0.173-0.104-0.26-0.156c-0.339,0.049-0.487,0.564-0.226,0.786
		c0.198-0.137,0.352-0.336,0.436-0.562L109.449,8.019z"/>
	<path class="st0" d="M125.257,10.812c0.13,0.061,0.26,0.123,0.39,0.184c0.18-0.103,0.279-0.329,0.234-0.532
		c-0.116-0.077-0.261-0.107-0.398-0.084c-0.081,0.159-0.162,0.319-0.243,0.478L125.257,10.812z"/>
	<path class="st0" d="M125.222,10.835c-0.091,0.077-0.181,0.154-0.272,0.232c0.064,0.249,0.128,0.499,0.193,0.748
		c0.071-0.23,0.323-0.388,0.561-0.352c-0.225-0.132-0.393-0.356-0.458-0.608L125.222,10.835z"/>
	<path class="st0" d="M56.036,49.082c0.326-0.137,0.718-0.103,1.015,0.088c0.177-0.603,0.18-1.255,0.008-1.86
		c-0.167,0.015-0.333,0.031-0.5,0.046c0.056-0.162-0.048-0.361-0.213-0.406C55.54,47.271,55.354,48.545,56.036,49.082z"/>
	<path class="st0" d="M18.724,35.583c0.027-0.344-0.066-0.696-0.257-0.982c-0.701,0.412-0.896,1.481-0.387,2.115
		c0.039-0.191,0.078-0.383,0.117-0.574c0.344,0.371,1.103,0.022,1.044-0.481C19.068,35.635,18.896,35.609,18.724,35.583z"/>
	<path class="st0" d="M57.863,34.48c0.538,0.281,1.077,0.562,1.615,0.844c0.151-0.073,0.213,0.241,0.061,0.312
		c-0.152,0.071-0.325-0.015-0.488-0.058c-0.162-0.043-0.392,0.008-0.401,0.175c0.18,0.179,0.359,0.358,0.539,0.537
		c0.459-0.099,0.846-0.488,0.925-0.951c0.079-0.463-0.165-0.968-0.585-1.177C59.062,34.5,58.439,34.497,57.863,34.48z"/>
	<path class="st0" d="M28.681,18.92c-0.128,0.101-0.22,0.247-0.256,0.406c0.193,0.233,0.386,0.467,0.578,0.7
		c0.011-0.297,0.472-0.246,0.729-0.096c0.291-0.157,0.334-0.628,0.077-0.836c-0.165,0.16-0.33,0.319-0.494,0.479
		c-0.197-0.358-0.056-0.861,0.298-1.065c-0.287-0.307-0.917-0.013-0.865,0.405L28.681,18.92z"/>
	<path class="st0" d="M26.747,37.836c-0.262,0.404-0.002,1.035,0.469,1.136c0.227-0.318,0.404-0.671,0.52-1.044
		c-0.102-0.42-0.807-0.486-0.986-0.092L26.747,37.836z"/>
	<path class="st0" d="M30.862,25.279c0.07-0.475-0.385-0.953-0.863-0.907c-0.218,0.652,0.294,1.44,0.978,1.505
		c0.084-0.177,0.11-0.38,0.074-0.573L30.862,25.279z"/>
	<path class="st0" d="M47.609,46.872c-0.157-0.108-0.315-0.215-0.472-0.323c-0.205,0.122-0.363,0.322-0.433,0.55
		c0.162-0.048,0.339-0.049,0.501-0.001c0.074,0.244,0.148,0.488,0.223,0.731c0.209,0.065,0.446-0.048,0.569-0.23
		c-0.129-0.243-0.257-0.485-0.386-0.728L47.609,46.872z"/>
	<path class="st0" d="M54.518,29.093c-0.166,0.04-0.219,0.273-0.134,0.421c0.084,0.149,0.252,0.227,0.413,0.285
		c0.581-0.17,0.711-1.106,0.199-1.428c-0.089,0.287-0.118,0.593-0.084,0.892c-0.118,0.103-0.333,0.054-0.394-0.091L54.518,29.093z"
		/>
	<path class="st0" d="M65.422,35.26c-0.08,0.191-0.049,0.424,0.077,0.588c0.303-0.309,0.656-0.568,1.042-0.764
		c-0.026-0.207-0.051-0.413-0.077-0.62C66.116,34.73,65.769,34.995,65.422,35.26z"/>
	<path class="st0" d="M37.644,25.891c0.211,0.234,0.601,0.28,0.86,0.1c0.031-0.23,0.062-0.46,0.093-0.691
		c-0.426-0.12-0.922,0.159-1.042,0.584L37.644,25.891z"/>
	<path class="st0" d="M30.168,18.285c0.089,0.062,0.177,0.124,0.266,0.186c0.258-0.105,0.473-0.312,0.588-0.565
		c-0.201-0.018-0.397-0.098-0.552-0.227c-0.071,0.186-0.142,0.373-0.214,0.559L30.168,18.285z"/>
	<path class="st0" d="M47.292,40.401c-0.118-0.144,0.023-0.404,0.208-0.384c-0.439-0.117-0.939,0.256-0.95,0.711
		c0.263-0.109,0.525-0.217,0.788-0.326L47.292,40.401z"/>
	<path class="st0" d="M54.668,28.24c-0.195-0.199-0.509-0.272-0.772-0.18c-0.084,0.125-0.167,0.25-0.251,0.375
		c0.138,0.084,0.277,0.168,0.415,0.252c0.077-0.23,0.3-0.404,0.542-0.421L54.668,28.24z"/>
	<path class="st0" d="M65.738,34.113c0.274-0.003,0.547-0.006,0.821-0.009c-0.235-0.188-0.471-0.376-0.706-0.564
		c-0.158,0.14-0.224,0.377-0.162,0.579L65.738,34.113z"/>
	<path class="st0" d="M54.532,47.477c0.016,0.336,0.204,0.659,0.487,0.839c-0.089-0.365-0.178-0.731-0.267-1.096
		c-0.131-0.023-0.26,0.123-0.221,0.25L54.532,47.477z"/>
	<path class="st0" d="M57.802,35.322c-0.061-0.158-0.122-0.317-0.184-0.475c-0.124,0.338-0.411,0.612-0.754,0.719
		c0.307,0.127,0.692,0.025,0.896-0.237L57.802,35.322z"/>
	<path class="st0" d="M37.146,26.175c-0.188-0.021-0.376-0.042-0.565-0.063c-0.076,0.122-0.108,0.272-0.087,0.414
		c0.112,0.079,0.258,0.109,0.393,0.081c0.082-0.132,0.163-0.265,0.245-0.397L37.146,26.175z"/>
	<path class="st0" d="M46.268,40.89c-0.13,0.019-0.26,0.037-0.389,0.056c0.074,0.146,0.148,0.292,0.222,0.437
		c0.15,0.041,0.319,0.008,0.444-0.086c-0.082-0.135-0.165-0.27-0.247-0.405L46.268,40.89z"/>
	<path class="st0" d="M48.916,40.725c-0.237,0.021-0.474,0.042-0.71,0.062c-0.13,0.011-0.265,0.024-0.378,0.09
		c-0.284,0.166-0.25,0.669,0.054,0.795c0.304,0.126,0.684-0.205,0.6-0.524c-0.048,0.134,0.177,0.224,0.284,0.131
		c0.107-0.094,0.111-0.255,0.108-0.397L48.916,40.725z"/>
	<path class="st0" d="M46.947,47.616c-0.247,0.093-0.343,0.451-0.175,0.655c0.259-0.091,0.391-0.436,0.259-0.677L46.947,47.616z"/>
	<path class="st0" d="M46.074,46.42c-0.171,0.148,0.028,0.493,0.241,0.418c0.083-0.129,0.167-0.258,0.25-0.388
		c-0.134-0.111-0.344-0.118-0.485-0.016L46.074,46.42z"/>
	<path class="st0" d="M47.44,48.175c-0.126,0.066-0.253,0.133-0.379,0.199c0.016,0.199,0.285,0.323,0.447,0.207
		s0.129-0.411-0.054-0.489L47.44,48.175z"/>
	<path class="st0" d="M17.083,34.532c0.207,0.15,0.542,0.061,0.646-0.172c-0.138-0.231-0.578-0.102-0.569,0.167L17.083,34.532z"/>
	<path class="st0" d="M36.195,25.718c-0.04,0.133-0.019,0.283,0.055,0.4c0.189-0.105,0.297-0.339,0.255-0.552
		c-0.088-0.14-0.359-0.01-0.306,0.146L36.195,25.718z"/>
	<path class="st0" d="M25.778,36.986c0.159-0.047,0.017-0.328-0.144-0.286c-0.161,0.042-0.227,0.231-0.252,0.396
		c0.137-0.024,0.274-0.048,0.411-0.072L25.778,36.986z"/>
	<path class="st0" d="M37.81,24.276c0.159-0.013,0.216-0.272,0.078-0.352c-0.121-0.071-0.301,0.014-0.323,0.152
		c-0.023,0.138,0.121,0.276,0.258,0.247L37.81,24.276z"/>
	<path class="st0" d="M37.004,24.588c0.157-0.038,0.218-0.275,0.098-0.383c-0.227-0.045-0.323,0.381-0.099,0.438L37.004,24.588z"/>
	<path class="st0" d="M38.197,24.834c0.138-0.027,0.066-0.274-0.075-0.277c-0.141-0.003-0.244,0.129-0.31,0.253
		c0.131,0.027,0.262,0.053,0.394,0.08L38.197,24.834z"/>
	<path class="st0" d="M48.334,47.758c0.123,0.181,0.472,0.069,0.467-0.149c-0.16-0.105-0.409-0.013-0.463,0.17L48.334,47.758z"/>
	<path class="st0" d="M55.148,30.157c-0.107,0.087,0.151,0.195,0.218,0.074c0.035-0.139,0.014-0.291-0.057-0.415
		c-0.147-0.014-0.25,0.201-0.148,0.306L55.148,30.157z"/>
	<path class="st0" d="M55.975,27.925c-0.133-0.038-0.28-0.019-0.399,0.05c0.075,0.114,0.173,0.24,0.31,0.239
		c0.136-0.001,0.208-0.241,0.074-0.263L55.975,27.925z"/>
	<path class="st0" d="M56.279,27.273c0.018,0.238,0.479,0.167,0.435-0.068c-0.117-0.103-0.329-0.06-0.397,0.08L56.279,27.273z"/>
	<path class="st0" d="M11.851,19.681c0.161,0.342,0.225,0.729,0.183,1.104c0.078,0.124,0.299,0.108,0.358-0.027
		c0.548-0.197,0.827-0.924,0.551-1.437c-0.16-0.297-0.47-0.502-0.803-0.552c-0.057,0.303-0.115,0.606-0.173,0.909L11.851,19.681z"/>
	<path class="st0" d="M11.392,21.325c-0.012,0.127,0.183,0.185,0.284,0.106c0.101-0.078,0.126-0.219,0.143-0.345
		c-0.143-0.098-0.367,0.086-0.3,0.245L11.392,21.325z"/>
	<path class="st0" d="M10.76,19.61c-0.156,0.058-0.311,0.116-0.467,0.173c0.035,0.254,0.532,0.116,0.431-0.12L10.76,19.61z"/>
	<path class="st0" d="M9.255,27.565c0.206,0.225-0.035,0.652,0.18,0.868c0.111,0.112,0.29,0.107,0.447,0.094
		c0.144-0.282,0.292-0.578,0.289-0.894c-0.003-0.316-0.212-0.655-0.527-0.69S9.041,27.331,9.255,27.565z"/>
</g>
</svg>