<!-- Generator: Adobe Illustrator 20.1.0, SVG Export Plug-In  -->
<svg version="1.1"
	 xmlns="http://www.w3.org/2000/svg" xmlns:xlink="http://www.w3.org/1999/xlink" xmlns:a="http://ns.adobe.com/AdobeSVGViewerExtensions/3.0/"
	 x="0px" y="0px" width="35.099px" height="54.349px" viewBox="0 0 35.099 54.349"
	 style="enable-background:new 0 0 35.099 54.349;" xml:space="preserve">
<style type="text/css">
	.st0{fill:#010101;stroke:#000000;stroke-miterlimit:10;}
</style>
<defs>
</defs>
<path class="st0" d="M32.26,34.269c-1.886-5.224-5.4-10.042-10.366-12.529c-0.501-0.251-0.754-0.812-0.944-1.339
	c-1.436-3.977-1.404-8.466,0.086-12.423c0.834-2.213-0.025-4.913-1.918-6.331c-1.893-1.418-4.644-1.512-6.692-0.329
	C10.379,2.502,9.1,4.856,9.099,7.221c-0.001,1.718,0.828,3.615,2.465,4.135c0.444,0.141,0.475,0.75,0.418,1.213
	c-0.272,2.223-0.544,4.446-0.815,6.669c-0.053,0.435-0.11,0.881-0.312,1.27c-0.309,0.595-0.908,0.97-1.465,1.343
	c-0.514,0.345-1.006,0.721-1.488,1.11c-0.617,0.863-1.252,1.715-1.94,2.515c0.087-0.031,0.175-0.062,0.262-0.093
	C0.598,33.058-0.1,43.293,0.859,52.76c0.035,0.346,0.096,0.734,0.379,0.936c0.207,0.147,0.479,0.153,0.733,0.153
	c10.423-0.003,20.846-0.6,31.201-1.786c0.489-0.056,1.049-0.159,1.291-0.587c0.134-0.236,0.136-0.522,0.134-0.793
	C34.562,45.129,34.147,39.492,32.26,34.269z M11.058,9.873c-0.023-0.028-0.033-0.062-0.054-0.091
	c-0.257-0.014-0.508-0.183-0.647-0.409c-0.176-0.287-0.215-0.635-0.238-0.971c-0.135-1.91,0.175-4.055,1.656-5.27
	c0.914-0.75,2.121-1.015,3.279-1.256c0.73-0.152,1.506-0.302,2.208-0.05c0.473,0.17,0.866,0.508,1.216,0.868
	c0.945,0.971,1.682,2.196,1.846,3.54c0.164,1.345-0.318,2.807-1.406,3.615c-0.835,0.621-1.908,0.802-2.938,0.954
	c-0.837,0.123-1.743,0.215-2.543,0.014C12.536,10.849,11.681,10.64,11.058,9.873z M5.735,52.575L5.83,52.37
	c0.536,0.052,1.072,0.104,1.607,0.157C6.94,52.86,6.251,52.879,5.735,52.575z M8.204,53.086c0.099-0.341,0.556-0.388,0.91-0.367
	c1.166,0.07,2.332,0.14,3.498,0.209C11.188,53.357,9.654,53.412,8.204,53.086z M8.232,51.785c-2.131-0.113-4.238,0.416-6.306,0.941
	c-0.823-6.771-0.153-13.719,1.95-20.207c1.442-4.451,3.818-8.965,7.981-11.099c0.343-0.176,0.76-0.47,0.644-0.837
	c-0.746-2.368-0.254-4.928,0.243-7.361c0.08-0.392,0.185-0.822,0.513-1.051c0.218-0.152,0.495-0.183,0.759-0.21
	c1.355-0.139,2.709-0.277,4.064-0.416c0.484-0.05,1.213,0.243,0.962,0.66c-1.597,2.655,0.927,6.231-0.227,9.107
	c2.057,0.765,3.921,2.001,5.483,3.543c1.138,0.554,2.217,1.324,2.896,2.318c-0.01-0.076-0.013-0.153-0.039-0.226
	c4.896,6.845,6.317,15.581,6.535,23.994C25.25,51.954,16.722,52.237,8.232,51.785z"/>
<path class="st0" d="M27.423,42.354c-0.257-2.26-0.513-4.52-0.77-6.78c-0.187-1.647-0.469-3.474-1.769-4.503
	c-1.27-1.005-3.064-0.892-4.675-0.73c-3.105,0.313-6.21,0.626-9.315,0.939c-1.187,0.12-2.546,0.343-3.16,1.366l-2.08,3.462
	c0.588,0.119,1.155-0.324,1.467-0.837c0.313-0.513,0.467-1.111,0.792-1.615c0.915-1.42,2.837-1.702,4.52-1.848l7.488-0.646
	c1.294-0.112,2.683-0.203,3.803,0.454c1.697,0.997,2.079,3.241,2.284,5.199c0.193,1.837,0.385,3.674,0.578,5.511
	c0.115,1.097,0.228,2.227-0.077,3.287c-0.741,2.581-3.697,3.891-6.38,4.018c-2.683,0.127-5.356-0.574-8.037-0.423
	c-1.645,0.093-3.655,0.354-4.6-0.995c-0.527-0.752-0.49-1.747-0.461-2.666c0.089-2.89-0.124-5.789-0.635-8.635
	c-0.651,0.342-0.738,1.223-0.742,1.958c-0.005,0.936-0.01,1.873-0.015,2.809c0.167,1.283,0.369,2.543,0.504,3.709
	c0.12,0.317,0.162,0.677,0.192,1.02c0.076,0.887,0.199,1.803,0.663,2.563c0.464,0.76,1.356,1.326,2.229,1.15
	c2.211-0.448,4.496-0.167,6.739,0.075c2.243,0.242,4.551,0.438,6.724-0.17s4.212-2.19,4.73-4.386
	C27.67,44.57,27.547,43.449,27.423,42.354z"/>
</svg>