<!-- Generator: Adobe Illustrator 20.1.0, SVG Export Plug-In  -->
<svg version="1.1"
	 xmlns="http://www.w3.org/2000/svg" xmlns:xlink="http://www.w3.org/1999/xlink" xmlns:a="http://ns.adobe.com/AdobeSVGViewerExtensions/3.0/"
	 x="0px" y="0px" width="138.755px" height="95.059px" viewBox="0 0 138.755 95.059"
	 style="enable-background:new 0 0 138.755 95.059;" xml:space="preserve">
<style type="text/css">
	.st0{fill:#010101;}
</style>
<defs>
</defs>
<g id="Barrel_2_1_">
	<path class="st0" d="M93.426,55.689c-0.381,0.005-0.498-0.591-0.233-0.864c0.264-0.274,0.688-0.299,1.068-0.306
		c3.11-0.059,6.22-0.119,9.33-0.178c0.525-0.01,1.164,0.046,1.392,0.518c0.302,0.623-0.404,1.25-1.027,1.551
		c-1.514,0.732-3.148,1.214-4.816,1.421c-0.646,0.08-1.369,0.154-1.791,0.65c1.894,0.397,3.787,0.795,5.681,1.192
		c0.562,0.118,1.171,0.264,1.524,0.717s0.197,1.297-0.372,1.369c-3.595,0.452-7.149,1.22-10.611,2.29
		c-0.452,0.14-0.785-0.551-0.54-0.956c0.245-0.405,0.756-0.544,1.218-0.648c2.034-0.46,4.072-0.921,6.142-1.17
		c0.591-0.071,1.243-0.154,1.638-0.6c-2.168-0.78-4.465-1.199-6.768-1.235c-0.588-0.009-1.328-0.096-1.508-0.656
		c-0.118-0.367,0.1-0.775,0.415-0.997c0.314-0.223,0.705-0.303,1.083-0.378c2.296-0.454,4.593-0.907,6.889-1.361
		c0.087-0.315-0.373-0.468-0.7-0.464C98.768,55.619,96.097,55.654,93.426,55.689z"/>
	<path class="st0" d="M94.291,49.306c-0.719,0.135-1.706,0.113-1.891-0.594c0.573-0.709,1.576-0.857,2.48-0.979
		c3.139-0.423,6.239-1.14,9.245-2.139c0.39-0.13,0.919-0.217,1.127,0.138c0.231,0.396-0.214,0.841-0.616,1.061
		c-1.156,0.634-2.431,1.049-3.739,1.217c-0.392,0.05-0.388,0.643-0.173,0.976c0.215,0.332,0.541,0.684,0.423,1.061
		c-0.179,0.571,0.478,1.111,1.076,1.092c0.598-0.019,1.121-0.38,1.649-0.662c0.528-0.281,1.183-0.489,1.708-0.202
		c0.525,0.286,0.569,1.259-0.017,1.381c-3.211,0.671-6.423,1.343-9.663,1.854c-0.446,0.07-0.949,0.125-1.308-0.149
		c-0.36-0.274-0.313-1,0.136-1.044c0.953-0.093,1.906-0.185,2.858-0.278c0.841-0.082,1.835-0.268,2.175-1.042
		c0.349-0.793-0.289-1.739-1.1-2.042c-0.811-0.303-1.713-0.147-2.565,0.012C95.495,49.08,94.893,49.193,94.291,49.306z"/>
	<path class="st0" d="M99.211,23.483c-0.014-0.173-0.049-0.354,0.012-0.517c0.135-0.362,0.686-0.398,0.972-0.139
		c0.286,0.26,0.353,0.683,0.339,1.068c-0.036,0.999-0.519,1.973-1.293,2.605c-0.515,0.421-1.204,0.778-1.311,1.435
		c1.379,0.249,2.759,0.499,4.138,0.748c0.323,0.058,0.686,0.144,0.848,0.43c0.293,0.518-0.324,1.072-0.865,1.321
		c-3.052,1.409-6.478,1.719-9.826,2.01c-0.369,0.032-0.815,0.029-1.016-0.282c-0.198-0.306-0.007-0.74,0.303-0.932
		s0.693-0.208,1.057-0.223c1.91-0.078,3.816-0.275,5.702-0.59c0.548-0.092,1.179-0.257,1.398-0.768
		c-2.645-0.68-5.291-1.361-7.936-2.041c-0.372-0.096-0.782-0.219-0.977-0.55c-0.195-0.331,0.063-0.888,0.435-0.79
		c1.266,0.333,2.532,0.667,3.797,1c0.304,0.08,0.619,0.161,0.929,0.108c0.328-0.056,0.611-0.254,0.882-0.446
		C97.997,26.076,99.332,24.949,99.211,23.483z"/>
	<path class="st0" d="M87.429,19.261c0.538,1.067,1.295,2.023,2.209,2.793c0.162,0.136,0.336,0.27,0.542,0.319
		c0.218,0.052,0.447,0.002,0.663-0.058c0.717-0.198,1.405-0.504,2.031-0.906c-1.15-0.64-2.186-1.486-3.043-2.485
		c-0.273-0.318-0.487-0.887-0.115-1.079c0.255-0.131,0.548,0.069,0.764,0.258c1.021,0.894,2.043,1.789,3.064,2.683
		c0.729,0.638,1.842,0.015,2.59-0.602c0.485-0.4,1.02-0.925,0.917-1.545c-0.042-0.252-0.188-0.474-0.341-0.679
		c-0.703-0.941-1.632-1.713-2.686-2.232c-0.256-0.126-0.131-0.565,0.139-0.657c0.27-0.092,0.561,0.038,0.816,0.167
		c0.969,0.489,1.95,1.024,2.644,1.857c0.694,0.834,1.045,2.041,0.596,3.028c-0.504,1.108-1.787,1.593-2.945,1.97
		c-1.88,0.612-3.76,1.224-5.64,1.836c-0.093,0.03-0.192,0.061-0.287,0.037c-0.116-0.029-0.196-0.132-0.267-0.228
		c-0.725-0.985-1.45-1.971-2.176-2.956c-0.267-0.363-0.549-0.785-0.462-1.227S87.226,18.858,87.429,19.261z"/>
	<path class="st0" d="M91.953,38.456c0.008-0.291,0.323-0.496,0.614-0.492c0.291,0.003,0.557,0.155,0.808,0.301
		c0.684,0.4,1.369,0.801,2.053,1.201c0.347-0.478,0.196-1.139,0.031-1.707c-0.399-1.377-0.695-3.098,0.383-4.044
		c0.363-0.318,0.831-0.488,1.297-0.613c1.192-0.32,2.486-0.385,3.642,0.047c1.156,0.432,2.144,1.42,2.363,2.635
		c0.089,0.492,0.052,0.998,0.011,1.497c-0.036,0.437-0.08,0.89-0.3,1.269c-0.22,0.379-0.669,0.663-1.093,0.551
		c-0.424-0.112-0.656-0.733-0.326-1.023c0.909-0.798,0.708-2.394-0.185-3.21c-0.893-0.816-2.226-0.97-3.419-0.767
		c-0.394,0.067-0.8,0.178-1.096,0.447c-0.779,0.708-0.392,1.967-0.121,2.985c0.147,0.553,0.241,1.119,0.281,1.69
		c0.043,0.62-0.073,1.389-0.655,1.607c-0.436,0.164-0.911-0.077-1.315-0.31c-0.809-0.467-1.618-0.935-2.427-1.402
		C92.24,38.967,91.944,38.758,91.953,38.456z"/>
	<path class="st0" d="M86.886,12.79c0.844-0.229,1.574,0.835,1.387,1.689c-0.187,0.855-0.917,1.467-1.602,2.011
		c-0.338,0.268-0.675,0.536-1.013,0.804c-0.249,0.198-0.515,0.403-0.831,0.444c-0.316,0.041-0.685-0.157-0.707-0.475
		c-0.018-0.261,0.189-0.477,0.382-0.655c0.756-0.701,1.512-1.402,2.268-2.103c0.25-0.232-0.036-0.64-0.331-0.811
		c-0.738-0.428-1.647-0.551-2.473-0.336c-0.362,0.094-0.714,0.251-1.088,0.259s-0.792-0.195-0.867-0.562
		c-0.116-0.564,0.58-0.918,1.137-1.066c2.787-0.737,5.575-1.474,8.362-2.212c0.556-0.147,0.922,0.711,0.601,1.187
		s-0.95,0.613-1.516,0.711c-1.055,0.182-2.11,0.364-3.164,0.545C87.121,12.274,86.713,12.528,86.886,12.79z"/>
	<path class="st0" d="M102.545,42.205c-2.367,0.796-4.735,1.593-7.127,2.312c-0.457,0.137-0.975,0.266-1.39,0.031
		c-0.415-0.236-0.467-1.004-0.001-1.11c3.118-0.711,6.163-1.742,9.072-3.071c0.479-0.219,0.939,0.504,0.718,0.981
		C103.594,41.824,103.044,42.037,102.545,42.205z"/>
	<path class="st0" d="M39.133,65.854c-3.514,1.885-7.575,2.405-11.533,2.892c-1.109,0.137-2.219,0.273-3.328,0.41
		c-0.766,0.094-1.562,0.186-2.295-0.055c-1.436-0.473-2.532-2.167-4.012-1.859c-1.379,0.287-2.629-1.574-1.843-2.742
		c-0.125,0.568-0.799,0.872-1.376,0.793c-0.577-0.079-1.073-0.433-1.542-0.777c-1.653-1.209-3.47-2.721-3.496-4.768
		c-0.02-1.59-0.72-3.081-1.348-4.542c-3.036-7.062-4.637-15.302-1.599-22.363c0.912-2.119,2.207-4.048,3.525-5.941
		c1.726-2.478,3.545-4.958,5.965-6.765c3.26-2.433,7.361-3.454,11.398-3.954c2.386-0.296,4.874-0.418,7.131,0.411
		c3.937,1.446,6.299,5.401,8.173,9.153c3.332,6.672,6.18,13.833,6.168,21.291C49.11,54.496,45.705,62.329,39.133,65.854
		 M41.824,27.145c-1.842-3.824-4.217-7.944-8.283-9.163c-1.713-0.514-3.544-0.438-5.325-0.276c-3.752,0.34-7.599,1.089-10.694,3.238
		c-2.585,1.795-4.449,4.428-6.218,7.03c-1.573,2.314-3.142,4.705-3.845,7.414c-0.406,1.565-0.51,3.193-0.504,4.81
		c0.023,5.462,1.316,10.915,3.746,15.806c0.165,0.333,0.455,0.72,0.813,0.621c3.061-0.849,6.176-1.503,9.32-1.956
		c-1.697-1.542-2.335-4.261-1.198-6.252s4.117-2.762,5.907-1.329c0.369,0.295,0.86,0.684,1.245,0.411
		c0.599-0.425,1.503,0.041,1.768,0.726c0.265,0.685,0.073,1.458-0.18,2.148c-1.041,2.84-3.099,5.825-1.89,8.597
		c0.384,0.88-0.544,1.839-1.489,2.009c-0.945,0.17-1.912-0.124-2.871-0.085c-0.959,0.039-2.054,0.637-2.055,1.597
		c-0.002,1.865,0.205,4.1,1.852,4.976c0.905,0.481,1.994,0.385,3.013,0.276c5.442-0.582,11.175-1.273,15.56-4.549
		c5.239-3.914,7.469-10.909,7.11-17.439S44.662,33.037,41.824,27.145 M24.953,55.444c0.008-1.141-0.165-2.559-1.236-2.951
		c-0.412-0.151-0.251-0.827,0.136-1.034c0.387-0.207,0.863-0.167,1.27-0.332c-0.074-0.666-0.995-0.767-1.66-0.683
		c-0.549,0.07-1.097,0.14-1.646,0.209c-0.15,0.019-0.314,0.046-0.412,0.16c-0.11,0.128-0.096,0.318-0.074,0.485
		c0.172,1.279,0.514,2.536,1.013,3.726c0.181,0.432-0.421,0.752-0.882,0.836c-2.801,0.51-5.602,1.021-8.404,1.531
		c-0.952,0.173-1.743,1.012-1.86,1.973c-0.117,0.96,0.449,1.965,1.331,2.362c1.295,0.583,2.766-0.122,4.077-0.668
		c2.072-0.863,4.301-1.346,6.544-1.42c0.641-0.021,1.425-0.095,1.686-0.681c0.092-0.206,0.095-0.44,0.096-0.665
		C24.94,57.342,24.947,56.393,24.953,55.444 M18.438,62.986c0.006-0.206,0.065-0.422-0.013-0.614
		c-0.195-0.477-0.978-0.259-1.21,0.201c-0.191,0.379-0.188,0.823-0.18,1.248c0.01,0.538,0.029,1.109,0.327,1.557
		c0.298,0.448,0.983,0.68,1.386,0.324c0.362-0.32,0.306-0.902,0.128-1.35C18.698,63.904,18.423,63.468,18.438,62.986 M27.116,50.63
		c0.327-0.656,0.239-1.497-0.217-2.071C26.185,49.028,26.32,50.319,27.116,50.63 M15.846,64.051
		c0.216-0.401,0.152-0.934-0.152-1.273c-0.41,0.322-0.319,1.08,0.156,1.296 M22.045,48.888c-0.003,0.24,0.215,0.461,0.455,0.46
		s0.458-0.221,0.454-0.461c-0.281-0.131-0.62-0.13-0.9,0.002L22.045,48.888z"/>
	<path class="st0" d="M24.34,14.915c-1.14-0.204-2.28-0.407-3.419-0.611C21.937,13.468,23.676,13.779,24.34,14.915z"/>
	<path class="st0" d="M71.527,12.683c-1.09-0.676-1.997-1.643-2.602-2.774c-0.078-0.146-0.153-0.299-0.165-0.464
		c-0.028-0.364,0.31-0.712,0.675-0.696c0.64,1.139,1.558,2.121,2.651,2.836c0.232,0.152,0.551,0.289,0.767,0.115
		c0.362-0.293,0.969,0.114,0.944,0.579c-0.025,0.465-0.499,0.808-0.964,0.835C72.367,13.142,71.923,12.929,71.527,12.683z"/>
	<path class="st0" d="M78.926,22.749c-0.803-0.67-1.607-1.34-2.41-2.01c-0.083-0.069-0.167-0.14-0.22-0.234
		c-0.223-0.399,0.319-0.865,0.767-0.775s0.76,0.481,1.064,0.821c0.548,0.611,1.209,1.142,1.981,1.42
		c0.308,0.111,0.669,0.213,0.802,0.512c0.189,0.426-0.298,0.901-0.764,0.89S79.284,23.047,78.926,22.749z"/>
	<path class="st0" d="M83.961,55.032c-0.345,0.223-0.786-0.058-1.093-0.33c-0.706-0.627-1.388-1.282-2.043-1.962
		c-0.303-0.315-0.605-0.828-0.298-1.14c0.349-0.354,0.911,0.077,1.237,0.452c0.467,0.538,1.001,1.018,1.586,1.425
		c0.273,0.19,0.567,0.374,0.735,0.661C84.253,54.425,84.24,54.852,83.961,55.032z"/>
	<path class="st0" d="M53.342,29.478c-0.252,0.176-0.588-0.031-0.822-0.231c-0.985-0.84-1.97-1.68-2.954-2.52
		c-0.254-0.217-0.51-0.632-0.242-0.831c0.141-0.104,0.339-0.056,0.504,0.003c1.387,0.494,2.612,1.433,3.45,2.645
		C53.475,28.83,53.627,29.278,53.342,29.478z"/>
	<path class="st0" d="M4.663,78.338c0.305,0.723,0.609,1.447,0.914,2.171c2.525-7.982,2.273-16.813-0.702-24.638
		c-3.409-8.965-3.749-19.272,0.106-28.054s12.165-15.734,21.68-16.946c11.797-1.503,23.672,6.162,28.805,16.889
		s4.12,23.739-0.921,34.51c1.081-1.077,2.824,0.461,3.257,1.924c0.433,1.463,0.813,3.361,2.309,3.659
		c-0.292,0.676-1.053,1.118-1.785,1.035c0.287,0.618,1.006,1.004,1.68,0.902c6.133-10.306,7.919-23.109,4.839-34.699
		c-3.08-11.591-10.984-21.819-21.424-27.721C38.347,4.5,32.27,11.332,26.644,9.807C52.599-0.77,81.928-2.872,109.126,3.894
		c-0.569-0.557,0.756-1.072,1.492-0.767c6.504,2.697,11.468,8.348,14.506,14.701c3.037,6.352,4.323,13.396,5.085,20.396
		c0.563,5.172,0.727,10.855-2.338,15.059c-0.625,0.857-1.382,1.648-1.747,2.644c-0.365,0.996-0.193,2.304,0.725,2.837
		c3.352,1.95,3.26,6.678,3.536,10.546c0.479,6.699,3.424,13.193,8.148,17.967c0.871,0.881-0.999,1.851-2.229,1.697
		c-4.418-0.551-8.836-1.102-13.255-1.653c-0.837-0.104-1.804-0.296-2.187-1.047c-3.153-6.19-9.581-10.931-16.528-10.89
		c-6.947,0.041-13.764,5.677-14.04,12.618c-0.071,1.8-2.486,2.301-4.288,2.266c-3.755-0.074-7.509-0.147-11.264-0.221
		c0.208-3.539,0.415-7.078,0.623-10.617c0.083-1.42,0.16-2.888-0.337-4.22c-0.497-1.332-1.73-2.5-3.151-2.452
		c-4.384,0.147-8.79-0.389-13.011-1.584c0.223,8.057,2.702,16.041,7.082,22.807c0.382,0.591-0.624,1.079-1.327,1.077
		c-4.391-0.012-8.782-0.024-13.172-0.037c-0.874-0.002-2.002-0.205-2.152-1.066c-1.313-7.552-8.562-13.613-16.227-13.569
		S18.225,86.577,17,94.144c-0.117,0.726-1.117,0.817-1.845,0.721C10.103,94.206,5.052,93.547,0,92.887
		C2.621,88.47,4.228,83.456,4.663,78.338 M86.53,1.647c-6.503-0.355-13.027-0.313-19.525,0.126c0.55,0.671,1.254,1.194,1.937,1.73
		C77.823,10.472,83.951,20.857,85.759,32c0.431,2.656,0.625,5.344,0.819,8.027c0.134,1.857,0.268,3.715,0.402,5.572
		c0.141,1.957,0.282,3.928,0.051,5.877c-0.216,1.821-0.753,3.586-1.287,5.341c-1.349,4.427-2.698,8.853-4.047,13.28
		c7.818-0.665,15.613-1.588,23.37-2.766c0.339-0.052,0.699-0.113,0.955-0.341c0.272-0.243,0.369-0.621,0.452-0.976
		c2.963-12.735,4.647-26.379,0.182-38.668c-2.753-7.577-7.812-14.299-14.332-19.04C89.874,6.523,86.975,4.644,86.53,1.647
		 M51.647,66.491c-2.548,3.061-6.123,5.251-10.008,6.13c-0.997,0.225-2.162,0.476-2.6,1.399c-0.274,0.577-0.531,1.519-1.125,1.283
		c-4.555-1.808-9.786-0.718-14.497-2.066c-1.847-0.528-3.57-1.42-5.395-2.018c-2.954-0.968-6.628-1.526-7.876-4.373
		c-0.338,8.261-2.89,16.421-7.32,23.402c-0.209,0.33-0.43,0.682-0.425,1.073s0.351,0.8,0.731,0.713
		c3.193-0.733,6.614-0.438,9.635,0.829c0.575,0.241,1.158,0.522,1.782,0.525c0.624,0.003,1.304-0.374,1.405-0.989
		c0.904-5.515,5.11-10.24,10.327-12.244c5.217-2.004,11.259-1.411,16.243,1.117c3.514,1.782,6.712,4.762,7.475,8.627
		c0.166,0.842,0.219,1.723,0.586,2.499c0.367,0.776,1.175,1.437,2.02,1.287c3.601-0.641,7.31-0.666,10.919-0.074
		c-1.962-4.069-3.736-8.229-5.316-12.461c-1.813-4.856-3.386-10.117-2.178-15.157c0.24-1.002-1.088-1.781-2.075-1.486
		S52.306,65.699,51.647,66.491 M120.333,81.476c0.661,1.384,0.928,3.171,2.298,3.86c0.442,0.222,0.943,0.29,1.433,0.354
		c3.882,0.511,7.763,1.022,11.645,1.532c-5.437-6.599-8.162-15.367-7.424-23.886c0.189-2.178-2.872-3.169-3.643-5.214
		c-1.439,2.5-3.466,4.659-5.869,6.255c-4.481,2.975-9.984,3.877-15.311,4.618c-6.591,0.916-13.201,1.693-19.825,2.33
		c-1.102,0.106-2.438,0.385-2.773,1.441c-0.184,0.581,0.015,1.242-0.213,1.808c-0.228,0.566-1.31,0.671-1.279,0.062
		c0.046-0.923-0.388-1.941-1.251-2.268s-2.027,0.425-1.844,1.33c0.968,4.79,1.012,9.765,0.13,14.571
		c3.241,0.128,6.483,0.256,9.724,0.383c0.969,0.038,2.231-0.135,2.435-1.083c0.77-3.577,2.473-6.988,5.077-9.558
		c2.604-2.57,6.133-4.252,9.789-4.38c3.806-0.134,7.469,1.36,10.91,2.993C116.712,77.749,119.203,79.109,120.333,81.476
		 M50.867,44.393c-0.269-7.656-1.76-15.51-6.044-21.861s-11.799-10.908-19.411-10.05c-4.314,0.486-8.335,2.644-11.513,5.601
		s-5.565,6.68-7.44,10.595c-1.348,2.814-2.454,5.768-2.948,8.848C2.368,44.657,4.56,51.869,6.993,58.668
		c1.06,2.962,2.266,6.045,4.681,8.062c2.178,1.819,5.057,2.528,7.85,3.029c4.627,0.83,9.391,1.236,14.022,0.433
		c4.631-0.803,9.147-2.906,12.227-6.456C50.248,58.575,51.106,51.219,50.867,44.393 M51.936,3.955
		c7.697,3.504,12.3,11.361,16.412,18.752c0.998,1.794,1.999,3.594,2.778,5.494c2.934,7.161,2.521,15.192,2.06,22.917
		c-0.125,2.097-0.254,4.217-0.875,6.224c-0.458,1.482-1.175,2.868-1.821,4.278c-1.243,2.711-2.236,5.536-2.963,8.427
		c-0.058,0.231-0.111,0.493,0.015,0.696c0.125,0.202,0.38,0.272,0.611,0.326c1.883,0.438,4.119,0.791,5.532-0.528
		c0.665-0.621,1.007-1.506,1.308-2.365c2.88-8.198,4.09-16.978,3.534-25.649c-0.167-2.609-0.492-5.206-0.85-7.796
		c-0.389-2.813-0.82-5.634-1.664-8.346c-2.556-8.201-8.647-14.742-14.554-20.979C59.081,2.897,54.953,2.268,51.936,3.955
		 M120.319,56.05c-0.292-0.843-0.116-1.767,0.037-2.646c2.113-12.114-0.854-24.651-5.928-35.852
		c-1.568-3.461-3.425-6.942-6.422-9.278c-1.227-0.957-2.814-2.191-2.34-3.673c-3.983-0.81-7.966-1.619-11.948-2.429
		c6.09,4.47,11.426,9.966,15.713,16.186c0.776,1.126,1.53,2.3,1.89,3.62c0.641,2.35,1.282,4.7,1.923,7.05
		c0.596,2.186,1.193,4.374,1.601,6.603c1.807,9.87-0.157,19.995-2.117,29.835c0.979-0.408,1.958-0.817,2.937-1.225
		c0.843-0.352,1.694-0.708,2.438-1.239C120.226,61.486,121.173,58.513,120.319,56.05 M79.225,59.143
		c-0.436,0.88-0.743,1.824-0.908,2.793c0.817,0.728,1.634,1.457,2.451,2.185c0.233,0.207,0.499,0.427,0.81,0.416
		c0.51-0.018,0.771-0.607,0.912-1.097c1.125-3.912,2.146-7.853,3.063-11.818c-1.761-1.121-3.256-2.659-4.327-4.452
		c-0.202-0.338-0.261-0.944,0.132-0.965c0.175-0.009,0.316,0.133,0.433,0.264c1.28,1.438,2.56,2.876,3.841,4.314
		c-0.297-4.909-0.594-9.818-0.891-14.727c-0.122-2.016-0.251-4.068-0.96-5.959s-2.098-3.634-4.017-4.265
		c-0.609-0.201-0.13-1.263,0.51-1.21s1.062,0.662,1.427,1.19c0.365,0.528,0.9,1.089,1.532,0.978
		c-1.359-3.27-3.042-6.406-5.016-9.346c-0.296,0.948-1.736,0.587-2.518-0.026c-0.944-0.739-1.807-1.581-2.57-2.506
		c-0.134-0.163-0.273-0.348-0.267-0.559c0.019-0.709,1.155-0.415,1.653,0.09c0.754,0.764,1.508,1.527,2.262,2.291
		c0.24,0.243,0.695,0.003,0.77-0.33c0.076-0.333-0.091-0.667-0.258-0.965c-2.562-4.58-6.25-8.524-10.649-11.385
		c-0.471-0.307-0.75-0.826-1.094-1.271c-0.344-0.445-0.849-0.856-1.407-0.781c-0.557,0.075-0.918,0.914-0.447,1.221
		c1.7,1.109,3.399,2.219,5.099,3.328c0.223,0.146,0.464,0.315,0.529,0.574c0.109,0.435-0.385,0.828-0.833,0.799
		c-0.447-0.029-0.825-0.328-1.17-0.615c-1.658-1.374-3.316-2.748-4.973-4.122c-0.507-0.421-1.316-0.826-1.741-0.323
		c8.469,6.528,14.859,15.714,18.034,25.925c1.997,0.786,3.789,2.085,5.158,3.737c0.085,0.103,0.172,0.214,0.186,0.347
		c0.059,0.546-0.846,0.431-1.276,0.089c-1.323-1.051-2.645-2.101-3.968-3.152c-0.686,3.431,1.612,7.195,4.978,8.153
		c0.475,0.135,0.29,0.952-0.187,1.079c-0.477,0.128-0.954-0.168-1.36-0.449c-0.726-0.503-1.452-1.006-2.178-1.51
		c-0.614,1.32-0.175,2.946,0.746,4.074c0.921,1.128,2.244,1.845,3.569,2.449c0.403,0.184,0.886,0.496,0.798,0.93
		c-0.127,0.625-1.075,0.418-1.605,0.062c-1.042-0.701-2.084-1.401-3.125-2.102c-0.138,2.163-0.276,4.326-0.414,6.488
		c-0.101,1.583-0.199,3.196,0.185,4.735c0.384,1.539,1.335,3.02,2.796,3.639c0.495,0.21,0.102,1.072-0.436,1.059
		c-0.538-0.014-0.931-0.494-1.245-0.931c-0.502-0.698-1.005-1.396-1.507-2.094c-0.856,1.617,0.441,3.571,1.941,4.618
		c0.612,0.427,1.228,1.476,0.518,1.704c-0.34,0.109-0.67-0.171-0.918-0.428C80.602,60.57,79.913,59.856,79.225,59.143
		 M125.64,54.118c3.64-4.285,3.775-10.492,3.165-16.082c-0.867-7.945-2.905-15.859-6.895-22.784c-2-3.473-4.674-6.822-8.422-8.242
		c2.501,3.844,4.693,7.89,6.549,12.084c2.554,5.772,4.478,11.869,5.123,18.148c0.278,2.709,0.317,5.437,0.356,8.161
		C125.558,48.307,125.599,51.212,125.64,54.118 M50.144,59.272c-0.919,1.865-2.408,4.047-1.259,5.78
		c0.498,0.75,1.919,0.954,2.124,0.077c0.109-0.468-0.222-0.914-0.537-1.276c-0.316-0.362-0.659-0.791-0.58-1.264
		c0.079-0.474,0.885-0.694,1.01-0.23c0.162,0.603,0.933,0.952,1.493,0.677s0.755-1.099,0.377-1.596
		c-0.307-0.403-0.852-0.537-1.243-0.858c-0.392-0.322-0.508-1.091-0.023-1.236c0.51-0.152,0.827,0.572,1.316,0.783
		c0.711,0.307,1.403-0.707,1.135-1.434c-0.268-0.726-1.032-1.123-1.732-1.452c-0.471-0.222-0.082-1.042,0.438-1.034
		c0.521,0.008,0.91,0.462,1.225,0.877c0.389-0.538,0.789-1.1,0.91-1.753c0.239-1.293-0.898-2.657-2.213-2.655
		c-0.058-0.811,1.241-0.632,2.016-0.878c0.749-0.238,1.1-1.276,0.649-1.92c-0.314-0.449-0.872-0.64-1.35-0.91
		c-0.477-0.27-0.941-0.759-0.821-1.294c0.12-0.535,1.136-0.568,1.092-0.022c-0.057,0.705,1.009,1.048,1.559,0.603
		c0.55-0.445,0.624-1.261,0.503-1.958c-0.295-1.693-1.54-3.187-3.151-3.783c-0.634-0.235,0.124-1.274,0.759-1.043
		c0.635,0.231,0.934,0.945,1.432,1.402c0.498,0.457,1.584,0.395,1.562-0.281c-0.11-3.333-0.224-6.7-1.088-9.92
		c-0.554-2.068-1.415-4.053-2.545-5.871c-0.546-0.878-1.659-1.162-2.623-1.536c-0.964-0.374-1.996-1.138-1.899-2.167
		c0.967,0.436,1.934,0.873,2.9,1.309c-1.898-2.147-3.995-4.118-6.256-5.879c-0.648-0.505-1.946-0.728-1.974,0.093
		c4.765,4.03,5.342,12.166,11.018,14.76c0.418,0.191,0.161,0.915-0.292,0.995c-0.453,0.08-0.876-0.223-1.236-0.508
		c-0.676-0.536-1.351-1.071-2.027-1.607c-0.457,2.237,1.605,4.141,3.534,5.363c0.43,0.272,0.883,0.558,1.123,1.007
		c0.239,0.449,0.159,1.112-0.3,1.331c-1.211-1.025-2.423-2.049-3.634-3.074c0.398,5,0.443,10.028,0.135,15.034
		C51.518,54.439,51.256,57.013,50.144,59.272 M62.21,70.161c1.824-0.264,3.998-0.811,4.55-2.569
		c1.084-3.452,2.475-6.807,4.151-10.013c-1.337,1.459-2.674,2.918-4.011,4.377c-0.417,0.455-1.102,0.939-1.578,0.545
		c0.099-0.86,0.874-1.452,1.544-1.999c1.1-0.897,2.081-1.939,2.909-3.091c0.728-1.012,1.343-2.123,1.659-3.329
		c0.288-1.102,0.32-2.253,0.349-3.393c0.05-1.911,0.099-3.823,0.149-5.734c-0.811,1.912-1.941,3.687-3.33,5.23
		c-1.51,1.678-2.177,4.08-1.747,6.296c0.92-1.841,1.84-3.683,2.76-5.524c0.195-0.39,0.54-0.85,0.956-0.719
		c-0.599,2.433-1.72,4.737-3.265,6.71c-1.9,2.427-3.023,5.453-3.168,8.532c1.227,0.002,2.066-1.197,2.681-2.259
		c0.316,0.843,0.104,1.861-0.523,2.508c-0.627,0.647-1.637,0.891-2.49,0.601C63.07,67.508,62.528,68.808,62.21,70.161
		 M57.075,16.008c-0.016,0.429,0.25,0.812,0.504,1.158c0.599,0.816,1.198,1.633,1.797,2.449c0.316-1.235,0.631-2.471,0.947-3.706
		c0.121-0.472,0.621-1.061,0.951-0.704c0.131,0.141,0.119,0.359,0.093,0.55c-0.187,1.338-0.727,2.614-0.835,3.961
		c-0.108,1.346,0.371,2.895,1.607,3.439c0.199-1.557,0.557-3.094,1.068-4.579c0.192-0.557-0.071-1.16-0.345-1.682
		c-2.218-4.222-5.612-7.819-9.698-10.278c-0.539-0.324-1.098,0.386-1.33,0.971c-0.281,0.708-0.565,1.431-0.615,2.191
		s0.172,1.578,0.755,2.069c0.415,0.349,1.237,0.356,1.325-0.179c0.119-0.733,0.239-1.466,0.358-2.199
		c0.076-0.464,0.422-1.077,0.836-0.855c0.278,0.149,0.255,0.549,0.193,0.858c-0.112,0.556-0.223,1.113-0.335,1.669
		c-0.112,0.558-0.224,1.133-0.122,1.693c0.179,0.98,0.965,1.717,1.708,2.38c0.264-1.021,0.527-2.041,0.791-3.062
		c0.107-0.414,0.243-0.869,0.607-1.092c0.365-0.224,0.988,0.031,0.91,0.452C57.535,12.901,57.132,14.448,57.075,16.008
		 M67.971,45.79c0.861-1.242,1.5-2.637,1.875-4.101c0.305-1.189,0.526-2.56,1.547-3.24c0.531-0.354,0.466-1.14,0.334-1.764
		c-0.601-2.854-1.307-5.687-2.114-8.49c-0.522,1.482-1.044,2.964-1.567,4.446c-0.127,0.359-0.263,0.734-0.543,0.992
		c-0.28,0.259-0.75,0.354-1.038,0.105c0.658-1.642,1.315-3.284,1.973-4.927c0.635-1.585,0.112-3.558-1.224-4.622
		c-0.306,1.71-0.753,3.394-1.336,5.03c-0.41,1.15-0.179,2.418,0.056,3.617c0.422,2.154,0.844,4.307,1.267,6.461
		c0.457-0.783,0.913-1.566,1.37-2.349c0.486-0.833,1.021-1.713,1.891-2.128c0.357,0.201,0.189,0.743-0.021,1.095
		c-0.83,1.384-1.661,2.769-2.492,4.153c-0.305,0.508-0.276,1.141-0.237,1.731C67.798,43.13,67.885,44.46,67.971,45.79
		 M122.231,40.494c0.079-1.313,0.48-2.605,1.158-3.732c-0.623-9.66-5.186-18.582-9.928-27.022c-0.683-1.216-1.391-2.452-2.433-3.38
		s-2.495-1.508-3.847-1.165c0.485,1.174,1.977,1.816,3.163,1.359c5.567,8.738,11.115,18.078,11.651,28.425
		C122.09,36.818,122.023,38.666,122.231,40.494 M109.767,56.41c-0.07,0.412-0.14,0.83-0.097,1.245
		c0.58-0.987,1.159-1.974,1.739-2.961c0.566-0.964,1.134-1.931,1.571-2.96c1.253-2.95,1.37-6.24,1.469-9.443
		c0.008-0.254,0.005-0.538-0.172-0.721s-0.58-0.109-0.574,0.145c0.053,2.396,0.044,4.996-1.402,6.907
		c-0.448,0.591-1.022,1.097-1.35,1.762c-0.239,0.485-0.332,1.026-0.423,1.559C110.273,53.431,110.02,54.921,109.767,56.41
		 M111.482,43.511c-0.497,1.315-0.695,2.742-0.575,4.143c0.762-0.834,1.097-1.962,1.408-3.048c0.318-1.11,0.636-2.221,0.954-3.331
		c0.296-1.034,0.595-2.092,0.538-3.166c-0.025-0.473-0.119-0.94-0.213-1.405c-0.252-1.251-0.505-2.503-0.758-3.754
		c-0.184-0.912-0.377-1.848-0.878-2.633c0.015,1.158,0.029,2.317,0.044,3.475c0.008,0.61,0.015,1.224-0.087,1.825
		c-0.178,1.049-0.679,2.013-0.991,3.03c-0.312,1.018-0.412,2.192,0.165,3.086c0.403-1.475,0.697-2.98,0.88-4.498
		c0.033-0.277,0.472-0.313,0.652-0.101c0.181,0.212,0.17,0.522,0.145,0.799C112.592,39.839,112.158,41.721,111.482,43.511
		 M123.011,55.703c0.315,0.418,0.414,0.991,0.256,1.49c0.567,0.114,0.81-0.693,0.802-1.271c-0.02-1.427-0.041-2.854-0.061-4.281
		c-0.059-4.139-0.118-8.279-0.176-12.418c-0.556,0.462-0.638,1.269-0.678,1.991c-0.07,1.242-0.14,2.484-0.21,3.726
		c-0.225,3.993-0.45,7.987-0.835,11.967C122.409,56.506,122.71,56.104,123.011,55.703 M65.034,28.679
		c0.441-1.633,0.881-3.265,1.322-4.898c0.07-0.259,0.141-0.527,0.109-0.793c-0.039-0.33-0.228-0.62-0.412-0.897
		c-0.644-0.969-1.289-1.938-1.933-2.907c-0.38,1.601-0.759,3.201-1.139,4.802c-0.058,0.243-0.116,0.496-0.067,0.741
		c0.057,0.283,0.247,0.518,0.418,0.751c0.67,0.916,1.113,1.995,1.28,3.118C64.724,28.7,64.894,28.733,65.034,28.679 M96.371,7.242
		c-0.091-0.456-0.423-0.82-0.748-1.152c-0.862-0.881-1.772-1.715-2.724-2.498c-0.45,0.126-0.34,0.817-0.033,1.17
		c0.307,0.352,0.744,0.72,0.65,1.177c-0.128,0.623,0.368,1.184,0.824,1.626c2.047,1.985,4.094,3.97,6.141,5.956
		c0.016-0.805,0.033-1.611,0.049-2.416c0.01-0.476-0.087-1.093-0.554-1.183c-0.063,0.629-0.402,1.226-0.91,1.603
		c-0.361-0.33-0.392-0.882-0.361-1.37c0.031-0.488,0.089-1.014-0.161-1.434c-0.25-0.42-0.964-0.573-1.203-0.146
		c-0.181,0.323-0.722,0.113-0.854-0.233C96.354,7.996,96.443,7.605,96.371,7.242 M80.878,67.544
		c0.148-0.431,0.298-0.893,0.178-1.333c-0.112-0.411-0.439-0.722-0.752-1.011c-0.658-0.607-1.316-1.215-1.973-1.822
		c-0.102-0.094-0.235-0.196-0.366-0.151c-0.076,0.026-0.128,0.095-0.171,0.162c-0.377,0.593-0.414,1.386-0.095,2.011
		c0.32,0.625,0.985,1.06,1.686,1.101c0.439,0.026,0.611,0.686,0.312,1.009s-0.839,0.306-1.218,0.083
		c-0.379-0.223-0.636-0.602-0.879-0.969c-0.234-0.352-0.854-0.036-0.885,0.385c-0.032,0.421,0.277,0.783,0.565,1.092
		c0.83,0.888,1.66,1.776,2.49,2.664C80.14,69.692,80.509,68.618,80.878,67.544 M67.667,49.8c1.345-1.612,2.537-3.352,3.556-5.188
		c0.367-0.661,0.719-1.365,0.738-2.12c0.031-1.208,0.062-2.416,0.093-3.624c-0.549,0.266-0.802,0.899-0.976,1.484
		c-0.558,1.879-0.82,3.904-1.916,5.529c-0.414,0.613-0.937,1.152-1.295,1.798C67.507,48.326,67.332,49.14,67.667,49.8 M47.763,6.911
		c-0.064,0.138-0.129,0.283-0.122,0.436c0.011,0.229,0.183,0.415,0.344,0.578c0.44,0.446,0.88,0.891,1.32,1.337
		c0.099,0.101,0.206,0.206,0.344,0.238c0.365,0.087,0.617-0.35,0.736-0.706c0.347-1.04,0.694-2.08,1.041-3.12
		c-0.889-0.306-1.777-0.612-2.666-0.917C48.428,5.475,48.095,6.193,47.763,6.911 M110.672,30.063
		c-0.005-0.143-0.033-0.316-0.166-0.369c-0.118-0.047-0.245,0.029-0.37,0.05c-0.435,0.072-0.665-0.495-0.717-0.934
		c-0.126-1.079-0.164-2.168-0.111-3.253c-0.422-0.305-1.061,0.044-1.237,0.534c-0.177,0.49-0.036,1.031,0.112,1.531
		c0.57,1.927,1.237,3.825,1.996,5.685C110.542,32.268,110.71,31.162,110.672,30.063 M88.783,3.011
		c0.694,0.954,1.597,1.757,2.626,2.335c0.14-0.459,0.28-0.918,0.42-1.377c0.182-0.597,0.33-1.337-0.122-1.767
		c-0.654-0.622-1.835,0.066-2.604-0.405c-0.253-0.155-0.597,0.107-0.631,0.402C88.439,2.494,88.608,2.771,88.783,3.011
		 M47.542,67.786c0.637,0.047,1.454-0.221,1.481-0.86c0.014-0.315-0.183-0.596-0.371-0.85c-0.442-0.598-0.884-1.195-1.326-1.793
		c-0.87,0.575-1.862,1.479-1.515,2.463C46.049,67.419,46.832,67.733,47.542,67.786 M101.368,11.221
		c0.227,0.673,0.165,1.438-0.167,2.066c-0.101,0.191-0.229,0.379-0.241,0.594c-0.014,0.248,0.127,0.476,0.269,0.68
		c0.541,0.782,1.161,1.509,1.848,2.166c0.006-0.636,0.011-1.272,0.017-1.908c0.006-0.726,0.01-1.469-0.231-2.153
		C102.621,11.982,102.081,11.356,101.368,11.221 M37.269,13.175c0.257,0.584,0.904,0.869,1.472,1.16
		c1.594,0.818,2.957,2.08,3.894,3.607c0.356-0.097,0.524-0.537,0.445-0.897s-0.338-0.651-0.596-0.913
		c-1.185-1.201-2.59-2.184-4.126-2.884C38.01,13.091,37.58,12.953,37.269,13.175 M40.947,69.068
		c-0.737,0.353-1.473,0.706-2.21,1.059c1.087,1.222,3.207,1.31,4.391,0.183c-0.425-0.372-0.85-0.743-1.275-1.115
		c-0.128-0.112-0.267-0.229-0.435-0.25C41.255,68.924,41.096,68.997,40.947,69.068 M112.143,56.462
		c-0.17,1.104-0.34,2.208-0.51,3.311c-0.12,0.779-0.151,1.757,0.531,2.151c0.381-2.563,0.763-5.126,1.144-7.689
		C112.509,54.594,112.277,55.596,112.143,56.462 M109.837,24.533c0.442-0.109,0.451-0.734,0.332-1.174
		c-0.489-1.808-1.433-3.491-2.721-4.85c-0.214,1.059,0.206,2.22,1.047,2.898c0.512,0.413,0.627,1.146,0.603,1.803
		c-0.011,0.296-0.041,0.602,0.061,0.879C109.261,24.368,109.55,24.604,109.837,24.533 M45.638,67.869
		c-0.358-0.368-0.829-0.656-1.342-0.677c-0.513-0.021-1.055,0.282-1.202,0.774c-0.203,0.678,0.424,1.376,1.117,1.521
		c0.692,0.145,1.401-0.098,2.066-0.338C46.242,68.663,45.977,68.218,45.638,67.869 M108.726,62.647
		c-0.037,0.182-0.074,0.37-0.036,0.551c0.034,0.161,0.128,0.309,0.26,0.407c1.145-1.866,1.94-3.946,2.33-6.1
		C109.643,58.596,109.121,60.721,108.726,62.647 M35.307,71.412c-0.239,0.284-0.049,0.754,0.277,0.932
		c0.325,0.178,0.72,0.15,1.09,0.117c0.407-0.037,0.814-0.073,1.221-0.11c0.485-0.044,1.132-0.29,1.028-0.766
		c-0.458-0.017-0.909-0.195-1.255-0.496c-0.536-0.466-1.361-0.195-2.009,0.097C35.53,71.244,35.397,71.305,35.307,71.412
		 M108.088,66.364c1.371,0.476,3.05-0.302,3.573-1.656c0.187-0.483,0.237-1.006,0.286-1.522c-0.281-0.047-0.506,0.216-0.678,0.444
		C110.419,64.753,109.326,65.692,108.088,66.364 M106.2,16.522c-0.103,0.865-0.205,1.731-0.308,2.596
		c-0.082,0.689-0.161,1.403,0.052,2.063c0.144,0.446,0.421,0.848,0.786,1.142c0.6-1.069-0.619-2.578,0.105-3.567
		C107.331,18.078,106.755,17.154,106.2,16.522 M44.458,5.209c-0.159,0.033-0.344,0.087-0.396,0.241
		c-0.075,0.217,0.174,0.399,0.383,0.495c0.557,0.256,1.141,0.518,1.754,0.491c0.613-0.027,1.255-0.442,1.319-1.052
		c0.027-0.26-0.084-0.56-0.33-0.65c-0.148-0.054-0.312-0.023-0.466,0.009C45.966,4.898,45.212,5.054,44.458,5.209 M105.098,18.284
		c-0.093-0.987-0.186-1.975-0.278-2.962c-0.033-0.348-0.128-0.774-0.466-0.863c-0.587,1.57-0.448,3.395,0.37,4.857
		C105.101,19.192,105.135,18.679,105.098,18.284 M76.357,71.253c0.452,0.007,0.932-0.003,1.315-0.244
		c0.07-0.044,0.139-0.1,0.16-0.179c0.033-0.121-0.056-0.239-0.139-0.333c-0.47-0.533-0.94-1.065-1.409-1.598
		c-0.162,0.507-0.324,1.013-0.485,1.52c-0.07,0.22-0.133,0.484,0.014,0.662C75.938,71.233,76.16,71.25,76.357,71.253 M31.548,72.13
		c-0.088,0.343,0.342,0.578,0.69,0.645c0.594,0.114,1.205,0.136,1.806,0.064c-0.096-1.001-1.469-1.605-2.272-1
		C31.672,71.915,31.579,72.009,31.548,72.13 M111.368,26.895c0.065-0.283,0.114-0.58,0.046-0.862
		c-0.08-0.33-0.329-0.614-0.645-0.737c-0.217,1.15-0.253,2.334-0.105,3.495C110.98,28.193,111.217,27.554,111.368,26.895
		 M24.969,71.839c1.084,0.63,2.467,0.716,3.621,0.227C27.472,71.532,26.145,71.448,24.969,71.839 M110.346,34.889
		c0.003,0.544,0.056,1.089,0.159,1.623c0.559-0.622,0.778-1.532,0.564-2.34c-0.144-0.17-0.444-0.103-0.577,0.076
		C110.358,34.426,110.345,34.666,110.346,34.889 M112.373,6.321c0.247,0.22,0.552,0.374,0.876,0.441
		c0.201-0.717-0.667-1.242-1.383-1.445C111.903,5.699,112.088,6.065,112.373,6.321 M65.848,70.789
		c0.048-0.147,0.019-0.317-0.076-0.439c-0.489-0.094-1.022,0.081-1.359,0.448c0.388,0.371,1.068,0.377,1.462,0.012 M123.244,38.851
		c0.139,0.288,0.605-0.004,0.625-0.323c0.02-0.32-0.139-0.657-0.009-0.949c-0.139-0.094-0.318-0.127-0.481-0.09
		c-0.084,0.443-0.106,0.898-0.066,1.347 M38.104,73.987c-0.1-0.205-0.2-0.41-0.301-0.615c-0.267,0.164-0.394,0.523-0.29,0.819
		c0.138,0.199,0.523,0.072,0.516-0.17 M107.738,24.383c0.011,0.229-0.071,0.46-0.223,0.632c0.112,0.151,0.293,0.249,0.481,0.26
		c-0.031-0.302-0.063-0.604-0.094-0.906L107.738,24.383z"/>
</g>
</svg>