<!-- Generator: Adobe Illustrator 20.1.0, SVG Export Plug-In  -->
<svg version="1.1"
	 xmlns="http://www.w3.org/2000/svg" xmlns:xlink="http://www.w3.org/1999/xlink" xmlns:a="http://ns.adobe.com/AdobeSVGViewerExtensions/3.0/"
	 x="0px" y="0px" width="79.618px" height="122.736px" viewBox="0 0 79.618 122.736"
	 style="enable-background:new 0 0 79.618 122.736;" xml:space="preserve">
<style type="text/css">
	.st0{fill:#010101;stroke:#000000;stroke-miterlimit:10;}
</style>
<defs>
</defs>
<g id="Barrel_1_">
	<path class="st0" d="M0.793,59.152c0.9-15.077,4.042-30.018,9.29-44.18c0.969-2.614,2.039-5.252,3.843-7.377
		c4.017-4.732,10.739-5.967,16.922-6.514c6.354-0.562,12.744-0.716,19.118-0.46c6.486,0.26,13.524,1.202,18.082,5.824
		c3.086,3.129,4.54,7.482,5.709,11.718c4.707,17.064,6.34,34.971,4.798,52.604c-1.105,12.634-3.854,25.195-8.99,36.791
		c1.038-0.117,1.235,1.443,0.994,2.46c-0.357,1.507-0.714,3.014-1.071,4.521c-0.26,1.097-0.549,2.25-1.33,3.063
		c-0.916,0.954-2.309,1.237-3.61,1.474c-12.232,2.224-24.778,4.451-37.017,2.269C21.235,120.22,15,117.934,8.632,118.53
		c-2.425,0.227-4.07-2.428-4.689-4.783c-0.593-2.259-0.819-4.596-1.043-6.921C1.373,90.975-0.156,75.047,0.793,59.152
		 M53.235,104.387c0.523-3.045,1.046-6.091,1.569-9.136c0.565-3.29,1.13-6.583,1.491-9.901c0.704-6.483,0.621-13.022,0.538-19.542
		c-0.1-7.842-0.201-15.684-0.301-23.526c-0.055-4.323-0.111-8.651-0.467-12.96c-0.077-0.925-0.486-2.136-1.411-2.05
		c-8.637,0.795-17.362,0.63-25.962-0.491c-0.754-0.098-1.176,0.828-1.344,1.569c-5.593,24.68-5.196,50.27-4.77,75.572
		c0.005,0.309,0.02,0.646,0.222,0.881c0.176,0.205,0.455,0.284,0.718,0.35c4.157,1.047,8.462,1.507,12.746,1.361
		c0.612-0.021,1.419-0.25,1.4-0.862c-0.316-10.25,0.62-20.493,1.554-30.706c1.402-15.32,2.804-30.64,4.206-45.96
		c0.04-0.433,0.258-1.01,0.684-0.921c-0.391,25.92-5.613,51.64-5.156,77.56c0.005,0.264,0.029,0.566,0.241,0.722
		c0.162,0.12,0.382,0.112,0.583,0.099c4.082-0.264,8.161-0.565,12.237-0.902c0.294-0.024,0.608-0.057,0.835-0.246
		C53.104,105.082,53.177,104.72,53.235,104.387 M16.485,25.395c-0.321,0.193-0.47,0.573-0.589,0.928
		c-0.925,2.76-1.348,5.659-1.767,8.54c-3.234,22.243-6.444,45.045-1.793,67.035c0.102,0.484,0.219,0.989,0.54,1.366
		c0.4,0.469,1.037,0.649,1.637,0.789c1.93,0.451,3.897,0.743,5.874,0.873c0.357,0.023,0.85-0.078,0.844-0.436
		c-0.41-26.08-0.786-52.486,5.291-77.851c-2.981-0.662-6.006-1.12-9.049-1.372C17.136,25.241,16.774,25.221,16.485,25.395
		 M55.547,98.471c-0.393,2.145-0.787,4.29-1.18,6.435c2.61,0.251,5.25,0.196,7.848-0.163c0.42-0.058,0.869-0.139,1.168-0.439
		c0.296-0.296,0.378-0.738,0.445-1.151c2.058-12.554,4.12-25.131,4.977-37.824s0.496-25.547-2.251-37.969
		c-0.076-0.343-0.179-0.722-0.481-0.902c-0.236-0.141-0.531-0.119-0.805-0.092c-2.502,0.243-5.004,0.485-7.506,0.728
		c-0.397,0.039-0.927,0.246-0.837,0.635c0.71,3.079,0.747,6.267,0.78,9.427c0.13,12.285,0.259,24.571,0.389,36.856
		c0.018,1.75,0.037,3.501-0.016,5.251C57.883,85.725,56.713,92.113,55.547,98.471 M10.396,23.519
		c-0.402-0.142-0.843-0.285-1.245-0.142c-0.557,0.197-0.793,0.84-0.958,1.407C1.245,48.726-0.11,74.273,4.265,98.816
		c0.071,0.398,0.15,0.811,0.386,1.14c0.314,0.437,0.847,0.648,1.351,0.837c1.582,0.593,3.164,1.187,4.746,1.78
		c-1.052-7.534-1.89-15.11-2.061-22.715c-0.326-14.588,1.805-29.107,3.93-43.543c0.555-3.768,1.122-7.582,2.597-11.093
		C13.608,24.654,12.002,24.086,10.396,23.519 M7.163,116.727c0.721,0.473,1.653,0.404,2.513,0.361
		c7.875-0.389,15.454,2.908,23.298,3.705c3.755,0.382,7.544,0.187,11.305-0.131c7.006-0.591,13.977-1.605,20.861-3.036
		c0.679-0.141,1.401-0.31,1.88-0.812c0.454-0.476,0.599-1.159,0.726-1.805c0.369-1.884,0.738-3.768,1.107-5.652
		c-1.991,0.586-4.041,0.942-6.086,1.298c-11.802,2.051-23.745,4.11-35.695,3.269c-7.868-0.554-15.646-2.373-22.943-5.368
		c0.136,2.419,0.829,4.804,2.009,6.92C6.404,115.952,6.708,116.428,7.163,116.727 M26.503,107.142
		c-1.645-0.261-3.278-0.606-4.934-0.792c-1.593-0.179-3.201-0.21-4.786-0.444c-2.816-0.416-5.495-1.462-8.146-2.5
		c-1.456-0.57-2.913-1.141-4.369-1.711c-0.47,1.691-0.863,3.733,0.339,5.012c0.45,0.479,1.063,0.766,1.665,1.03
		c9.417,4.129,19.903,5.35,30.179,4.978s20.427-2.279,30.532-4.18c0.797-0.15,1.219-1.039,1.347-1.84s0.102-1.666,0.534-2.354
		c-1.876-0.013-3.735,0.915-4.854,2.421c-0.234,0.316-0.558-0.295-0.877-0.524c-0.174-0.124-0.405-0.121-0.619-0.113
		c-2.428,0.092-4.855,0.184-7.283,0.276c-0.535,0.02-1.269,0.288-1.13,0.805c0.111,0.413-0.507,0.705-0.877,0.491
		c-0.371-0.214-0.513-0.669-0.623-1.083C43.922,107.563,35.123,108.51,26.503,107.142 M69.622,98.1
		c0.333-2.601,0.925-5.162,1.398-7.741c1.594-8.696,1.832-17.575,2.066-26.413c0.208-7.868,0.417-15.735,0.625-23.603
		c0.14-5.285,0.278-10.608-0.576-15.826c-1.545,0.527-3.089,1.055-4.634,1.582c-0.192,0.066-0.391,0.136-0.532,0.281
		c-0.301,0.311-0.219,0.815-0.119,1.237c2.95,12.431,3.172,25.371,2.199,38.11c-0.974,12.739-3.124,25.353-4.874,38.009
		c1.305,0.466,2.773-0.426,3.463-1.627C69.327,100.906,69.446,99.474,69.622,98.1 M71.145,101.497
		c0.78-2.092,1.44-4.229,1.974-6.396c0.571-2.318,0.999-4.669,1.427-7.018c1.707-9.381,3.42-18.83,3.32-28.364
		c-0.023-2.176-0.14-4.35-0.281-6.522c-0.517-7.963-1.351-15.906-2.5-23.802c-0.121,6.901-0.242,13.802-0.364,20.704
		c-0.036,2.062-0.072,4.123-0.109,6.185c-0.094,5.347-0.188,10.695-0.491,16.034c-0.574,10.113-1.899,20.184-3.96,30.101
		C70.644,102.506,70.974,101.956,71.145,101.497 M27.273,20.274c-0.191-0.262-0.539-0.344-0.856-0.407
		c-2.992-0.598-5.984-1.197-8.975-1.795c-0.25-0.05-0.541-0.09-0.732,0.079c-0.163,0.144-0.188,0.384-0.2,0.601
		c-0.075,1.325-0.1,2.654-0.073,3.981c0.004,0.222,0.014,0.454,0.128,0.644c0.187,0.309,0.585,0.403,0.941,0.467
		c8.272,1.494,16.658,2.355,25.06,2.575c0.131,0.003,0.279,0,0.368-0.096c0.092-0.1,0.079-0.254,0.06-0.389
		c-0.219-1.567-0.439-3.134-0.658-4.701c-0.028-0.203-0.065-0.422-0.212-0.565c-0.168-0.163-0.427-0.177-0.661-0.181
		c-3.95-0.068-7.9-0.137-11.85-0.205c-0.224-0.004-0.471,0-0.641,0.146c-0.197,0.169-0.217,0.463-0.221,0.723
		c-0.02,1.123-0.041,2.245-0.061,3.368c-0.009,0.475-0.763,0.587-1.084,0.238c-0.321-0.349-0.317-0.879-0.293-1.354
		c0.038-0.757,0.075-1.514,0.113-2.27C27.44,20.835,27.447,20.513,27.273,20.274 M56.966,19.583
		c-0.163,0.03-0.341,0.069-0.444,0.199c-0.116,0.144-0.1,0.35-0.078,0.534c0.174,1.484,0.349,2.968,0.523,4.452
		c0.035,0.296-0.37,0.484-0.643,0.362c-0.272-0.122-0.419-0.416-0.53-0.693c-0.516-1.287-0.73-2.694-0.619-4.076
		c0.043-0.538-0.713-0.701-1.252-0.662c-3.198,0.233-6.396,0.466-9.595,0.699c-0.171,0.012-0.358,0.032-0.478,0.155
		c-0.149,0.153-0.132,0.396-0.105,0.608c0.173,1.353,0.346,2.706,0.518,4.059c0.048,0.376,0.113,0.786,0.397,1.037
		c0.305,0.27,0.757,0.266,1.164,0.245c6.615-0.328,13.222-0.805,19.816-1.431c0.294-0.028,0.625-0.076,0.799-0.316
		c0.144-0.199,0.131-0.467,0.111-0.712c-0.145-1.735-0.353-3.465-0.622-5.185c-0.032-0.207-0.072-0.428-0.217-0.58
		c-0.24-0.253-0.647-0.208-0.99-0.144C62.136,18.617,59.551,19.1,56.966,19.583 M43.775,1.666c-0.204-0.076-0.429-0.069-0.646-0.06
		c-1.913,0.077-3.825,0.188-5.734,0.332c1.806,5.497,4.783,10.523,7.737,15.498c0.262,0.441,0.538,0.897,0.963,1.185
		c0.631,0.427,1.455,0.397,2.216,0.352c1.298-0.078,2.596-0.155,3.894-0.233c0.308-0.018,0.632-0.042,0.888-0.213
		c0.257-0.171,0.406-0.544,0.231-0.798c-3.303-4.801-6.232-9.859-8.751-15.113C44.39,2.233,44.172,1.815,43.775,1.666
		 M35.786,19.245c0.189,0.006,0.438-0.036,0.461-0.223c0.01-0.079-0.03-0.155-0.068-0.224c-2.811-5.127-5.622-10.255-8.432-15.382
		c-0.123-0.225-0.263-0.465-0.5-0.565c-0.224-0.094-0.48-0.039-0.716,0.018c-1.612,0.388-3.225,0.776-4.837,1.164
		c-0.304,0.073-0.668,0.21-0.708,0.52c-0.019,0.15,0.048,0.295,0.115,0.431c2.344,4.796,5.04,9.421,8.058,13.824
		c0.139,0.202,0.421,0.23,0.666,0.238C31.811,19.111,33.798,19.178,35.786,19.245 M29.655,2.318
		c-0.246,0.025-0.549,0.098-0.604,0.339c-0.03,0.131,0.03,0.264,0.089,0.385c2.534,5.213,5.358,10.286,8.453,15.187
		c0.207,0.328,0.43,0.669,0.771,0.851c0.353,0.189,0.774,0.178,1.174,0.163c1.256-0.048,2.512-0.095,3.767-0.143
		c0.448-0.017,1.075-0.336,0.835-0.715c-3.179-5.034-5.895-10.361-8.103-15.89c-0.195-0.488-0.849-0.551-1.375-0.531
		C32.992,2.032,31.321,2.15,29.655,2.318 M46.641,1.676c-0.195-0.009-0.404-0.014-0.568,0.093c-0.39,0.254-0.211,0.854,0.011,1.264
		c2.794,5.162,5.84,10.189,9.122,15.055c0.098,0.146,0.301,0.169,0.477,0.176c1.301,0.05,2.608-0.044,3.889-0.28
		c0.355-0.065,0.815-0.371,0.61-0.669c-3.205-4.665-5.848-9.716-7.852-15.009c-0.126-0.333-0.559-0.402-0.915-0.417
		C49.823,1.817,48.232,1.746,46.641,1.676 M21.34,17.555c0.16,0.267,0.507,0.34,0.814,0.386c1.638,0.247,3.282,0.46,4.93,0.637
		c-2.412-4.388-4.824-8.776-7.237-13.163c-0.079-0.144-0.173-0.3-0.331-0.347c-0.148-0.044-0.304,0.025-0.443,0.094
		c-0.827,0.413-1.621,0.894-2.369,1.437c-0.288,0.209-0.58,0.44-0.726,0.764c-0.292,0.644,0.082,1.378,0.445,1.984
		C18.063,12.083,19.701,14.819,21.34,17.555 M63.006,17.336c0.513-0.114,1.027-0.227,1.54-0.341c0.412-0.091,0.942-0.47,0.68-0.8
		c-2.721-3.416-4.193-7.634-5.616-11.763c-0.331-0.959-1.224-1.638-2.184-1.966c-0.96-0.328-1.992-0.359-3.006-0.386
		c-0.252-0.007-0.578,0.04-0.633,0.286c-0.024,0.11,0.02,0.221,0.063,0.325c2.056,4.903,4.619,9.594,7.636,13.972
		c0.209,0.303,0.45,0.627,0.808,0.717C62.526,17.44,62.771,17.388,63.006,17.336 M60.762,3.867c0.468,1.197,0.937,2.394,1.405,3.592
		c0.608,1.555,1.218,3.114,2.009,4.583c0.631,1.173,1.376,2.285,2.22,3.315c0.116,0.142,0.244,0.289,0.419,0.343
		c0.339,0.105,0.666-0.175,0.911-0.432c0.705-0.738,1.432-1.513,1.734-2.488c0.556-1.8-0.501-3.711-1.805-5.07
		C65.807,5.784,63.373,4.427,60.762,3.867 M11.998,22.8c0.754,0.271,1.528,0.489,2.314,0.65c0.337,0.069,0.837-0.003,0.816-0.346
		c-0.105-1.728-0.049-3.466,0.167-5.183c0.02-0.161,0.041-0.328-0.007-0.482c-0.099-0.313-0.438-0.469-0.728-0.622
		c-1.134-0.598-1.986-1.708-2.272-2.958c-0.027-0.119-0.195-0.155-0.301-0.094c-0.106,0.061-0.163,0.179-0.214,0.289
		c-0.52,1.132-1.044,2.28-1.255,3.508c-0.122,0.712-0.152,1.483-0.585,2.061c-0.442,0.591-0.278,1.476,0.193,2.044
		S11.303,22.55,11.998,22.8 M69.797,14.71C69.36,15.49,68.74,16.167,68,16.671c-0.582,0.396,0.496,1.539-0.085,1.936
		c-0.427,0.292-0.414,0.914-0.355,1.428c0.153,1.33,0.306,2.66,0.459,3.991c0.014,0.122,0.03,0.25,0.102,0.35
		c0.139,0.192,0.418,0.202,0.654,0.18c0.766-0.071,1.52-0.277,2.216-0.604c0.439-0.206,0.885-0.494,1.058-0.947
		s-0.085-1.083-0.569-1.116c-0.334-0.023-0.48-0.426-0.54-0.755c-0.398-2.185-0.519-4.42-0.358-6.635
		c0.014-0.19-0.249-0.297-0.422-0.217S69.89,14.543,69.797,14.71 M19.442,17.246c0.116-0.271-0.042-0.574-0.195-0.825
		c-0.493-0.812-0.985-1.623-1.478-2.435c-0.969-1.597-1.941-3.2-2.697-4.908c-0.102-0.231-0.279-0.509-0.527-0.459
		c-0.152,0.03-0.248,0.176-0.324,0.31c-0.569,1.006-0.974,2.13-0.984,3.285s0.411,2.344,1.276,3.11
		c0.724,0.641,1.68,0.938,2.606,1.218C17.894,16.777,18.668,17.012,19.442,17.246 M71.735,18.959
		c0.168-0.076,0.236-0.313,0.136-0.467c-0.242-0.019-0.365,0.421-0.124,0.455L71.735,18.959z"/>
</g>
</svg>