<!-- Generator: Adobe Illustrator 20.1.0, SVG Export Plug-In  -->
<svg version="1.1"
	 xmlns="http://www.w3.org/2000/svg" xmlns:xlink="http://www.w3.org/1999/xlink" xmlns:a="http://ns.adobe.com/AdobeSVGViewerExtensions/3.0/"
	 x="0px" y="0px" width="53.636px" height="76.268px" viewBox="0 0 53.636 76.268"
	 style="enable-background:new 0 0 53.636 76.268;" xml:space="preserve">
<style type="text/css">
	.st0{fill:#010101;stroke:#000000;stroke-width:0.25;stroke-miterlimit:10;}
</style>
<defs>
</defs>
<path class="st0" d="M9.503,43.143c-0.465-0.205-1.001-0.064-1.509-0.076c-0.508-0.012-1.113-0.329-1.071-0.835
	c0.064-0.769,1.221-0.626,1.954-0.865c1.446-0.471,1.176-2.583,0.611-3.994c-0.291-0.727-1.255-0.86-2.036-0.8
	c-0.78,0.06-1.68,0.161-2.236-0.39c-0.556-0.551,0.104-1.837,0.739-1.38c0.71,0.511,1.78-0.071,2.085-0.89
	c0.305-0.819,0.087-1.73-0.134-2.576c-0.327-1.252-0.737-2.622-1.831-3.314c-1.175-0.743-3.216-0.965-3.098-2.35
	c1.011-0.303,2.161-0.099,3.006,0.535c-0.139-1.935-0.532-3.852-1.168-5.685c-0.831,0.452-2.081,0.129-2.351-0.777
	c-0.27-0.906,0.987-1.891,1.688-1.256c0.047-1.664-0.083-3.664-1.531-4.485c-0.487-0.276-1.057-0.366-1.563-0.604
	c-0.506-0.238-0.98-0.714-0.928-1.271c0.052-0.557,0.915-0.903,1.194-0.418c0.352,0.612,1.378,0.006,1.413-0.699
	c0.035-0.705-0.412-1.342-0.521-2.04C2.019,7.709,3.178,6.42,4.453,6.481c8.831,0.423,17.726-0.538,26.263-2.835
	c4.539-1.222,8.996-2.823,13.647-3.503c3.02,22.757,6.04,45.514,9.06,68.272c0.157,1.183,0.209,2.622-0.77,3.305
	c-0.381,0.266-0.854,0.357-1.311,0.439c-9.011,1.624-18.153,2.376-27.278,3.126c-3.471,0.285-6.941,0.57-10.412,0.856
	c-0.765,0.063-1.141-0.938-1.082-1.704c0.06-0.765,0.266-1.642-0.24-2.22c-0.462-0.528-1.293-0.517-1.874-0.911
	c-0.581-0.394-0.353-1.673,0.279-1.367c0.852,0.414,1.418-0.936,1.412-1.883c-0.012-1.639-0.302-3.684-1.861-4.191
	c-0.499-0.163-0.757-0.828-0.497-1.284c0.26-0.457,0.963-0.575,1.358-0.229c1.175-1.923,0.162-4.809-1.957-5.577
	c-0.296-0.355,0.327-0.79,0.785-0.724s1.013,0.262,1.317-0.087c0.174-0.199,0.168-0.493,0.153-0.757
	c-0.087-1.543-0.345-3.364-1.72-4.07c-0.729-0.374-1.9-0.885-1.45-1.57c0.442-0.674,1.638,0.163,2.275-0.331
	c0.355-0.275,0.333-0.807,0.278-1.252c-0.122-0.976-0.243-1.952-0.365-2.928C10.369,44.313,10.187,43.444,9.503,43.143
	 M21.161,65.448c0.049,0.305,0.108,0.631,0.325,0.85c0.265,0.269,0.683,0.298,1.06,0.309c7.994,0.233,16.009-0.256,23.916-1.459
	c0.653-0.099,0.976,0.916,0.561,1.43c-0.414,0.514-1.146,0.612-1.804,0.67c-7.534,0.656-15.101,0.948-22.663,0.875
	c-1.482-0.014-0.685,2.96-2.034,3.572c-0.256,0.232-0.686-0.068-0.742-0.409c-0.055-0.341,0.099-0.678,0.145-1.02
	c0.12-0.884-0.511-1.734-1.299-2.153c-0.788-0.419-1.706-0.501-2.596-0.575c-0.382-0.498,0.423-1.11,1.046-1.038
	c0.623,0.072,1.291,0.401,1.838,0.094c0.627-0.352,0.603-1.248,0.495-1.959c-0.193-1.273-0.386-2.546-0.579-3.818
	c-0.05-0.329-0.111-0.681-0.344-0.918c-0.695-0.707-2.484-0.09-2.533-1.08c0.821-0.44,1.643-0.881,2.464-1.321
	c-0.105-1.437-0.21-2.874-0.315-4.312c-0.039-0.53-0.109-1.123-0.524-1.454c-0.482-0.385-1.184-0.232-1.785-0.37
	c-0.601-0.138-1.075-1.048-0.515-1.305c1.155,0.399,2.404-0.639,2.695-1.826c0.291-1.187-0.09-2.424-0.467-3.586
	c-0.153-0.472-0.328-0.975-0.728-1.269c-0.499-0.366-1.211-0.305-1.729-0.644c-0.518-0.339-0.34-1.461,0.233-1.227
	c0.986,0.402,1.578-1.106,1.576-2.171c-0.005-2.045-0.458-4.673-2.464-5.069c-0.565-0.111-1.431-0.455-1.089-0.918
	c0.181-0.245,0.555-0.17,0.859-0.183c1.384-0.059,1.564-2.036,1.299-3.396c-0.203-1.039-0.419-2.111-1.022-2.981
	c-0.602-0.87-1.701-1.49-2.72-1.206c-0.287-0.232,0.06-0.713,0.427-0.755c0.367-0.042,0.746,0.117,1.101,0.017
	c0.739-0.207,0.765-1.235,0.633-1.991c-0.259-1.482-0.517-2.964-0.776-4.446c-0.057-0.329-0.131-0.686-0.389-0.898
	c-0.231-0.189-0.552-0.212-0.851-0.227c-1.268-0.063-2.536-0.125-3.804-0.188c-0.499,0.827-1.008,1.679-1.166,2.632
	c-0.159,0.953,0.113,2.042,0.909,2.588c0.428,0.294,0.976,0.415,1.335,0.79c1.143,1.198-0.718,3.065-0.525,4.709
	c0.253,2.16,3.776,2.686,4.049,4.844c0.232,1.834-2.151,3.536-1.33,5.192c0.381,0.769,1.354,1.147,1.635,1.959
	c0.473,1.368-1.342,2.731-0.924,4.117c0.408,1.354,2.584,1.512,2.965,2.874c0.286,1.024-0.632,1.937-1.301,2.763
	c-0.669,0.826-0.997,2.318-0.024,2.746c1.901,0.836,2.379,3.789,0.84,5.182c-0.821,0.743,0.047,2.052,0.868,2.795
	c0.821,0.743,1.615,2.132,0.725,2.791c-2.319,1.719-3.1,5.21-1.735,7.754c0.302,0.562,1.119-0.22,1.048-0.854
	c-0.071-0.634-0.298-1.468,0.268-1.762c1.675,0.253,2.363,2.825,1.038,3.881c-0.774,0.617-2.064,0.866-2.178,1.849
	c0.874-0.041,1.748-0.082,2.621-0.127c11.105-0.571,22.177-1.781,33.143-3.622c0.398-0.067,0.828-0.151,1.1-0.45
	c0.354-0.39,0.308-0.987,0.24-1.509c-2.711-20.797-5.422-41.594-8.134-62.391c-0.156-1.196-0.338-2.456-1.086-3.402
	c-3.001,0.163-5.883,1.159-8.764,2.013C24.858,7.074,15.663,8.425,6.463,8.459c-0.62,0.002-1.325,0.035-1.726,0.509
	c-0.401,0.473,0.005,1.45,0.587,1.235c1.055-0.391,2.366,0.471,2.425,1.594c0.06,1.123-1.153,2.119-2.243,1.842
	c-0.202,1.078,0.704,2.114,1.748,2.453s2.176,0.158,3.258-0.025c1.415-0.239,1.459-2.249,1.116-3.642
	c-0.343-1.393-0.357-3.387,1.046-3.687c0.255,1.374,0.509,2.748,0.764,4.122c0.14,0.757,0.338,1.601,0.991,2.009
	c0.465,0.29,1.05,0.282,1.598,0.264c7.661-0.249,15.487-0.53,22.651-3.254c0.625-0.237,1.325-0.493,1.938-0.228
	c0.613,0.265,0.794,1.337,0.156,1.536c-8.304,2.591-17.088,3.121-25.772,3.634c-0.14,1.874-0.268,3.827,0.441,5.567
	c0.709,1.74,2.527,3.184,4.369,2.813c6.41-1.292,12.82-2.584,19.23-3.876c0.826-0.166,1.924-0.199,2.246,0.579
	c-0.676,0.632-1.631,0.846-2.536,1.037c-7.083,1.488-14.185,2.98-21.392,3.65c-0.531,0.049-0.67,0.752-0.667,1.285
	c0.007,1.161,0.023,2.359,0.491,3.421c0.468,1.062,1.514,1.96,2.672,1.879c7.332-0.513,14.665-1.026,21.997-1.539
	c0.43,0.671-0.617,1.301-1.405,1.417c-7.122,1.051-14.332,1.503-21.529,1.349c-0.719-0.015-0.888,0.995-0.808,1.709
	c0.139,1.241,0.278,2.482,0.417,3.723c0.039,0.352,0.086,0.723,0.304,1.003c0.318,0.409,0.893,0.494,1.409,0.539
	c4.945,0.434,9.958,0.092,14.799-1.01c3.022-0.688,6.242-1.66,9.13-0.534c-0.073,0.541-0.712,0.774-1.244,0.892
	c-7.463,1.66-15.121,2.436-22.765,2.309c-0.816-0.014-1.006,1.133-0.914,1.944c0.133,1.186,0.267,2.373,0.4,3.559
	c0.04,0.354,0.09,0.732,0.327,0.998c0.298,0.334,0.793,0.387,1.239,0.414c6.953,0.424,13.952,0.095,20.834-0.978
	c0.558-0.087,1.164-0.171,1.66,0.101c0.495,0.272,0.719,1.064,0.264,1.399c-0.173,0.127-0.396,0.157-0.608,0.184
	c-7.215,0.889-14.502,1.191-21.766,0.9c-1.032-0.041-1.876,0.938-2.057,1.954c-0.181,1.017,0.129,2.049,0.436,3.035
	c0.101,0.326,0.216,0.672,0.484,0.883c0.281,0.222,0.665,0.244,1.023,0.256c6.846,0.227,13.707-0.002,20.522-0.685
	c0.81-0.081,1.966,0.141,1.901,0.953c-0.053,0.665-0.915,0.875-1.581,0.907c-6.908,0.33-13.825,0.497-20.741,0.5
	c-0.987,0-1.167,1.405-1.011,2.379C20.765,62.97,20.963,64.209,21.161,65.448 M10.941,33.657c0-0.325,0-0.65,0-0.975
	c-0.158-0.076-0.316-0.152-0.473-0.228c-0.38,0.084-0.625,0.546-0.481,0.907c0.144,0.362,0.639,0.529,0.973,0.329 M4.773,11.112
	c-0.352,0.287-0.04,0.99,0.409,0.922c0.173-0.064,0.345-0.128,0.518-0.192c-0.068-0.412-0.481-0.736-0.898-0.704 M13.278,47.498
	c-0.109-0.157-0.289-0.263-0.48-0.28c-0.237,0.109-0.358,0.418-0.26,0.659c0.099,0.241,0.401,0.377,0.647,0.289
	c0.108-0.203,0.14-0.446,0.087-0.67L13.278,47.498z"/>
</svg>