<!-- Generator: Adobe Illustrator 20.1.0, SVG Export Plug-In  -->
<svg version="1.1"
	 xmlns="http://www.w3.org/2000/svg" xmlns:xlink="http://www.w3.org/1999/xlink" xmlns:a="http://ns.adobe.com/AdobeSVGViewerExtensions/3.0/"
	 x="0px" y="0px" width="208.717px" height="110.999px" viewBox="0 0 208.717 110.999"
	 style="enable-background:new 0 0 208.717 110.999;" xml:space="preserve">
<style type="text/css">
	.st0{fill:#010101;}
</style>
<defs>
</defs>
<g id="Snooze_1_">
	<path class="st0" d="M110.632,97.139c-1.214,1.536-2.566,3.068-4.374,3.82c-2.462,1.025-5.388,0.377-7.591-1.125
		c-2.203-1.502-3.787-3.751-5.093-6.076c-5.252-9.343-6.67-20.629-4.639-31.153c2.031-10.524,7.384-20.274,14.612-28.189
		c1.539-1.685,4.28-1.756,6.34-0.775c2.06,0.981,3.592,2.782,5.038,4.546c2.034,2.482,4.029,4.995,5.985,7.539
		c1.095,1.424,2.192,2.883,2.818,4.566c0.629,1.689,0.752,3.519,0.794,5.32C124.867,70.501,119.864,85.456,110.632,97.139
		 M109.938,38.653c-0.643-0.851-1.421-1.778-2.485-1.841c-0.893-0.054-1.688,0.53-2.357,1.124
		c-4.97,4.419-7.621,10.828-9.923,17.068c-3.463,9.389-6.518,19.721-3.434,29.241c0.993,3.064,2.585,5.893,4.167,8.699
		c1.127,1.999,2.397,4.13,4.508,5.03c3.625,1.546,7.616-1.295,10.064-4.383c6.727-8.486,8.842-19.659,10.215-30.4
		c0.427-3.343,0.785-6.849-0.433-9.991c-0.701-1.807-1.884-3.379-3.052-4.925C114.784,45.068,112.361,41.86,109.938,38.653z"/>
	<path class="st0" d="M62.927,104.036c-5.585-1.541-8.233-7.953-8.96-13.701c-1.793-14.181,3.691-29.09,14.245-38.731
		c1.368-1.25,2.917-2.461,4.753-2.713c1.449-0.198,2.922,0.233,4.232,0.885c6.789,3.377,9.243,11.787,9.978,19.334
		c0.54,5.541,0.509,11.302-1.584,16.461c-1.472,3.629-3.894,6.785-6.374,9.816c-2.065,2.524-4.234,5.034-6.975,6.799
		C69.498,103.952,66.07,104.903,62.927,104.036 M73.458,53.913c-2.928-0.155-5.439,2.02-7.319,4.271
		c-8.413,10.073-10.94,24.733-6.384,37.041c0.63,1.702,1.424,3.414,2.793,4.605c1.369,1.192,3.442,1.736,5.041,0.877
		c6.95-3.735,12.354-10.253,14.737-17.775c2.383-7.522,1.717-15.962-1.815-23.018C79.061,57.018,76.693,54.085,73.458,53.913z"/>
	<path class="st0" d="M200.78,28.85c-8.679,4.53-15.938,11.311-23.079,18.007c-0.823,0.772-1.71,1.686-1.688,2.815
		c0.139,6.948,0.277,13.896,0.416,20.845c0.063,3.159,0.134,6.367,1.071,9.384c8.024-7.006,16.047-14.012,24.071-21.017
		c1.175-1.026,2.454-2.1,4.004-2.272c1.551-0.173,3.339,1.044,3.123,2.589c-4.615,0.771-8.355,4.044-11.825,7.183
		c-6.44,5.824-12.88,11.648-19.319,17.472c-0.631,0.57-1.314,1.166-2.155,1.291c-0.841,0.125-1.84-0.466-1.802-1.316
		c0.103-2.282,0.026-4.568-0.051-6.851c-0.631-18.677-1.279-37.493-5.506-55.696c-0.344-1.482,1.025-2.757,2.246-3.663
		c7.196-5.34,14.391-10.68,21.587-16.02c1.034-0.767,2.159-1.568,3.446-1.599c1.287-0.032,2.669,1.115,2.355,2.365
		c-0.23,0.915-1.186,1.417-2.037,1.825c-7.634,3.659-14.47,8.76-21.251,13.827c-1.021,0.763-2.087,1.581-2.588,2.753
		c-0.585,1.37-0.284,2.937,0.027,4.394c1.267,5.945,2.535,11.89,3.802,17.835c0.146,0.687,0.835,1.566,1.331,1.068
		c7.146-7.176,15.168-13.479,23.83-18.726c0.383-0.232,0.802-0.471,1.248-0.431c0.934,0.083,1.323,1.373,0.896,2.208
		C202.508,27.952,201.612,28.416,200.78,28.85z"/>
	<path class="st0" d="M26.504,108.779c-0.028,0.611-0.071,1.264-0.441,1.751c-0.371,0.487-1.198,0.667-1.581,0.19
		c-0.186-0.232-0.22-0.548-0.245-0.844c-1.05-12.349-0.659-24.82,1.164-37.079c0.186-1.249,1.871-1.764,3.022-1.246
		c1.151,0.519,1.861,1.671,2.502,2.759c4.135,7.026,8.27,14.051,12.405,21.077c1.983-9.045,2.909-18.32,2.753-27.578
		c-0.026-1.533-0.013-3.249,1.06-4.344c1.073-1.095,3.524-0.563,3.389,0.964c-1.127,12.755-2.255,25.51-3.382,38.265
		c-0.096,1.082-0.23,2.253-0.981,3.037c-0.751,0.785-2.341,0.79-2.716-0.229c-3.51-9.529-8.836-18.385-15.606-25.953
		C27.4,89.293,26.952,99.036,26.504,108.779z"/>
	<path class="st0" d="M153.598,32.298c-6.244,12.533-10.647,25.887-15.028,39.186c-2.05,6.225-4.101,12.45-6.151,18.674
		c-0.36,1.093-0.652,2.475,0.204,3.245c7.581-5.284,15.162-10.568,22.743-15.853c0.942-0.657,1.961-1.34,3.11-1.355
		c1.149-0.016,2.377,0.974,2.149,2.1c-0.116,0.572-0.558,1.014-0.984,1.413c-7.827,7.349-17.248,12.992-27.422,16.421
		c-1.197,0.403-2.87,0.588-3.392-0.562c-0.249-0.55-0.095-1.19,0.064-1.773c3.719-13.678,7.448-27.39,12.668-40.569
		c3.338-8.427,7.292-16.657,9.564-25.431c-10.137,1.759-19.976,5.225-28.978,10.207c-0.878,0.486-1.867-0.807-1.53-1.752
		c0.337-0.946,1.344-1.448,2.262-1.854c9.056-3.997,18.294-7.583,27.674-10.744c0.413-0.139,0.832-0.279,1.268-0.31
		c1.86-0.135,3.33,1.809,3.414,3.672C155.316,28.878,154.43,30.629,153.598,32.298z"/>
	<path class="st0" d="M12.878,109.892c-3.985,0.916-8.446-1.847-9.401-5.822c-0.258-1.074,1.47-1.6,2.364-0.95
		c0.893,0.65,1.259,1.801,1.993,2.627c1.776,1.996,5.288,1.404,7.076-0.581c1.789-1.985,2.232-4.829,2.295-7.5
		c0.035-1.49-0.031-3.025-0.631-4.39c-0.599-1.365-1.834-2.536-3.317-2.677c-1.123-0.107-2.209,0.369-3.242,0.82
		c-2.672,1.165-6.003,2.162-8.3,0.367c-1.899-1.483-2.159-4.428-1.087-6.586c1.072-2.158,3.173-3.628,5.358-4.642
		c1.87-0.868,3.863-1.471,5.901-1.785c0.543-0.084,1.133-0.14,1.612,0.13c0.479,0.27,0.727,0.995,0.337,1.383
		c-0.235,0.233-0.596,0.262-0.926,0.293c-4.075,0.378-7.828,3.192-9.333,6.997c-0.149,0.377-0.279,0.777-0.234,1.18
		c0.106,0.941,1.157,1.531,2.104,1.5s1.813-0.505,2.667-0.914c2.743-1.315,6.188-2.002,8.702-0.29
		c1.983,1.35,2.845,3.838,3.234,6.205c0.486,2.957,0.413,6.076-0.742,8.841C18.152,106.862,15.798,109.22,12.878,109.892z"/>
</g>
</svg>