<!-- Generator: Adobe Illustrator 20.1.0, SVG Export Plug-In  -->
<svg version="1.1"
	 xmlns="http://www.w3.org/2000/svg" xmlns:xlink="http://www.w3.org/1999/xlink" xmlns:a="http://ns.adobe.com/AdobeSVGViewerExtensions/3.0/"
	 x="0px" y="0px" width="78.165px" height="84.751px" viewBox="0 0 78.165 84.751"
	 style="enable-background:new 0 0 78.165 84.751;" xml:space="preserve">
<style type="text/css">
	.st0{fill:#010101;stroke:#000000;stroke-width:0.25;stroke-miterlimit:10;}
</style>
<defs>
</defs>
<path class="st0" d="M43.348,84.287c-2.096-0.639-3.771-2.189-5.349-3.709C24.085,67.174,11.536,52.353,0.61,36.42
	c-1.283-1.871,0.227-4.34,1.68-6.082c8.132-9.748,16.264-19.497,24.397-29.245c0.389-0.466,0.861-0.973,1.468-0.967
	c1.653,0.016,1.499,3.361,3.151,3.419c0.802,0.028,1.316-0.798,1.817-1.426s1.549-1.107,2.022-0.459
	C48.36,19.768,62.592,37.134,77.753,53.648c0.666,0.726,0.045,1.87-0.575,2.635c-4.014,4.955-8.028,9.909-12.042,14.864
	c-4.567,5.637-9.683,11.626-16.771,13.176C46.713,84.685,44.966,84.78,43.348,84.287 M37.242,72.175
	c2.467,2.27,4.935,4.54,7.402,6.81c1.186,1.092,2.444,2.222,4.01,2.605c3.178,0.776,6.14-1.731,8.403-4.093
	c6.433-6.713,12.419-13.855,17.904-21.362c0.481-0.658,0.954-1.603,0.413-2.214c-13.75-15.541-26.897-31.616-39.4-48.176
	c-0.567-0.751-1.734-0.047-2.36,0.655C24.673,16.437,15.73,26.475,6.788,36.512c-0.15,0.168-0.304,0.344-0.371,0.559
	c-0.143,0.458,0.143,0.93,0.425,1.318c2.776,3.83,6.404,6.945,9.635,10.399c5.111,5.462,9.24,11.782,14.374,17.223
	C32.883,68.164,35.063,70.171,37.242,72.175 M44.648,82.979c0.175-0.321,0.351-0.642,0.526-0.963
	c-8.657-7.531-16.219-16.22-23.749-24.878C15.675,50.525,9.925,43.913,4.174,37.301c-0.479,0.527-0.072,1.357,0.343,1.935
	C14.611,53.294,25.972,66.44,38.418,78.464C40.276,80.26,42.228,82.074,44.648,82.979 M2.008,33.555
	c8.849-8.964,17.37-18.253,25.538-27.842c0.446-0.524,0.907-1.081,1.039-1.756s-0.199-1.494-0.869-1.653
	C19.478,11.951,11.24,21.599,3.002,31.246C2.437,31.907,1.835,32.703,2.008,33.555 M23.645,12.143
	c-4.529,4.832-9.057,9.664-13.586,14.496c-1.413,1.507-2.826,3.015-4.238,4.522c-1.147,1.224-2.315,2.478-2.994,4.012
	c0.757,0.424,1.641-0.25,2.245-0.874c1.745-1.804,3.49-3.608,5.235-5.411C15.287,23.741,20.337,18.497,23.645,12.143 M30.291,5.736
	c0.16-0.331-0.265-0.699-0.627-0.637c-0.362,0.062-0.624,0.369-0.853,0.656c-0.502,0.629-1.018,1.289-1.188,2.076
	C28.768,7.587,29.782,6.791,30.291,5.736 M24.64,13.804c0.698-0.75,1.276-1.612,1.706-2.541c-1.314,0.489-2.39,1.58-2.86,2.901
	C23.828,14.45,24.335,14.131,24.64,13.804 M28.806,8.571c-1.122,0.394-2.06,1.281-2.516,2.379
	C27.528,10.832,28.619,9.8,28.806,8.571z"/>
</svg>