<!-- Generator: Adobe Illustrator 20.1.0, SVG Export Plug-In  -->
<svg version="1.1"
	 xmlns="http://www.w3.org/2000/svg" xmlns:xlink="http://www.w3.org/1999/xlink" xmlns:a="http://ns.adobe.com/AdobeSVGViewerExtensions/3.0/"
	 x="0px" y="0px" width="35.766px" height="94.527px" viewBox="0 0 35.766 94.527"
	 style="enable-background:new 0 0 35.766 94.527;" xml:space="preserve">
<style type="text/css">
	.st0{fill:#010101;stroke:#000000;stroke-width:0.5;stroke-miterlimit:10;}
</style>
<defs>
</defs>
<path class="st0" d="M31.21,2.165c0.303,0.48,0.312,1.082,0.312,1.649c-0.009,14.728-0.018,29.455-0.027,44.183
	c-0.002,3.151-0.003,6.317,0.483,9.43c0.163,1.043,0.379,2.115,0.136,3.142c-0.243,1.027-1.108,1.999-2.163,1.965
	c-4.696-0.154-9.42,0.612-13.826,2.243c-1.486,0.55-2.544-1.462-2.857-3.015C9.762,44.326,6.256,26.89,2.75,9.454
	c-0.478-2.375-0.994-4.839-2.457-6.77c1.137-2.306,4.285-2.52,6.854-2.412c7.148,0.301,14.297,0.602,21.445,0.903
	C29.564,1.216,30.691,1.342,31.21,2.165 M28.849,57.827c-0.203-6.394-0.405-12.788-0.608-19.182
	c-0.049-1.537-0.158-3.226-1.223-4.336c-0.419-0.437-0.375-1.126-0.307-1.727c0.984-8.645,1.416-17.353,1.292-26.053
	c-0.013-0.889-0.426-2.114-1.292-1.913C20.227,6.122,13.339,5.85,6.994,3.836C5.976,3.513,5.55,5.105,5.702,6.163
	c2.015,14.09,4.855,28.062,8.499,41.821c0.973,3.674,2.013,7.446,1.573,11.222c-0.151,1.296,1.748,1.63,3.037,1.428
	c2.902-0.455,5.803-0.909,8.705-1.364c0.45-0.07,0.957-0.178,1.192-0.568C28.863,58.446,28.858,58.127,28.849,57.827z"/>
<path class="st0" d="M35.472,88.824c0.25,0.827-0.621,1.537-1.393,1.925c-4.1,2.062-8.726,2.773-13.265,3.457
	c-0.399,0.06-0.812,0.12-1.201,0.012c-1.053-0.291-1.411-1.575-1.593-2.653c-0.55-3.265-1.099-6.531-1.649-9.796
	c-0.211-1.251-0.403-2.616,0.217-3.723c0.779-1.388,2.52-1.849,4.077-2.179c2.771-0.588,5.543-1.177,8.314-1.765
	c1.263-0.268,2.74-0.485,3.707,0.371c0.888,0.786,0.941,2.125,0.978,3.311C33.781,81.521,34.39,85.244,35.472,88.824 M19.82,80.092
	c-0.191,0.421-0.199,0.9-0.186,1.362c0.068,2.479,0.623,4.944,1.623,7.214c0.163,0.371,0.35,0.75,0.67,0.998
	c0.605,0.467,1.464,0.32,2.209,0.151c1.432-0.325,2.865-0.651,4.297-0.976c1.334-0.303,2.924-0.858,3.172-2.204
	c0.079-0.432-0.005-0.875-0.088-1.306c-0.429-2.204-0.858-4.408-1.286-6.613c-0.093-0.48-0.223-1.014-0.638-1.27
	c-0.298-0.184-0.671-0.177-1.02-0.156c-2.313,0.136-4.607,0.603-6.789,1.382C21,78.954,20.163,79.337,19.82,80.092z"/>
</svg>