<!-- Generator: Adobe Illustrator 20.1.0, SVG Export Plug-In  -->
<svg version="1.1"
	 xmlns="http://www.w3.org/2000/svg" xmlns:xlink="http://www.w3.org/1999/xlink" xmlns:a="http://ns.adobe.com/AdobeSVGViewerExtensions/3.0/"
	 x="0px" y="0px" width="13.005px" height="18.397px" viewBox="0 0 13.005 18.397"
	 style="enable-background:new 0 0 13.005 18.397;" xml:space="preserve">
<style type="text/css">
	.st0{fill:#010101;stroke:#000000;stroke-miterlimit:10;}
</style>
<defs>
</defs>
<path class="st0" d="M5.88,3.24C5.623,2.841,5.349,2.438,5.237,1.977C5.126,1.515,5.214,0.97,5.583,0.671
	c0.369-0.299,1.034-0.199,1.19,0.249c1.36,3.897,3.678,7.378,5.428,11.116c0.169,0.361,0.337,0.746,0.298,1.143
	c-0.039,0.397-0.364,0.794-0.761,0.765c-0.38-0.028-0.628-0.401-0.811-0.736C9.147,9.934,7.898,6.373,5.88,3.24z"/>
<path class="st0" d="M9.415,17.17c0.005,0.446-0.499,0.753-0.944,0.725c-0.445-0.028-0.838-0.282-1.227-0.501
	c-0.84-0.473-1.755-0.811-2.7-0.998c-1.261-0.249-2.674-0.275-3.622-1.143c-0.47-0.431-0.638-1.392-0.024-1.566
	c0.17-0.048,0.352-0.012,0.525,0.026c2.486,0.549,4.904,1.41,7.178,2.556C8.981,16.463,9.411,16.743,9.415,17.17z"/>
<path class="st0" d="M4.635,10.476c0.429-0.269,0.978,0.02,1.398,0.303c1.094,0.737,2.187,1.473,3.281,2.21
	c0.424,0.286,0.904,0.705,0.783,1.202c-0.095,0.389-0.549,0.6-0.947,0.561c-0.399-0.039-0.752-0.263-1.088-0.481
	c-0.889-0.576-1.779-1.153-2.668-1.729c-0.37-0.24-0.755-0.495-0.963-0.883C4.221,11.27,4.261,10.71,4.635,10.476z"/>
</svg>