<!-- Generator: Adobe Illustrator 20.1.0, SVG Export Plug-In  -->
<svg version="1.1"
	 xmlns="http://www.w3.org/2000/svg" xmlns:xlink="http://www.w3.org/1999/xlink" xmlns:a="http://ns.adobe.com/AdobeSVGViewerExtensions/3.0/"
	 x="0px" y="0px" width="57.407px" height="62.339px" viewBox="0 0 57.407 62.339"
	 style="enable-background:new 0 0 57.407 62.339;" xml:space="preserve">
<style type="text/css">
	.st0{fill:#010101;stroke:#000000;stroke-width:0.75;stroke-miterlimit:10;}
</style>
<defs>
</defs>
<g id="Lungs_1_">
	<path class="st0" d="M42.973,7.869c2.99,2.297,4.71,5.849,6.136,9.339c5.361,13.114,8.069,27.306,7.916,41.473
		c-0.01,0.933-0.127,2.035-0.939,2.496c-0.39,0.222-0.86,0.237-1.309,0.239c-3.351,0.018-6.703-0.361-9.966-1.125
		c-3.192-0.748-6.507-2.02-8.372-4.717c-0.989-1.43-1.48-3.142-1.865-4.838c-1.364-6.004-1.596-12.262-0.681-18.351
		c0.047-0.31-0.293-0.525-0.581-0.651c-1.032-0.452-2.064-0.904-3.096-1.356c-1.143-0.5-2.392-1.012-3.603-0.71
		c-0.949,0.236-1.704,0.935-2.409,1.613c-1.224,1.177-2.54,2.811-1.907,4.387c2.413,6.002,2.847,12.782,1.217,19.043
		c-0.52,1.996-2.338,3.366-4.156,4.339c-5.039,2.696-11.03,3.567-16.628,2.417c-1.932-0.397-2.366-2.928-2.354-4.9
		c0.053-8.434,0.496-16.939,2.638-25.098S9.106,15.459,15.321,9.757c0.663-0.608,1.385-1.209,2.26-1.418
		c0.875-0.209,1.937,0.099,2.317,0.914c2.745,5.878-3.091,13.321-0.034,19.044c1.894-1.063,3.827-2.476,4.385-4.575
		c0.184-0.692,0.204-1.417,0.222-2.133c0.168-6.533,0.322-13.183-1.456-19.472c-0.077-0.271-0.151-0.585,0.01-0.816
		c0.091-0.131,0.24-0.206,0.385-0.272c1.57-0.71,3.391-0.848,5.05-0.385c0.456,0.127,0.933,0.324,1.181,0.728
		c0.279,0.453,0.193,1.03,0.12,1.557c-0.355,2.542-0.209,5.124-0.062,7.686c0.212,3.703,0.424,7.406,0.635,11.11
		c0.075,1.306,0.983,2.448,2.09,3.146c1.106,0.697,2.399,1.025,3.668,1.343c-0.038-4.835-1.106-9.66-3.112-14.059
		c-1.032-2.263,0.648-5.106,3.008-5.893C38.348,5.476,41,6.353,42.973,7.869 M46.535,43.269c-0.304-1.126-1.375-1.843-2.366-2.457
		c-0.402-0.249-0.803-0.497-1.205-0.746c0.342,2.099,0.693,4.232,1.614,6.149c0.921,1.917,2.506,3.624,4.559,4.179
		c0.786,0.213,1.666,0.276,2.273,0.819c0.607,0.543,0.551,1.819-0.256,1.929c-1.704,0.231-3.463,0.037-5.075-0.558
		c0.12,1.035,0.89,1.857,1.358,2.788c0.467,0.931,0.485,2.318-0.46,2.757c-0.85,0.395-1.81-0.28-2.399-1.008
		c-0.664-0.821-1.171-1.769-1.484-2.777c-0.147-0.472-0.258-0.97-0.548-1.37c-0.291-0.4-0.829-0.676-1.286-0.487
		c-0.829,0.342-1.739,0.69-2.6,0.439c-0.861-0.251-1.47-1.416-0.866-2.078c0.646-0.708,1.98-0.244,2.653-0.926
		c0.463-0.469,0.373-1.232,0.251-1.88c-0.419-2.22-0.838-4.441-1.257-6.661c-0.581-3.078-1.267-6.358-3.5-8.555
		c-0.217-0.214-0.541-0.426-0.802-0.27c-0.176,0.105-0.23,0.331-0.265,0.532c-0.949,5.354-0.398,10.871,0.657,16.205
		c0.489,2.473,1.157,5.057,2.924,6.855c1.001,1.018,2.289,1.709,3.613,2.244c3.865,1.564,8.116,1.912,12.285,1.851
		c0.257-0.004,0.545-0.022,0.719-0.211c0.138-0.149,0.167-0.365,0.189-0.567c0.74-6.811,0.468-13.73-0.805-20.462
		c-0.304-1.606-0.664-3.201-1.039-4.792c-1.358-5.767-2.916-11.512-5.256-16.956c-1.663-3.869-3.953-7.803-7.75-9.624
		c-1.626-0.78-3.73-1.057-5.117,0.097c-1.117,0.929-1.44,2.546-1.235,3.984s0.85,2.769,1.378,4.123
		c1.384,3.552,1.989,7.404,1.76,11.209c1.766,0.416,3.582,0.62,5.396,0.606c0.906-0.007,1.846-0.063,2.683,0.284
		c0.837,0.347,1.53,1.249,1.295,2.124c-0.221,0.821-1.172,1.268-2.02,1.206c-0.848-0.062-1.615-0.506-2.347-0.938
		c-0.34,0.126-0.159,0.651,0.113,0.891c1.193,1.053,2.982,1.063,4.542,0.75c1.081-0.217,2.404-0.486,3.119,0.353
		c0.664,0.778,0.243,2.079-0.607,2.647c-0.851,0.569-1.949,0.585-2.968,0.489c-1.364-0.128-2.712-0.422-4.006-0.873
		c0.658,0.894,1.717,1.38,2.703,1.89c3.16,1.635,6.005,3.878,8.332,6.569c0.762,0.881,1.453,2.283,0.616,3.092
		c-0.692,0.669-1.882,0.281-2.585-0.378c-0.702-0.658-1.206-1.549-2.045-2.021c0.086,0.996-0.007,2.007-0.271,2.971
		c-0.125,0.456-0.321,0.94-0.739,1.162c-0.881,0.468-1.851-0.629-1.919-1.624C46.418,45.251,46.795,44.232,46.535,43.269
		 M9.177,46.276c-0.701-0.169-1.063-1.007-0.958-1.72c0.106-0.713,0.55-1.323,0.981-1.901c-0.986,0.322-1.869,0.95-2.496,1.775
		c-0.368,0.484-0.656,1.04-1.119,1.433c-0.463,0.393-1.19,0.577-1.672,0.206c-0.608-0.467-0.435-1.428-0.093-2.114
		c1.107-2.221,3.287-3.725,5.561-4.719c0.884-0.386,1.809-0.719,2.568-1.315c0.759-0.596,1.336-1.532,1.204-2.488
		c-1.453,0.591-2.906,1.183-4.359,1.774c-0.705,0.287-1.504,0.575-2.205,0.279c-0.701-0.297-0.949-1.488-0.242-1.771
		c1.657-0.664,3.246-1.497,4.736-2.48c-0.92-0.263-1.873,0.203-2.822,0.325c-0.949,0.122-2.187-0.456-2.028-1.399
		c0.072-0.424,0.417-0.749,0.783-0.975c1.713-1.06,3.91-0.565,5.888-0.187c1.978,0.378,4.347,0.473,5.657-1.056
		c0.218-0.255,0.402-0.593,0.305-0.914c-0.328-1.078-0.657-2.157-0.985-3.235c-0.352-1.155-0.707-2.37-0.467-3.553
		c0.201-0.988,0.797-1.847,1.14-2.796c0.381-1.053,0.44-2.19,0.496-3.308c0.071-1.418,0.142-2.837,0.213-4.255
		c0.041-0.825-0.023-1.841-0.766-2.202c-0.662-0.321-1.432,0.103-2.023,0.54C10.847,14.38,7.466,20.93,5.259,27.571
		C1.98,37.439,0.887,48.027,2.08,58.357c0.148,1.28,1.61,1.924,2.873,2.181c4.747,0.966,9.785-0.007,14.062-2.282
		c0.831-0.442,1.653-0.946,2.246-1.676c0.425-0.524,0.715-1.144,0.96-1.773c1.249-3.206,1.418-6.753,1.009-10.169
		c-0.409-3.417-1.372-6.739-2.331-10.044c-1.516,0.54-2.148,2.37-2.164,3.979c-0.016,1.61,0.376,3.24,0.04,4.814
		c-0.342,1.599-1.418,3.203-0.847,4.735c0.265,0.71,0.845,1.248,1.279,1.869c0.434,0.622,0.719,1.473,0.329,2.122
		c-0.408,0.68-1.406,0.798-2.119,0.451c-0.713-0.347-1.197-1.03-1.609-1.708c-0.153-0.252-0.551-0.235-0.774-0.042
		c-0.222,0.193-0.312,0.493-0.389,0.777c-0.432,1.604-0.776,3.233-1.029,4.875c-0.105,0.68-0.295,1.492-0.947,1.713
		c-0.563,0.19-1.187-0.218-1.447-0.752c-0.26-0.534-0.249-1.155-0.232-1.748c0.033-1.157,0.065-2.315,0.098-3.472
		c-0.985,0.843-2.113,1.519-3.321,1.992c-0.608,0.238-1.438,0.359-1.791-0.19c-0.164-0.255-0.162-0.585-0.102-0.883
		c0.212-1.063,1.046-1.902,1.964-2.479c0.918-0.577,1.946-0.959,2.874-1.519c2.737-1.654,4.355-4.757,4.894-7.91
		c0.08-0.47,0.056-1.092-0.395-1.249c-1.628,0.993-2.953,2.475-3.758,4.204c-0.238,0.512-0.437,1.053-0.797,1.487
		C10.299,46.093,9.725,46.408,9.177,46.276 M33.528,30.329c2.669,0.073,4.749,2.465,5.658,4.976
		c0.909,2.511,1.002,5.243,1.727,7.813c0.482,1.708,1.251,3.404,1.103,5.172c-0.148,1.768-1.718,3.592-3.443,3.173
		c0.741,0.57,1.877,0.548,2.596-0.049c0.776-0.645,2.021-0.055,2.526,0.818c0.506,0.873,0.565,1.929,0.907,2.878
		c0.342,0.949,1.191,1.885,2.187,1.728c-0.956-1.783-1.913-3.567-2.869-5.35c-0.203-0.379-0.404-0.853-0.17-1.213
		c0.421-0.646,1.382-0.033,1.959,0.479c1.28,1.137,3.089,1.651,4.776,1.358c-0.656-0.371-1.413-0.515-2.122-0.773
		c-2.289-0.832-3.996-2.838-5.009-5.053c-1.013-2.215-1.422-4.65-1.821-7.052c-0.066-0.397-0.087-0.897,0.26-1.101
		c0.326-0.191,0.731,0.028,1.043,0.241c1.289,0.881,2.578,1.762,3.866,2.643c1.747,1.194,0.091,4.317,1.456,5.934
		c0.039-1.336,0.079-2.671,0.118-4.007c0.011-0.363,0.029-0.751,0.242-1.045c0.213-0.294,0.697-0.419,0.938-0.147
		c0.882,0.993,1.765,1.987,2.647,2.98c0.374,0.422,1.047,0.856,1.422,0.435c-2.028-2.838-4.694-5.217-7.743-6.91
		c-2.122-1.179-4.646-2.262-5.454-4.551c-0.057-0.163-0.105-0.342-0.051-0.506c0.152-0.46,0.825-0.355,1.274-0.175
		c1.958,0.788,4.043,1.257,6.149,1.384c0.6,0.036,1.375-0.08,1.512-0.666c0.115-0.494-0.379-0.954-0.881-1.025
		s-0.999,0.117-1.489,0.248c-1.526,0.408-3.195,0.256-4.623-0.421c-0.654-0.31-1.319-0.827-1.372-1.548
		c-0.065-0.885,0.887-1.574,1.775-1.572c0.888,0.002,1.695,0.481,2.452,0.946c0.408-0.093,0.503-0.691,0.253-1.026
		c-0.25-0.335-0.691-0.458-1.102-0.535c-1.963-0.366-3.997-0.157-5.965-0.495c-2.496-0.429-4.752-1.71-6.949-2.97
		c-0.545-0.313-1.111-0.644-1.455-1.171c-0.382-0.586-0.429-1.322-0.465-2.021c-0.333-6.484-0.666-12.969-1-19.453
		c-0.04-0.775-0.806-1.354-1.576-1.456c-0.77-0.102-1.537,0.154-2.272,0.406c-0.131,0.045-0.29,0.137-0.262,0.272
		c1.538,7.214,1.401,14.666,1.257,22.041c-0.005,0.24-0.011,0.488-0.108,0.708c-0.112,0.252-0.329,0.438-0.536,0.62
		c-2.8,2.467-5.058,5.979-8.7,6.789c-1.397,0.311-2.867,0.171-4.244-0.219c-0.804-0.228-1.602-0.542-2.438-0.542
		c-0.836,0-1.746,0.413-2.015,1.204c1.071-0.092,2.141-0.184,3.212-0.275c0.713-0.061,1.696,0.095,1.731,0.81
		c0.024,0.485-0.451,0.827-0.87,1.073c-1.394,0.816-2.788,1.633-4.182,2.449c1.844-0.677,3.688-1.354,5.532-2.031
		c0.544-0.2,1.276-0.346,1.601,0.134c0.136,0.201,0.151,0.46,0.134,0.702c-0.165,2.433-2.735,3.86-4.962,4.856
		c-2.227,0.996-4.781,2.488-4.859,4.926c1.425-2.332,3.816-4.053,6.479-4.664c-0.591,1.545-1.183,3.09-1.774,4.634
		c0.808-1.379,1.616-2.759,2.424-4.138c0.303-0.517,0.626-1.055,1.136-1.368c0.836-0.513,2.118-0.406,2.569-1.277
		c0.177-0.343,0.743-0.26,0.961,0.058c0.219,0.318,0.193,0.739,0.156,1.123c-0.339,3.481-1.162,7.287-3.972,9.37
		c-2,1.482-4.934,2.055-5.89,4.354c1.431-0.147,2.779-0.961,3.575-2.158c0.48-0.721,1.73-0.188,1.963,0.646
		s-0.134,1.701-0.352,2.539c-0.218,0.839-0.209,1.894,0.507,2.38c-0.148-2.715,0.734-5.474,2.429-7.6
		c0.353-0.443,1.11-0.22,1.458,0.227c0.348,0.447,0.463,1.033,0.757,1.518c0.293,0.485,0.929,0.872,1.414,0.579
		c-0.947-1.096-1.939-2.291-2.08-3.732c-0.145-1.486,0.648-2.89,0.915-4.359c0.371-2.042-0.281-4.187,0.211-6.204
		c0.523-2.144,2.233-3.763,3.862-5.252c2.094-1.912,4.717-3.968,7.459-3.248C30.606,29.002,31.914,30.285,33.528,30.329z"/>
</g>
</svg>