<!-- Generator: Adobe Illustrator 20.1.0, SVG Export Plug-In  -->
<svg version="1.1"
	 xmlns="http://www.w3.org/2000/svg" xmlns:xlink="http://www.w3.org/1999/xlink" xmlns:a="http://ns.adobe.com/AdobeSVGViewerExtensions/3.0/"
	 x="0px" y="0px" width="89.365px" height="90.656px" viewBox="0 0 89.365 90.656"
	 style="enable-background:new 0 0 89.365 90.656;" xml:space="preserve">
<style type="text/css">
	.st0{fill:#010101;}
</style>
<defs>
</defs>
<g id="Time_1_">
	<path class="st0" d="M81.551,70.43c-1.763,2.012-3.83,3.732-5.937,5.38c-7.081,5.539-14.837,10.421-23.451,12.996
		c-8.613,2.575-18.193,2.679-26.368-1.06c-2.972-1.359-5.708-3.195-8.241-5.259C5.681,72.81-1.72,57.198,0.344,42.022
		C2.25,28.016,11.711,15.96,23.119,7.616c4.713-3.447,9.954-6.44,15.726-7.327c7.679-1.18,15.374,1.461,22.694,4.061
		c3.249,1.154,6.547,2.333,9.342,4.351c2.461,1.776,4.434,4.13,6.38,6.459c3.761,4.501,7.586,9.109,9.711,14.576
		c1.644,4.23,2.199,8.808,2.354,13.344C89.657,52.785,87.95,63.127,81.551,70.43 M3.366,52.389c0.449,2.797,1.479,5.464,2.549,8.086
		c2.524,6.188,5.387,12.394,9.968,17.261c6.479,6.882,16.265,10.5,25.663,9.487c4.528-0.488,8.891-1.976,13.082-3.758
		c9.044-3.845,17.644-9.259,23.706-16.993c6.062-7.735,9.321-18.025,7.151-27.61c-1.303-5.754-4.417-10.909-7.525-15.924
		c-2.678-4.322-5.501-8.747-9.684-11.638c-3.371-2.329-7.39-3.495-11.345-4.567C50.484,4.986,43.707,3.38,37.186,4.831
		c-6.41,1.426-11.796,5.635-16.842,9.837c-4.122,3.433-8.246,7.021-11.056,11.59c-2.359,3.837-3.692,8.211-4.751,12.589
		C3.464,43.281,2.644,47.885,3.366,52.389z"/>
	<path class="st0" d="M70.955,28.843c0.584,0.332,1.205,0.708,1.466,1.327c0.298,0.707,0.042,1.512-0.215,2.235
		c-0.67,1.884-1.34,3.769-2.01,5.653c-0.645,1.813-2.476,4.032-3.994,2.85c-1.052-0.819-0.618-2.509,0.104-3.63
		c0.722-1.121,1.685-2.323,1.391-3.623c-3.184,1.75-6.369,3.501-9.553,5.251c-3.233,1.777-6.938,4.38-6.619,8.056
		c0.296,3.42-5.467,4.692-5.661,8.119c-0.345,6.109-0.69,12.218-1.034,18.328c1.315-0.383,2.094-1.708,2.678-2.947
		c0.584-1.239,1.194-2.601,2.411-3.23s3.146,0.135,3.004,1.498c-0.057,0.546-0.419,1.005-0.766,1.43
		c-2.468,3.021-4.935,6.042-7.403,9.063c-0.651,0.797-1.549,1.681-2.543,1.415c-0.393-0.105-0.714-0.379-1.021-0.646
		c-2.058-1.785-4.116-3.57-6.173-5.356c-1.025-0.889-2.127-2.371-1.281-3.432c0.892-1.12,2.702-0.197,3.637,0.888
		c0.934,1.085,2.135,2.455,3.494,2.003c0.774-5.765,1.295-11.563,1.561-17.373c0.071-1.56-0.113-3.51-1.566-4.085
		c-1.927-0.762-2.774-3.033-2.987-5.094c-0.304-2.946,0.352-6.171,2.516-8.193c2.164-2.022,6.044-2.263,7.927,0.024
		c1.173,1.424,3.457,0.511,5.007-0.489c4.448-2.872,8.895-5.743,13.343-8.615c-1.677-1.057-3.354-2.114-5.031-3.171
		c-0.914-0.576-1.956-1.642-1.371-2.55c0.543-0.842,1.836-0.481,2.727-0.022C65.675,25.912,68.33,27.35,70.955,28.843
		 M39.615,46.047c0.186,1.141,0.748,2.191,1.434,3.12c0.523,0.708,1.199,1.402,2.071,1.516c2.83,0.371,5.931-1.369,6.669-4.127
		c0.801-2.99-1.68-6.397-4.772-6.552S39.116,42.991,39.615,46.047z"/>
</g>
</svg>