<!-- Generator: Adobe Illustrator 20.1.0, SVG Export Plug-In  -->
<svg version="1.1"
	 xmlns="http://www.w3.org/2000/svg" xmlns:xlink="http://www.w3.org/1999/xlink" xmlns:a="http://ns.adobe.com/AdobeSVGViewerExtensions/3.0/"
	 x="0px" y="0px" width="66.381px" height="82.772px" viewBox="0 0 66.381 82.772"
	 style="enable-background:new 0 0 66.381 82.772;" xml:space="preserve">
<style type="text/css">
	.st0{fill:#010101;}
</style>
<defs>
</defs>
<g id="Beer_Stein_1_">
	<path class="st0" d="M42.429,6.306c-0.555-0.294-0.951-0.834-1.177-1.42c-0.435-1.127-0.281-2.43,0.257-3.512
		c0.197-0.397,0.452-0.778,0.816-1.03c0.747-0.519,1.772-0.381,2.617-0.045c0.476,0.19,0.947,0.45,1.243,0.868
		c0.387,0.547,0.412,1.27,0.326,1.935c-0.13,1.009-0.509,2.025-1.26,2.712C44.501,6.502,43.329,6.782,42.429,6.306 M43.461,2.392
		c-0.299,0.168-0.446,0.514-0.537,0.845c-0.064,0.234-0.111,0.481-0.055,0.717c0.093,0.392,0.541,0.69,0.918,0.546
		c0.365-0.14,0.691-0.409,0.849-0.767c0.158-0.358,0.128-0.806-0.119-1.11C44.27,2.318,43.802,2.2,43.461,2.392z"/>
	<path class="st0" d="M35.843,7.287c-0.553,0.134-1.14,0.171-1.688,0.019c-1.142-0.316-1.962-1.488-1.943-2.673
		c0.019-1.185,0.828-2.299,1.92-2.758c1.093-0.459,2.409-0.278,3.387,0.391c0.354,0.243,0.678,0.56,0.822,0.964
		c0.185,0.519,0.051,1.093-0.119,1.617c-0.206,0.639-0.477,1.283-0.971,1.738C36.863,6.946,36.359,7.162,35.843,7.287 M36.371,4.528
		c-0.007-0.184-0.118-0.353-0.262-0.468c-0.144-0.115-0.318-0.185-0.492-0.246c-0.219-0.077-0.446-0.142-0.678-0.14
		c-0.232,0.002-0.472,0.08-0.628,0.252c-0.105,0.116-0.165,0.266-0.202,0.418c-0.098,0.399-0.009,0.891,0.349,1.093
		c0.193,0.109,0.426,0.113,0.647,0.115c0.133,0.001,0.268,0.002,0.397-0.03c0.257-0.063,0.468-0.248,0.636-0.453
		C36.265,4.913,36.379,4.728,36.371,4.528z"/>
	<path class="st0" d="M15.081,35.946c0.183-0.006,0.341,0.12,0.475,0.244c1.023,0.942,1.746,2.205,2.04,3.563
		c0.183,0.844,0.204,1.714,0.224,2.577c0.177,7.592,0.342,15.297-1.536,22.656c-0.262,1.028-0.576,2.07-1.206,2.924
		c-0.484,0.657-1.184,1.196-1.992,1.309c-0.808,0.113-1.711-0.287-2.021-1.042c-0.159-0.387-0.155-0.819-0.147-1.237
		c0.048-2.577,0.14-5.152,0.276-7.726c0.322-6.078,0.889-12.14,1.466-18.199c0.089-0.937,0.182-1.888,0.52-2.766
		c0.311-0.808,0.828-1.536,1.489-2.096C14.79,36.05,14.925,35.95,15.081,35.946 M16.006,44.181c-0.574-1.38,0.38-3.18-0.526-4.368
		c-0.07-0.092-0.157-0.181-0.27-0.208c-0.29-0.07-0.491,0.279-0.579,0.565c-0.636,2.069-0.988,4.224-1.043,6.388
		c-0.027,1.059,0.017,2.119-0.018,3.178c-0.036,1.091-0.154,2.177-0.254,3.264c-0.412,4.493-0.506,9.009-0.599,13.521
		c-0.004,0.216,0.002,0.458,0.157,0.608c0.301,0.289,0.789-0.043,1.021-0.391c0.719-1.08,0.908-2.418,1.077-3.705
		c0.112-0.849,0.224-1.698,0.336-2.547c0.154-1.166,0.308-2.333,0.424-3.503c0.27-2.732,0.332-5.484,0.185-8.225
		c-0.064-1.197-0.08-2.397-0.047-3.596c0.002-0.077,0.016-0.171,0.089-0.196C16.239,44.867,16.12,44.455,16.006,44.181z"/>
	<path class="st0" d="M30.748,37.594c0.271-0.318,0.575-0.657,0.986-0.731c0.412-0.075,0.821,0.139,1.154,0.391
		c1.601,1.216,2.187,3.335,2.51,5.319c0.987,6.077,0.436,12.288-0.157,18.416c-0.161,1.669-0.331,3.36-0.916,4.931
		c-0.281,0.754-0.667,1.488-1.257,2.035c-0.59,0.547-1.41,0.886-2.205,0.76c-0.795-0.127-1.515-0.789-1.571-1.592
		c-0.617-8.929-0.776-17.891-0.475-26.836c0.014-0.42,0.301-0.775,0.573-1.096C29.843,38.659,30.295,38.126,30.748,37.594
		 M30.491,44.475c-0.276,1.807-0.218,3.646-0.16,5.472c0.167,5.224,0.335,10.449,0.602,15.669c0.018,0.345,0.067,0.746,0.361,0.927
		c0.262,0.161,0.62,0.064,0.845-0.146c0.224-0.21,0.344-0.506,0.447-0.795c0.954-2.66,1.146-5.525,1.3-8.347
		c0.301-5.511,0.486-11.121-0.896-16.464c-0.145-0.56-0.426-1.221-1.002-1.276c-0.45-0.043-0.845,0.347-0.988,0.777
		c-0.143,0.429-0.104,0.894-0.112,1.347C30.871,42.594,30.636,43.53,30.491,44.475z"/>
	<path class="st0" d="M20.8,38.17c0.163,0.105,0.326,0.211,0.49,0.316c0.412-0.393,0.924-0.68,1.475-0.825
		c0.408-0.108,0.855-0.135,1.243,0.032c0.682,0.293,0.989,1.072,1.221,1.777c0.83,2.526,1.565,5.145,1.417,7.8
		c-0.037,0.661-0.129,1.32-0.1,1.982c0.043,0.979,0.347,1.97,0.111,2.921c-1.023,4.121-0.78,8.467-1.692,12.614
		c-0.32,1.457-0.865,2.996-2.11,3.817c-0.469,0.309-1.053,0.498-1.596,0.356c-0.793-0.207-1.255-1.034-1.475-1.823
		c-0.31-1.114-0.316-2.287-0.291-3.443c0.022-1.024,0.068-2.047,0.137-3.069c0.124-1.844,0.324-3.689,0.276-5.537
		c-0.031-1.211-0.169-2.418-0.212-3.629c-0.108-3.044,0.385-6.084,0.316-9.129c-0.015-0.685-0.059-1.373,0.03-2.051
		C20.139,39.531,20.4,38.807,20.8,38.17 M24.566,52.588c0.721-3.987,0.403-8.173-1.022-11.967c-0.078,0.174-0.156,0.348-0.233,0.521
		c-0.451-0.441-1.359-0.152-1.471,0.469c-1.055,5.811,0.128,11.797-0.317,17.686c-0.08,1.061-0.213,2.117-0.262,3.18
		c-0.045,0.99-0.017,1.982,0.064,2.969c0.032,0.39,0.083,0.805,0.333,1.106c0.25,0.301,0.772,0.405,1.024,0.106
		c0.121-0.144,0.152-0.34,0.179-0.526c0.35-2.406,0.699-4.812,1.049-7.218c0.127-0.873,0.254-1.747,0.289-2.628
		c0.024-0.602,0.004-1.206,0.058-1.806C24.313,53.844,24.453,53.217,24.566,52.588z"/>
	<path class="st0" d="M63.978,29.754c-0.334-0.995-0.737-2.013-1.511-2.721c-1.474-1.347-3.837-1.137-5.626-0.251
		c-1.789,0.887-3.247,2.319-4.959,3.347c-2.961,1.777-6.508,2.249-9.951,2.523c0-2.756-0.001-5.513-0.001-8.269
		c0-0.623,0.117-1.41,0.717-1.576c2.357-0.653,3.425-3.691,2.606-5.995c-0.819-2.304-2.991-3.88-5.259-4.794
		c-2.601-1.049-5.813-1.326-8.013,0.413c-0.977,0.773-2.451-0.014-3.162-1.036c-0.711-1.023-1.11-2.306-2.1-3.06
		c-1.255-0.956-3.011-0.747-4.567-0.492c-2.016,0.33-4.058,0.668-5.92,1.508c-1.862,0.84-3.553,2.257-4.275,4.167
		c-0.406,1.075-1.958,1.117-2.996,0.626c-1.039-0.491-1.973-1.327-3.12-1.394c-1.897-0.111-3.18,1.837-4.043,3.529
		c-0.929,1.82-1.882,3.745-1.791,5.787c0.086,1.935,1.107,3.724,1.279,5.654c0.118,1.317-0.164,2.633-0.232,3.953
		c-0.136,2.67,0.606,5.298,1.341,7.868c0.257,0.9,0.531,1.831,1.147,2.536c0.615,0.705,1.676,1.115,2.513,0.696
		c0.482,0.846,0.424,1.883,0.351,2.854c-0.78,10.404-1.561,20.808-2.341,31.212c-0.168,2.239,2.206,3.775,4.339,4.476
		c6.168,2.027,12.844,1.512,19.314,0.974c3.419-0.284,6.914-0.588,10.041-2c1.639-0.74,3.296-2.023,3.435-3.815
		c0.099-1.265-0.596-2.494-0.489-3.758c0.15-1.774,1.889-3.079,3.65-3.34c1.761-0.262,3.533,0.272,5.229,0.81
		c1.697,0.539,3.456,1.095,5.223,0.88c1.952-0.238,3.665-1.391,5.19-2.632c2.22-1.807,4.278-3.956,5.301-6.629
		c0.864-2.26,0.931-4.734,0.987-7.153C66.479,46.275,66.646,37.698,63.978,29.754z M8.61,79.87c-1.122,0-1.12-1.74,0-1.74
		C9.732,78.13,9.73,79.87,8.61,79.87z M15.585,80.514c-0.003,0.026-0.001,0.054-0.017,0.075c-0.045,0.062-0.136,0.06-0.212,0.052
		c-0.037-0.004-0.074-0.008-0.112-0.011c-0.04,0.005-0.07,0.023-0.113,0.023c-0.14,0-0.263-0.027-0.368-0.075
		c-0.233-0.025-0.48-0.065-0.635-0.237c-0.166-0.184-0.172-0.47-0.081-0.7c0.091-0.23,0.264-0.417,0.432-0.598
		c0.124-0.134,0.286-0.28,0.464-0.237c0.069,0.017,0.128,0.063,0.184,0.107c0.002,0,0.003-0.001,0.005-0.001
		C16.068,78.912,16.21,80.112,15.585,80.514z M24.113,80.311c-0.016,0.033-0.053,0.047-0.087,0.062
		c-0.074,0.358-0.335,0.671-0.808,0.671c-1.122,0-1.12-1.74,0-1.74c0.452,0,0.712,0.284,0.8,0.622
		c0.05,0.091,0.089,0.188,0.102,0.291C24.125,80.248,24.127,80.282,24.113,80.311z M30.807,79.735
		c-0.078,0.352-0.339,0.656-0.805,0.656c-1.122,0-1.12-1.74,0-1.74c0.578,0,0.852,0.461,0.834,0.909
		c0.005,0.032,0.016,0.063,0.012,0.097C30.844,79.687,30.818,79.708,30.807,79.735z M36.654,78.827c-1.122,0-1.12-1.74,0-1.74
		C37.775,77.086,37.774,78.827,36.654,78.827z M39.413,76.484c-0.01,0.183-0.024,0.378-0.133,0.526
		c-0.188,0.253-0.581,0.254-0.863,0.112c-0.282-0.142-0.495-0.387-0.746-0.578c-0.819-0.623-2.217-0.475-2.655,0.456
		c-0.314,0.668-0.086,1.524-0.497,2.137c-0.269,0.402-0.802,0.608-1.272,0.491c-0.976-0.243-1.244-1.515-2.01-2.167
		c-0.532-0.453-1.329-0.568-1.967-0.284s-1.086,0.954-1.104,1.652c-0.013,0.489-0.193,0.987-0.555,1.316
		c-0.363,0.329-0.92,0.455-1.362,0.245c-0.608-0.289-0.8-1.041-1.171-1.603c-0.477-0.723-1.367-1.173-2.226-1.059
		c-0.859,0.114-1.622,0.827-1.729,1.687c-0.076,0.607-0.479,1.164-1.033,1.425c-0.554,0.261-1.24,0.217-1.756-0.111
		c-1.345-0.856-1.263-3.187-2.74-3.785c-0.844-0.342-1.842,0.111-2.412,0.821c-0.57,0.71-0.809,1.622-1.034,2.504
		c-0.758-0.172-1.296-0.829-1.739-1.467c-0.443-0.638-0.889-1.333-1.594-1.66c-0.705-0.326-1.744-0.055-1.898,0.706
		C6.844,78.2,6.38,78.362,6.055,78.213c-0.326-0.149-0.507-0.512-0.554-0.867c-0.046-0.355,0.017-0.714,0.049-1.071
		c0.053-0.582,0.028-1.189,0.269-1.721c0.242-0.532,0.877-0.95,1.408-0.707c2.377,1.087,5.037,1.355,7.644,1.544
		c7.799,0.565,15.691,0.554,23.376-0.892c0.437-0.082,0.866,0.257,1.039,0.667C39.458,75.577,39.437,76.039,39.413,76.484z
		 M39.883,40.053c0.562,10.528-0.087,21.08-0.795,31.599c-0.019,0.275-0.041,0.564-0.189,0.796c-0.255,0.401-0.784,0.505-1.254,0.57
		c-8.12,1.121-16.38,1.226-24.527,0.312c-2.134-0.239-4.329-0.572-6.159-1.695c-0.186-0.114-0.375-0.244-0.478-0.438
		c-0.117-0.22-0.102-0.484-0.084-0.733C7.388,56.825,8.38,43.183,9.372,29.542c0.053-0.725,0.172-1.564,0.797-1.936
		c0.724-0.431,1.624,0.035,2.386,0.395c3.559,1.684,7.734,0.981,11.602,0.243c4.817-0.918,9.634-1.837,14.451-2.755
		c0.705-0.134,1.365,0.503,1.541,1.198c0.176,0.696,0.006,1.425-0.126,2.13C39.331,32.509,39.682,36.303,39.883,40.053z
		 M40.111,21.273c-0.364,0.23-0.776,0.374-1.207,0.372c-0.978-0.004-0.491,2.227-1.47,2.219c-5.79-0.049-11.301,2.436-17.054,3.097
		c-1.711,0.197-3.465,0.228-5.136-0.193c-2.163-0.546-4.069-1.818-6.171-2.565c-0.255-0.091-0.547-0.172-0.788-0.046
		c-0.292,0.152-0.368,0.529-0.407,0.857c-0.284,2.338-0.448,4.69-0.491,7.045c-0.03,1.604-0.004,3.219-0.289,4.798
		C6.812,38.434,6.186,40,5.036,41.118c-0.599-1.848-1.198-3.696-1.797-5.544c-0.214-0.661-0.43-1.33-0.474-2.023
		c-0.078-1.23,0.389-2.424,0.528-3.648c0.355-3.141-1.455-6.177-1.371-9.337c0.009-0.332,0.041-0.672,0.185-0.971
		c0.183-0.38,0.526-0.653,0.786-0.985c0.564-0.721,0.711-1.683,1.158-2.482c0.447-0.8,1.49-1.447,2.254-0.942
		c0.868,0.574,1.774,1.09,2.71,1.545c0.489,0.237,1.007,0.462,1.55,0.445c0.886-0.028,1.627-0.694,2.124-1.428
		c0.497-0.734,0.838-1.572,1.404-2.254c0.689-0.83,1.661-1.369,2.634-1.835c1.827-0.875,3.792-1.569,5.818-1.573
		c1.518-0.003,2.936,0.798,4.067,1.811c0.856,0.768,1.593,1.668,2.176,2.66c0.43,0.732,1.478,0.848,2.277,0.563
		c0.799-0.286,1.455-0.864,2.2-1.27c1.514-0.825,3.42-0.888,4.985-0.165c0.157,0.073,0.307,0.158,0.456,0.246
		c1.591,0.229,3.07,1.233,3.96,2.582c0.164,0.097,0.283,0.234,0.366,0.397c0.146,0.082,0.271,0.186,0.354,0.325
		c0.319,0.243,0.527,0.615,0.604,1.008c0.077,0.395,0.027,0.808-0.103,1.189c-0.152,0.445-0.459,0.885-0.918,0.993
		c-0.041,0.01-0.086,0.008-0.125-0.003C42.15,21.168,41.1,21.334,40.111,21.273z M41.871,48.618
		c-0.08-2.306-0.253-4.622,0.018-6.913c0.038-0.321,0.116-0.689,0.403-0.84c0.306-0.161,0.673,0.015,1.017,0.047
		c0.277,0.026,0.554-0.044,0.823-0.115c2.118-0.562,4.216-1.248,6.153-2.271c1.312-0.692,2.56-1.542,3.982-1.966
		c1.422-0.424,3.114-0.335,4.191,0.685c0.446,0.422,0.753,0.97,1,1.533c1.404,3.195,1.015,6.855,0.6,10.319l-0.728,6.081
		c-0.167,1.394-0.338,2.804-0.829,4.12c-0.216,0.579-0.495,1.139-0.88,1.623c-0.318,0.401-0.703,0.743-1.089,1.079
		c-0.64,0.557-1.306,1.113-2.097,1.421c-0.791,0.307-1.742,0.329-2.443-0.15c-0.409-0.279-0.699-0.699-1.078-1.016
		c-1.106-0.924-2.749-0.815-4.121-0.375c-1.372,0.441-2.67,1.163-4.101,1.329c-0.322,0.037-0.661,0.043-0.956-0.091
		c-0.295-0.134-0.532-0.443-0.491-0.764C41.821,57.801,42.03,53.203,41.871,48.618z M64.1,59.22
		c-0.189,2.971-2.266,5.48-4.531,7.411c-1.324,1.129-2.796,2.165-4.491,2.561c-1.694,0.396-3.655,0.035-4.803-1.272
		c-0.67-0.762-1.851-0.706-2.858-0.588c-1.494,0.175-2.988,0.349-4.483,0.524c-0.678,0.079-1.465,0.122-1.936-0.373
		c0.404-0.429,0.115-1.149,0.316-1.704c0.214-0.592,0.905-0.833,1.512-1c1.435-0.394,2.87-0.788,4.305-1.181
		c2.095-0.575,3.872,1.874,6.038,2.038c1.468,0.111,2.784-0.845,3.896-1.809c1.404-1.218,2.768-2.593,3.403-4.339
		c0.329-0.903,0.447-1.867,0.563-2.821c0.296-2.433,0.593-4.866,0.889-7.299c0.519-4.262,0.991-8.82-0.959-12.646
		c-0.454-0.891-1.089-1.765-2.025-2.119c-0.53-0.2-1.108-0.215-1.674-0.224c-1.186-0.018-2.393-0.017-3.528,0.329
		c-1.455,0.443-2.679,1.415-4,2.17c-1.547,0.885-3.259,1.483-5.021,1.753c-0.753,0.116-1.566,0.163-2.237-0.198
		c-0.671-0.361-1.098-1.267-0.701-1.918c0.952-1.564,2.879-2.22,4.685-2.521c1.806-0.301,3.708-0.382,5.314-1.261
		c1.103-0.603,1.98-1.538,2.882-2.414c0.902-0.876,1.887-1.73,3.088-2.103c1.201-0.373,2.67-0.148,3.444,0.843
		c0.248,0.317,0.411,0.691,0.563,1.063c2.182,5.345,2.59,11.236,2.659,17.01C64.46,51.165,64.356,55.197,64.1,59.22z"/>
</g>
</svg>