<!-- Generator: Adobe Illustrator 20.1.0, SVG Export Plug-In  -->
<svg version="1.1"
	 xmlns="http://www.w3.org/2000/svg" xmlns:xlink="http://www.w3.org/1999/xlink" xmlns:a="http://ns.adobe.com/AdobeSVGViewerExtensions/3.0/"
	 x="0px" y="0px" width="42.5px" height="21.606px" viewBox="0 0 42.5 21.606" style="enable-background:new 0 0 42.5 21.606;"
	 xml:space="preserve">
<style type="text/css">
	.st0{fill:#010101;stroke:#000000;stroke-miterlimit:10;}
</style>
<defs>
</defs>
<path class="st0" d="M18.326,7.962c-0.366,0.316-0.764,0.748-0.637,1.215c0.846,3.099,0.058,6.619-2.107,8.992
	c-2.165,2.373-5.661,3.478-8.773,2.681c-3.112-0.797-5.674-3.507-6.195-6.677c-0.155-0.945-0.141-1.913-0.014-2.862
	c0.485-3.604,2.84-7.046,6.267-8.262s7.762,0.261,9.271,3.57c0.303,0.664,1.304,0.218,1.838-0.279
	c1.408-1.313,2.919-2.515,4.514-3.593c1.906-1.287,4.095-2.433,6.385-2.222c2.643,0.242,4.847,2.301,5.987,4.698
	s1.4,5.106,1.586,7.754c1.737-1.966,3.025-4.326,3.738-6.85c0.212-0.75,1.49-0.503,1.738,0.235c0.248,0.738-0.154,1.522-0.543,2.197
	c-1.48,2.568-2.96,5.136-4.44,7.704c-0.092,0.159-0.195,0.329-0.366,0.397c-0.182,0.073-0.387,0.009-0.572-0.054
	c-2.84-0.974-5.679-1.948-8.519-2.923c-0.458-0.157-1.002-0.424-1.013-0.908c-0.019-0.812,1.236-0.765,1.98-0.438
	c2.194,0.966,4.484,1.715,6.825,2.233c-0.549-2.507-0.494-5.136-1.255-7.587c-0.761-2.451-2.688-4.832-5.251-4.962
	c-1.584-0.081-3.073,0.706-4.424,1.537C22.227,4.862,20.211,6.337,18.326,7.962 M10.801,19.339c3.138-0.718,5.832-3.534,5.893-6.752
	c0.026-1.344-0.379-2.664-0.938-3.886c-0.906-1.981-2.385-3.879-4.482-4.468c-2.424-0.681-4.999,0.572-6.876,2.25
	C3.759,7.054,3.156,7.694,2.8,8.475c-0.393,0.86-0.458,1.828-0.518,2.771c-0.079,1.238-0.155,2.503,0.172,3.7
	c0.457,1.676,1.709,3.09,3.266,3.861C7.276,19.579,9.108,19.726,10.801,19.339z"/>
</svg>