<!-- Generator: Adobe Illustrator 22.1.0, SVG Export Plug-In  -->
<svg version="1.1"
	 xmlns="http://www.w3.org/2000/svg" xmlns:xlink="http://www.w3.org/1999/xlink" xmlns:a="http://ns.adobe.com/AdobeSVGViewerExtensions/3.0/"
	 x="0px" y="0px" width="111.105px" height="76.697px" viewBox="0 0 111.105 76.697"
	 style="enable-background:new 0 0 111.105 76.697;" xml:space="preserve">
<style type="text/css">
	.st0{fill:#020202;stroke:#231F20;stroke-width:0.5;stroke-miterlimit:10;}
</style>
<defs>
</defs>
<g id="Layer_2_2_">
	<g id="Layer_1-2_1_">
		<g id="Neuron_1_">
			<path class="st0" d="M20.695,59.343c0.687,1.239,0.97,2.662,0.81,4.07c0,0.13,0,0.3,0,0.39c-0.67,1-0.1,1.62,0.56,2.32
				s1.33,1.68,2,2.52c0.038,0.049,0.059,0.108,0.06,0.17c-0.05,0.84,0.57,0.9,1.16,1s0.9,0.13,1.35,0.15
				c1.39,0.15,2.696,0.738,3.73,1.68c0.298,0.304,0.785,0.309,1.089,0.011c0.004-0.004,0.007-0.007,0.011-0.011
				c0.677-0.484,1.397-0.906,2.15-1.26c0.525-0.228,1.105-0.301,1.67-0.21c1.354,0.245,2.69,0.579,4,1
				c0.601,0.241,1.136,0.621,1.56,1.11c0.63,0.67,0.21,2.82-0.59,3.26c-1.054,0.593-2.273,0.821-3.47,0.65
				c-0.188-0.001-0.376,0.019-0.56,0.06c-1.459,0.067-2.9-0.348-4.1-1.18c-0.215-0.176-0.383-0.403-0.49-0.66
				c-0.29-0.52-0.52-0.59-0.93-0.17c-0.872,0.89-2.212,1.131-3.34,0.6c-0.94-0.34-1.87-0.72-2.79-1.11
				c-0.765-0.301-1.57-0.486-2.39-0.55c-0.653-0.076-1.275-0.324-1.8-0.72c-1.606-1.369-2.253-3.557-1.65-5.58
				c0-0.22,0.09-0.56,0-0.68c-0.881-1.064-1.427-2.366-1.57-3.74c-0.272-1.169-0.343-2.377-0.21-3.57
				c0.058-0.371-0.196-0.719-0.567-0.777c-0.008-0.001-0.015-0.002-0.023-0.003c-1.371-0.403-2.373-1.581-2.55-3
				c-0.357-1.528,0.158-3.128,1.34-4.16c0.1-0.11,0.1-0.52,0-0.57c-1.52-0.91-1.55-2.34-1.28-3.81c0.2-1.1,0.54-2.18,0.79-3.27
				c0.064-0.266,0.064-0.544,0-0.81c-0.526-1.909-0.345-3.944,0.51-5.73c0.091-0.239,0.135-0.494,0.13-0.75
				c0.06-1.27,1.14-1.91,1.71-2.85c0.925-1.28,1.485-2.787,1.62-4.36c-0.046-0.605-0.15-1.205-0.31-1.79c-0.25-1.32-0.5-2.64-0.76-4
				c-0.021-0.331-0.306-0.582-0.637-0.561c-0.063,0.004-0.125,0.018-0.183,0.041c-1.151,0.34-2.363,0.426-3.55,0.25
				c-0.8-0.109-1.602,0.187-2.14,0.79c-0.555,0.456-1.132,0.883-1.73,1.28c-0.32,0.318-0.624,0.651-0.91,1
				c-0.2,0.2-0.38,0.5-0.75,0.16c-0.304-0.221-0.371-0.646-0.15-0.95c0.013-0.017,0.026-0.034,0.04-0.05c0.56-1,1.61-1.33,2.43-2
				c0.185-0.176,0.353-0.371,0.5-0.58c-0.141-0.149-0.303-0.276-0.48-0.38c-0.77-0.28-1.55-0.53-2.33-0.79
				c-0.097-0.027-0.19-0.064-0.28-0.11c-1.12-0.65-1.69-0.52-2.37,0.5c-0.198,0.332-0.463,0.618-0.78,0.84
				c-0.256,0.086-0.538,0.037-0.75-0.13c-0.125-0.22-0.125-0.49,0-0.71c0.328-0.355,0.679-0.689,1.05-1
				c0.298-0.19,0.386-0.585,0.196-0.884c-0.05-0.079-0.117-0.146-0.196-0.196c-1-0.84-1.5-0.83-2.53,0
				c-0.388,0.273-0.812,0.492-1.26,0.65c-0.174,0.048-0.359-0.02-0.46-0.17c-0.05-0.17-0.07-0.47,0-0.56
				c0.466-0.436,0.979-0.818,1.53-1.14c0.8-0.42,1-0.7,0.87-1.63s-0.09-2.06-0.09-3.09c0-0.17,0.23-0.48,0.32-0.47
				c0.24,0,0.6,0.14,0.68,0.32c0.15,0.407,0.235,0.836,0.25,1.27c0.07,1,0.08,2.09,0.18,3.12c0,0.17,0.32,0.43,0.52,0.46
				c1.1,0.18,1.79,1.07,2.76,1.47c0.55,0.22,1.05,0.56,1.61,0.75c0.92,0.31,1.86,0.56,2.79,0.82c0.48,0.13,0.6-0.21,0.6-0.56
				c0-0.9-0.06-1.81-0.05-2.71c0.031-0.205,0.138-0.391,0.3-0.52c0.05,0,0.3,0.08,0.43,0.18c0.59,0.44,0.43,1.07,0.41,1.67
				c-0.05,0.635-0.067,1.273-0.05,1.91c0.091,0.246,0.303,0.427,0.56,0.48c1.325,0.119,2.66-0.055,3.91-0.51
				c0.518-0.265,0.951-0.671,1.25-1.17c0.327-0.542,0.576-1.128,0.74-1.74c0.24-0.79-0.31-1.35-0.65-2
				c-0.192-0.309-0.333-0.647-0.42-1c-0.25-1.32-0.42-2.67-0.71-4c-0.136-0.52-0.37-1.008-0.69-1.44
				c-0.423-0.628-0.901-1.218-1.43-1.76c-0.331-0.489-0.996-0.618-1.486-0.287c-0.059,0.04-0.114,0.086-0.164,0.137
				c-0.28,0.2-0.67,0.27-0.91,0.51c-0.431,0.474-0.835,0.971-1.21,1.49c-0.1,0.13-0.16,0.29-0.27,0.41c-0.27,0.29-0.59,0.63-1,0.25
				s-0.2-0.85,0.09-1.21c0.53-0.66,1.17-1.25,1.66-1.94c0.18-0.325,0.21-0.712,0.08-1.06c-0.222-0.439-0.52-0.835-0.88-1.17
				c-0.16-0.16-0.45-0.18-0.66-0.31s-0.65-0.33-0.74-0.58c-0.042-0.305,0.075-0.611,0.31-0.81c0.284-0.105,0.6-0.075,0.86,0.08
				c1.39,0.94,2.72,2,4.14,2.88c0.689,0.37,1.308,0.857,1.83,1.44c0.33,0.42,0.65,0.85,1,1.27s0.51,0.29,0.61-0.14
				c0.33-1.44,0.65-2.89,1-4.34c0-0.19,0-0.39,0.08-0.57c0.19-0.77,0.49-0.87,1.22-0.47c0.45,0.25,0.2,0.55,0.14,0.84
				c-0.12,0.6-0.27,1.19-0.36,1.79s0.19,0.62,0.57,0.39c0.56-0.35,1.06-0.77,1.61-1.13c0.18-0.12,0.49-0.24,0.63-0.17
				c0.223,0.064,0.352,0.296,0.288,0.519c-0.03,0.106-0.102,0.196-0.198,0.251c-0.47,0.41-0.93,0.83-1.42,1.22
				c-0.172,0.113-0.367,0.188-0.57,0.22c-1.45,0.34-1.75,1.34-1.88,2.62c-0.129,0.567-0.222,1.141-0.28,1.72
				c0.035,0.95,0.118,1.898,0.25,2.84c0,0.11,0.28,0.28,0.42,0.28c0.613-0.059,1.212,0.206,1.58,0.7
				c0.773,0.708,1.904,0.864,2.84,0.39c1-0.47,2-1,3-1.49c0.29-0.16,0.48-0.53,0.71-0.81c0.42-0.5,0.83-1,1.25-1.51
				c0.335-0.34,0.652-0.697,0.95-1.07c0.474-0.524,0.433-1.334-0.091-1.808c-0.016-0.014-0.032-0.028-0.049-0.042
				c-0.58-0.65-1.2-1.26-1.75-1.93c-0.311-0.413-0.569-0.864-0.77-1.34c-0.47-1-0.9-2.06-1.34-3.09c-0.14-0.32-0.21-0.66-0.37-1
				c-0.199-0.299-0.117-0.702,0.182-0.901c0.075-0.05,0.159-0.083,0.248-0.099c0.18-0.06,0.64,0.28,0.77,0.54
				c0.43,0.83,0.78,1.71,1.14,2.58c0.28,0.68,0.52,1.38,0.77,2.06c0,0,0,0.1,0,0.13c0.55,0.73,1.1,1.47,1.66,2.2
				c0.087,0.088,0.184,0.165,0.29,0.23c0-0.14,0.14-0.29,0.11-0.41c-0.39-1.64,0.26-3.2,0.39-4.79c0.043-0.621,0.02-1.244-0.07-1.86
				c-0.07-0.54,0.16-0.87,0.62-0.94s0.69,0.28,0.68,0.78c0,0.87,0,1.73,0,2.6c0,0.45,0.34,0.76,0.76,0.55
				c0.872-0.402,1.634-1.009,2.22-1.77c0.44-0.61,1-1.17,1.45-1.76c0.15-0.26,0.3-0.56,0.54-0.81s0.39-0.1,0.61-0.15
				c0,0.24,0.22,0.56,0.13,0.69c-0.84,1.13-1.69,2.25-2.61,3.31c-0.642,0.688-1.437,1.216-2.32,1.54
				c-0.689,0.516-0.951,1.427-0.64,2.23c0,0,0.21,0,0.3,0c0.35-0.18,0.67-0.41,1-0.57c0.228-0.065,0.463-0.099,0.7-0.1
				c-0.1,0.26-0.12,0.6-0.3,0.76c-0.37,0.267-0.754,0.514-1.15,0.74c-0.679,0.505-1.191,1.201-1.47,2
				c-0.583,1.381-1.325,2.69-2.21,3.9c-0.54,0.8-1,1.65-1.52,2.46s0,1.65,0.34,2.39c0.321,0.592,0.7,1.151,1.13,1.67
				c0.221,0.323,0.628,0.462,1,0.34c2.06-0.31,4.11-0.66,6.17-0.92c0.868-0.077,1.742-0.077,2.61,0c0.907,0.05,1.799-0.243,2.5-0.82
				c0.39-0.3,0.72-0.67,1.1-1c0.74-0.64,1.47-1.29,2.26-1.86c0.294-0.156,0.646-0.156,0.94,0c0.238,0.331,0.402,0.71,0.48,1.11
				c0,0-0.16,0.16-0.27,0.22c-0.36,0.19-0.74,0.35-1.1,0.56s-0.4,0.47-0.06,0.73s0.87,0.57,1.27,0.89
				c0.167,0.176,0.308,0.375,0.42,0.59c-0.22,0.14-0.41,0.37-0.65,0.41c-0.737,0.093-1.465-0.231-1.89-0.84
				c-0.33-0.37-0.7-0.72-1.24-0.48c-0.324,0.155-0.621,0.361-0.88,0.61c-0.307,0.262-0.573,0.569-0.79,0.91
				c-0.14,0.25-0.28,0.7-0.16,0.86c0.738,0.97,1.526,1.901,2.36,2.79c0.38,0.4,0.87,0.2,1.32-0.06c0.77-0.45,1.56-0.85,2.33-1.29
				c0.43-0.25,0.91-0.46,1.1,0.13s-0.36,0.77-0.79,0.88c-0.879,0.245-1.699,0.667-2.41,1.24c-0.44,0.32-0.42,0.66,0,1
				c0.23,0.22,0.44,0.46,0.64,0.7s0.57,0.45,0.14,0.85s-0.76,0.53-1.18,0.15c-0.2-0.18-0.3-0.46-0.49-0.66
				c-0.211-0.195-0.435-0.375-0.67-0.54c-0.15,0.23-0.29,0.48-0.46,0.7c-0.18,0.277-0.399,0.526-0.65,0.74
				c-0.1,0.07-0.46-0.05-0.55-0.19c-0.094-0.2-0.094-0.43,0-0.63c0.193-0.362,0.432-0.698,0.71-1
				c0.315-0.224,0.388-0.662,0.164-0.976c-0.045-0.063-0.1-0.119-0.164-0.164c-1-1-2-2.1-2.92-3.16c-0.42-0.45-0.83-0.83-1.54-0.61
				c-0.25,0.08-0.57-0.08-0.87-0.11c-0.113-0.013-0.227-0.013-0.34,0c0.024,0.122,0.064,0.239,0.12,0.35
				c0.383,0.551,0.737,1.122,1.06,1.71c0.36,0.67,0.4,1.47,1,2.06c0.3,0.3,0.07,0.69-0.29,0.9s-0.66,0.35-0.87-0.07
				c-0.358-0.639-0.659-1.308-0.9-2c-0.349-1.182-1.181-2.162-2.29-2.7c-0.883-0.262-1.818-0.3-2.72-0.11
				c-0.925,0.065-1.835,0.268-2.7,0.6c-0.617,0.307-1.144,0.769-1.53,1.34c-0.629,0.83-0.883,1.885-0.7,2.91
				c0.16,0.76,0.35,1.51,0.48,2.29c0.07,0.43,0.57,0.78,0.85,1.18s0.71,1,1,1.51c0.449,0.484,1.169,0.603,1.75,0.29
				c0.75-0.34,1.45-0.78,2.21-1.09c0.339-0.061,0.688-0.016,1,0.13c0.077,0.179,0.077,0.381,0,0.56
				c-0.721,0.773-1.684,1.278-2.73,1.43c-0.79,0.13-1,0.42-0.58,1.09c0.37,0.576,0.817,1.097,1.33,1.55
				c0.86,0.77,1.8,1.44,2.69,2.18c0.326,0.29,0.355,0.79,0.065,1.115c-0.02,0.023-0.042,0.044-0.065,0.065
				c-0.43,0.44-0.73,0.22-1.08-0.14c-0.66-0.69-1.34-1.35-2-2c-0.119-0.081-0.251-0.142-0.39-0.18
				c-0.067,0.118-0.114,0.247-0.14,0.38c0.018,0.333,0.018,0.667,0,1c-0.052,0.325-0.156,0.639-0.31,0.93
				c-0.158,0.335-0.36,0.648-0.6,0.93c-0.21,0.24-0.65,0.62-0.75,0.56c-0.366-0.155-0.537-0.578-0.382-0.944
				c0.017-0.041,0.038-0.08,0.062-0.116c0.541-1.196,0.749-2.516,0.6-3.82c-0.044-0.264-0.143-0.516-0.29-0.74
				c-0.33-0.56-0.71-0.6-1.2-0.15s-1.14,1.07-1.75,1.58c-0.276,0.123-0.583,0.158-0.88,0.1c-0.091-0.157-0.127-0.34-0.1-0.52
				c0-0.14,0.21-0.26,0.33-0.38c0.783-0.627,1.458-1.377,2-2.22c0.243-0.374,0.243-0.856,0-1.23c-0.93-1.26-1.9-2.49-2.86-3.71
				c-0.119-0.144-0.293-0.232-0.48-0.24c-0.898,0.052-1.79,0.173-2.67,0.36c-0.853,0.301-1.591,0.86-2.11,1.6
				c-0.71,0.85-1.39,1.73-2.07,2.61c-0.233,0.263-0.419,0.564-0.55,0.89c-0.1,0.288-0.082,0.605,0.05,0.88
				c0.904,1.26,1.027,2.92,0.32,4.3c-0.402,0.776-0.914,1.49-1.52,2.12c-0.63,0.7-0.67,0.84,0.16,1.26
				c1.371,0.565,2.073,2.092,1.61,3.5c-0.151,0.961-0.469,1.889-0.94,2.74c-0.69,1-0.6,1,0.16,2c1.268,1.333,1.688,3.26,1.09,5
				c-0.351,0.635-0.191,1.431,0.38,1.88c0.383,0.429,0.719,0.898,1,1.4 M26.255,26.723c0.489-1.415,1.277-2.707,2.31-3.79
				c0.568-0.5,0.624-1.365,0.124-1.934c-0.064-0.073-0.136-0.139-0.214-0.196c-0.912-0.866-1.407-2.083-1.36-3.34
				c0-0.37-0.13-0.31-0.36-0.21c-0.313,0.186-0.65,0.33-1,0.43c-1.26,0.24-2.563,0.108-3.75-0.38c-0.49-0.21-0.67,0-0.76,0.45
				c-0.098,0.595-0.249,1.181-0.45,1.75c-0.298,1.107-0.869,2.121-1.66,2.95c-0.118,0.187-0.154,0.415-0.1,0.63c0.19,1,0.45,2,0.6,3
				s0.2,2,0.3,3c0.026,0.111,0.067,0.219,0.12,0.32c0.152-0.045,0.297-0.113,0.43-0.2c0.14-0.12,0.21-0.31,0.34-0.45
				c1.168-1.165,2.8-1.739,4.44-1.56c0.41,0,0.79,0,1-0.53 M39.405,72.663c-0.158-0.091-0.322-0.171-0.49-0.24
				c-0.74-0.25-1.47-0.53-2.23-0.71c-0.571-0.109-1.149-0.169-1.73-0.18c-0.687,0.047-1.341,0.309-1.87,0.75
				c-0.49,0.254-0.682,0.857-0.428,1.348c0.081,0.156,0.201,0.288,0.348,0.382c0.727,0.5,1.588,0.768,2.47,0.77
				c0.9,0,1.81,0,2.7-0.09c0.523-0.083,1.029-0.248,1.5-0.49c0.57-0.26,0.5-0.79-0.24-1.5 M18.355,56.013c0.2-1,0.58-2.1-0.14-3.12
				c-0.27-0.38-0.34-0.93-0.67-1.23s-0.68-0.92-1.2-0.51c-0.544,0.435-0.999,0.972-1.34,1.58c-0.452,0.978-0.345,2.123,0.28,3
				c0.303,0.535,0.813,0.922,1.41,1.07c0.664,0.074,1.312-0.237,1.67-0.8 M15.005,46.573c-0.044,0.349-0.044,0.701,0,1.05
				c0.1,0.45,0.27,1.21,0.5,1.24c0.584,0.187,1.223,0.019,1.64-0.43c0.69-0.83,0.95-3.37,0.32-4.22
				c-0.302-0.426-0.811-0.656-1.33-0.6c-0.56,0-0.68,0.55-0.79,0.91c-0.152,0.658-0.252,1.327-0.3,2 M22.325,71.593
				c0.24-0.47,0.49-0.94,0.71-1.42c0.098-0.162,0.137-0.353,0.11-0.54c-0.15-0.385-0.344-0.751-0.58-1.09
				c-0.34-0.49-0.73-1-1.12-1.42c-0.24-0.29-0.45-0.59-1-0.42c-0.433,0.09-0.73,0.49-0.69,0.93c-0.007,0.8,0.077,1.599,0.25,2.38
				c0.347,0.889,1.085,1.568,2,1.84c0.07,0,0.19,0,0.3-0.17 M20.385,63.913c0.052-0.709,0.052-1.421,0-2.13
				c-0.184-1.117-0.684-2.158-1.44-3c0-0.05-0.17,0-0.25-0.05s0,0.17,0.06,0.21c0.44,0.46,0,0.71-0.28,0.81
				c-0.305,0.054-0.508,0.344-0.454,0.649c0.005,0.031,0.014,0.062,0.024,0.091c0.131,1.27,0.417,2.519,0.85,3.72
				c0.32,0.64,0.46,0.74,1,0.26c0.202-0.175,0.384-0.373,0.54-0.59 M17.005,36.253c-0.32,0.44-1,0.48-1.11,1.19
				c-0.12,1.07-0.34,2.13-0.46,3.2c0,0.19,0.24,0.59,0.36,0.59c0.304-0.003,0.595-0.125,0.81-0.34c0.28-0.36,0.38-0.86,0.64-1.24
				c0.609-0.9,0.754-2.036,0.39-3.06c-0.05-0.18-0.34-0.28-0.62-0.33 M24.685,72.133c0.48,0.18,0.95,0.39,1.44,0.52
				c1,0.29,2.08,0.56,3.13,0.77c0.25,0,0.55-0.18,0.83-0.27c-0.17-0.26-0.27-0.64-0.51-0.77c-1.448-0.876-3.131-1.285-4.82-1.17
				c-0.244,0.045-0.456,0.195-0.58,0.41c-0.17,0.39,0.19,0.39,0.52,0.5L24.685,72.133z"/>
			<path class="st0" d="M110.005,52.533c0.48,1-0.12,1.85-0.53,2.59c-0.449,0.9-1.242,1.582-2.2,1.89
				c-0.054,0.025-0.111,0.042-0.17,0.05c-0.89,0.076-1.786-0.002-2.65-0.23c-1.28-0.59-1.56-1.32-0.71-2.68
				c0.4-0.64,0.36-0.85-0.27-1.25c-1.36-0.86-2.65-1.84-4.06-2.6c-1.283-0.721-2.65-1.282-4.07-1.67
				c-1.238-0.243-2.503-0.313-3.76-0.21c-1.215,0.04-2.424,0.194-3.61,0.46c-0.95,0.246-1.869,0.598-2.74,1.05
				c-0.839,0.414-1.645,0.892-2.41,1.43c-0.613,0.454-1.194,0.948-1.74,1.48c0,0,0.1,0.32,0.22,0.4s0.29,0,0.42-0.06
				c1.122-0.534,2.412-0.595,3.58-0.17c1.14,0.34,2.33,0.5,3.46,0.84c0.709,0.208,1.383,0.522,2,0.93
				c0.398,0.334,0.736,0.733,1,1.18c0.36,0.49,0.74,0.37,1.23,0.19c0.446-0.197,0.936-0.269,1.42-0.21
				c0.975,0.366,1.505,1.419,1.22,2.42c-0.194,0.821-0.642,1.559-1.28,2.11c-0.726,0.568-1.691,0.726-2.56,0.42
				c-0.9-0.507-1.318-1.577-1-2.56c0.178-1.078-0.348-2.151-1.31-2.67c-0.742-0.386-1.519-0.701-2.32-0.94
				c-0.68-0.22-1,0.11-0.82,0.77c0.289,1.091,0.265,2.242-0.07,3.32c-0.209,0.647-0.133,1.353,0.21,1.94c0.45,0.71,0.15,1.28-0.2,2
				c-0.548,0.941-1.562,1.511-2.65,1.49c-0.808,0.105-1.599-0.29-2-1c-0.154-0.853,0.167-1.723,0.84-2.27
				c0.493-0.424,1.064-0.75,1.68-0.96c0.307-0.15,0.541-0.417,0.65-0.74c0.35-1.078,0.419-2.228,0.2-3.34
				c-0.41-1.66-1.61-2.35-3.15-1.72c-1.145,0.317-2.181,0.939-3,1.8c-0.123,0.108-0.277,0.174-0.44,0.19
				c-0.42,0.082-0.784,0.341-1,0.71c-0.67,1.1-1.57,2.1-2.41,3.1c-0.66,0.859-1.375,1.674-2.14,2.44c-1.12,1-1.92,2.38-3.38,3
				c-0.31,0.13-0.52,0.47-0.79,0.7c-0.957,0.719-1.86,1.508-2.7,2.36c-0.65,0.616-1.468,1.026-2.35,1.18
				c-0.424,0.163-0.868,0.267-1.32,0.31c-0.65,0-0.79,0.45-0.87,0.95c-0.138,1.896-1.662,3.394-3.56,3.5
				c-1.466,0.217-2.961,0.145-4.4-0.21c-0.301-0.069-0.586-0.194-0.84-0.37c-0.74-0.51-1.07-0.44-1.63,0.23
				c-0.327,0.358-0.7,0.671-1.11,0.93c-0.427,0.331-0.894,0.606-1.39,0.82c-0.674,0.254-1.375,0.429-2.09,0.52
				c-1.018,0.177-2.066,0.033-3-0.41c-0.91-0.48-1.81-1-1.75-2.3c-0.008-0.145-0.031-0.29-0.07-0.43c-0.21-1.19,0.1-1.16,0.84-1.7
				c0.566-0.43,1.172-0.805,1.81-1.12c0.528-0.243,1.099-0.379,1.68-0.4c0.82,0,1.64,0.12,2.46,0.17c0.4,0,0.8,0.1,1.14-0.29
				s0.93-0.31,1.22,0.24c0.41,0.78,0.87,0.86,1.52,0.29c1.06-1.018,2.408-1.685,3.86-1.91c1.136-0.133,2.282,0.156,3.22,0.81
				c0.246,0.228,0.41,0.53,0.47,0.86c0.05,0.19-0.1,0.43-0.16,0.65c-0.2-0.09-0.45-0.14-0.58-0.29c-0.8-0.92-1.85-0.75-2.86-0.68
				c-1.37,0.15-2.23,1.09-3.23,1.91c-0.132,0.233-0.132,0.517,0,0.75c0.272,0.297,0.616,0.518,1,0.64
				c1.834,0.541,3.812,0.287,5.45-0.7c1-0.469,1.431-1.66,0.962-2.66c-0.101-0.216-0.241-0.413-0.412-0.58
				c-0.14-0.17-0.09-0.49-0.12-0.74c0.215-0.042,0.435-0.042,0.65,0c1.171,0.455,2.497,0.245,3.47-0.55
				c0.88-0.61,1.82-1.16,2.65-1.83c0.436-0.46,0.837-0.951,1.2-1.47c1.69-1.87,2.18-4.26,2.89-6.55c0.56-1.82,1-3.67,1.57-5.48
				c0.34-0.697,0.379-1.503,0.11-2.23c-0.09-0.19,0.14-0.54,0.24-0.81c0.11-0.196,0.197-0.404,0.26-0.62
				c0.14-1.38,0.29-2.76,0.36-4.15c0-1,0-2.07-0.06-3.11c-0.029-0.248-0.138-0.479-0.31-0.66c-0.507-0.45-0.732-1.138-0.59-1.8
				c0.26-1,0.33-2.07,1.16-2.83c0.539-0.48,1.351-0.48,1.89,0c0.29,0.28,0.59,0.55,0.91,0.8c0.78,0.536,1.131,1.51,0.87,2.42
				c-0.208,0.846-0.784,1.554-1.57,1.93c-0.67,0.223-1.071,0.907-0.94,1.6c0,1-0.07,2.07-0.1,3.1c0.019,0.172,0.063,0.341,0.13,0.5
				l0.36-0.31c0.677-0.789,1.535-1.403,2.5-1.79c0.759-0.261,1.481-0.617,2.15-1.06c0.2-0.11,0.27-0.45,0.38-0.69
				c0.247-0.586,0.847-0.943,1.48-0.88c0.337-0.054,0.671-0.128,1-0.22c0.918-0.084,1.731,0.592,1.816,1.51
				c0.011,0.12,0.009,0.24-0.006,0.36c-0.121,0.714-0.322,1.412-0.6,2.08c-0.276,0.76-1.024,1.242-1.83,1.18
				c-0.203,0.02-0.402,0.071-0.59,0.15c-0.454,0.228-1.007,0.046-1.235-0.408c-0.052-0.104-0.084-0.216-0.095-0.332
				c-0.06-0.26-0.14-0.52-0.18-0.78c-0.034-0.274-0.284-0.469-0.558-0.435c-0.08,0.01-0.156,0.039-0.222,0.085
				c-1.063,0.525-2.068,1.158-3,1.89c-0.696,0.659-1.256,1.447-1.65,2.32c-0.188,0.63-0.319,1.276-0.39,1.93
				c-0.71,2.7-1.45,5.4-2.22,8.08c-0.268,0.773-0.579,1.531-0.93,2.27c-0.006,0.04-0.006,0.08,0,0.12c0,0.2,0,0.4,0,0.6
				c0.182-0.08,0.351-0.188,0.5-0.32c0.7-0.86,1.37-1.75,2.08-2.61c0.43-0.52,1-1,1.38-1.48c0.59-0.73,1.12-1.51,1.7-2.24
				c0.36-0.45,0.79-0.85,1.17-1.28s1-1.16,1.49-1.76c0.819-1.217,1.894-2.241,3.15-3c1.25-0.781,2.594-1.399,4-1.84
				c0.23,0,0.4-0.33,0.63-0.42c1.207-0.493,2.423-0.97,3.65-1.43c0.191-0.066,0.399-0.066,0.59,0c0.694,0.186,1.435,0.034,2-0.41
				c1-0.56,2.06-1.13,3.13-1.6c0.713-0.334,1.226-0.987,1.38-1.76c0.432-1.534,0.575-3.134,0.42-4.72c-0.08-0.81,0-1.65,0-2.47
				c-0.071-0.324-0.218-0.626-0.43-0.88c-0.754-1.156-0.428-2.705,0.728-3.46c0.01-0.007,0.021-0.014,0.032-0.02
				c0.243-0.168,0.431-0.405,0.54-0.68c0.2-0.51,0.47-0.64,1-0.43c1.031,0.62,1.737,1.662,1.93,2.85c0.08,1.165-0.66,2.23-1.78,2.56
				c-0.449,0.148-0.732,0.59-0.68,1.06c0.074,0.901,0.098,1.806,0.07,2.71c0,1-0.2,1.92-0.29,2.88c0.004,0.146,0.028,0.29,0.07,0.43
				c0.142-0.018,0.28-0.059,0.41-0.12c0.59-0.41,1.16-0.85,1.76-1.24c1-0.67,2.05-1.36,3.13-2c0.463-0.266,0.791-0.717,0.9-1.24
				c0.103-0.376,0.299-0.72,0.57-1c0.481-0.443,1.019-0.82,1.6-1.12c0.931-0.53,2.116-0.205,2.646,0.726
				c0.162,0.285,0.25,0.606,0.254,0.934c0.049,0.367,0.119,0.731,0.21,1.09c0.09,0.46,0.16,0.77-0.43,1.11
				c-0.859,0.53-1.863,0.778-2.87,0.71c-0.376-0.092-0.747-0.205-1.11-0.34c-0.296-0.097-0.614-0.097-0.91,0
				c-0.872,0.471-1.707,1.005-2.5,1.6c-1.39,1.1-3,2-4.44,3c-0.07,0-0.17,0.06-0.21,0.12c-0.49,0.68-1.31,0.82-2,1.19l-1.83,1
				c-0.09,0.05-0.14,0.16-0.2,0.24c0.101,0.056,0.209,0.099,0.32,0.13c1.404,0.221,2.758,0.689,4,1.38c0.24,0.115,0.52,0.115,0.76,0
				c1.105-0.631,2.275-1.141,3.49-1.52c0.465-0.172,0.9-0.415,1.29-0.72c0.226-0.212,0.365-0.501,0.39-0.81
				c0.07-1,1.6-2.58,2.71-2.4c0.449,0,0.897,0.061,1.33,0.18c0.729,0.52,1.066,1.432,0.85,2.3c-0.155,1.105-1.104,1.926-2.22,1.92
				c-0.59,0-1.18-0.07-1.78-0.06c-0.312,0.009-0.62,0.073-0.91,0.19c-0.63,0.25-1.23,0.55-1.86,0.81s-1.16,0.41-1.71,0.67
				c-0.38,0.19-0.3,0.6,0.18,0.92c0.71,0.46,1.43,0.9,2.14,1.35c0.322,0.187,0.629,0.398,0.92,0.63
				c0.535,0.363,1.213,0.445,1.82,0.22c0.897-0.402,1.898-0.51,2.86-0.31c0.37,0.11,0.67,0.5,1,0.82 M46.005,75.093
				c0.906-0.083,1.776-0.392,2.53-0.9c0.631-0.384,1.229-0.819,1.79-1.3c0.179-0.196,0.272-0.455,0.26-0.72
				c0-0.13-0.3-0.36-0.47-0.36c-0.529-0.087-1.048-0.224-1.55-0.41c-1.245-0.344-2.574-0.194-3.71,0.42c-0.33,0.21-0.68,0.38-1,0.58
				c-1,0.61-1.13,1.17-0.31,2c0.674,0.603,1.598,0.841,2.48,0.64 M74.005,40.173c0.243,0.112,0.504,0.179,0.77,0.2
				c0.722-0.197,1.195-0.886,1.12-1.63c-0.09-0.27-0.43-0.49-0.7-0.65c-0.207-0.05-0.423-0.05-0.63,0
				c-0.123-0.011-0.247,0.009-0.36,0.06c-0.616,0.518-0.704,1.433-0.2,2.06 M93.005,59.643c0.32-0.18,0.75-0.28,0.94-0.55
				s0.64-0.86,0.17-1.21c-0.4-0.227-0.863-0.322-1.32-0.27c-0.2,0-0.36,0.41-0.57,0.59c-0.43,0.36-0.33,0.72-0.17,1.19
				s0.57,0.24,0.95,0.26 M106.395,55.653c0.869-0.23,1.561-0.886,1.84-1.74c0.07-0.15-0.1-0.42-0.16-0.63l-0.51,0.21
				c-0.28,0.13-0.57,0.4-0.82,0.36c-0.46-0.07-0.86-0.12-1,0.38c-0.24,0.74-0.06,1.11,0.68,1.42 M99.475,31.503
				c-0.631,0.239-0.974,0.921-0.79,1.57c0.09,0.336,0.341,0.606,0.67,0.72c0.351-0.034,0.667-0.225,0.86-0.52
				c0.15-0.24,0.06-0.63,0.07-1c0-0.5-0.23-0.75-0.81-0.81 M85.005,61.923c-0.88-1-1.33-1-2,0.12c-0.128,0.29-0.102,0.624,0.07,0.89
				c0.67,0.313,1.468,0.024,1.781-0.647c0.052-0.112,0.089-0.231,0.109-0.353 M106.095,45.763c0.42,0.57,1,0.3,1.45,0.16
				c0.23-0.07,0.56-0.63,0.51-0.7c-0.328-0.367-0.689-0.702-1.08-1c0,0-0.08,0-0.11,0c-0.42,0.39-1,0.71-0.77,1.51 M107.295,37.433
				c0,0.24-0.14,0.55,0,0.71c0.165,0.236,0.424,0.389,0.71,0.42c0.446-0.024,0.805-0.375,0.84-0.82c0.003-0.303-0.031-0.605-0.1-0.9
				c0-0.05-0.18-0.08-0.27-0.11c-0.57-0.15-0.79,0.34-1.15,0.7 M81.695,43.873l-0.39-0.27c-0.07,0.146-0.131,0.296-0.18,0.45
				c-0.028,0.129-0.028,0.261,0,0.39c0,0.22,0.12,0.42,0.18,0.64c0.171-0.218,0.325-0.448,0.46-0.69
				C81.805,44.283,81.715,44.113,81.695,43.873z"/>
		</g>
	</g>
</g>
</svg>