<!-- Generator: Adobe Illustrator 20.1.0, SVG Export Plug-In  -->
<svg version="1.1"
	 xmlns="http://www.w3.org/2000/svg" xmlns:xlink="http://www.w3.org/1999/xlink" xmlns:a="http://ns.adobe.com/AdobeSVGViewerExtensions/3.0/"
	 x="0px" y="0px" width="95.104px" height="69.305px" viewBox="0 0 95.104 69.305"
	 style="enable-background:new 0 0 95.104 69.305;" xml:space="preserve">
<style type="text/css">
	.st0{fill:#010101;stroke:#000000;stroke-width:0.25;stroke-miterlimit:10;}
</style>
<defs>
</defs>
<path class="st0" d="M89.434,49.112c-5.572,3.113-11.485,5.567-17.43,7.889c-8.586,3.352-17.271,6.444-25.954,9.535
	c-4.716,1.679-9.741,3.381-14.631,2.31c-2.261-0.495-4.389-1.585-6.112-3.131c-1.458-1.308-2.611-2.915-3.752-4.508
	C13.919,50.545,6.245,39.816,0.548,28.004c-0.265-0.549-0.531-1.158-0.377-1.747c0.154-0.589,0.956-1.009,1.394-0.586
	c1.091,1.054,2.345,2.121,3.858,2.229c1.513,0.108,3.173-1.287,2.734-2.739c-0.388-1.28,0.332-2.687,1.386-3.51
	s2.383-1.19,3.673-1.545C33.43,14.54,53.166,7.382,72.876,0.232c1.374-0.499,2.675,0.839,3.522,2.031
	c3.529,4.968,6.88,10.062,10.045,15.268c3.857,6.345,7.51,13.072,8.392,20.445c0.345,2.883,0.172,6.055-1.655,8.312
	C92.19,47.512,90.808,48.345,89.434,49.112 M89.473,25.978c-4.196-7.927-9.015-15.525-14.396-22.7
	c-1.055-1.407-3.233-0.985-4.899-0.421C51.102,9.315,32.026,15.774,12.949,22.232c-0.562,0.19-1.256,0.729-0.916,1.215
	c8.022,11.492,15.668,23.246,22.922,35.237c0.514,0.849,1.788,0.614,2.719,0.271c18.105-6.664,36.211-13.327,54.316-19.991
	c0.289-0.106,0.588-0.22,0.798-0.445c0.316-0.339,0.355-0.847,0.352-1.311C93.113,33.232,91.335,29.494,89.473,25.978
	 M89.397,47.412c1.217-0.637,2.488-1.348,3.173-2.539c0.685-1.191,0.484-2.999-0.756-3.589c-0.905-0.431-1.97-0.087-2.91,0.26
	C72.622,47.557,56.34,53.57,40.058,59.583c-1.593,0.588-3.21,1.19-4.57,2.206c-1.98,1.48-3.757,3.934-6.207,3.609
	c-0.304,0.759,0.669,1.379,1.46,1.587c1.901,0.499,3.886,0.74,5.84,0.526c1.804-0.198,3.541-0.776,5.262-1.351
	C58.024,60.758,74.284,55.322,89.397,47.412 M11.502,26.213c-0.267-0.412-0.582-0.858-1.062-0.964
	c-0.48-0.106-1.057,0.417-0.804,0.837c6.635,10.998,12.767,22.299,18.373,33.855c0.423,0.872,0.904,1.808,1.781,2.221
	c0.876,0.413,2.205-0.108,2.169-1.076c-0.012-0.331-0.176-0.634-0.336-0.924C25.264,48.644,18.658,37.255,11.502,26.213
	 M11.775,44.4c1.35,1.864,2.785,3.685,4.5,5.22c0.765,0.684,2.136,0.559,2.651,1.446c-3.041-6.778-6.653-13.282-10.26-19.776
	c-0.286-0.516-0.764-1.116-1.328-0.942c-0.774,0.238-0.467,1.402-0.017,2.076c3.339,5.006,6.295,10.268,8.831,15.725
	c-0.93-0.71-1.543-1.748-2.133-2.76c-3.082-5.285-6.165-10.57-9.247-15.855c-0.248-0.425-0.982-0.187-1.139,0.28
	s0.058,0.968,0.272,1.411C6.133,35.837,8.77,40.251,11.775,44.4 M26.146,62.64c-0.633,0.567,0.135,1.763,0.975,1.639
	c0.84-0.124,1.334-1.093,1.254-1.938c-0.081-0.845-0.571-1.588-1.033-2.3c-1.952-3.013-3.646-6.184-5.338-9.351
	c-4.043-7.569-8.086-15.137-12.129-22.706c-0.919,0.554-0.546,1.951-0.065,2.91c5.429,10.798,10.87,21.616,17.339,31.825
	C27.25,63.336,25.951,63.234,26.146,62.64 M32.723,58.693c0.015-1.009-0.575-1.916-1.142-2.75c-1.316-1.936-2.632-3.872-3.948-5.808
	c-0.182,0.509,0.108,1.054,0.389,1.517c1.119,1.844,2.239,3.689,3.358,5.533C31.734,57.768,32.118,58.379,32.723,58.693
	 M18.967,51.534c-0.195,0.589,0.318,1.293,0.938,1.288c-0.047-0.607-0.401-1.182-0.923-1.496 M19.945,52.965
	c-0.08,0.434,0.099,0.905,0.448,1.175c0.152-0.116,0.257-0.292,0.287-0.481c-0.227-0.227-0.454-0.455-0.681-0.682L19.945,52.965z"/>
</svg>