<!-- Generator: Adobe Illustrator 20.1.0, SVG Export Plug-In  -->
<svg version="1.1"
	 xmlns="http://www.w3.org/2000/svg" xmlns:xlink="http://www.w3.org/1999/xlink" xmlns:a="http://ns.adobe.com/AdobeSVGViewerExtensions/3.0/"
	 x="0px" y="0px" width="119.088px" height="119.088px" viewBox="0 0 119.088 119.088"
	 style="enable-background:new 0 0 119.088 119.088;" xml:space="preserve">
<style type="text/css">
	.st0{fill:#010101;}
</style>
<defs>
</defs>
<path class="st0" d="M60.971,115.377c-2.383-3.839-2.164-8.687-1.828-13.193c0.143-1.922,0.375-4.023,1.754-5.368
	c1.781-1.737,4.641-1.469,7.099-1.082c0.298,0.047,0.613,0.102,0.84,0.3c0.472,0.412,0.277,1.257-0.241,1.609
	c-0.518,0.352-1.205,0.324-1.815,0.185c-0.61-0.14-1.205-0.378-1.83-0.405c-1.404-0.06-2.668,0.989-3.283,2.253
	s-0.711,2.709-0.772,4.113c-0.158,3.62-0.104,7.458,1.767,10.561c0.93,1.542,3.451,1.354,4.64,0.002
	c1.19-1.352,1.312-3.344,1.043-5.125c-0.104-0.687-0.272-1.398-0.728-1.923c-0.456-0.524-1.278-0.789-1.868-0.422
	c-0.605,0.377-1.318-0.576-1.033-1.229c0.285-0.653,1.039-0.938,1.717-1.156c1.64-0.53,3.281-1.059,4.921-1.589
	c0.584-0.188,1.066,0.626,0.864,1.205c-0.202,0.579-0.762,0.938-1.238,1.325c-0.476,0.387-0.932,0.953-0.796,1.551
	c0.512,2.241,1.023,4.483,1.535,6.724c0.055,0.241,0.11,0.495,0.039,0.731c-0.193,0.642-1.058,0.687-1.721,0.787
	c-2.289,0.346-4.13,2.788-6.401,2.341C62.474,117.342,61.595,116.384,60.971,115.377z"/>
<path class="st0" d="M49.216,100.378c0.684-0.008,1.262,0.572,1.48,1.22c0.218,0.648,0.155,1.353,0.09,2.034
	c-0.398,4.161-0.796,8.322-1.194,12.483c-0.075,0.788-0.2,1.67-0.83,2.151c-0.666,0.509-1.668,0.332-2.33-0.183
	c-0.662-0.515-1.06-1.289-1.429-2.042c-1.24-2.53-2.379-5.109-3.414-7.729c-0.21-0.532-1.046-0.512-1.434-0.093
	c-0.388,0.42-0.45,1.038-0.491,1.608c-0.182,2.489-0.364,4.978-0.547,7.467c-0.059,0.8-0.39,1.854-1.19,1.792
	c-0.817-0.063-0.964-1.192-0.871-2.006c0.467-4.093,0.935-8.187,1.402-12.28c0.08-0.699,0.294-1.557,0.981-1.709
	c0.557-0.123,1.07,0.318,1.447,0.746c2.253,2.555,3.501,5.821,4.676,9.018c0.392,1.067,1.008,2.315,2.141,2.397
	c0.074-1.576,0.244-3.146,0.414-4.715C48.483,107.15,48.849,103.764,49.216,100.378z"/>
<path class="st0" d="M60.733,27.109c-0.12,1.713-1.248,3.188-2.499,4.363c-2.23,2.095-5.235,3.642-8.268,3.234
	c-2.142-0.288-4.127-1.585-5.252-3.431c-1.125-1.846-1.367-4.204-0.64-6.24c1.088-3.051,4.046-5.017,6.995-6.357
	c1.839,0.284,3.678,0.568,5.518,0.853c1.174,1.204,2.348,2.409,3.522,3.613c0.113,0.526,0.227,1.051,0.34,1.577
	C60.618,25.507,60.789,26.307,60.733,27.109 M54.663,31.862c0.664-0.401,1.267-0.903,1.782-1.483
	c0.365-0.099,0.614-0.428,0.834-0.736c0.324-0.453,0.648-0.905,0.971-1.358c-0.154-0.048-0.176-0.279-0.075-0.406
	c0.101-0.127,0.269-0.174,0.426-0.214c-0.031-0.273-0.063-0.547-0.094-0.82c0.039-0.485-0.008-0.977-0.137-1.446
	c-0.274-0.99-0.899-1.839-1.511-2.664c-0.207-0.279-0.418-0.561-0.686-0.782c-0.79-0.648-1.911-0.646-2.932-0.612
	c-1.462,0.048-2.974,0.108-4.289,0.75c-0.866,0.422-1.6,1.078-2.232,1.805c-0.194,0.222-0.385,0.465-0.439,0.755
	c-0.046,0.25,0.012,0.528-0.118,0.747c-0.906,1.534-0.707,3.641,0.471,4.978c0.187,0.046,0.305,0.275,0.234,0.454
	c0.985,0.727,2,1.469,3.179,1.799c1.255,0.352,2.645,0.194,3.79-0.429C54.133,32.16,54.406,32.017,54.663,31.862z"/>
<path class="st0" d="M18.435,118.46c-1.178-0.526-1.955-1.727-2.241-2.985c-0.286-1.258-0.142-2.574,0.103-3.841
	c0.736-3.794,2.388-7.408,4.776-10.446c0.84-1.068,1.854-2.118,3.179-2.418c1.32-0.299,2.796,0.281,3.56,1.398
	c1.12,2.181,1.814,4.579,2.033,7.02c0.071,0.799,0.092,1.604,0.018,2.403c-0.419,4.522-4.227,8.503-8.726,9.122
	C20.229,118.838,19.272,118.833,18.435,118.46 M18.661,116.255c0.844,0.94,2.353,0.842,3.542,0.414
	c3.752-1.35,6.321-5.428,5.92-9.395c-0.127-1.254-0.514-2.464-0.899-3.664c-0.278-0.865-0.58-1.77-1.246-2.388
	c-0.666-0.618-1.818-0.811-2.457-0.165c-3.299,3.337-5.297,7.929-5.489,12.618C17.995,114.583,18.054,115.579,18.661,116.255z"/>
<path class="st0" d="M12.321,102.401c-1.449,0.488-2.93,0.981-4.459,0.98c-1.381-0.001-2.373,1.278-3.138,2.428
	c-0.916,1.377-1.832,2.754-2.747,4.131c-0.377,0.567-1.034,1.21-1.624,0.871c-0.674-0.388-0.254-1.415,0.215-2.035
	c3.149-4.162,5.63-8.829,7.318-13.768c0.533-1.558,2.334-2.448,3.969-2.263s3.067,1.257,4.052,2.576
	c0.935,2.035,0.493,4.745-1.323,6.056C13.91,101.864,13.109,102.136,12.321,102.401 M14.123,99.339
	c0.549-1.096,0.405-2.503-0.353-3.466s-2.093-1.431-3.287-1.154c-1.318,1.701-2.336,3.635-2.99,5.686
	c-0.068,0.214-0.133,0.439-0.093,0.66c0.073,0.396,0.477,0.661,0.877,0.707s0.797-0.078,1.18-0.201
	c1.013-0.324,2.026-0.649,3.039-0.973c0.317-0.101,0.639-0.205,0.913-0.394C13.72,99.99,13.954,99.677,14.123,99.339z"/>
<path class="st0" d="M85.235,6.235c0.191,0.548,0.377,1.178,0.092,1.684c-0.167,0.296-0.466,0.488-0.753,0.669
	c-0.316,0.198-0.632,0.397-0.947,0.595c-0.151,0.095-0.331,0.193-0.497,0.13c-0.283-0.108-0.259-0.568-0.524-0.714
	c-0.206-0.113-0.569-0.045-0.6-0.278c-0.013-0.096,0.054-0.182,0.119-0.254C82.943,7.159,84.045,6.511,85.235,6.235z"/>
<path class="st0" d="M99.04,4.565c-0.275-0.448-0.551-0.897-0.826-1.345c0.749-0.488,1.557-0.886,2.399-1.184
	c0.364-0.129,0.957-0.069,0.904,0.314C101.353,3.543,100.245,4.535,99.04,4.565z"/>
<path class="st0" d="M63.521,19.346c0.825-0.765,1.829-1.336,2.908-1.656c0.105,0.408,0.21,0.831,0.139,1.247
	c-0.071,0.415-0.366,0.823-0.783,0.887c-0.353,0.054-0.65,0.367-0.686,0.722c-0.504-0.221-1.007-0.443-1.511-0.664
	c-0.094-0.041-0.199-0.094-0.23-0.192C63.318,19.562,63.422,19.437,63.521,19.346z"/>
<path class="st0" d="M116.193,0.127c0.709-0.185,1.47-0.168,2.169,0.05c0.182,0.056,0.364,0.129,0.5,0.262
	c0.432,0.423,0.171,1.161-0.188,1.648c-0.651-0.26-1.338-0.43-2.036-0.502C116.41,1.129,116.259,0.634,116.193,0.127z"/>
<path class="st0" d="M73.624,13.036c0.399-0.565,1.037-0.955,1.722-1.052c-0.085,0.546-0.029,1.113,0.162,1.631
	c-0.352,0.307-0.704,0.613-1.056,0.92c-0.103-0.432-0.819-0.417-0.988-0.828C73.372,13.485,73.485,13.232,73.624,13.036z"/>
<path class="st0" d="M46.509,47.63c-0.079,0.161-0.157,0.323-0.236,0.484c-0.077-0.134-0.154-0.269-0.23-0.403
	c0.079-0.168,0.345-0.203,0.464-0.061L46.509,47.63z"/>
<path class="st0" d="M4.772,57.405c0.476-0.769,1.194-1.354,1.922-1.891c3.456-2.549,7.462-4.35,11.663-5.242
	c2.87-0.61,5.472-2.166,8.343-2.769c2.871-0.604,6.421,0.132,7.644,2.799c5.16-1.106,10.431-1.693,15.707-1.748
	c1.488-0.016,3.059,0.034,4.326,0.813c2.596,1.596,5.935,1.147,8.871,0.329c3.323-0.926,6.533-2.258,9.537-3.956
	c0.898-0.508,0.756-1.963-0.018-2.646c-0.774-0.683-1.88-0.801-2.91-0.871c-5.593-0.382-11.218-0.295-16.796,0.259
	c-0.656,0.065-1.319,0.138-1.942,0.353c-2.065,0.711-3.384,3.112-2.876,5.236c-0.529-0.176-1.058-0.352-1.587-0.528
	c-0.881-2.11,0.501-4.617,2.472-5.776c1.971-1.159,4.354-1.311,6.638-1.433c1.701-0.091,3.403-0.182,5.104-0.274
	c4.193-0.225,8.558-0.421,12.418,1.23c1.469,0.628,2.996,1.814,2.934,3.411c-0.02,0.527-0.218,1.028-0.394,1.524
	c-2.041,5.773-1.373,12.099-1.86,18.203c-0.268,3.359-0.894,6.688-1.865,9.915c-0.769,2.555-1.784,5.096-3.516,7.126
	c-1.732,2.029-4.288,3.493-6.954,3.381c-0.868-0.037-1.734-0.236-2.599-0.155c-0.865,0.081-1.78,0.536-2.052,1.361
	c-0.335,1.015,0.408,2.161,0.048,3.167c-0.268,0.748-1.051,1.16-1.769,1.501c-1.733,0.825-3.466,1.651-5.199,2.476
	c-3.282,1.563-6.641,3.149-10.254,3.558s-7.59-0.569-9.899-3.378c-0.842-1.024-1.443-2.323-1.329-3.644
	c-3.511,0.476-7.114,0.269-10.548-0.604c-1.548-0.394-3.166-0.997-4.082-2.306c-0.356-0.509-0.583-1.095-0.806-1.675
	c-2.642-6.866-5.284-13.732-7.926-20.598C4.328,62.238,3.467,59.513,4.772,57.405 M54.676,83.739
	c0.429-7.102-1.157-14.253-0.299-21.317c0.128-1.054,0.009-2.529-1.047-2.643c-0.306-0.033-0.608,0.079-0.897,0.186
	c-8.073,3-16.8,3.643-25.391,4.257c-0.951,0.068-1.061,1.419-0.879,2.355c0.588,3.023,1.176,6.046,1.764,9.069
	c0.279,1.433,0.557,2.865,0.836,4.298c0.419,2.155,0.838,4.309,1.257,6.464c0.088,0.453,0.183,0.923,0.459,1.293
	c0.476,0.64,1.346,0.812,2.137,0.915c6.826,0.889,13.864,0.097,20.321-2.287c0.394-0.145,0.797-0.304,1.095-0.599
	C54.541,85.228,54.633,84.452,54.676,83.739 M70.714,52.954c-2.827,1.207-5.771,2.138-8.777,2.777
	c-1.121,0.238-2.332,0.427-3.379-0.041c-0.51-0.228-1.131,0.08-1.439,0.546c-0.308,0.465-0.379,1.044-0.437,1.599
	c-0.656,6.346-0.604,12.764,0.156,19.099c0.04,0.336,0.088,0.687,0.283,0.964c0.361,0.514,1.079,0.594,1.707,0.618
	c1.451,0.054,2.904,0.058,4.355,0.01c1.716-0.057,3.533-0.221,4.913-1.243c1.708-1.265,2.319-3.509,2.731-5.594
	c1.18-5.973,1.645-12.087,1.381-18.17c-0.007-0.159-0.016-0.325-0.093-0.464C71.864,52.603,71.188,52.752,70.714,52.954
	 M21.917,59.576c0.272,0.663,0.544,1.325,0.816,1.988c-0.888-0.044-1.763,0.593-1.994,1.451c-0.528-0.597-1.492-0.173-2.188,0.216
	c-2.847,1.589-6.346,1.965-9.465,1.016c-0.557-0.169-1.128,0.362-1.227,0.935c-0.099,0.573,0.128,1.147,0.351,1.685
	c1.856,4.472,3.712,8.944,5.567,13.417c0.959,2.31,3.926,2.854,6.417,3.069c1.842,0.159,3.684,0.318,5.527,0.477
	c0.426,0.037,0.908,0.055,1.221-0.237c0.377-0.353,0.308-0.958,0.209-1.465c-1.261-6.455-2.521-12.909-3.782-19.364
	c-0.289-1.48-0.608-3.025-1.563-4.192c-3.997,1.89-8.497,2.701-12.902,2.325c-0.773-0.066-1.659-0.131-2.214,0.412
	c0.304,0.983,1.666,0.952,2.695,0.983c0.627,0.019,1.245,0.137,1.867,0.214C15.005,62.971,18.927,61.894,21.917,59.576
	 M25.398,57.635c1.345,0.45,2.8,0.395,4.217,0.335c2.199-0.093,4.4-0.187,6.584-0.459c5.957-0.741,11.681-2.795,17.617-3.693
	c0.969-0.147,1.147-1.633,0.467-2.338c-0.68-0.705-1.756-0.812-2.735-0.851c-8.373-0.336-16.816,1.174-24.554,4.392
	C25.987,55.441,25.311,56.547,25.398,57.635 M8.905,58.77c0.909,0.363,1.927,0.29,2.897,0.162c2.604-0.342,5.148-1.032,7.683-1.72
	c0.579-0.157,1.163-0.316,1.692-0.598c0.453-0.241,0.854-0.567,1.253-0.89c1.114-0.904,2.229-1.808,3.343-2.712
	c1.984-0.301,3.94-0.789,5.833-1.457c0.579-0.204,0.594-1.1,0.161-1.536c-0.433-0.435-1.092-0.53-1.702-0.602
	c-1.115-0.131-2.252-0.262-3.353-0.046c-0.451,0.088-0.888,0.234-1.324,0.379c-1.871,0.622-3.742,1.244-5.614,1.866
	c-3.757,1.249-7.596,2.541-10.711,4.983c-0.553,0.433-1.126,1.173-0.738,1.758C8.458,58.558,8.681,58.681,8.905,58.77
	 M53.026,57.624c0.37-0.6,0.518-1.334,0.41-2.031c-8.764,2.552-17.806,4.15-26.914,4.758c-0.671,0.045-0.777,1.12-0.259,1.549
	c0.518,0.429,1.267,0.383,1.936,0.314c2.339-0.24,4.677-0.481,7.016-0.721c1.617-0.166,3.234-0.333,4.843-0.562
	C44.483,60.3,48.839,59.189,53.026,57.624 M32.305,92.757c2.086,1.09,4.288,2.208,6.641,2.15c1.515-0.037,2.969-0.563,4.392-1.083
	c1.16-0.424,2.321-0.847,3.481-1.271c1.324-0.483,2.737-1.035,3.514-2.211c0.213-0.323,0.665-0.38,0.964-0.624
	c0.3-0.245,0.183-0.927-0.178-0.788c-5.886,2.266-12.401,2.875-18.605,1.739c-0.745-0.136-1.406,0.859-0.991,1.493
	C31.704,92.439,32.011,92.604,32.305,92.757 M68.089,49.88c-0.744,0.276-1.488,0.552-2.232,0.828
	c-0.552,0.205-1.105,0.41-1.664,0.594c-1.859,0.614-3.791,1.002-5.742,1.155c-0.453,0.035-0.735,0.592-0.596,1.024
	c0.139,0.432,0.58,0.711,1.027,0.791c0.447,0.08,0.905-0.003,1.352-0.086c3.924-0.73,8.005-1.528,11.192-3.932
	c0.256-0.193,0.515-0.409,0.637-0.707c0.121-0.297,0.053-0.696-0.23-0.848c-0.252-0.136-0.561-0.035-0.829,0.067
	C70.031,49.137,69.06,49.508,68.089,49.88 M25.503,88.089c0.651-0.047,1.398-0.242,1.657-0.84c0.268-0.619-0.288-1.425-0.961-1.395
	c-2.908,0.129-5.834-0.122-8.678-0.745c-0.334-0.073-0.68-0.158-0.946-0.373c-0.158-0.128-0.285-0.3-0.467-0.389
	c-0.183-0.089-0.458-0.045-0.513,0.151c-0.016,0.056-0.011,0.116-0.003,0.173c0.162,1.136,1.453,1.681,2.552,2.013
	c0.338,0.102,0.677,0.204,1.015,0.307C21.226,87.614,23.35,88.245,25.503,88.089 M66.332,80.635
	c-0.385-0.126-0.793-0.177-1.197-0.152c-0.746,0.047-1.477,0.355-2.218,0.264c-1.697-0.209-3.424-0.171-5.11,0.113
	c-0.571,0.096-0.652,0.982-0.236,1.385c0.416,0.403,1.054,0.443,1.633,0.451c0.985,0.014,1.97,0.003,2.955-0.032
	c0.826-0.029,1.667-0.079,2.44-0.372C65.373,81.999,66.079,81.422,66.332,80.635z"/>
</svg>