<!-- Generator: Adobe Illustrator 22.1.0, SVG Export Plug-In  -->
<svg version="1.1"
	 xmlns="http://www.w3.org/2000/svg" xmlns:xlink="http://www.w3.org/1999/xlink" xmlns:a="http://ns.adobe.com/AdobeSVGViewerExtensions/3.0/"
	 x="0px" y="0px" width="118.984px" height="160.751px" viewBox="0 0 118.984 160.751"
	 style="enable-background:new 0 0 118.984 160.751;" xml:space="preserve">
<style type="text/css">
	.st0{fill:#010101;stroke:#000000;stroke-miterlimit:10;}
</style>
<defs>
</defs>
<g id="Heart_Rate_1_">
	<path class="st0" d="M17.24,50.352c0.192,1.869,0.047,3.851-0.919,5.463s-2.911,2.736-4.739,2.3
		c-1.435-0.342-2.517-1.529-3.289-2.785c-0.334-0.544-0.634-1.125-0.735-1.755c-0.26-1.624,0.816-3.129,1.833-4.422
		c0.47-0.597,0.949-1.203,1.568-1.644c1.131-0.805,2.694-0.956,3.958-0.384C16.181,47.697,17.098,48.971,17.24,50.352 M15.179,50.7
		c-0.349-1.085-1.405-2.167-2.481-1.793c-0.363,0.126-0.653,0.398-0.931,0.663c-0.465,0.444-0.931,0.887-1.396,1.331
		c-0.379,0.361-0.776,0.754-0.885,1.265c-0.11,0.515,0.098,1.042,0.336,1.511c0.355,0.698,0.805,1.371,1.439,1.831
		c0.634,0.46,1.48,0.68,2.221,0.425c0.785-0.271,1.319-1.016,1.612-1.793C15.507,53.047,15.538,51.813,15.179,50.7z"/>
	<path class="st0" d="M69.931,124.381c-3.453-3.875-2.05-9.877-0.575-14.853c1.475-4.976,2.515-11.168-1.32-14.666
		c-1.584-1.445-3.753-2.12-5.338-3.565c-1.318-1.202-2.135-2.847-2.844-4.483c-3.982-9.195-5.454-19.464-4.216-29.407
		c0.426-3.424,2.08-7.62,5.53-7.657c-0.853-7.631-1.706-15.262-2.558-22.893c-0.455-4.074-0.872-8.398,0.899-12.095
		c1.77-3.697,6.608-6.237,10.105-4.097c0.166-2.723,0.389-5.611,1.993-7.818c1.604-2.207,5.117-3.249,7.095-1.369
		c1.093,1.039,1.425,2.637,1.575,4.138c0.397,3.97-0.097,8.026-1.436,11.784c-0.912,2.562-3.469,5.424-5.838,4.088
		c-0.818-0.461-1.317-1.328-1.699-2.187c-1.195-2.689-1.619-5.715-1.209-8.629c-2.028,2.378-6.635,0.884-8.453,3.426
		c-0.657,0.918-0.727,2.118-0.759,3.246c-0.35,12.308,1.083,24.664,4.241,36.565c0.839,3.163,0.156,6.498-0.137,9.757
		c-0.665,7.416,0.974,15.391,6.096,20.795c5.122,5.405,14.199,7.311,20.251,2.973c10.448-7.488,6.25-26.739,17.276-33.346
		c1.435-0.86,1.88-2.696,2.196-4.338c1.65-8.584,3.301-17.168,4.951-25.752c0.291-1.514,0.583-3.07,0.305-4.587
		c-0.564-3.08-3.751-5.435-6.861-5.07c-3.11,0.366-5.664,3.395-5.498,6.523c0.125,2.353-3.495,3.287-5.279,1.747
		c-1.783-1.54-2.054-4.171-2.058-6.527c-0.008-4.094,0.401-8.189,1.219-12.2c0.62-3.04,5.454-3.162,7.399-0.745
		c1.946,2.417,1.806,5.845,1.569,8.939c2.228,1.318,5.155,0.47,7.575,1.39c2.402,0.913,3.872,3.458,4.236,6.002
		c0.364,2.543-0.181,5.119-0.723,7.63c-1.569,7.263-3.138,14.527-4.707,21.79c-0.43,1.989-0.828,4.198,0.204,5.952
		c1.352,2.299,0.418,5.212-0.555,7.696c-3.653,9.319-7.506,18.56-11.557,27.713c-1.12,2.53-2.287,5.104-4.171,7.13
		c-1.884,2.026-4.644,3.444-7.379,3.024c-3.22-0.495-6.135,2.324-7.182,5.409s-0.798,6.436-1.098,9.68
		c-0.3,3.244-1.382,6.743-4.153,8.455c-3.986,2.463-4.126,8.038-4.748,12.681c-1.393,10.387-8.428,20.502-18.6,23.022
		c-9.957,2.467-20.747-2.942-26.636-11.342c-5.889-8.4-7.505-19.173-6.771-29.406s3.616-20.167,6.009-30.142
		c1.284-5.354,2.423-11.027,0.814-16.293c-1.609-5.266-6.926-9.809-12.3-8.614C7.451,65.492-0.405,58.292,0.585,50.819
		c0.99-7.473,10.45-12.379,17.128-8.882s8.036,14.066,2.458,19.137c6.27,2.939,9.576,10.183,9.908,17.1
		c0.332,6.917-1.756,13.688-3.613,20.359c-2.575,9.253-4.761,18.785-4.17,28.371c0.591,9.586,4.293,19.348,11.731,25.425
		c7.438,6.077,18.953,7.522,26.713,1.862c7.75-5.653,9.883-16.152,10.937-25.686c0.071-0.638,0.137-1.298-0.058-1.909
		C71.334,125.703,70.554,125.08,69.931,124.381 M106.996,57.711c-0.861,0.952-1.422,2.134-1.926,3.315
		c-1.248,2.922-2.227,5.958-2.921,9.059c-0.488,2.179-0.838,4.399-1.582,6.504c-0.877,2.48-2.279,4.737-3.715,6.941
		c-2.26,3.466-4.902,7.066-8.825,8.381c-4.28,1.435-8.947-0.229-13.005-2.206c-2.055-1.001-4.088-2.101-5.804-3.61
		c-4.077-3.585-5.944-9.129-6.411-14.538c-0.467-5.408,0.29-10.837,0.579-16.258c-0.534,0.092-1.068,0.184-1.601,0.276
		c0.069-0.504,0.134-1.037-0.062-1.506c-0.197-0.469-0.757-0.826-1.221-0.617c-0.306,0.138-0.473,0.465-0.611,0.771
		c-4.073,9.06-2.139,19.658,1.025,29.073c0.708,2.106,1.511,4.255,3.03,5.876c2.383,2.543,6.289,3.529,8.052,6.535
		c1.682,2.868,0.802,6.477,0.071,9.72c-0.986,4.375-1.612,8.832-1.87,13.31c-0.076,1.314-0.079,2.76,0.755,3.778
		c1.233,1.506,3.777,1.231,5.211-0.084c1.434-1.316,2.009-3.307,2.401-5.213c0.405-1.971,0.683-3.968,0.831-5.975
		c0.164-2.219,0.172-4.472,0.753-6.619c0.581-2.148,1.841-4.236,3.845-5.204c2.532-1.222,5.635-0.42,8.263-1.417
		c1.975-0.749,3.446-2.426,4.632-4.173c4.38-6.447,5.904-14.371,9.15-21.457c1.999-4.362,4.704-8.566,5.193-13.339
		c0.061-0.592,0.077-1.226-0.224-1.739C110.214,55.944,108.048,56.548,106.996,57.711 M16.166,61.943
		c2.342-0.953,4.109-3.079,4.894-5.482c0.784-2.404,0.644-5.051-0.11-7.464c-0.393-1.258-0.962-2.486-1.855-3.456
		c-1.45-1.577-3.581-2.311-5.64-2.903c-1.587-0.457-3.516-0.788-4.706,0.357c-0.393,0.378-0.932,0.553-1.429,0.777
		c-2.227,1.007-3.791,3.222-4.282,5.616s0.019,4.928,1.135,7.103c1.101,2.146,2.819,4.01,4.981,5.077
		C11.317,62.636,13.932,62.852,16.166,61.943 M99.108,5.099c-0.051,0.206-0.097,0.43-0.012,0.624
		c0.084,0.194,0.358,0.316,0.516,0.176c0.081-1.068,1.449-1.799,2.382-1.273c0.933,0.526,1.016,2.074,0.145,2.697
		c-0.155-0.301-0.324-0.617-0.613-0.794c-0.289-0.177-0.734-0.145-0.893,0.153c-1.774,3.319-2.474,7.202-1.969,10.932
		c0.092,0.683,0.224,1.36,0.355,2.037c0.094,0.482,0.193,0.979,0.465,1.388s0.764,0.712,1.246,0.613
		c0.497-0.103,0.816-0.575,1.067-1.016c1.766-3.101,2.802-6.615,3.002-10.178c0.136-2.422-0.211-5.085-1.947-6.78
		c-0.587-0.573-1.423-1.021-2.207-0.782C99.747,3.171,99.333,4.188,99.108,5.099 M73.424,5.92c0.161-1.135,0.869-2.181,1.863-2.751
		c0.399-0.229,0.098-0.93-0.36-0.978c-0.457-0.048-0.856,0.3-1.15,0.654c-1.768,2.132-1.974,5.122-2,7.891
		c-0.027,2.881,0.125,5.977,1.866,8.272c0.195,0.257,0.421,0.51,0.723,0.626c0.902,0.346,1.717-0.668,2.089-1.56
		c1.657-3.969,1.645-8.603-0.03-12.564c-0.189-0.446-0.479-0.944-0.961-0.989C74.615,4.443,74.267,5.786,73.424,5.92z"/>
</g>
</svg>