<!-- Generator: Adobe Illustrator 20.1.0, SVG Export Plug-In  -->
<svg version="1.1"
	 xmlns="http://www.w3.org/2000/svg" xmlns:xlink="http://www.w3.org/1999/xlink" xmlns:a="http://ns.adobe.com/AdobeSVGViewerExtensions/3.0/"
	 x="0px" y="0px" width="22.313px" height="62.104px" viewBox="0 0 22.313 62.104"
	 style="enable-background:new 0 0 22.313 62.104;" xml:space="preserve">
<style type="text/css">
	.st0{fill:#010101;stroke:#000000;stroke-width:0.5;stroke-miterlimit:10;}
</style>
<defs>
</defs>
<path class="st0" d="M20.933,19.356c-0.238-0.584-0.52-1.151-0.802-1.718c-0.75-0.62-1.476-1.239-2.136-1.939
	c-0.185,0.034-0.39-0.059-0.561-0.16c-0.89-0.523-1.781-1.045-2.671-1.568c0.254-3.739,0.509-7.477,0.763-11.216
	c0.009-0.129,0.024-0.263,0.043-0.398c-0.009-0.07-0.041-0.125-0.041-0.202c0-0.565-0.014-1.132-0.068-1.695
	c-1.764-0.236-3.553-0.28-5.324-0.107C8.733,0.492,7.09,0.966,6.667,2.311C6.366,3.27,6.824,4.279,7.016,5.266
	c0.09,0.46,0.067,0.986-0.077,1.438c0.114,1.121-0.015,2.229-0.177,3.369c0.275,1.79-0.215,3.643-1.804,4.379
	c-2.439,1.131-3.916,3.741-4.427,6.38c-0.511,2.639-0.211,5.358-0.006,8.039c0.739,9.623,0.249,19.302,0.776,28.939
	c0.073,1.335,0.275,2.865,1.394,3.596c0.742,0.485,1.693,0.471,2.578,0.431c4.282-0.198,8.551-0.654,12.778-1.365
	c0.574-0.097,1.21-0.236,1.54-0.715c0.223-0.323,0.258-0.735,0.285-1.127c0.66-9.325,1.32-18.65,1.979-27.976
	C22.127,26.849,22.373,22.888,20.933,19.356z M8.078,2.176c0.394-0.506,1.097-0.631,1.735-0.697c1.221-0.127,2.45-0.175,3.676-0.146
	c0.165,0.004,0.338,0.011,0.483,0.091c0.573,0.315,0.151,1.169,0.108,1.822c-0.07,1.046,1.029,2.177,0.383,3.003
	c-0.286,0.366-0.797,0.452-1.258,0.51c-1.488,0.189-2.976,0.378-4.463,0.567C8.61,7.344,8.476,7.36,8.349,7.326
	C7.717,7.157,7.958,6.231,8.04,5.582C8.185,4.426,7.362,3.096,8.078,2.176z M20.125,34.619c-1.084,7.707-1.47,15.512-1.154,23.288
	c0.054,1.32-1.652,1.865-2.968,1.993L5.35,60.936c-1.091,0.106-2.604-0.128-2.648-1.223c-0.369-9.106-0.737-18.212-1.106-27.318
	c-0.129-3.187-0.256-6.406,0.323-9.543c0.579-3.137,1.933-6.23,4.332-8.332c0.011,0.027,0.028,0.05,0.04,0.077
	c0.367-0.468,0.832-0.851,1.381-1.119c0.043-0.629,0.085-1.257,0.128-1.886c0.047-0.695,0.1-1.41,0.411-2.033
	c0.96-1.924,3.647-1.962,5.784-1.721c-0.362,2.321-0.352,4.692-0.012,7.016c0.31,0.149,0.614,0.312,0.911,0.488
	c0.02,0.012,0.034,0.027,0.053,0.039c0.061-0.078,0.121-0.155,0.181-0.233c3.276,1.515,5.161,5.127,5.657,8.702
	C21.281,27.425,20.627,31.045,20.125,34.619z"/>
<path class="st0" d="M10.953,21.743c2.237,0.193,4.086,1.984,4.979,4.044c0.893,2.06,1.001,4.365,1.042,6.61
	c0.113,6.25-0.195,12.507-0.924,18.716c-0.04,0.343-0.091,0.708-0.318,0.968c-0.216,0.249-0.551,0.353-0.869,0.44
	c-2.431,0.67-4.944,1.041-7.465,1.103c-0.64,0.016-1.335-0.007-1.835-0.406c-0.64-0.511-0.727-1.434-0.763-2.252
	c-0.248-5.612-0.495-11.224-0.743-16.835c-0.119-2.691-0.222-5.477,0.78-7.977C5.839,23.652,8.269,21.511,10.953,21.743
	 M11.215,22.694c-2.331-0.388-4.577,1.421-5.497,3.598c-0.92,2.176-0.829,4.628-0.723,6.989c0.281,6.227,0.562,12.453,0.843,18.68
	c0.019,0.412,0.553,0.553,0.966,0.567c2.521,0.087,5.055-0.237,7.473-0.956c0.267-0.08,0.556-0.181,0.702-0.419
	c0.083-0.136,0.107-0.298,0.13-0.456c0.919-6.526,1.193-13.144,0.817-19.724c-0.098-1.719-0.251-3.474-0.953-5.046
	C14.27,24.355,12.913,22.977,11.215,22.694z"/>
</svg>