<!-- Generator: Adobe Illustrator 20.1.0, SVG Export Plug-In  -->
<svg version="1.1"
	 xmlns="http://www.w3.org/2000/svg" xmlns:xlink="http://www.w3.org/1999/xlink" xmlns:a="http://ns.adobe.com/AdobeSVGViewerExtensions/3.0/"
	 x="0px" y="0px" width="53.296px" height="72.725px" viewBox="0 0 53.296 72.725"
	 style="enable-background:new 0 0 53.296 72.725;" xml:space="preserve">
<style type="text/css">
	.st0{fill:#010101;stroke:#000000;stroke-width:0.5;stroke-miterlimit:10;}
</style>
<defs>
</defs>
<g id="Clammy_1_">
	<path class="st0" d="M2.424,72.382c-0.497,0.172-1.075,0.104-1.506-0.196c-0.432-0.3-0.699-0.829-0.664-1.354
		c0.012-0.179,0.024-0.359,0.036-0.538c0.019-0.293,0.04-0.592,0.147-0.866c0.213-0.548,0.743-0.928,0.949-1.479
		c0.097-0.26,0.116-0.543,0.189-0.812c0.073-0.268,0.22-0.541,0.475-0.651s0.619,0.035,0.643,0.312
		c0.086,1.006,0.415,1.991,0.952,2.846c0.11,0.176,0.231,0.351,0.285,0.552c0.107,0.402-0.075,0.825-0.305,1.171
		C3.327,71.811,2.927,72.207,2.424,72.382 M1.953,69.899c-0.474,0.105-0.706,0.774-0.399,1.151c0.171,0.21,0.45,0.307,0.721,0.32
		c0.388-0.45,0.311-1.222-0.159-1.586c-0.154-0.119-0.42-0.172-0.51,0C1.73,69.761,1.866,69.806,1.953,69.899z"/>
	<path class="st0" d="M39.098,66.306c-0.105-0.175-0.174-0.37-0.225-0.568c-0.254-0.996-0.024-2.044,0.207-3.045
		c0.08-0.346,0.172-0.713,0.431-0.954c0.26-0.242,0.745-0.27,0.927,0.035c0.1,0.168,0.08,0.379,0.095,0.574
		c0.085,1.106,1.333,1.829,1.488,2.928c0.101,0.716-0.358,1.471-1.04,1.711C40.299,67.227,39.468,66.926,39.098,66.306
		 M39.824,64.838c-0.028,0.096-0.005,0.198,0.02,0.295c0.065,0.244,0.155,0.496,0.35,0.656c0.195,0.16,0.522,0.183,0.679-0.014
		c0.175-0.22,0.047-0.546-0.116-0.775c-0.115-0.161-0.256-0.319-0.445-0.377S39.88,64.648,39.824,64.838z"/>
	<path class="st0" d="M29.685,3.199c-0.129-0.044-0.257-0.088-0.386-0.132c0.112-0.153,0.397-0.106,0.455,0.074L29.685,3.199z"/>
	<path class="st0" d="M25.296,44.767c0.048,1.105,1.176,1.923,1.273,3.025c0.024,0.276-0.02,0.558-0.127,0.813
		c-0.087,0.207-0.217,0.398-0.388,0.545c-0.291,0.251-0.675,0.361-1.049,0.449c-0.405,0.095-0.834,0.173-1.234,0.057
		c-0.535-0.156-0.938-0.682-0.951-1.238c-0.004-0.188,0.032-0.375,0.068-0.559c0.079-0.406,0.158-0.812,0.236-1.218
		c0.212-1.094,0.448-2.238,1.158-3.097c0.099-0.119,0.215-0.238,0.365-0.274c0.309-0.075,0.591,0.235,0.652,0.547
		C25.36,44.128,25.282,44.449,25.296,44.767 M24.634,48.648c0.304,0.003,0.556-0.274,0.616-0.572
		c0.06-0.298-0.032-0.606-0.155-0.884c-0.069-0.156-0.163-0.322-0.325-0.376c-0.288-0.095-0.543,0.219-0.648,0.504
		c-0.097,0.262-0.154,0.551-0.079,0.819C24.118,48.408,24.355,48.646,24.634,48.648z"/>
	<path class="st0" d="M14.562,35.482c-0.111,0.573,0.011,1.187,0.332,1.675c0.39,0.592,1.071,1.033,1.189,1.733
		c0.089,0.526-0.175,1.04-0.43,1.509c-0.182,0.334-0.38,0.686-0.713,0.872c-0.141,0.079-0.298,0.123-0.454,0.167
		c-0.429,0.12-0.896,0.238-1.308,0.07c-0.423-0.172-0.685-0.62-0.757-1.071c-0.072-0.452,0.016-0.912,0.112-1.359
		c0.249-1.151,0.563-2.292,1.026-3.375c0.106-0.247,0.242-0.513,0.494-0.608C14.305,35,14.658,35.231,14.562,35.482 M14.501,38.663
		c-0.247-0.053-0.599,0.025-0.682-0.215c-0.082,0.484-0.138,0.972-0.168,1.461c-0.009,0.156-0.011,0.328,0.09,0.447
		c0.204,0.242,0.603,0.059,0.821-0.172c0.213-0.225,0.393-0.503,0.412-0.812C14.992,39.065,14.803,38.729,14.501,38.663z"/>
	<path class="st0" d="M29.088,35.93c0.019,0.189-0.011,0.399,0.102,0.553c-0.141,0.256-0.235,0.539-0.274,0.828
		c-0.486,0.381-1.036,0.717-1.648,0.799c-0.613,0.082-1.298-0.143-1.618-0.671c-0.139-0.229,0.094-0.647-0.158-0.738
		c0.13-1.169,0.475-2.313,1.012-3.36c0.215-0.418,0.624-0.885,1.063-0.717c0.258,0.098,0.391,0.387,0.434,0.659
		c0.043,0.272,0.021,0.555,0.092,0.821C28.274,34.781,29.019,35.232,29.088,35.93 M27.064,35.579
		c-0.213,0.189-0.444,0.482-0.294,0.723c0.045,0.073,0.008,0.166,0,0.251c-0.03,0.313,0.387,0.52,0.675,0.395
		c0.288-0.126,0.437-0.45,0.492-0.759c0.048-0.269-0.492-0.363-0.441-0.632C27.352,35.564,27.208,35.572,27.064,35.579z"/>
	<path class="st0" d="M42.879,44.435c-0.002,2.066-0.758,4.123-2.095,5.697c-1.393,1.64-3.331,2.712-4.919,4.164
		c-3.89,3.556-5.361,9.525-3.568,14.481c0.438,1.21-1.197,2.072-2.466,2.284c-5.386,0.9-10.921,0.897-16.306-0.009
		c-0.865-0.146-1.962-0.62-1.836-1.488c0.365-2.517,0.731-5.035,1.096-7.552c0.403-2.775,0.756-5.812-0.705-8.205
		c-5.044-8.259-6.651-18.284-5.976-27.938c0.112-1.596,0.283-3.196,0.171-4.791C6.116,18.83,5.4,16.605,5.645,14.365
		c0.092-0.841,0.362-1.73,1.042-2.233c0.952-0.703,2.383-0.349,3.223,0.484c0.84,0.834,1.222,2.015,1.526,3.159
		c1.033,3.894,1.49,7.941,1.352,11.967c-0.03,0.886,0.449,2.178,1.254,1.807c-0.24-7.738-0.581-15.472-1.023-23.201
		c-0.062-1.081,1.083-1.967,2.163-1.886s1.992,0.904,2.482,1.87c0.49,0.966,0.633,2.065,0.763,3.141
		c0.639,5.292,1.138,10.625,0.853,15.948c-0.039,0.729,0.038,1.664,0.733,1.889c1.054-4.056,0.927-8.313,0.793-12.501
		c-0.134-4.192-0.269-8.383-0.403-12.575c-0.039-1.213,1.315-2.147,2.514-1.961c1.199,0.187,2.131,1.21,2.561,2.345
		s0.448,2.377,0.46,3.591c0.071,6.794,0.142,13.589,0.213,20.383c1.095-0.34,1.294-1.78,1.29-2.927
		c-0.016-5.442-0.032-10.885-0.049-16.327c-0.003-0.893-0.001-1.812,0.331-2.642c0.332-0.829,1.077-1.558,1.969-1.594
		c1.579-0.063,2.413,1.816,2.776,3.354c1.156,4.9,1.965,9.984,1.206,14.961c-0.666,4.369,0.036,8.937,1.985,12.905
		c2.026-5.951,7.078-10.783,13.114-12.541c0.881-0.257,1.835-0.449,2.703-0.152c1.772,0.607,2.147,3.45,0.593,4.496
		c-3.153,2.122-4.898,5.74-6.491,9.191C44.24,38.219,42.881,41.239,42.879,44.435 M51.567,24.908
		c0.699-0.594,0.166-1.861-0.705-2.152c-0.87-0.291-1.811,0.061-2.656,0.42c-2.534,1.077-5.075,2.299-7.031,4.238
		c-1.795,1.779-3.019,4.125-3.453,6.614c-0.125,0.718-0.195,1.473-0.577,2.093c-0.382,0.62-1.206,1.048-1.854,0.714
		c-0.404-0.209-0.629-0.645-0.815-1.061c-4.023-9.005-1.189-19.592-3.295-29.228c-0.145-0.662-0.353-1.38-0.916-1.757
		c-0.563-0.378-1.549-0.093-1.554,0.585c-0.051,6.241-0.101,12.482-0.152,18.723c-0.01,1.245-0.078,2.632-0.97,3.501
		c-0.892,0.869-2.848,0.475-2.813-0.77c0.209-7.423,0.078-14.856-0.391-22.268c-0.058-0.911-0.169-1.924-0.86-2.52
		c-0.691-0.596-2.103-0.225-2.028,0.685c0.608,7.362,0.752,14.762,0.431,22.142c-0.054,1.247-0.185,2.632-1.115,3.464
		c-0.93,0.832-2.864,0.376-2.804-0.871c0.305-6.423-0.062-12.878-1.093-19.225c-0.123-0.754-0.299-1.582-0.912-2.039
		c-0.613-0.457-1.757-0.13-1.72,0.634c0.361,7.571,0.722,15.143,1.083,22.714c0.044,0.925-1.034,1.62-1.938,1.42
		s-1.551-1.041-1.811-1.929c-0.26-0.888-0.21-1.833-0.196-2.759c0.056-3.784-0.547-7.577-1.773-11.157
		c-0.23-0.67-0.531-1.392-1.163-1.713c-0.632-0.321-1.621,0.116-1.52,0.817c0.833,5.805,0.436,11.707,0.599,17.569
		c0.163,5.862,0.948,11.895,3.89,16.968c0.584,1.008,1.251,1.971,1.74,3.029c2.407,5.207,0.087,11.247-0.147,16.98
		c-0.013,0.311-0.004,0.66,0.217,0.878c0.167,0.164,0.413,0.21,0.645,0.247c4.793,0.76,9.699,0.808,14.506,0.142
		c1.016-0.141,2.309-0.656,2.199-1.676c-0.476-4.4-0.602-9.308,2.224-12.713c1.276-1.538,3.027-2.59,4.564-3.867
		c1.537-1.277,2.943-2.954,3.081-4.948C41.065,38.444,45.156,30.352,51.567,24.908 M35.994,34.545c-0.03-0.1-0.166-0.15-0.254-0.093
		c0.003,0.26,0.041,0.52,0.113,0.77c0.195-0.148,0.251-0.451,0.122-0.659L35.994,34.545z"/>
</g>
</svg>