<!-- Generator: Adobe Illustrator 20.1.0, SVG Export Plug-In  -->
<svg version="1.1"
	 xmlns="http://www.w3.org/2000/svg" xmlns:xlink="http://www.w3.org/1999/xlink" xmlns:a="http://ns.adobe.com/AdobeSVGViewerExtensions/3.0/"
	 x="0px" y="0px" width="11.846px" height="14.798px" viewBox="0 0 11.846 14.798"
	 style="enable-background:new 0 0 11.846 14.798;" xml:space="preserve">
<style type="text/css">
	.st0{fill:#010101;stroke:#000000;stroke-miterlimit:10;}
</style>
<defs>
</defs>
<path class="st0" d="M11.212,9.412c0.244,0.313,0.131,0.794-0.14,1.084c-0.271,0.29-0.657,0.438-1.025,0.585
	c-1.831,0.731-3.576,1.676-5.189,2.81c-0.431,0.303-1.06,0.61-1.426,0.231c-0.231-0.238-0.194-0.644-0.008-0.919
	c0.186-0.275,0.484-0.449,0.771-0.614c1.325-0.76,2.651-1.521,3.976-2.281c0.47-0.269,0.939-0.539,1.409-0.808
	C10.098,9.202,10.844,8.942,11.212,9.412z"/>
<path class="st0" d="M3.25,0.734c0.182,0.26,0.104,0.615,0.018,0.921C2.957,2.769,2.646,3.883,2.334,4.998
	c-0.273,0.975-0.582,2.01-1.353,2.668C0.405,7.454,0.446,6.635,0.595,6.039c0.352-1.402,0.704-2.805,1.055-4.207
	c0.1-0.399,0.213-0.82,0.513-1.102C2.463,0.449,3.014,0.397,3.25,0.734z"/>
<path class="st0" d="M7.733,4.237C7.678,4.384,7.566,4.502,7.457,4.616c-1.093,1.14-2.185,2.28-3.278,3.42
	C3.906,8.321,3.547,8.632,3.166,8.524c-0.391-0.11-0.534-0.63-0.392-1.011C2.916,7.132,3.248,6.86,3.558,6.597
	c0.65-0.552,1.269-1.15,1.751-1.854c0.347-0.508,0.66-1.102,1.228-1.337C7.105,3.171,7.947,3.66,7.733,4.237z"/>
</svg>