<!-- Generator: Adobe Illustrator 20.1.0, SVG Export Plug-In  -->
<svg version="1.1"
	 xmlns="http://www.w3.org/2000/svg" xmlns:xlink="http://www.w3.org/1999/xlink" xmlns:a="http://ns.adobe.com/AdobeSVGViewerExtensions/3.0/"
	 x="0px" y="0px" width="67.629px" height="126.468px" viewBox="0 0 67.629 126.468"
	 style="enable-background:new 0 0 67.629 126.468;" xml:space="preserve">
<style type="text/css">
	.st0{fill:#010101;stroke:#000000;stroke-miterlimit:10;}
</style>
<defs>
</defs>
<g id="Beer_Hops_1_">
	<path class="st0" d="M51.815,94.522c0.531,1.7,1.062,3.401,1.593,5.101c0.186,0.594,0.587,1.325,1.196,1.198
		c0.088-0.191,0.175-0.381,0.263-0.572c0.792,1.362,1.884,2.549,3.176,3.452c-0.899-3.282-1.363-6.664-1.826-10.035
		c-0.142-1.032-0.284-2.068-0.297-3.109c-0.014-1.131,0.124-2.258,0.284-3.377c0.357-2.495,0.826-4.973,1.294-7.45
		c0.176-0.931,0.414-1.959,1.197-2.492c0.18,0.637-0.051,1.308-0.243,1.942c-1.081,3.572-0.942,7.384-0.794,11.114
		c0.086,2.172,0.173,4.344,0.259,6.517c0.102,2.575,0.243,5.28,1.601,7.47c0.522,0.842,1.245,1.718,1.061,2.692
		c-1.61-1.413-3.136-2.923-4.565-4.519c0.319,0.788,0.863,1.484,1.551,1.984c-0.129,0.233-0.486,0.068-0.673-0.122
		c-0.643-0.654-1.186-1.405-1.605-2.22c-0.167-0.325-0.534-0.719-0.813-0.483c0.516,0.822,1.069,1.621,1.657,2.393
		c-0.235,0.137-0.521-0.051-0.721-0.235c-1.303-1.203-2.337-2.697-3.005-4.34c-0.114-0.28-0.218-0.593-0.121-0.879
		C52.729,97.239,51.261,95.791,51.815,94.522 M57.062,87.571c0.012-0.425,0.019-0.882-0.221-1.232
		c-0.727,3.623-0.152,7.366,0.425,11.017c0.025,0.157,0.176,0.362,0.288,0.249c-0.137-1.329-0.273-2.658-0.366-3.991
		C57.047,91.603,57.005,89.586,57.062,87.571z"/>
	<path class="st0" d="M40.523,112.674c0.26-0.069,0.415-0.328,0.542-0.565c1.994-3.73,3.617-7.657,4.839-11.706
		c0.131-0.435,0.258-0.872,0.412-1.299c0.326,0.05,0.331,0.517,0.244,0.835c-1.663,6.123-4.405,11.951-8.061,17.137
		c-0.164-0.017-0.182-0.248-0.149-0.41c0.281-1.36,0.859-2.637,1.433-3.901c0.999-2.201,1.999-4.403,2.998-6.604
		c0.312,0.042,0.279,0.506,0.156,0.796C42.133,108.863,41.328,110.768,40.523,112.674z"/>
	<path class="st0" d="M13.129,102.414c-1.958,1.748-2.364,4.675-4.004,6.725c-0.157-0.087-0.111-0.322-0.042-0.489
		c0.973-2.367,1.946-4.734,2.918-7.102c0.07-0.171,0.225-0.379,0.392-0.298c0.275,0.132,0.546-0.185,0.682-0.458
		c0.918-1.85,1.453-3.89,1.561-5.952c0.496,0.351,0.71,1.001,0.689,1.609c-0.02,0.608-0.239,1.189-0.455,1.758
		c-0.441,1.16-0.882,2.32-1.323,3.48C13.448,101.951,13.34,102.226,13.129,102.414z"/>
	<path class="st0" d="M51.565,88.093c0.054,0.079,0.053,0.182,0.05,0.278c-0.053,1.607-0.105,3.214-0.158,4.821
		c-0.006,0.177-0.094,0.421-0.265,0.374c-0.126-0.034-0.148-0.2-0.146-0.33c0.027-1.407,0.054-2.814,0.081-4.221
		C51.135,88.648,51.211,88.188,51.565,88.093z"/>
	<path class="st0" d="M31.307,124.907c2.055-3.548,3.899-7.219,5.518-10.987c-0.295,4.464-2.377,8.785-5.683,11.799
		c-1.951-2.731-3.561-5.706-4.78-8.832c-0.308,1.333-0.256,2.747,0.151,4.053c-0.257,0.68-1.262,0.03-1.591-0.618
		c-1.52-2.992-3.041-5.984-4.561-8.976c-2.176-4.282-4.41-8.823-4.131-13.618c1.242,6.559,3.992,12.828,7.978,18.183
		c-0.751-0.492-1.376-1.175-1.802-1.966c0.945,2.022,2.042,3.973,3.278,5.831c-0.407-3.733-0.039-7.548,1.074-11.134
		c0.533-1.72-0.274-3.539-1.062-5.158c-1.591-3.269-3.182-6.538-4.774-9.807c-0.135,1.898-0.271,3.795-0.406,5.693
		c-0.63-6.371,1.102-12.948,4.789-18.182c-1.345-2.589-2.689-5.177-4.034-7.766c-1.515,2.104-2.395,4.66-2.498,7.251
		c-3.433-2.928-5.645-7.245-6.017-11.741c1.068,2.563,2.137,5.127,3.205,7.69c-0.291-1.095-0.582-2.191-0.873-3.286
		c0.76,1.486,1.52,2.973,2.28,4.459c2.064-3.186,3.709-6.643,4.88-10.254c1.168-3.603,1.635-8.121-1.175-10.661
		c0.174-0.365,0.597,0.405,0.208,0.513s-0.711-0.304-0.897-0.663c-2.519-4.86-3.303-10.598-2.178-15.955
		c-0.707,3.378-2.05,6.622-3.938,9.511c0.196-0.537,0.855-0.854,1.396-0.671c-2.404,2.498-4.926,5.224-5.463,8.65
		c-0.256,1.634-0.033,3.302,0.251,4.931c0.764,4.391,1.964,8.705,3.577,12.86c-1.158-1.446-1.951-3.183-2.283-5.005
		c-2.397,2.462-3.563,6.068-3.061,9.467c0.348,2.354,1.432,4.532,2.619,6.594c2.393,4.154,5.27,8.028,8.556,11.519
		c-4.766-3.186-8.404-8.026-10.141-13.49c0.163,0.911,0.327,1.822,0.49,2.734c-1.429-2.859-2.484-5.905-3.129-9.035
		C4.5,81.605,5.765,85.992,6.537,89.694c0.617,2.958,0.807,5.986,0.995,9.002c0.22,3.519,0.44,7.038,0.66,10.557
		c-1.286-3.798-1.99-7.792-2.08-11.8c0.099,1.561-0.325,3.15-1.189,4.453c1-5.542,1.053-11.254,0.156-16.813
		c-1.239,1.146-2.477,2.293-3.716,3.44C2.541,78.908,3.83,69.298,5.23,59.703c-1.098,0.765-2.197,1.529-3.295,2.294
		c0.381-0.56,0.762-1.12,1.143-1.68c2.217-2.927,3.435-6.597,3.409-10.268c-0.048,0.778-0.533,1.515-1.229,1.866
		c1.816-4.942,4.032-9.738,6.619-14.324c-1.63,0.37-3.403,0.067-4.818-0.823c6.553-2.024,8.916-10.713,15.222-13.41
		c-1.082,0.832-2.164,1.665-3.246,2.497c3.439-1.488,7.346-3.553,7.919-7.256c0.629-4.069,0.559-8.245-0.205-12.291
		c2.063-0.073,4.057-1.235,5.138-2.993C31.85,4.453,31.815,5.592,31.78,6.73c0.236-0.887,0.473-1.774,0.709-2.66
		c-0.062,3.748-0.124,7.496-0.186,11.244c-0.023,1.402-0.04,2.841,0.443,4.157c0.484,1.316,1.587,2.501,2.981,2.658
		c4.184,0.471,8.235,2.072,11.611,4.587c-0.875-0.064-1.733-0.344-2.478-0.808c2.498,2.799,5.897,4.781,9.563,5.576
		c-1.021-0.129-2.043-0.258-3.064-0.387c2.726,2.009,6.546,0.863,9.705-0.357c-2.091,2.078-4.415,3.922-6.914,5.485
		c0.836,3.06,1.672,6.12,2.508,9.18c1.279,4.682,4.342,8.854,8.427,11.477c-1.944-0.404-3.888-0.808-5.832-1.212
		c0.142,5.129,0.285,10.258,0.427,15.387c0.101,3.632,0.436,7.756,3.287,10.007c-0.466,0.478-1.32,0.25-1.769-0.244
		c-0.449-0.494-0.638-1.163-0.943-1.757c-0.744-1.447-2.274-2.458-3.897-2.575c-0.588,3.417-1.996,6.69-4.072,9.467
		c-1.804,2.413-2.185,5.657-1.694,8.629c0.492,2.972,1.767,5.749,3.03,8.484c-1.549-1.89-2.622-4.167-3.091-6.565
		c-0.008,1.152-0.016,2.304-0.024,3.456c-0.559-1.969-1.117-3.938-1.676-5.906c-0.51,5.159-2.098,10.21-4.634,14.732
		c2.22-5.203,3.577-10.773,3.999-16.414c-1.073,0.361-1.767,1.375-2.376,2.328c-0.609,0.954-1.288,1.973-2.351,2.36
		c-1.064,0.387-2.551-0.303-2.478-1.432c-2.912,2.71-3.461,7.1-3.297,11.074c0.165,3.974,0.848,8.05-0.282,11.863
		c0.299-4.735,0.074-9.503-0.67-14.189c-1.587,1.256-3.174,2.511-4.761,3.767c1.42-1.428,2.608-3.085,3.504-4.888
		c-2.098,1.922-3.973,4.088-5.573,6.44c-0.561-0.9-1.348-1.659-2.269-2.185c-0.696,1.644-1.197,3.371-1.489,5.133
		c-0.337,0.154-0.183-0.633,0.157-0.488c0.34,0.146,0.345,0.617,0.315,0.986C26.286,117.436,28.852,121.364,31.307,124.907
		 M22.89,37.999c2.872-2.004,4.999-5.053,5.888-8.44c0.102,0.318,0.204,0.635,0.306,0.953c0.085-0.927,0.373-1.835,0.837-2.642
		c0.042,1.296-0.134,2.599-0.52,3.837c1.537,1.136,2.936,2.458,4.157,3.928c1.792,2.157,3.241,5.098,2.183,7.695
		c0.625-1.429,1.249-2.857,1.874-4.286c0.035,2.094-0.812,4.188-2.292,5.669c-0.105-1.68-0.038-3.372,0.198-5.039
		c-0.29,0.28-0.581,0.56-0.871,0.841c0.269-1.74-0.355-3.594-1.621-4.817c0.634,1.007,1.016,2.172,1.101,3.359
		c-0.764-2.077-1.907-4.014-3.355-5.687c0.782,1.278,1.442,2.631,1.967,4.035c-1.249-1.75-2.498-3.5-3.748-5.251
		c-1.227,2.049-2.458,4.096-3.693,6.141c-0.183-0.319-0.284-0.684-0.292-1.052c-1.617,2.469-2.065,5.668-1.189,8.486
		c0.161,0.518-0.564,0.948-1.069,0.748c-0.505-0.2-0.781-0.731-1.015-1.221c-1.076-2.258-2.151-4.515-3.227-6.773
		c0.114,0.484,0.094,0.998-0.058,1.471c0.269,0.095,0.538,0.19,0.807,0.285c-0.874,1.479-0.828,3.304-0.755,5.02
		c0.088,2.1,0.179,4.218,0.705,6.253c1.129,4.368,4.157,7.985,7.386,11.137c-0.89-0.298-1.694-0.846-2.298-1.565
		c-0.199,3.313-0.947,6.593-2.202,9.666c-0.381,0.933-0.044,1.989,0.313,2.931c1.56,4.123,3.92,8.507,8.118,9.851
		c1.31,0.419,2.777,0.013,3.907-0.771c1.13-0.784,1.976-1.907,2.749-3.045c-0.989,0.796-1.978,1.593-2.967,2.389
		c3.097-3.338,5.851-6.993,8.207-10.89c0.663-1.096,0.312-2.501-0.092-3.717c-1.304-3.929-2.972-7.736-4.977-11.358
		c-1.069,2.307-2.28,4.548-3.625,6.706c-0.27,0.433-0.684,0.924-1.179,0.803c2.111-3.18,3.909-6.567,5.359-10.097
		c-2.496,3.533-4.74,7.244-6.707,11.096c-3.668-2.173-6.869-5.132-9.322-8.619c-0.192-0.273-0.315-0.757,0.005-0.849
		c2.345,3.449,5.382,6.426,8.878,8.701c2.756-4.279,5.329-8.676,7.71-13.175c1.161-2.195,2.306-4.543,2.19-7.023
		c-0.073-1.561-0.644-3.05-1.208-4.508c-0.32,1.299-0.887,2.843-2.206,3.069c2.343-4.521,4.755-9.61,3.361-14.508
		c-0.415-1.459-1.268-2.917-2.675-3.483c-1.284-0.516-2.586-1.037-3.959-1.202c-1.374-0.165-2.85,0.064-3.937,0.921
		c0.237-0.502,0.603-0.942,1.054-1.266c-1.043,0.568-2.341,0.644-3.444,0.203c1.918-0.5,3.897-0.763,5.879-0.78
		c-2.94-0.858-6.078,0.282-8.805,1.677c-2.501,1.279-4.962,2.86-6.497,5.214c-0.644,0.988-1.105,2.083-1.716,3.092
		c-1.088,1.797-2.656,3.301-4.497,4.314c2.472-0.348,4.702-2.081,5.649-4.391c0.473-1.153,1.437-2.094,2.6-2.54
		c-1.743,2.453-2.352,5.68-1.623,8.6c-0.02-2.088-0.017-4.276,0.957-6.123c-0.582,2.5-0.302,5.192,0.781,7.519
		c-0.384-0.118-0.714-0.4-0.891-0.761c0.828,2.18,1.775,4.316,2.834,6.394c-0.375-0.787-0.588-2.007,0.238-2.287
		c-0.182-1.338-0.188-2.7-0.017-4.04C22.577,38.501,22.643,38.171,22.89,37.999 M51.923,58.329c0.123-0.705,0.071-1.439-0.148-2.12
		c0.197-0.09,0.394-0.181,0.591-0.271c0.208-0.827-0.195-1.707-0.794-2.313c-0.599-0.607-1.372-1.003-2.108-1.433
		c-3.345-1.955-6.152-4.821-8.037-8.206c0.036,1.335-0.422,2.628-0.881,3.882c-0.96,2.627-1.949,5.244-2.965,7.85
		c2.959,2.512,4.072,6.522,5.035,10.283c0.337,1.315,0.673,2.63,1.01,3.945c0.43,1.679,0.851,3.501,0.179,5.099
		c-0.032-1.091-0.398-2.169-1.035-3.054c-1.153,1.779-2.306,3.557-3.459,5.336c-0.504,0.777-1.001,1.834-0.419,2.555
		c1.014,1.254,2.012,2.546,2.665,4.021c0.653,1.474,0.939,3.167,0.481,4.714c-0.252-2.333-0.582-4.841-2.18-6.56
		c0.303,2.279,0.777,4.536,1.418,6.744c-0.086-1.088-0.171-2.175-0.257-3.263c1.093,3.364,1.348,6.996,0.734,10.48
		c-0.072,0.409,0.486,0.688,0.872,0.535c0.386-0.153,0.613-0.543,0.829-0.897c1.586-2.601,4.007-4.57,5.95-6.915
		c2.815-3.396,4.601-7.571,5.527-11.884c0.22-1.024,0.333-2.251-0.433-2.964c-2.062-1.919-3.677-4.315-4.682-6.947
		c0.506,0.314,0.929,0.762,1.212,1.286c0.071-0.774-0.257-1.574-0.85-2.076c-1.408,3.012-3.246,5.823-5.441,8.32
		c-0.063-0.344,0.029-0.714,0.247-0.989c-0.151-0.191-0.302-0.383-0.452-0.574c0.821-0.09,1.237-1.012,1.492-1.798
		c0.718-2.206,1.436-4.413,2.154-6.619c0.304-0.023,0.337,0.438,0.246,0.729c-0.56,1.811-1.121,3.622-1.681,5.433
		c1.729-2.099,1.688-5.277,3.496-7.309c-0.426,1.27-0.852,2.539-1.278,3.809c1.498-2.595,2.325-5.573,2.378-8.568
		C51.536,58.5,51.729,58.414,51.923,58.329 M30.039,84.825c-1.455-0.555-2.793-1.417-3.901-2.512c-2.224,2.215-3.272,5.317-4.25,8.3
		c-0.169,0.517-0.34,1.042-0.361,1.585c-0.038,0.992,0.423,1.928,0.872,2.814c0.19,0.375,0.538,0.816,0.93,0.666
		c0.318,0.92,0.852,1.749,1.398,2.556c1.369,2.026,2.843,3.981,4.415,5.854c-0.273-0.097-0.547-0.194-0.82-0.292
		c0.448,1.331,1.199,2.559,2.179,3.565c-0.21,0.194-0.559,0.039-0.749-0.176c-0.189-0.215-0.332-0.495-0.597-0.604
		c-0.265-0.108-0.657,0.164-0.505,0.407c0.318,0.507,0.636,1.015,0.954,1.522c0.05,0.08,0.114,0.168,0.208,0.177
		c0.096,0.008,0.174-0.071,0.237-0.144c1.353-1.566,2.705-3.133,4.058-4.699c0.766-0.887,1.532-1.775,2.244-2.705
		c0.758-0.991,1.454-2.028,2.148-3.064c0.841-1.255,1.693-2.533,2.134-3.978c0.795-2.61,0.158-5.416-0.482-8.068
		c-0.319-1.323-0.638-2.646-0.957-3.97c-0.222-0.922-0.466-1.885-1.099-2.592c-1.376,2.039-3.011,3.904-4.852,5.535
		c-0.224,0.198-0.499,0.406-0.79,0.342c-0.294-0.064-0.455-0.369-0.661-0.588c-0.206-0.219-0.629-0.33-0.764-0.061
		C30.865,85.021,30.382,84.956,30.039,84.825 M39.752,38.574c0.674,0.407,1.02,1.193,1.202,1.958
		c0.182,0.765,0.244,1.565,0.545,2.293c0.443,1.073,1.351,1.868,2.145,2.715c1.252,1.336,2.271,2.874,3.491,4.24
		c1.22,1.365,2.709,2.588,4.489,3.018c-1.334-0.755-2.729-1.568-3.504-2.89c1.139,0.87,2.338,1.662,3.585,2.369
		c0.906,0.513,1.898,0.994,2.936,0.918c0.23-0.017,0.484-0.055,0.672,0.079c0.875,0.626,2.002,0.746,3.073,0.845
		c1.003,0.093,2.006,0.187,3.01,0.28c-0.795-1.069-2.055-1.78-3.381-1.908c-0.253-0.024-0.341-0.39-0.2-0.602
		c0.141-0.212,0.403-0.3,0.646-0.375c-0.953-0.616-1.524-1.69-1.82-2.786c-0.295-1.096-0.354-2.239-0.515-3.362
		c-0.252-1.756-0.762-3.475-1.507-5.085c-0.52-1.123-2.157-1.701-2.102-2.938c0.645,0.505,1.203,1.121,1.643,1.813
		c-0.117-0.682-0.298-1.353-0.54-2.001c-0.196-0.525-0.843-0.714-1.403-0.728c-0.56-0.014-1.155,0.069-1.652-0.188
		c-0.234-0.121-0.427-0.31-0.653-0.445c-0.403-0.24-0.884-0.297-1.34-0.408c-1.271-0.308-2.387-1.049-3.473-1.777
		c-0.868-0.582-1.782-1.218-2.183-2.183c-0.327-0.786-0.751-1.532-1.26-2.215C42.004,32.429,41.329,35.749,39.752,38.574
		 M50.913,64.695c0.176-0.092,0.303,0.188,0.312,0.387c0.148,3.112,1.934,5.876,3.661,8.47c0.251,0.377,0.724,0.8,1.084,0.525
		c-0.727-0.941-1.454-1.882-2.181-2.823c-0.202-0.261-0.383-0.686-0.109-0.87c2.045,2.253,3.145,5.553,5.919,6.804
		c-0.719-6.88-0.964-13.81-0.732-20.723c0.031-0.935-1.034-1.467-1.922-1.761c-1.408-0.466-2.817-0.933-4.225-1.399
		c0.591,1.172,0.776,2.544,0.517,3.831c-0.114,0.565-0.309,1.109-0.504,1.652c-0.701,1.95-1.401,3.901-2.102,5.851
		c-0.17,0.475-0.208,1.201,0.289,1.285C50.917,65.513,50.915,65.104,50.913,64.695 M12.958,51.572
		c-0.466,0.61-1.198,1.009-1.963,1.071c0.975-0.874,1.961-1.761,2.68-2.855c0.563-0.857,0.945-1.817,1.324-2.769
		c0.847-2.131,1.695-4.261,2.542-6.392c0.2-0.504,0.401-1.07,0.194-1.571c-0.504-1.219-0.705-2.563-0.579-3.876
		c-0.913,0.515-1.825,1.029-2.738,1.544c-0.381,0.215-0.765,0.432-1.101,0.713c-0.518,0.435-0.901,1.007-1.266,1.577
		C9.337,43.245,7.1,47.952,6.776,52.969C6.671,54.595,6.27,56.201,5.6,57.685C8.516,56.232,11.651,54.556,12.958,51.572
		 M8.343,74.189c0.809-1.839,1.487-3.735,2.028-5.67c0.169,0.377,0.338,0.755,0.507,1.132c0.601-0.912,0.366-2.275-0.507-2.932
		c-0.643-0.485-0.81-1.367-0.9-2.167C9.309,63.107,9.24,61.653,9.28,60.2c0.033-1.201,0.142-2.4,0.325-3.588
		c-2.461,1.134-4.046,3.928-3.756,6.622c0.313,2.916,0.367,5.859,0.161,8.785c-0.017,0.24-0.058,0.518-0.267,0.638
		c-0.539,0.311-0.545,1.067-0.546,1.69c-0.003,3.101-1.552,6.06-1.465,9.16c0.718-0.86,1.129-1.973,1.14-3.093
		c0.016-1.524,1.711-2.397,2.544-3.674c0.451-0.691,0.65-1.543,0.553-2.362c-0.433,0.034-0.539-0.59-0.479-1.02
		c0.023-0.162,0.064-0.349,0.213-0.417c0.244-0.111,0.467,0.214,0.482,0.481C8.199,73.69,8.149,74.003,8.343,74.189 M48.314,31.162
		c0.299,0.13,0.631,0.183,0.956,0.154c-1.754-1.395-3.508-2.79-5.262-4.184c-0.25-0.199-0.518-0.428-0.565-0.744
		c-0.077-0.522-0.664-0.781-1.169-0.933c-0.854-0.258-1.718-0.481-2.59-0.67c1.379,1.811,2.123,4.05,3.551,5.823
		c0.633,0.786,1.388,1.464,2.139,2.138c1.133,1.017,2.348,2.075,3.847,2.342c0.01-0.19-0.162-0.336-0.324-0.436
		c-0.162-0.099-0.348-0.205-0.399-0.388c-0.051-0.183,0.176-0.41,0.318-0.283c0.802,0.719,1.73,1.296,2.729,1.697
		c0.276,0.111,0.572,0.209,0.865,0.16c0.293-0.049,0.573-0.295,0.56-0.591c0.874-0.08,1.723-0.415,2.416-0.953
		c-2.024-1.11-4.208-1.925-6.465-2.411C48.545,31.801,48.058,31.447,48.314,31.162 M31.328,21.307
		c0.405-0.062,0.811-0.123,1.216-0.185c-1.092-4.468-2.192-9.04-1.752-13.619c0.008-0.082,0.014-0.173-0.035-0.24
		c-0.067-0.091-0.199-0.093-0.312-0.086c-0.766,0.046-1.533,0.093-2.299,0.139c-0.064,0.004-0.135,0.011-0.178,0.058
		c-0.047,0.051-0.044,0.129-0.039,0.198c0.384,4.653,1.047,9.441-0.298,13.912c1.098-0.183,2.196-0.366,3.294-0.549
		c0.138-0.023,0.293-0.043,0.409,0.036C31.452,21.05,31.463,21.269,31.328,21.307 M5.322,62.872
		c-1.206,3.203-0.227,6.873-1.223,10.147c-0.964,3.17-1.335,6.52-1.09,9.824c0.947-2.495,0.089-5.411,1.079-7.889
		C5.603,71.165,5.506,66.949,5.322,62.872 M48.556,91.019c-0.106,0.139-0.215,0.283-0.252,0.454
		c-0.093,0.42,0.265,0.807,0.312,1.234c0.018,0.169,0.247,0.213,0.414,0.184c0.168-0.028,0.369-0.073,0.484,0.052
		c-0.004-0.495-0.048-0.989-0.131-1.477c-0.026-0.151-0.051-0.32,0.037-0.445c0.088-0.125,0.337-0.115,0.351,0.037
		c0.033,0.355,0.066,0.71,0.099,1.064c0.015,0.162,0.164,0.382,0.28,0.267c0.039-0.866-0.018-1.737-0.171-2.591
		c-0.018-0.102-0.054-0.223-0.154-0.25c-0.106-0.028-0.2,0.069-0.266,0.156C49.224,90.144,48.89,90.582,48.556,91.019
		 M23.663,97.511c-0.177,0.107-0.095,0.378,0.007,0.558c0.367,0.648,0.734,1.295,1.1,1.943c0.196,0.346,0.394,0.697,0.49,1.083
		c0.23,0.921,0.602,1.806,1.099,2.615c0.112,0.183,0.308,0.387,0.504,0.3c-0.441-0.755-0.896-1.561-0.876-2.435
		c0.005-0.248,0.049-0.505-0.029-0.741c-0.046-0.139-0.132-0.261-0.216-0.381C25.048,99.473,24.356,98.492,23.663,97.511
		 M14.087,33.395c-1.026,1.028-2.125,2.098-3.534,2.447c-0.653,0.162-1.437,0.216-1.795,0.786c-0.086,0.137,0.045,0.328,0.204,0.362
		c0.159,0.034,0.319-0.035,0.467-0.103c1.7-0.779,3.462-1.605,4.639-3.058C14.175,33.696,14.25,33.45,14.087,33.395 M26.414,101.509
		c-0.133,0.355,0.021,0.746,0.173,1.093c0.496,1.131,0.997,2.271,1.717,3.274c0.079,0.111,0.23,0.229,0.332,0.14
		c0.079-0.069,0.043-0.197,0.001-0.293c-0.339-0.772-0.678-1.544-1.017-2.316C27.316,102.714,26.993,101.996,26.414,101.509
		 M57.937,32.336c-0.936,0.177-1.871,0.354-2.807,0.531c-0.113,0.021-0.258,0.083-0.241,0.197c0.201,0.424,0.729,0.611,1.195,0.557
		c0.466-0.054,0.887-0.296,1.292-0.533c0.351-0.205,0.701-0.41,1.052-0.615C58.363,32.299,58.119,32.301,57.937,32.336
		 M43.797,25.106c-0.354-0.324-0.814-0.504-1.265-0.669c-1.403-0.515-2.832-0.96-4.279-1.334c0.008,0.219,0.234,0.355,0.435,0.442
		c1.298,0.559,2.733,0.766,3.996,1.4C43.037,25.123,43.473,25.331,43.797,25.106 M16.298,29.226
		c-0.762,1.044-1.524,2.088-2.287,3.131c-0.09,0.123-0.138,0.358,0.014,0.375c1.244-1.064,2.218-2.443,2.804-3.972
		C16.598,28.825,16.439,29.032,16.298,29.226 M10.808,66.528c-0.239-1.157-0.477-2.314-0.716-3.472
		c-0.05-0.241-0.116-0.506-0.322-0.641c-0.045,1.087,0.09,2.18,0.398,3.224C10.277,66.004,10.448,66.407,10.808,66.528
		 M34.617,120.153c0.106-0.207,0.213-0.458,0.1-0.662c-0.792,1.117-1.414,2.355-1.838,3.657c0.275-0.151,0.433-0.446,0.576-0.725
		C33.842,121.666,34.229,120.91,34.617,120.153 M51.47,68.533c-0.101-0.018-0.191,0.085-0.199,0.187
		c-0.008,0.102,0.04,0.2,0.087,0.291c0.337,0.656,0.673,1.312,1.01,1.968c0.123,0.239,0.281,0.506,0.547,0.552
		c0.094-0.125,0.023-0.302-0.05-0.439C52.407,70.234,51.942,69.381,51.47,68.533 M8.23,80.86c-0.1-1.01-0.201-2.02-0.301-3.03
		c-0.018-0.178-0.035-0.357-0.053-0.535c-0.254,0.13-0.3,0.469-0.296,0.754C7.593,79.018,7.817,79.983,8.23,80.86 M2.957,86.153
		c0.155-0.386,0.258-0.794,0.303-1.208c0.033-0.303,0.032-0.626-0.116-0.892c-0.293,0.813-0.54,1.643-0.739,2.485
		C2.628,86.662,2.862,86.39,2.957,86.153 M40.512,61.035c-0.382-0.894-0.841-1.756-1.37-2.572c-0.175-0.27-0.359-0.537-0.582-0.77
		c-0.117,0.038-0.08,0.212-0.02,0.32C39.126,59.066,39.718,60.128,40.512,61.035 M18.08,77.657c-0.199,0.176-0.39,0.387-0.437,0.649
		c-0.047,0.262,0.11,0.574,0.374,0.605c0.362-0.361,0.558-0.883,0.524-1.393C18.392,77.431,18.209,77.543,18.08,77.657
		 M23.32,45.604c-0.12-0.595-0.296-1.178-0.524-1.741c-0.021-0.051-0.044-0.105-0.089-0.138c-0.105-0.076-0.263,0.021-0.296,0.146
		s0.016,0.256,0.064,0.376C22.676,44.747,22.895,45.271,23.32,45.604 M15.828,94.854c0.005-0.494-0.324-0.92-0.637-1.302
		c-0.18-0.22-0.377-0.451-0.65-0.526C14.784,93.741,15.237,94.384,15.828,94.854 M44.797,95.38c0.045-0.043,0.085-0.1,0.081-0.163
		c-0.009-0.139-0.205-0.172-0.338-0.129c-0.39,0.126-0.625,0.511-0.827,0.867c-0.044,0.078-0.09,0.166-0.072,0.254
		s0.136,0.155,0.201,0.092C44.161,95.994,44.479,95.687,44.797,95.38 M36.791,103.082c-0.244,0.225-0.277,0.612-0.168,0.926
		c0.109,0.314,0.334,0.571,0.554,0.82C37.214,104.225,37.079,103.613,36.791,103.082 M14.106,73.264
		c-0.077-0.724-0.335-1.429-0.745-2.031C13.271,71.976,13.557,72.755,14.106,73.264 M17.556,36.018
		c0.01,0.552,0.027,1.131,0.301,1.61c0.149-0.626,0.115-1.295-0.098-1.902C17.626,35.677,17.553,35.877,17.556,36.018
		 M49.395,93.411c0.011,0.503,0.109,1.005,0.29,1.475c0.218-0.567,0.188-1.224-0.08-1.77C49.471,93.068,49.392,93.268,49.395,93.411
		 M7.518,57.45c-0.539,0.003-1.067,0.315-1.328,0.787C6.735,58.271,7.285,57.945,7.518,57.45 M31.754,7.318
		c-0.08-0.077-0.203,0.033-0.248,0.135c-0.18,0.406-0.18,0.888,0.001,1.293c0.176-0.406,0.273-0.847,0.284-1.29
		C31.792,7.407,31.79,7.352,31.754,7.318 M27.776,16.675c-0.096-0.095-0.23,0.073-0.254,0.206c-0.074,0.425-0.065,0.864,0.026,1.285
		c0.23-0.417,0.325-0.906,0.269-1.378C27.813,16.748,27.805,16.704,27.776,16.675 M32.944,84.665
		c0.22-0.086,0.487-0.308,0.351-0.501c-0.275,0.116-0.547,0.236-0.818,0.362c-0.045,0.021-0.091,0.043-0.119,0.084
		c-0.079,0.113,0.059,0.274,0.197,0.271c0.138-0.004,0.251-0.105,0.351-0.2 M25.562,82.327c0.1-0.12-0.009-0.339-0.165-0.332
		c-0.293,0.21-0.476,0.567-0.477,0.928c0.279-0.102,0.511-0.328,0.618-0.606 M60.448,55.31c-0.072-0.332-0.437-0.571-0.77-0.504
		c-0.096,0.019-0.188,0.06-0.266,0.121C59.683,55.193,60.07,55.336,60.448,55.31 M16.479,44.489
		c-0.321,0.392-0.483,0.91-0.444,1.415C16.364,45.517,16.528,44.995,16.479,44.489 M10.49,70.651
		c0.131-0.127,0.105-0.376-0.05-0.472c-0.244,0.33-0.374,0.742-0.363,1.152c0.18-0.197,0.318-0.432,0.404-0.685 M61.832,80.96
		c0.093,0.034,0.231-0.024,0.21-0.12c-0.152-0.247-0.347-0.466-0.575-0.645c-0.119,0.295,0.062,0.674,0.367,0.766 M2.881,83.515
		c0.092-0.13,0.053-0.333-0.08-0.421c-0.261,0.185-0.372,0.556-0.254,0.853c0.187-0.048,0.326-0.238,0.316-0.431 M6.503,93.566
		c-0.067-0.035-0.134-0.07-0.201-0.105C6.114,93.705,6.1,94.069,6.27,94.327c0.163-0.21,0.245-0.481,0.226-0.746 M50.694,31.307
		c0.122,0.312,0.524,0.479,0.832,0.345c-0.168-0.232-0.448-0.379-0.735-0.385 M6.066,59.516c0.139-0.109,0.199-0.308,0.143-0.476
		c-0.272,0.072-0.456,0.38-0.391,0.653c0.109,0.066,0.272-0.049,0.248-0.174 M25.673,120.515c-0.067-0.16-0.232-0.275-0.406-0.283
		c0.075,0.242,0.203,0.468,0.372,0.657c0.14-0.065,0.172-0.285,0.056-0.387 M61.388,54.866c-0.068,0.051-0.136,0.101-0.204,0.152
		c0.184,0.183,0.516,0.184,0.701,0.003c-0.118-0.124-0.31-0.172-0.472-0.116 M30.412,6.408c0.136-0.078-0.008-0.315-0.163-0.292
		c-0.156,0.022-0.253,0.175-0.329,0.313c0.148,0.077,0.343,0.053,0.468-0.057 M30.32,32.807c-0.056-0.055-0.112-0.111-0.168-0.166
		c-0.206,0.095-0.049,0.488,0.166,0.415c0.062-0.069,0.065-0.183,0.006-0.255 M5.735,58.678c0.086-0.057,0.173-0.114,0.259-0.171
		c-0.089-0.115-0.271-0.177-0.382-0.082c-0.111,0.095,0.001,0.333,0.133,0.27 M30.946,6.636c0.165,0.041,0.22-0.289,0.051-0.304
		c-0.116,0.024-0.142,0.214-0.038,0.269L30.946,6.636z"/>
</g>
</svg>