<!-- Generator: Adobe Illustrator 20.1.0, SVG Export Plug-In  -->
<svg version="1.1"
	 xmlns="http://www.w3.org/2000/svg" xmlns:xlink="http://www.w3.org/1999/xlink" xmlns:a="http://ns.adobe.com/AdobeSVGViewerExtensions/3.0/"
	 x="0px" y="0px" width="71.063px" height="81.284px" viewBox="0 0 71.063 81.284"
	 style="enable-background:new 0 0 71.063 81.284;" xml:space="preserve">
<style type="text/css">
	.st0{fill:#010101;}
</style>
<defs>
</defs>
<g id="Bladder_1_">
	<path class="st0" d="M51.437,66.801c-0.872,0.372-1.933,0.73-2.711,0.187c-0.303-0.211-0.51-0.532-0.684-0.858
		c-0.831-1.551-1.077-3.407-0.678-5.121c0.094-0.405,0.224-0.808,0.234-1.223c0.012-0.499-0.148-0.986-0.196-1.483
		c-0.048-0.497,0.051-1.061,0.453-1.358c0.402-0.297,1.131-0.083,1.145,0.416c0.039,1.387,1.649,2.125,2.363,3.315
		c0.586,0.976,0.535,2.223,1.058,3.235c0.229,0.442,0.573,0.865,0.561,1.362C52.963,66.04,52.143,66.499,51.437,66.801
		 M50.849,64.183c-0.244-0.678-0.489-1.357-0.733-2.035c-0.224-0.623-0.63-1.369-1.289-1.31c-0.403,1.149-0.037,2.41,0.34,3.568
		c0.122,0.373,0.254,0.761,0.537,1.033c0.283,0.272,0.765,0.379,1.067,0.128C51.151,65.25,51.016,64.647,50.849,64.183z"/>
	<path class="st0" d="M52.757,75.77c-0.452,1.282,0.785,2.846,0.033,3.978c-0.201,0.302-0.515,0.508-0.823,0.701
		c-0.561,0.352-1.15,0.694-1.803,0.803c-0.653,0.109-1.393-0.062-1.8-0.585c-0.311-0.398-0.385-0.93-0.4-1.436
		c-0.059-2.005,0.664-4.023,1.984-5.534c0.223-0.255,0.47-0.509,0.57-0.833c0.107-0.345,0.032-0.721,0.105-1.074
		c0.072-0.353,0.416-0.712,0.75-0.578c0.218,0.087,0.315,0.337,0.389,0.56c0.285,0.864,0.569,1.729,0.854,2.593
		C52.767,74.822,52.917,75.318,52.757,75.77 M51.189,78.109c-0.035-0.92-0.069-1.839-0.104-2.759
		c-0.013-0.335-0.14-0.781-0.474-0.759c-0.594,1.034-0.835,2.228-1.044,3.402c-0.064,0.358-0.125,0.73-0.034,1.082
		c0.091,0.352,0.379,0.681,0.742,0.699c0.358,0.018,0.675-0.27,0.807-0.604C51.214,78.838,51.202,78.468,51.189,78.109z"/>
	<path class="st0" d="M29.898,46.2c-0.459,1.1-0.943,2.213-1.715,3.122c-2.022,2.384-5.479,2.839-8.602,2.984
		C13.88,52.571,8.156,52.356,2.49,51.663c-0.63-0.077-1.285-0.17-1.808-0.53c-0.522-0.36-0.858-1.074-0.586-1.647
		c5.438-11.454,8.616-23.976,9.297-36.638c0.168-3.121,0.179-6.302-0.685-9.306c-0.221-0.768,0.871-1.183,1.669-1.223
		C25.86,1.549,41.342,0.78,56.825,0.01c0.583-0.029,1.255-0.022,1.634,0.422c0.254,0.298,0.301,0.716,0.332,1.107
		c0.258,3.341,0.084,6.715-0.517,10.012c-0.294,1.612,0.126,3.258,0.543,4.843c2.742,10.425,5.576,21.06,11.525,30.049
		c0.373,0.564,0.775,1.182,0.715,1.856c-0.06,0.674-0.869,1.282-1.419,0.887c-0.832-0.596-1.97-0.392-2.97-0.18
		c-7.371,1.567-14.937,2.22-22.468,1.937c-0.853-0.032-1.758-0.094-2.452-0.591c-0.569-0.408-0.912-1.051-1.236-1.672
		c-2.245-4.304-4.49-8.607-6.735-12.911C32.622,39.295,31.327,42.776,29.898,46.2 M30.9,33.448
		c-2.835-2.044-3.784-5.768-4.537-9.181c-0.861-3.904-1.704-8.085-0.243-11.806c-4.697,0.365-9.394,0.73-14.091,1.096
		c-0.561,0.044-1.285,0.248-1.298,0.811c-0.279,12.012-3.199,23.955-8.494,34.74c7.775-1.51,15.782-1.818,23.649-0.909
		c0.948,0.11,1.595-0.908,1.983-1.78c1.458-3.269,2.78-6.598,3.962-9.977c0.229-0.654,0.448-1.4,0.127-2.015
		C31.735,33.995,31.294,33.731,30.9,33.448 M53.132,38.603c-2.74,1.622-6.233,1.902-9.196,0.737
		c-0.922-0.363-1.883,0.408-2.511,1.174c-0.628,0.766-1.333,1.674-2.324,1.684c0.827,1.613,1.734,3.184,2.718,4.706
		c0.215,0.332,0.443,0.672,0.776,0.886c0.732,0.469,1.69,0.188,2.516-0.082c7.122-2.32,14.86-2.718,22.183-1.142
		c-0.259-0.857-0.649-1.667-1.028-2.478c-4.535-9.708-7.734-20.039-9.478-30.611c-0.048-0.294-0.103-0.604-0.299-0.828
		c-0.327-0.375-0.903-0.364-1.398-0.324c-2.327,0.19-4.654,0.381-6.981,0.571c-0.243,0.02-0.497,0.043-0.705,0.17
		c-0.346,0.211-0.474,0.642-0.575,1.034c-0.774,3.012-1.548,6.023-2.321,9.035c1.74,1.163,2.952,3.087,3.247,5.159
		c0.12,0.841,1.051,1.305,1.889,1.439c0.838,0.134,1.745,0.098,2.466,0.546c1.783,1.107,1.027,4.006,2.258,5.706
		C55.009,36.869,54.071,38.047,53.132,38.603 M11.402,11.279c0.071,0.047,0.16,0.056,0.245,0.063
		c2.695,0.232,5.412,0.376,8.103,0.103c1.474-0.15,2.933-0.424,4.405-0.584c1.61-0.175,3.231-0.212,4.85-0.25
		c2.038-0.047,4.076-0.094,6.114-0.141c6.732-0.156,13.472-0.311,20.196,0.054c0.749,0.041,1.411-0.563,1.686-1.261
		s0.247-1.473,0.215-2.222c-0.056-1.323-0.112-2.646-0.167-3.968c-0.044-1.052-1.471-1.318-2.523-1.268
		C40.148,2.5,25.771,3.195,11.394,3.89c-0.226,0.011-0.288,0.314-0.283,0.541c0.045,2.135,0.09,4.271,0.135,6.406
		C11.249,11,11.266,11.189,11.402,11.279 M35.179,24.696c0.323,0.056,0.657,0.111,0.977,0.041c0.823-0.18,1.24-1.066,1.786-1.707
		c0.871-1.022,2.447-1.497,3.623-0.849c0.362,0.199,0.837,0.031,1.115-0.274c0.278-0.305,0.405-0.715,0.525-1.111
		c0.633-2.095,1.266-4.19,1.898-6.285c0.193-0.639-0.257-1.333-0.852-1.636c-0.595-0.303-1.293-0.308-1.96-0.288
		c-4.474,0.134-8.964,1.088-13.392,0.435c-0.504-0.074-0.99,0.298-1.21,0.758c-0.22,0.46-0.233,0.988-0.233,1.498
		c-0.004,2.993,0.271,5.986,0.821,8.928c0.668-0.535,1.628-0.417,2.47-0.272C32.225,24.189,33.702,24.442,35.179,24.696
		 M63.352,48.173c0.348-0.043,0.729-0.104,0.96-0.368c-0.476-0.491-1.225-0.566-1.908-0.598c-5.372-0.252-10.783,0.349-15.969,1.774
		c0.347,0.539,1.089,0.624,1.73,0.635c3.152,0.056,6.292-0.335,9.42-0.724C59.508,48.652,61.43,48.412,63.352,48.173 M7.182,50.319
		c5.643,0.637,11.465,1.172,16.912-0.435c0.322-0.095,0.722-0.363,0.575-0.665c-5.553-0.104-11.111,0.079-16.645,0.547
		C7.653,49.798,7.171,49.947,7.182,50.319 M44.957,37.834c0.079-0.171,0.069-0.368,0.057-0.556
		c-0.247-3.663-0.935-7.279-1.622-10.885c-0.047-0.247-0.141-0.544-0.388-0.594c-1.192,1.108-1.031,3.006-0.776,4.614
		c0.326,2.057,0.652,4.115,0.977,6.172c0.076,0.478,0.169,0.992,0.514,1.331C44.065,38.256,44.753,38.274,44.957,37.834
		 M45.456,26.186c-0.184-0.465-0.606-1.017-1.058-0.804c0.016,0.704,0.126,1.403,0.236,2.098c0.452,2.859,0.904,5.718,1.356,8.578
		c0.12,0.761,0.246,1.538,0.6,2.223c0.172,0.333,0.491,0.678,0.856,0.594c0.281-0.064,0.45-0.371,0.459-0.659
		c0.009-0.288-0.102-0.564-0.199-0.836c-0.716-2.015-0.687-4.206-0.977-6.325C46.503,29.389,46.074,27.75,45.456,26.186
		 M49.981,38.595c0.347,0.082,0.831-0.117,0.771-0.469c-0.359-2.126-0.721-4.261-1.376-6.316c-0.161-0.506-0.548-1.12-1.054-0.959
		c-0.442,0.14-0.491,0.738-0.455,1.201c0.12,1.525,0.241,3.059,0.617,4.541C48.7,37.444,49.126,38.394,49.981,38.595 M33.033,25.901
		c-0.153,0.314-0.06,0.686,0.035,1.022c0.368,1.293,0.737,2.586,1.105,3.879c0.184,0.644,0.55,1.429,1.219,1.396
		c0.449-0.022,0.792-0.454,0.868-0.897c0.076-0.443-0.049-0.894-0.173-1.326c-0.262-0.91-0.523-1.821-0.785-2.731
		c-0.158-0.552-0.339-1.138-0.782-1.503C34.078,25.376,33.286,25.386,33.033,25.901 M41.125,29.874
		c-0.121-0.07-0.263,0.05-0.344,0.164c-0.871,1.219-0.736,2.862-0.564,4.35c0.092,0.793,0.183,1.586,0.275,2.378
		c0.041,0.351,0.085,0.714,0.266,1.017c0.181,0.303,0.539,0.531,0.882,0.447c0.598-0.146,0.643-0.97,0.554-1.58
		c-0.319-2.181-0.638-4.361-0.957-6.542C41.224,30.02,41.203,29.919,41.125,29.874 M38.692,40.508c0.461,0.053,1,0.041,1.295-0.317
		c0.386-0.469,0.098-1.16-0.132-1.723c-0.364-0.889-0.548-1.852-0.536-2.813c0.012-0.942,0.111-2.1-0.685-2.603
		c-0.751,0.986-0.521,2.367-0.397,3.6c0.117,1.162,0.108,2.336-0.028,3.496C38.183,40.371,38.47,40.482,38.692,40.508
		 M50.592,31.497c-0.022,0.092-0.006,0.187,0.009,0.28c0.268,1.576,0.536,3.152,0.804,4.728c0.075,0.441,0.221,0.966,0.652,1.088
		c0.578,0.164,1.025-0.61,0.9-1.199s-0.554-1.067-0.742-1.638c-0.36-1.096,0.154-2.511-0.672-3.316
		C51.266,31.171,50.683,31.121,50.592,31.497 M32.682,30.952c0.181-0.232,0.1-0.566,0.011-0.847
		c-0.421-1.326-0.843-2.653-1.264-3.979c-0.139-0.437-0.315-0.92-0.727-1.122c-0.412-0.203-1.051,0.178-0.876,0.602
		c0.593,1.442,1.101,2.918,1.52,4.419c0.091,0.326,0.188,0.671,0.434,0.905C32.026,31.164,32.474,31.219,32.682,30.952
		 M40.145,27.093c0.339-1.078,0.142-2.311-0.518-3.228c-0.067-0.094-0.144-0.188-0.25-0.233c-0.221-0.093-0.482,0.073-0.579,0.292
		c-0.097,0.219-0.074,0.471-0.05,0.709c0.053,0.521,0.107,1.042,0.16,1.563c0.037,0.359,0.087,0.748,0.342,1.003
		C39.505,27.454,40.037,27.437,40.145,27.093 M38.011,29.146c-0.022-0.764-0.14-1.524-0.35-2.259
		c-0.15-0.526-0.51-1.145-1.052-1.067c-0.205,1.202,0.015,2.473,0.612,3.537c0.117,0.208,0.323,0.438,0.549,0.36
		C37.98,29.644,38.018,29.368,38.011,29.146 M37.413,38.082c-0.045-0.938-0.089-1.877-0.134-2.815
		c-0.017-0.367-0.147-0.849-0.514-0.85c-0.579,0.258-0.854,0.963-0.789,1.594c0.065,0.63,0.402,1.198,0.764,1.718
		C36.898,37.956,37.165,38.208,37.413,38.082 M40.852,24.234c0.092,0.36,0.7,0.173,0.794-0.186c0.103-0.394-0.219-0.876-0.623-0.828
		c-0.404,0.048-0.527,0.749-0.136,0.861L40.852,24.234z"/>
</g>
</svg>