<!-- Generator: Adobe Illustrator 20.1.0, SVG Export Plug-In  -->
<svg version="1.1"
	 xmlns="http://www.w3.org/2000/svg" xmlns:xlink="http://www.w3.org/1999/xlink" xmlns:a="http://ns.adobe.com/AdobeSVGViewerExtensions/3.0/"
	 x="0px" y="0px" width="48.011px" height="63.776px" viewBox="0 0 48.011 63.776"
	 style="enable-background:new 0 0 48.011 63.776;" xml:space="preserve">
<style type="text/css">
	.st0{fill:#010101;stroke:#000000;stroke-width:0.5;stroke-miterlimit:10;}
</style>
<defs>
</defs>
<path class="st0" d="M12.552,10.841c-0.992,0.963-3.196,0.013-3.747,1.281c1.301,1.297,2.257,2.937,2.744,4.709
	c-1.496,1.513-3.395,2.624-5.448,3.185c-0.122,0.908,0.788,1.602,1.627,1.969s1.825,0.72,2.158,1.574
	c0.431,1.101-0.497,2.228-1.349,3.048c-1.824,1.757-3.649,3.513-5.473,5.27c-0.132,0.128-0.27,0.258-0.443,0.321
	c-0.502,0.182-1.037-0.335-1.075-0.867c-0.038-0.532,0.259-1.026,0.567-1.462c1.098-1.553,2.488-2.899,4.077-3.944
	c0.959-0.631,0.329-2.255-0.718-2.725c-1.047-0.47-2.267-0.3-3.381-0.577c-1.114-0.277-2.219-1.428-1.716-2.459
	c0.271-0.554,0.894-0.824,1.468-1.05c1.842-0.724,3.685-1.449,5.527-2.173c0.899-0.353,0.901-1.716,0.3-2.471
	s-1.549-1.129-2.333-1.693c-0.784-0.564-1.458-1.548-1.109-2.448C4.958,8.455,8.353,9.874,9.59,8.288
	C8.117,6.445,6.644,4.602,5.172,2.759C4.64,2.094,4.084,1.193,4.513,0.458C5.64-0.237,6.968,0.945,7.761,2.005
	c1.416,1.894,2.832,3.787,4.248,5.681C12.711,8.625,13.392,10.025,12.552,10.841z"/>
<path class="st0" d="M35.436,33.599c0.323,0.696-0.23,1.465-0.745,2.035c-5.714,6.325-11.167,12.886-16.339,19.661
	c-0.507,0.664-1.692,0.037-1.782-0.793c-0.09-0.83,0.47-1.574,0.999-2.22c4.888-5.969,9.776-11.939,14.664-17.908
	c0.419-0.512,0.865-1.043,1.479-1.288C34.327,32.839,35.157,32.999,35.436,33.599z"/>
<path class="st0" d="M38.623,43.361c0.137-1.888,1.303-3.67,2.979-4.551c0.326-0.171,0.673-0.312,1.038-0.36
	c0.626-0.082,1.255,0.112,1.835,0.361c1.6,0.689,3.108,2.016,3.272,3.75c0.082,0.871-0.188,1.744-0.592,2.521
	c-1.116,2.143-3.729,3.728-5.971,2.827C39.457,47.215,38.488,45.217,38.623,43.361 M42.33,45.256
	c1.003,0.375,2.258-0.224,2.598-1.239s-0.302-2.249-1.328-2.553c-0.982-0.292-2.142,0.311-2.467,1.283
	C40.807,43.719,41.37,44.898,42.33,45.256z"/>
<path class="st0" d="M32.09,54.248c1.54,0.333,2.423,2.089,2.323,3.662c-0.1,1.573-0.928,2.993-1.735,4.347
	c-0.733,1.23-2.508,1.604-3.784,0.953c-1.276-0.651-2.008-2.128-1.99-3.56s0.699-2.799,1.653-3.866
	C29.454,54.78,30.773,53.963,32.09,54.248 M31.74,58.561c-0.262-0.745-1.353-0.962-1.971-0.47c-0.617,0.492-0.717,1.459-0.344,2.154
	c0.132,0.246,0.327,0.474,0.591,0.564c0.541,0.186,1.092-0.268,1.404-0.748C31.709,59.618,31.916,59.062,31.74,58.561z"/>
<path class="st0" d="M20.862,35.816c0.642-0.258,1.357,0.377,1.454,1.062c0.097,0.685-0.221,1.352-0.53,1.971
	c-1.426,2.854-2.852,5.707-4.278,8.561c-0.445,0.89-1.374,1.939-2.221,1.417c-0.756-0.466-0.447-1.619-0.05-2.414
	c1.612-3.224,3.225-6.447,4.837-9.671C20.26,36.372,20.477,35.971,20.862,35.816z"/>
<path class="st0" d="M13.273,44.701c-0.152,0.737-0.323,1.556-0.937,1.993s-1.75,0.014-1.599-0.723
	c0.79-3.843,1.948-7.611,3.453-11.234c0.257-0.619,0.544-1.26,1.072-1.672c0.528-0.412,1.371-0.5,1.83-0.012
	c0.622,0.662,0.148,1.725-0.311,2.509C15.126,38.391,13.936,41.491,13.273,44.701z"/>
</svg>