<!-- Generator: Adobe Illustrator 20.1.0, SVG Export Plug-In  -->
<svg version="1.1"
	 xmlns="http://www.w3.org/2000/svg" xmlns:xlink="http://www.w3.org/1999/xlink" xmlns:a="http://ns.adobe.com/AdobeSVGViewerExtensions/3.0/"
	 x="0px" y="0px" width="114.307px" height="104.805px" viewBox="0 0 114.307 104.805"
	 style="enable-background:new 0 0 114.307 104.805;" xml:space="preserve">
<style type="text/css">
	.st0{fill:#010101;}
</style>
<defs>
</defs>
<g id="Grapes_1_">
	<path class="st0" d="M59.945,102.574c-1.913-1.114-3.603-2.824-4.12-4.977c-0.517-2.153,0.448-4.729,2.501-5.556
		c-3.072,0.151-6.143-1.762-7.36-4.587c-1.506,3.55-3.041,7.149-5.453,10.158c-2.412,3.008-5.857,5.402-9.703,5.674
		c-1.267,0.09-2.55-0.052-3.766-0.417c0.85-0.481,1.7-0.963,2.55-1.444c-1.36-0.071-2.657-0.893-3.302-2.092
		c3.902,1.818,8.693-0.416,11.315-3.831c2.484-3.235,3.584-7.498,2.975-11.532c1.849,2.245,1.197,5.558,0.447,8.368
		c2.624-1.844,3.657-5.356,3.339-8.547C49.05,80.601,47.6,77.645,46.1,74.81c-0.236,0.991-0.472,1.983-0.708,2.974
		c-0.147-0.623,1.005-0.775,1.295-0.205c0.29,0.57-0.013,1.248-0.294,1.823c-1.948,3.974-3.02,8.375-3.119,12.8
		c-0.507-1.479-1.015-2.959-1.522-4.438c-0.461-3.818,0.152-7.759,1.75-11.256c-0.749-0.649-1.498-1.297-2.247-1.946
		c-4.082,2.119-6.858,6.209-8.362,10.555c-1.504,4.346-1.883,8.988-2.251,13.573c-1.666-6.805-0.211-14.31,3.877-19.999
		c-2.548,0.235-5.12,0.212-7.663-0.069c-3.865-0.427-7.656-1.449-11.261-2.907c-5.48-2.215-10.547-5.446-14.869-9.478
		c-0.68-0.634-1.124-2.079-0.202-2.195c6.735-0.85,12.3-5.6,18.749-7.724c4.119-1.356,8.507-1.61,12.837-1.853
		c-3.06-0.374-6.12-0.748-9.18-1.123c4.901-0.786,9.943-0.686,14.81,0.294c-1.141-1.59-2.324-3.22-3.98-4.264
		s-3.919-1.372-5.54-0.275c-0.59,0.399-1.088,0.974-1.774,1.164c-1.31,0.363-2.6-0.952-2.746-2.303
		c-0.146-1.352,0.488-2.652,1.104-3.864c0.948-1.864,1.896-3.727,2.844-5.591c0.218,1.923,2.15,3.105,3.869,3.994
		c3.467,1.793,6.935,3.585,10.402,5.378c-2.687-3.39-5.374-6.78-8.061-10.17c-0.503-0.635-1.021-1.529-0.548-2.187
		c1.778-2.472,1.29-5.838,0.888-8.856c-0.104-0.784-0.142-1.717,0.471-2.216c0.614-0.499,1.818,0.339,1.278,0.917
		c1.275-2.517,1.749-5.432,1.337-8.223c3.964,1.967,7.483,4.824,10.221,8.3c-0.077-6.046,2.82-12.059,7.596-15.767
		c3.722-2.889,8.91-5.039,9.768-9.671c3.135,5.55,6.358,11.411,6.418,17.786c-0.808-0.458-1.449-1.202-1.784-2.069
		c0.35,3.213,0.699,6.427,1.049,9.64c3.885-0.64,7.4-3.222,9.173-6.737c1.197,1.456,2.395,2.912,3.592,4.369
		c-1.191,0.08-2.067,1.236-2.302,2.407c-0.235,1.17,0.001,2.376,0.1,3.566c0.281,3.36-0.571,6.804-2.385,9.646
		c3.43-0.604,6.822,3.139,5.886,6.493c-0.9,3.223,4.436,5.792,3.436,8.985c2.661-1.377,6.219-0.713,8.205,1.531
		c1.986,2.244,2.213,5.856,0.524,8.33c5.012,0.874,8.959,5.853,8.666,10.932c-0.123,2.135,1.508,3.9,2.664,5.7
		c1.155,1.8,1.716,4.559-0.03,5.796c3.395,0.879,6.099,4.084,6.226,7.588c0.127,3.504-2.457,6.966-5.89,7.683
		c-3.433,0.716-7.271-1.546-8.156-4.939c-1.085,1.816-2.215,3.681-3.917,4.937c-1.702,1.256-4.141,1.762-5.941,0.651
		c-1.833-1.131-2.562-3.59-4.464-4.601c-0.272,3.973-4.118,7.347-8.093,7.099c-3.975-0.248-7.372-4.073-7.149-8.049
		c0.054-0.966,0.292-1.937,0.134-2.892c-0.158-0.955-0.886-1.924-1.853-1.913c1.032,3.92,1.633,9.024-1.811,11.161
		C65.01,104.437,62.137,103.851,59.945,102.574 M8.835,66.515c0.759-1.318,1.517-2.637,2.276-3.955
		c-1.007,0.694-2.014,1.388-3.021,2.081c-1.123,0.774-1.292,2.47-0.673,3.685c0.62,1.215,1.827,2.019,3.061,2.601
		s2.551,1,3.705,1.727c0.293,0.185,0.608,0.462,0.56,0.805c-0.051,0.359,0.387,0.566,0.738,0.655
		c3.721,0.937,7.442,1.875,11.163,2.812c1.605,0.404,3.665,0.648,4.582-0.73c0.27-0.406,0.821-0.487,1.305-0.545
		c2.536-0.302,5.026-0.996,7.353-2.048c-0.696,0.005-1.503-0.111-1.863-0.706c-0.36-0.596,0.374-1.581,0.924-1.155
		c0.507,0.392,1.194-0.493,0.881-1.052c-0.313-0.558-1.053-0.691-1.693-0.692s-1.339,0.05-1.857-0.326
		c-1.98-1.436-4.712-0.328-6.963,0.629c-0.937,0.399-2.139,0.725-2.878,0.024c-0.515-0.488-1.355-0.201-1.985,0.126
		c-1.587,0.824-3.122,1.749-4.591,2.769c-0.415,0.288-0.97-0.325-0.831-0.812c0.139-0.486,0.632-0.768,1.081-0.999
		c3.526-1.811,7.053-3.622,10.579-5.433c1.72-0.884,3.561-1.792,5.487-1.615c0.54,0.05,1.331-0.022,1.305-0.563
		c-3.191-0.189-6.433,0.563-9.216,2.136c0.261-1.809,2.425-2.599,4.243-2.784c1.818-0.185,3.918-0.262,5.035-1.708
		c0.222-0.287,0.658-0.25,1.015-0.184c1.43,0.262,2.861,0.524,4.291,0.787c-5.298-4.476-12.618-6.457-19.45-5.265
		c-1.477,0.258-2.952,0.665-4.232,1.446c4.285,0.061,8.564,0.485,12.777,1.265c-0.025,0.576-0.811,0.716-1.387,0.68
		c-2.393-0.149-4.786-0.298-7.179-0.446c-2.736-0.17-5.619-0.312-8.072,0.911c-3,1.495-4.699,4.683-6.209,7.676
		C8.359,68.306,8.467,67.155,8.835,66.515 M59.187,33.231c-0.197,1.248-0.395,2.496-0.592,3.744
		c-0.03,0.187-0.055,0.393,0.048,0.551c0.279,0.428,0.921-0.018,1.2-0.446c0.965-1.481,1.93-2.961,2.895-4.442
		c0.427,1.528-0.31,3.115-1.026,4.53c-0.275,0.543,0.549,1.104,1.106,0.858c0.557-0.246,0.812-0.88,1.014-1.455
		c0.597-1.702,1.195-3.405,1.792-5.107c1.028-2.93,2.064-5.894,2.371-8.984c0.535-5.39-1.176-10.722-2.864-15.868
		c-0.22-0.671-0.948-1.49-1.446-0.989c-1.468,1.476-2.936,2.953-4.404,4.429c-0.71,0.714-1.747,1.482-2.618,0.977
		c-0.288-0.167-0.641,0.053-0.893,0.271c-3.71,3.2-5.764,8.085-6.002,12.979s1.231,9.776,3.65,14.037
		c0.132,0.233,0.304,0.49,0.57,0.522c0.372,0.045,0.624-0.369,0.725-0.729c0.447-1.593-0.043-3.276-0.237-4.919
		c-0.288-2.433,0.094-4.942,1.093-7.18c0.643,0.143,0.929,0.904,0.974,1.561c0.045,0.657-0.027,1.368,0.324,1.925
		c0.351,0.557,1.374,0.685,1.575,0.057c0.789-2.466,1.943-4.815,3.413-6.946c0.851,0.344,0.37,1.613-0.134,2.381
		C60.129,27.41,59.64,30.369,59.187,33.231 M48.618,30.608c-1.2-2.942-3.583-5.212-5.899-7.386
		c-1.119-1.051-2.238-2.101-3.357-3.152c-2.724,5.794-3.259,12.586-1.476,18.736c0.082,0.284,0.186,0.59,0.434,0.752
		c0.248,0.161,0.672,0.053,0.696-0.242c0.147-1.812,0.294-3.624,0.44-5.435c0.059-0.734,0.348-1.689,1.084-1.67
		c0.308,1.799-0.033,3.635-0.243,5.447c-0.211,1.812-0.273,3.733,0.53,5.371c0.804,1.638,2.728,2.855,4.464,2.292
		c-1.012-1.832-2.025-3.664-3.037-5.495c-0.141-0.255-0.284-0.516-0.341-0.802c-0.088-0.444,0.041-0.9,0.18-1.332
		c0.754-2.342,1.831-4.566,2.904-6.78c0.15-0.31,0.333-0.65,0.66-0.758c0.327-0.108,0.765,0.235,0.597,0.536
		c-1.387,2.486-1.476,5.652-0.23,8.213c0.352,0.724,0.242,1.575,0.328,2.375c0.086,0.8,0.53,1.704,1.331,1.788
		c0.046-0.607,0.132-1.291,0.621-1.654c0.489-0.362,1.419,0.068,1.202,0.636c-0.41,1.074-0.427,2.293-0.046,3.377
		c0.111,0.315,0.303,0.659,0.632,0.713c0.55,0.09,0.829-0.648,0.827-1.205c-0.004-0.899-0.183-1.802-0.057-2.692
		c0.125-0.89,0.664-1.814,1.541-2.01c-0.534,2.809-0.347,5.753,0.538,8.472c0.787-1.89,0.704-4.122-0.223-5.948
		c0.54-0.152,1.118-0.329,1.463-0.771c0.345-0.442,0.279-1.235-0.251-1.418c-1.851-0.639-3.037-2.468-3.681-4.317
		C49.605,34.397,49.358,32.421,48.618,30.608 M63.707,41.558c0.753-1.003,1.505-2.007,2.258-3.01
		c0.519,0.486,0.147,1.35-0.279,1.919c-0.426,0.57-0.9,1.335-0.506,1.926c1.497-2.337,3.61-4.275,6.067-5.565
		c0.267,0.558-0.052,1.225-0.466,1.684c-0.414,0.459-0.94,0.842-1.201,1.402c-0.261,0.561-0.091,1.394,0.511,1.537
		c0.795-1.003,1.59-2.005,2.386-3.008c0.201-0.253,0.433-0.525,0.753-0.568c0.32-0.043,0.673,0.322,0.492,0.589
		c-1.106,1.637-2.211,3.274-3.317,4.91c-0.286,0.424-0.586,0.905-0.497,1.409s0.81,0.86,1.125,0.458
		c3.9-4.975,7.985-10.447,8.073-16.768c0.013-0.907-0.08-1.871-0.627-2.595c-0.547-0.723-1.684-1.061-2.385-0.486
		c-1.469,1.205-3.198,2.092-5.034,2.582c-0.461,0.123-0.946,0.23-1.318,0.529c-0.351,0.283-0.558,0.703-0.754,1.109
		c-1.745,3.614-3.49,7.229-5.235,10.843C63.581,40.811,63.426,41.282,63.707,41.558 M88.081,90.02
		c-1.145,1.132-0.856,3.022-0.435,4.576c0.359,1.324,0.766,2.662,1.539,3.794c0.774,1.133,1.977,2.047,3.344,2.156
		c1.173,0.093,2.314-0.405,3.322-1.012c0.558-0.336,1.102-0.716,1.507-1.225c0.657-0.826,0.884-1.904,1.091-2.939
		c0.092-0.46,0.185-0.921,0.277-1.381c0.186-0.925,0.367-1.909,0.032-2.792c-0.527-1.389-2.102-2.018-3.509-2.493
		c-0.836-0.282-1.691-0.567-2.572-0.557c-1.174,0.013-2.272,0.544-3.324,1.064C88.901,89.436,88.44,89.665,88.081,90.02
		 M83.39,48.891c-1.108-0.396-2.333-0.22-3.483,0.031c-0.403,0.088-0.772-0.215-1.155-0.368c-1.076-0.43-2.272,0.364-2.94,1.311
		c-1.013,1.438-1.354,3.291-1.1,5.031c0.254,1.74,1.071,3.368,2.173,4.739c0.559,0.695,1.417,1.389,2.253,1.078
		c0.643-0.24,0.938-0.962,1.403-1.467c0.11-0.12,0.248-0.235,0.411-0.236c0.283-0.002,0.449,0.341,0.422,0.623
		c-0.026,0.282-0.168,0.544-0.19,0.826c0.188,0.067,0.377,0.134,0.565,0.201c1.121-1.125,2.251-2.262,3.094-3.607
		c0.843-1.345,1.387-2.936,1.212-4.514C85.881,50.961,84.885,49.425,83.39,48.891 M77.731,103.225
		c1.338,0.245,2.6-0.648,3.621-1.547c1.047-0.922,2.057-1.929,2.694-3.17c0.637-1.241,0.86-2.76,0.301-4.038
		c-0.745-1.704-2.635-2.578-4.423-3.093c-1.724-0.496-3.807-0.715-5.106,0.522c-0.347,0.331-0.607,0.744-0.823,1.172
		c-1.576,3.137-0.577,7.341,2.241,9.434C76.685,102.837,77.183,103.124,77.731,103.225 M63.426,82.03
		c-0.139-0.504-0.484-1.094-1.002-1.023c-1.94,0.262-3.992-0.551-5.225-2.073c-0.201-0.248-0.393-0.523-0.681-0.663
		c-0.287-0.14-0.706-0.074-0.824,0.222c-0.125,0.312,0.136,0.629,0.304,0.92s0.149,0.795-0.186,0.821
		c-1.594,0.122-2.85,1.502-3.406,3.001c-0.382,1.028-0.496,2.243,0.081,3.175s2.02,1.338,2.812,0.579
		c0.295-0.283,0.811,0.17,0.716,0.567s-0.506,0.625-0.889,0.768c-0.383,0.143-0.808,0.271-1.04,0.606
		c1.875,1.833,5.142,1.835,7.198,0.208C63.34,87.512,64.124,84.557,63.426,82.03 M72.193,80.047
		c-0.429-0.447-0.852-0.932-1.424-1.168c-1.142-0.471-2.408,0.199-3.46,0.847c-0.102,0.063-0.208,0.129-0.275,0.229
		c-0.183,0.273,0.022,0.666,0.319,0.806c0.297,0.14,0.642,0.106,0.971,0.089c1.12-0.058,2.521,0.375,2.662,1.487
		c-0.252,0.524-1.026,0.329-1.573,0.133c-0.558-0.2-1.147-0.316-1.739-0.342c-0.682-0.03-1.452,0.107-1.845,0.665
		c-0.315,0.448-0.3,1.041-0.273,1.588c0.036,0.716,0.073,1.44,0.275,2.128c0.641,2.194,3.112,3.677,5.35,3.21
		c1.533-0.32,2.788-1.387,3.93-2.459c0.805-0.755,1.635-1.621,1.764-2.717c0.065-0.554-0.06-1.11-0.184-1.654
		c-0.151-0.663-0.562-1.503-1.225-1.353C74.241,81.812,73.062,80.952,72.193,80.047 M95.204,68.068
		c-0.391-0.451-1.132-0.456-1.638-0.14c-0.506,0.316-0.812,0.873-1.007,1.437c-0.831,2.395,0.014,5.09,1.432,7.192
		c0.425,0.631,1.093,1.298,1.827,1.096c0.269-0.074,0.491-0.257,0.713-0.426c0.752-0.575,1.588-1.039,2.473-1.374
		c0.76-0.288,1.574-0.49,2.22-0.984c1.198-0.915,1.515-2.641,1.188-4.112c-0.58-2.604-3.031-4.67-5.696-4.801
		c-0.228-0.011-0.479-0.002-0.651,0.149c-0.362,0.319-0.077,0.911,0.24,1.274c0.787,0.904,1.701,1.697,2.708,2.349
		c0.298,0.193,0.103,0.716-0.24,0.811s-0.696-0.086-0.997-0.274C96.815,69.666,95.946,68.923,95.204,68.068 M87.616,62.771
		c-0.147,1.039,0.846,1.866,1.784,2.336c1.058,0.53,2.274,0.909,3.417,0.603c1.059-0.283,1.9-1.129,2.403-2.102
		c0.504-0.973,0.711-2.07,0.859-3.156c0.112-0.821,0.191-1.675-0.059-2.465c-0.304-0.961-1.082-1.728-1.99-2.166
		c-0.908-0.437-1.938-0.571-2.946-0.546c-0.816,0.02-1.648,0.147-2.37,0.529c-1.71,0.905-2.422,3.227-1.688,5.017
		C87.289,61.458,87.712,62.089,87.616,62.771 M60.014,100.062c0.536,0.729,1.317,1.241,2.123,1.653
		c1.039,0.531,2.263,0.926,3.359,0.526c0.841-0.307,1.461-1.037,1.897-1.818c1.019-1.827,1.205-4.097,0.497-6.065
		c-0.308-0.856-0.793-1.673-1.515-2.227c-1.376-1.056-3.444-0.93-4.858,0.075c-1.414,1.004-2.199,2.737-2.329,4.466
		C59.099,97.856,59.31,99.105,60.014,100.062 M82.977,73.189c0.249,0.052,0.319,0.387,0.249,0.631
		c-0.07,0.245-0.224,0.472-0.221,0.726c0.004,0.353,0.322,0.639,0.663,0.728s0.702,0.025,1.049-0.04
		c0.845-0.156,1.689-0.312,2.534-0.468c0.521-0.096,1.061-0.201,1.488-0.513c0.471-0.344,0.743-0.897,0.929-1.45
		c0.522-1.556,0.469-3.345-0.358-4.763s-2.484-2.375-4.112-2.164c-1.22,0.158-2.509-0.446-3.661-0.015
		c-1.027,0.384-1.618,1.516-1.694,2.609c-0.075,1.094,0.266,2.168,0.602,3.211c0.191,0.593,0.405,1.219,0.886,1.615
		C81.813,73.694,82.652,73.72,82.977,73.189 M108.412,99.169c2.081-0.715,3.396-3.063,3.111-5.245
		c-0.285-2.182-2.018-4.049-4.121-4.698c-0.362-0.112-0.735-0.191-1.112-0.21c-2.152-0.105-4.012,1.956-4.123,4.108
		s1.21,4.193,2.974,5.428c0.582,0.408,1.237,0.752,1.946,0.808C107.534,99.397,107.987,99.315,108.412,99.169 M104.228,87.385
		c0.323-0.12,0.675-0.175,0.969-0.354c0.386-0.235,0.619-0.649,0.916-0.989c0.249-0.285,0.549-0.524,0.79-0.816
		c0.801-0.973,0.816-2.415,0.35-3.587c-0.466-1.171-1.338-2.129-2.213-3.036c-0.263-0.272-0.541-0.552-0.899-0.675
		s-0.817-0.04-1.006,0.288c-0.812,1.408-3.13,0.977-4.247,2.158c-0.52,0.549-0.673,1.353-0.668,2.11
		c0.012,1.79,0.775,3.489,1.673,5.037c0.251,0.433,0.542,0.884,1.002,1.082c0.564,0.243,1.223,0.034,1.753-0.277
		C103.177,88.014,103.652,87.599,104.228,87.385 M85,87.443c0.986-0.929,2.008-2.073,1.92-3.425
		c-0.022-0.342-0.117-0.675-0.212-1.005c-0.167-0.585-0.335-1.169-0.502-1.754c-0.186-0.649-0.374-1.305-0.712-1.889
		c-1.163-2.01-4.185-2.625-6.041-1.229c-0.353,0.266-0.664,0.818-0.324,1.101c0.105,0.088,0.248,0.116,0.384,0.131
		c0.581,0.06,1.167-0.085,1.75-0.048c0.583,0.038,1.226,0.346,1.349,0.917c0.123,0.571-0.678,1.161-1.067,0.725
		c-0.594-0.665-1.773-0.457-2.348,0.225c-0.574,0.682-0.668,1.649-0.592,2.537c0.1,1.169,0.634,2.501,1.778,2.765
		c0.351,0.081,0.279,0.588,0.277,0.949c-0.006,0.928,1.08,1.553,1.998,1.418C83.576,88.726,84.325,88.079,85,87.443 M71.568,67.378
		c0.014,0.277,0.254,0.478,0.427,0.694c0.434,0.541,0.492,1.309,0.318,1.98c-0.175,0.671-0.553,1.268-0.929,1.851
		c-0.419,0.648-0.848,1.303-1.079,2.039c-0.232,0.736-0.244,1.577,0.148,2.242c0.454,0.77,1.338,1.157,2.165,1.496
		c0.875,0.359,1.75,0.717,2.625,1.076c0.332,0.136,0.692,0.275,1.04,0.19c0.41-0.099,0.685-0.477,0.891-0.845
		c1.166-2.086,1.203-4.76,0.096-6.877C76.163,69.107,73.946,67.611,71.568,67.378 M56.969,74.892
		c0.058,0.306,0.122,0.624,0.31,0.872c0.42,0.554,1.236,0.532,1.93,0.583c0.696,0.05,1.382,0.227,2.016,0.518
		c0.532,0.245,1.142-0.195,1.435-0.702c0.292-0.507,0.429-1.111,0.824-1.542c0.073-0.08,0.159-0.155,0.265-0.182
		c0.242-0.061,0.478,0.174,0.515,0.421s-0.064,0.492-0.164,0.721c-0.334,0.773-0.668,1.546-1.002,2.318
		c-0.145,0.335,0.283,0.69,0.641,0.618c0.358-0.072,0.607-0.392,0.801-0.701c1.331-2.123,1.537-5.143-0.149-6.998
		c-0.78-0.858-1.875-1.382-3.005-1.646c-0.911-0.213-1.883-0.265-2.773,0.025c-0.89,0.29-1.686,0.959-1.971,1.85
		c-0.248,0.774-0.098,1.613,0.054,2.412C56.787,73.937,56.878,74.415,56.969,74.892 M60.53,62.883
		c0.551,1.386,1.386,2.647,2.356,3.78c0.685,0.8,2.065,0.643,2.811-0.101c0.745-0.744,0.97-1.867,0.969-2.92
		c-0.001-2.636-1.251-5.245-3.305-6.898c-0.896-0.721-2.346-0.258-2.986,0.697c-0.64,0.955-0.645,2.202-0.444,3.335
		C60.059,61.496,60.26,62.203,60.53,62.883 M90.664,85.883c0.593,0.411,1.36,0.674,2.036,0.424c0.697-0.257,1.108-0.987,1.299-1.705
		c0.416-1.567,0.034-3.289-0.86-4.641c-0.894-1.352-2.264-2.349-3.764-2.963c-0.222-0.091-0.455-0.175-0.695-0.167
		c-0.558,0.02-0.988,0.554-1.086,1.104c-0.098,0.55,0.057,1.11,0.21,1.647c0.295,1.037,0.591,2.075,0.886,3.112
		c0.148,0.52,0.297,1.044,0.538,1.528C89.557,84.886,90.056,85.462,90.664,85.883 M70.893,64.214
		c0.399,0.336,0.925,0.471,1.432,0.594c0.923,0.223,1.89,0.433,2.812,0.205c0.922-0.227,1.773-1.033,1.723-1.981
		c-0.079-1.501-2.09-2.109-2.691-3.486c-0.463-1.06-1.759-1.439-2.905-1.595c-0.489-0.067-0.995-0.114-1.468,0.025
		c-0.664,0.196-1.197,0.78-1.333,1.458c-0.136,0.679,0.132,1.422,0.669,1.859C70.025,62.019,70.013,63.474,70.893,64.214
		 M53.973,73.534c-0.104-0.51,0.038-1.053-0.104-1.554c-0.161-0.571-0.716-1.007-1.309-1.029c-0.593-0.022-1.178,0.371-1.382,0.928
		c-0.064,0.176-0.104,0.38-0.254,0.491c-0.378,0.28-0.84-0.314-1.31-0.311c-0.613,0.004-0.716,0.913-0.463,1.472
		c0.242,0.533,0.616,1.006,1.079,1.365c0.318,0.246,0.05,0.806-0.338,0.911c-0.388,0.105-0.791-0.057-1.183-0.142
		c-0.21,0.687,0.145,1.406,0.489,2.037c0.288,0.528,0.671,1.12,1.271,1.168c0.431,0.034,0.821-0.235,1.17-0.491
		c0.825-0.607,1.651-1.215,2.476-1.822c0.177-0.13,0.358-0.265,0.474-0.452C55.071,75.325,54.157,74.433,53.973,73.534
		 M82.308,46.077c0.827-0.466,1.035-1.583,0.891-2.522c-0.131-0.853-0.48-1.672-1.004-2.357c-0.248-0.325-0.546-0.628-0.923-0.788
		c-0.751-0.319-1.66,0.024-2.205,0.631c-0.545,0.607-0.792,1.423-0.947,2.225c-0.119,0.615-0.18,1.298,0.157,1.826
		c0.362,0.567,1.069,0.787,1.718,0.965C80.76,46.266,81.618,46.465,82.308,46.077 M67.572,55.888
		c1.14-0.054,2.316-0.635,2.794-1.672s-0.002-2.491-1.099-2.81c-1.008-0.293-2.206-0.551-3.018,0.114
		c-0.531,0.435-0.736,1.181-0.653,1.862c0.083,0.681,0.417,1.307,0.809,1.871c0.16,0.23,0.344,0.463,0.604,0.568
		C67.186,55.893,67.382,55.897,67.572,55.888 M67.997,66.782c-0.172,0.648-0.464,1.264-0.857,1.808
		c-0.315,0.436-0.706,0.853-0.799,1.383c-0.106,0.603,0.201,1.191,0.429,1.759c0.659,1.648,0.677,3.542,0.051,5.202
		c-0.139,0.368-0.29,0.834-0.011,1.111c0.463-0.051,0.941-0.107,1.345-0.34c0.404-0.232,0.716-0.691,0.63-1.149
		c-0.182-0.967-0.365-1.935-0.547-2.902c-0.212-1.127-0.426-2.266-0.37-3.411c0.056-1.145,0.406-2.315,1.19-3.151
		c0.266-0.284,0.581-0.53,0.778-0.866c0.197-0.336,0.24-0.807-0.032-1.085c-0.351-0.358-1-0.163-1.303,0.236
		C68.197,65.776,68.126,66.298,67.997,66.782 M85.377,63.668c0.006-1.332-0.269-2.666-0.8-3.888c-1.316,1.493-2.855,3.099-4.843,3.2
		c-0.804,0.041-1.291,0.877-1.643,1.6s-0.887,1.546-1.691,1.524c-0.448-0.013-0.799,0.505-0.677,0.936s0.623,0.691,1.063,0.606
		c0.44-0.084,0.79-0.459,0.918-0.889c0.309-1.039,1.022-1.942,1.932-2.53C81.298,63.151,83.462,63.162,85.377,63.668 M57.068,63.777
		c-0.338-0.366-0.802-0.588-1.268-0.764c-0.195-0.074-0.398-0.142-0.607-0.139c-0.541,0.008-0.974,0.506-1.096,1.033
		c-0.121,0.527-0.005,1.077,0.112,1.606c0.14,0.633,0.394,1.385,1.029,1.515c0.806,0.165,1.696-0.242,2.099-0.958
		C57.741,65.352,57.627,64.381,57.068,63.777 M39.438,67.665c0.141-0.006,0.291-0.015,0.404-0.099
		c0.219-0.161,0.177-0.526-0.016-0.718c-0.193-0.192-0.477-0.254-0.745-0.298c-2.773-0.459-5.7,0.077-8.131,1.487
		C33.779,67.913,36.609,67.789,39.438,67.665 M34.33,56.095c1.707,0.635,3.354,1.43,4.913,2.371
		c0.291,0.175,0.667-0.187,0.632-0.525c-0.035-0.338-0.311-0.594-0.58-0.801c-1.627-1.252-3.687-1.93-5.739-1.891
		C33.448,55.656,33.935,55.947,34.33,56.095 M66.998,6.26c-0.336,0.015-0.356,0.507-0.263,0.831
		c0.673,2.343,1.472,4.651,2.393,6.908c0.373-0.106,0.38-0.628,0.3-1.007C68.931,10.651,68.111,8.379,66.998,6.26 M98.587,87.83
		c-1.217-1.997-1.797-4.375-1.636-6.708c0.016-0.232,0.037-0.476-0.06-0.686c-0.098-0.211-0.363-0.364-0.567-0.254
		c-0.55,2.17-0.195,4.556,0.963,6.472C97.597,87.167,98.006,87.678,98.587,87.83 M44.242,73.993
		c0.442-0.822,0.885-1.644,1.327-2.466c0.127-0.236,0.235-0.574,0.019-0.733c-0.094-0.069-0.22-0.074-0.337-0.064
		c-0.983,0.083-1.73,0.941-2.141,1.837c-0.193,0.42-0.337,0.907-0.167,1.336c0.17,0.429,0.784,0.684,1.114,0.361
		C44.136,74.188,44.19,74.09,44.242,73.993 M2.832,66.135c0.477,0.027,0.943-0.148,1.375-0.353c1.085-0.514,2.071-1.235,2.89-2.113
		c-1.045-0.139-2.006,0.513-2.969,0.941s-2.302,0.542-2.881-0.338C1.152,65.179,1.922,66.083,2.832,66.135 M51.688,69.692
		c0.627-0.007,1.253-0.014,1.88-0.021c0.267-0.003,0.571-0.023,0.738-0.231c0.289-0.359-0.145-0.913-0.605-0.947
		c-0.46-0.033-0.881,0.229-1.312,0.392c-0.431,0.163-1.001,0.192-1.271-0.182c-0.391-0.541-0.829-1.047-1.307-1.512
		c-0.093-0.091-0.201-0.186-0.332-0.188c-0.333-0.005-0.348,0.524-0.139,0.783s0.538,0.494,0.508,0.826
		c-0.035,0.401,0.278,0.768,0.648,0.927C50.869,69.698,51.285,69.697,51.688,69.692 M76.826,47.05
		c-0.877-0.384-1.954-0.051-2.628,0.63c-0.674,0.68-0.997,1.641-1.114,2.591c-0.034,0.279,0.044,0.671,0.325,0.663
		C74.295,49.443,75.46,48.119,76.826,47.05 M50.497,60.026c-0.446-0.165-0.919,0.339-0.881,0.813
		c0.038,0.474,0.413,0.853,0.814,1.108c0.602,0.382,1.339,0.586,2.04,0.454c0.701-0.132,1.346-0.636,1.547-1.32
		c-0.39-0.229-1.019-0.362-1.184,0.058c-0.205,0.523-0.975,0.598-1.439,0.281C50.93,61.104,50.701,60.549,50.497,60.026
		 M73.897,45.895c0.132,0.074,0.295,0.044,0.443,0.013c0.36-0.077,0.72-0.155,1.08-0.232c1.124-0.241,1.614-1.895,0.802-2.71
		c-0.703,0.649-1.405,1.297-2.108,1.946C73.825,45.179,73.553,45.702,73.897,45.895 M85.671,89.246
		c-0.102-0.009-0.2,0.041-0.291,0.089c-0.777,0.416-1.554,0.832-2.331,1.247c0.569,0.667,1.214,1.378,2.081,1.511
		c0.247-0.68,0.494-1.359,0.741-2.039C85.982,89.752,85.994,89.276,85.671,89.246 M37.914,100.87
		c0.358,0.592,1.272,0.315,1.842-0.077c0.763-0.525,1.463-1.141,2.081-1.83c0.168-0.187,0.323-0.5,0.127-0.657
		c-0.158-0.126-0.388-0.01-0.554,0.107C40.245,99.232,39.079,100.051,37.914,100.87 M80.005,89.622
		c-0.469-0.523-0.939-1.047-1.408-1.57c-0.208-0.232-0.439-0.477-0.745-0.531c-0.54-0.095-0.968,0.429-1.265,0.89
		c0.7,0.195,1.364,0.521,1.947,0.956C78.982,89.703,79.682,90.079,80.005,89.622 M61.438,43.152
		c-1.005,0.031-1.85,1.083-1.663,2.071c0.041,0.216,0.143,0.446,0.347,0.528c0.283,0.113,0.593-0.121,0.736-0.391
		c0.143-0.269,0.195-0.584,0.369-0.834c0.157-0.225,0.402-0.379,0.556-0.606c0.154-0.227,0.169-0.599-0.076-0.724
		C61.626,43.154,61.53,43.149,61.438,43.152 M67.285,44.576c0.005,0.19,0.013,0.391,0.122,0.547
		c0.085,0.122,0.229,0.202,0.378,0.209c0.768-1.078,0.959-2.544,0.491-3.783C67.332,42.143,67.256,43.463,67.285,44.576
		 M41.944,56.182c-0.373-0.656-1.134-0.969-1.839-1.236c-0.9-0.341-1.829-0.688-2.791-0.668c-0.177,0.307,0.225,0.618,0.558,0.741
		C39.196,55.511,40.559,55.9,41.944,56.182 M71.915,49.166c0.266-0.425,0.437-0.91,0.497-1.408c-0.15-0.215-0.482-0.035-0.667,0.151
		c-0.219,0.221-0.438,0.442-0.658,0.663c-0.324,0.327-0.674,0.726-0.605,1.181c0.065,0.433,0.575,0.736,0.986,0.587
		s0.609-0.708,0.382-1.082 M61.863,40.239c-0.034-0.277-0.357-0.446-0.633-0.402c-0.276,0.043-0.502,0.238-0.689,0.446
		c-0.218,0.242-0.405,0.512-0.554,0.801c-0.172,0.333-0.229,0.85,0.121,0.983c0.194,0.074,0.409-0.028,0.582-0.144
		c0.479-0.323,0.864-0.785,1.094-1.315C61.835,40.49,61.879,40.365,61.863,40.239 M70.86,69.641
		c-0.099-0.258-0.466-0.321-0.706-0.184c-0.24,0.136-0.374,0.402-0.466,0.663c-0.266,0.756-0.289,1.597-0.062,2.366
		c0.603-0.696,1.029-1.542,1.229-2.441C70.885,69.911,70.909,69.768,70.86,69.641 M45.048,61.513
		c0.392,0.194,0.785,0.388,1.177,0.582c0.211,0.105,0.587,0.105,0.558-0.129c-0.756-0.514-1.398-1.195-1.865-1.981
		c-0.169-0.284-0.651-0.223-0.82,0.059c-0.17,0.283-0.074,0.664,0.138,0.917C44.448,61.214,44.753,61.367,45.048,61.513
		 M38.892,64.577c0.04,0.315,0.352,0.538,0.666,0.583s0.63-0.048,0.933-0.14c0.304-0.092,0.609-0.184,0.913-0.276
		c-0.469-0.253-0.846-0.678-1.354-0.842S38.825,64.048,38.892,64.577 M57.757,39.978c-0.071,0.32-0.118,0.646-0.139,0.974
		c-0.022,0.342,0.107,0.809,0.448,0.781c0.421-0.555,0.683-1.23,0.748-1.924c0.017-0.176,0.014-0.373-0.105-0.504
		c-0.162-0.179-0.473-0.137-0.65,0.027C57.883,39.497,57.809,39.743,57.757,39.978 M5.854,68.086
		c0.153-0.565,0.306-1.131,0.459-1.696c-0.571-0.116-1.254,0.153-1.428,0.709C4.711,67.656,5.326,68.334,5.854,68.086
		 M57.654,32.561c0.094-0.414,0.189-0.828,0.284-1.242c0.042-0.182,0.07-0.407-0.076-0.525c-0.246-0.199-0.554,0.159-0.666,0.455
		c-0.093,0.244-0.186,0.488-0.279,0.732c-0.089,0.234-0.18,0.485-0.127,0.73c0.053,0.245,0.314,0.462,0.548,0.37
		C57.535,33.004,57.607,32.768,57.654,32.561 M71.583,95.465c0.024,0.104,0.062,0.217,0.155,0.27
		c0.083,0.048,0.198,0.03,0.262-0.041c0.32-0.935,0.498-1.919,0.526-2.907C71.74,93.405,71.357,94.492,71.583,95.465 M45.956,49.747
		c-0.74-0.659-1.628-1.151-2.578-1.431C43.695,49.356,44.906,50.028,45.956,49.747 M105.387,100.118
		c-0.538-0.447-1.077-0.894-1.615-1.34c-0.217-0.18-0.505-0.37-0.757-0.245C103.284,99.536,104.357,100.253,105.387,100.118
		 M52.377,58.068c-0.217-0.307-0.799-0.175-0.861,0.196c0.465,0.454,1.018,0.818,1.62,1.065c0.21,0.086,0.405-0.217,0.322-0.428
		c-0.083-0.211-0.306-0.326-0.507-0.431c-0.201-0.106-0.417-0.248-0.458-0.471 M50.941,53.743c-0.303,0.031-0.606,0.062-0.909,0.092
		c-0.091,0.356,0.01,0.773,0.303,0.996c0.293,0.223,0.773,0.181,0.976-0.125s-0.009-0.81-0.376-0.829 M64.955,89.072
		c-0.391-0.529-1.43-0.11-1.345,0.542c0.18,0.314,0.603,0.464,0.94,0.331c0.337-0.132,0.546-0.529,0.464-0.882 M91.13,74.772
		c-0.271-0.359-0.909,0.085-0.824,0.526c0.085,0.442,0.554,0.694,0.988,0.811c0.382-0.353,0.265-1.088-0.208-1.305 M48.541,58.114
		c-0.352,0.11-0.665,0.344-0.869,0.651c-0.088,0.132-0.158,0.287-0.135,0.444c0.054,0.38,0.623,0.471,0.919,0.227
		c0.296-0.244,0.381-0.656,0.448-1.034c-0.1-0.09-0.2-0.18-0.301-0.27 M56.669,50.132c-0.465,0.101-0.335,0.939,0.138,0.991
		c0.473,0.052,0.842-0.515,0.727-0.977c-0.056-0.224-0.189-0.42-0.319-0.61c-0.203,0.133-0.405,0.266-0.608,0.399 M100.054,77.617
		c0.23,0.287,0.686,0.165,1.024,0.018c0.328-0.143,0.684-0.314,0.826-0.641C101.28,76.573,100.296,76.905,100.054,77.617
		 M63.62,55.002c0.219,0.116,0.53-0.058,0.546-0.305c0.021-0.353-0.221-0.718-0.567-0.79c-0.346-0.072-0.736,0.211-0.732,0.564
		c0.004,0.353,0.46,0.626,0.754,0.429 M44.335,66.306c-0.224,0.16-0.325,0.473-0.236,0.734c0.286,0.159,0.653,0.212,0.94,0.054
		c0.287-0.158,0.436-0.565,0.252-0.836c-0.184-0.271-0.697-0.224-0.772,0.095 M35.217,36.722c0.167-0.298-0.148-0.713-0.487-0.671
		s-0.554,0.458-0.435,0.778c0.12,0.32,0.503,0.497,0.838,0.431c0.243-0.048,0.391-0.483,0.144-0.468 M95.898,87.362
		c0.337-0.423-0.013-1.174-0.554-1.188c-0.26,0.157-0.375,0.518-0.252,0.796c0.123,0.278,0.466,0.437,0.758,0.351 M80.008,75.208
		c-0.292,0.233-0.21,0.78,0.138,0.917c0.348,0.137,0.781-0.208,0.725-0.578C80.816,75.177,80.301,74.975,80.008,75.208
		 M102.857,75.381c0.166,0.322,0.702,0.226,0.889-0.084c0.188-0.31,0.135-0.703,0.076-1.06c-0.47,0.197-0.831,0.636-0.933,1.136
		 M57.454,61.34c0.328,0.135,0.744-0.187,0.696-0.538c-0.047-0.351-0.533-0.551-0.814-0.334
		C57.055,60.685,57.125,61.206,57.454,61.34 M80.07,21.04c0.188-0.154,0.272-0.424,0.204-0.657c-0.659-0.03-1.125,0.889-0.711,1.403
		c0.187-0.232,0.373-0.464,0.56-0.696 M88.802,86.818c0.026-0.292-0.251-0.573-0.543-0.552c-0.293,0.022-0.525,0.341-0.456,0.626
		c0.293,0.158,0.675,0.133,0.945-0.061 M50.543,48.081c0.112,0.279,0.552,0.342,0.737,0.106c0.186-0.236,0.02-0.649-0.277-0.692
		C50.706,47.453,50.431,47.802,50.543,48.081 M57.277,95.696c-0.21,0.282-0.219,0.697-0.022,0.987
		c0.413-0.393,0.534-1.062,0.283-1.574c-0.245-0.026-0.28,0.347-0.212,0.584 M101.235,91.158c0.095-0.29-0.229-0.618-0.521-0.531
		c-0.292,0.087-0.387,0.532-0.159,0.735c0.228,0.202,0.655,0.061,0.721-0.237 M56.337,40.259c-0.096-0.122-0.191-0.245-0.287-0.368
		c-0.198,0.192-0.41,0.411-0.429,0.687c-0.019,0.276,0.291,0.565,0.525,0.418c0.206-0.129,0.164-0.437,0.096-0.67 M59.371,66.377
		c0.07,0.253,0.354,0.426,0.611,0.371c0.097-0.29,0.11-0.668-0.141-0.843c-0.251-0.175-0.677,0.213-0.439,0.406 M41.709,66.729
		c0.101,0.134,0.256,0.227,0.423,0.253c0.134-0.101,0.227-0.255,0.253-0.421c-0.129-0.153-0.313-0.291-0.51-0.261
		c-0.198,0.03-0.328,0.321-0.167,0.439 M58.189,48.267c0.017-0.231-0.379-0.272-0.502-0.075c-0.123,0.197-0.052,0.452,0.023,0.672
		c0.283-0.005,0.51-0.329,0.419-0.597 M85.684,77.143c0.146,0.039,0.308,0.012,0.434-0.07c-0.001-0.402-0.689-0.541-0.846-0.17
		c0.094,0.135,0.247,0.226,0.41,0.244 M53.658,52.244c-0.182,0.263-0.102,0.669,0.166,0.844c0.134-0.102,0.226-0.257,0.253-0.423
		c-0.141-0.141-0.282-0.282-0.423-0.424 M79.243,23.78c0.108-0.149,0.047-0.39-0.119-0.47c-0.166-0.08-0.392,0.024-0.44,0.202
		c0.069,0.231,0.344,0.378,0.574,0.305 M31.831,45.254c0.23,0.255,0.603,0.372,0.937,0.293c-0.195-0.278-0.56-0.425-0.892-0.359
		 M91.673,67.417c-0.079-0.266-0.54-0.274-0.628-0.01c0.087,0.264,0.549,0.258,0.629-0.008 M22.603,77.307
		c-0.229-0.104-0.458-0.208-0.686-0.312c-0.035,0.31,0.375,0.565,0.638,0.395L22.603,77.307z"/>
</g>
</svg>